<?xml version="1.0" encoding="UTF-8" standalone="no"?>
<!-- Created with Inkscape (http://www.inkscape.org/) -->

<svg
   version="1.1"
   id="svg1"
   width="634.61334"
   height="94.893333"
   viewBox="0 0 634.61334 94.893333"
   sodipodi:docname="01_1D_2hidden_mlp.pdf"
   xmlns:inkscape="http://www.inkscape.org/namespaces/inkscape"
   xmlns:sodipodi="http://sodipodi.sourceforge.net/DTD/sodipodi-0.dtd"
   xmlns="http://www.w3.org/2000/svg"
   xmlns:svg="http://www.w3.org/2000/svg">
  <defs
     id="defs1" />
  <sodipodi:namedview
     id="namedview1"
     pagecolor="#ffffff"
     bordercolor="#000000"
     borderopacity="0.25"
     inkscape:showpageshadow="2"
     inkscape:pageopacity="0.0"
     inkscape:pagecheckerboard="0"
     inkscape:deskcolor="#d1d1d1">
    <inkscape:page
       x="0"
       y="0"
       inkscape:label="1"
       id="page1"
       width="634.61334"
       height="94.893333"
       margin="0"
       bleed="0" />
  </sodipodi:namedview>
  <g
     id="g1"
     inkscape:groupmode="layer"
     inkscape:label="1">
    <path
       id="path1"
       d="m 21.28471,0 c 0,11.75536 -9.52935,21.28471 -21.28471,21.28471 -11.75536,0 -21.28471,-9.52935 -21.28471,-21.28471 0,-11.75536 9.52935,-21.28471 21.28471,-21.28471 11.75536,0 21.28471,9.52935 21.28471,21.28471 z"
       style="fill:none;stroke:#000000;stroke-width:1.59404;stroke-linecap:butt;stroke-linejoin:miter;stroke-miterlimit:10;stroke-dasharray:none;stroke-opacity:1"
       transform="matrix(1.3333333,0,0,-1.3333333,42.725333,47.448)" />
    <g
       id="g2"
       aria-label="Inputx"
       transform="matrix(1.3333333,0,0,1.3333333,20.657333,50.696)">
      <path
         id="path2"
         d="M 3.3155937,-5.15625e-4 V -0.30520312 H 3.0577812 c -0.7851562,0 -0.8203125,-0.1171875 -0.8203125,-0.46875 V -6.0239531 c 0,-0.3632813 0.035156,-0.46875 0.8203125,-0.46875 h 0.2578125 v -0.3164063 c -0.3515625,0.035156 -1.1367187,0.035156 -1.5117187,0.035156 -0.3867188,0 -1.171875,0 -1.5234375,-0.035156 v 0.3164063 H 0.53825 c 0.7851562,0 0.8203125,0.1054687 0.8203125,0.46875 v 5.24999998 c 0,0.3515625 -0.035156,0.46875 -0.8203125,0.46875 H 0.2804375 V -5.15625e-4 C 0.632,-0.03567187 1.4171562,-0.03567187 1.7921562,-0.03567187 c 0.3867188,0 1.171875,0 1.5234375,0.035156245 z m 5.6132813,0 V -0.30520312 c -0.515625,0 -0.7734375,0 -0.7851563,-0.3046875 V -2.5083281 c 0,-0.8554688 0,-1.171875 -0.3046875,-1.5234375 -0.140625,-0.1757813 -0.46875,-0.375 -1.0429687,-0.375 -0.7265625,0 -1.1953125,0.4335937 -1.4765625,1.0546875 v -1.0546875 l -1.40625,0.1171875 v 0.3046875 c 0.703125,0 0.7851562,0.070312 0.7851562,0.5625 v 2.66015623 c 0,0.45703125 -0.1171875,0.45703125 -0.7851562,0.45703125 v 0.304687495 l 1.125,-0.035156245 1.1132812,0.035156245 V -0.30520312 c -0.65625,0 -0.7734375,0 -0.7734375,-0.45703125 V -2.5903594 c 0,-1.03125 0.7148438,-1.59375 1.3476563,-1.59375 0.6210937,0 0.7382812,0.5390625 0.7382812,1.1015625 v 2.32031253 c 0,0.45703125 -0.1171875,0.45703125 -0.7734375,0.45703125 v 0.304687495 l 1.125,-0.035156245 z M 14.328289,-2.1567656 c 0,-1.265625 -0.972656,-2.25 -2.085937,-2.25 -0.773438,0 -1.195313,0.4453125 -1.394532,0.65625 v -0.65625 l -1.4296872,0.1171875 v 0.3046875 c 0.7031252,0 0.7734372,0.058594 0.7734372,0.4921875 v 4.6640625 c 0,0.4570312 -0.105468,0.4570312 -0.7734372,0.4570312 v 0.3046875 l 1.1132812,-0.035156 1.125,0.035156 V 1.6283906 c -0.667969,0 -0.773437,0 -0.773437,-0.4570312 v -1.75781252 c 0.04687,0.15234375 0.46875,0.69140625 1.21875,0.69140625 1.183593,0 2.226562,-0.97265625 2.226562,-2.26171873 z m -0.832031,0 c 0,1.20703123 -0.691406,2.05078123 -1.429688,2.05078123 -0.398437,0 -0.773437,-0.19921875 -1.042968,-0.609375 -0.140625,-0.2109375 -0.140625,-0.22265625 -0.140625,-0.42187503 v -2.2148437 c 0.28125,-0.515625 0.773437,-0.796875 1.277343,-0.796875 0.726563,0 1.335938,0.8671875 1.335938,1.9921875 z m 6.509765,2.156249975 V -0.30520312 c -0.703125,0 -0.785156,-0.0703125 -0.785156,-0.5625 V -4.4067656 l -1.453125,0.1171875 v 0.3046875 c 0.691406,0 0.773438,0.070312 0.773438,0.5625 v 1.7695312 c 0,0.86718753 -0.480469,1.54687503 -1.207032,1.54687503 -0.832031,0 -0.878906,-0.46875 -0.878906,-0.99609373 v -3.3046875 l -1.464844,0.1171875 v 0.3046875 c 0.785157,0 0.785157,0.035156 0.785157,0.9140625 v 1.5 c 0,0.77343748 0,1.67578123 1.511718,1.67578123 0.550782,0 0.996094,-0.26953125 1.277344,-0.890625 v 0.890625 z M 23.518719,-1.2309844 v -0.5742187 h -0.246094 v 0.5507812 c 0,0.73828128 -0.304688,1.11328128 -0.667969,1.11328128 -0.667969,0 -0.667969,-0.90234378 -0.667969,-1.07812498 v -2.765625 h 1.429688 v -0.3046875 h -1.429688 v -1.8398438 h -0.246093 c -0.01172,0.8203125 -0.316407,1.8867188 -1.289063,1.921875 v 0.2226563 h 0.84375 v 2.7539062 c 0,1.21875003 0.925781,1.33593753 1.289063,1.33593753 0.703125,0 0.984375,-0.703125 0.984375,-1.33593753 z m 0,0"
         style="fill:#000000;fill-opacity:1;fill-rule:nonzero;stroke:none" />
      <path
         id="path3"
         d="m 30.734539,-3.0122344 c 0.05859,-0.2578125 0.292969,-1.171875 0.984375,-1.171875 0.04687,0 0.292969,0 0.503906,0.1289063 -0.28125,0.046875 -0.480468,0.3046875 -0.480468,0.5390625 0,0.1640625 0.105468,0.3515625 0.375,0.3515625 0.222656,0 0.539062,-0.1875 0.539062,-0.5859375 0,-0.515625 -0.585937,-0.65625 -0.925781,-0.65625 -0.574219,0 -0.925781,0.5273437 -1.042969,0.7617187 -0.257812,-0.65625 -0.785156,-0.7617187 -1.078125,-0.7617187 -1.042969,0 -1.605469,1.2890625 -1.605469,1.5351562 0,0.1054688 0.105469,0.1054688 0.117188,0.1054688 0.08203,0 0.117187,-0.023437 0.128906,-0.1171875 0.339844,-1.0546875 0.996094,-1.3007813 1.335938,-1.3007813 0.1875,0 0.539062,0.09375 0.539062,0.6679688 0,0.3046875 -0.164062,0.9726562 -0.539062,2.3671875 -0.152344,0.62109373 -0.503907,1.04296873 -0.949219,1.04296873 -0.05859,0 -0.28125,0 -0.492188,-0.12890625 0.246094,-0.0585938 0.46875,-0.26953125 0.46875,-0.5390625 0,-0.26953128 -0.222656,-0.35156248 -0.375,-0.35156248 -0.292968,0 -0.539062,0.25781248 -0.539062,0.57421873 0,0.45703125 0.492187,0.65625 0.9375,0.65625 0.65625,0 1.007812,-0.69140625 1.042969,-0.75 0.117187,0.36328125 0.480468,0.75 1.078125,0.75 1.019531,0 1.59375,-1.27734373 1.59375,-1.53515623 0,-0.09375 -0.09375,-0.09375 -0.128907,-0.09375 -0.08203,0 -0.105468,0.035156 -0.128906,0.1054687 -0.328125,1.06640628 -0.996094,1.31250003 -1.324219,1.31250003 -0.386718,0 -0.539062,-0.328125 -0.539062,-0.65625 0,-0.22265625 0.05859,-0.44531253 0.164062,-0.87890623 z m 0,0"
         style="fill:#000000;fill-opacity:1;fill-rule:nonzero;stroke:none" />
    </g>
    <path
       id="path4"
       d="m 42.80429,-8.30194 h 89.77467 V 8.30196 H 42.80429 Z"
       style="fill:none;stroke:#000000;stroke-width:1.59404;stroke-linecap:butt;stroke-linejoin:miter;stroke-miterlimit:10;stroke-dasharray:none;stroke-opacity:1"
       transform="matrix(1.3333333,0,0,-1.3333333,42.725333,47.448)" />
    <g
       id="g4"
       aria-label="h&#10;0&#10;=σ(ω&#10;0&#10;·x+β&#10;0&#10;)"
       transform="matrix(1.3333333,0,0,1.3333333,104.22533,50.769333)">
      <path
         id="path5"
         d="m 2.8602969,-6.8084453 c 0,0 0,-0.1054688 -0.1289063,-0.1054688 -0.234375,0 -0.9609375,0.082031 -1.21875,0.1054688 -0.082031,0 -0.1875,0.011719 -0.1875,0.1992187 0,0.1171875 0.09375,0.1171875 0.234375,0.1171875 0.4804688,0 0.5039063,0.070312 0.5039063,0.1640625 l -0.035156,0.1992188 -1.44140623,5.74218749 c -0.0351563,0.140625 -0.0351563,0.15234375 -0.0351563,0.22265625 0,0.22265625 0.19921875,0.26953125 0.28125,0.26953125 0.1640625,0 0.32812493,-0.1171875 0.37499993,-0.2578125 l 0.1875,-0.75 0.2226563,-0.90234379 c 0.058594,-0.2226562 0.1171875,-0.4335937 0.1640625,-0.6679687 0.023437,-0.058594 0.1054687,-0.3867188 0.1171875,-0.4453125 0.023437,-0.09375 0.328125,-0.6445313 0.6679687,-0.9140625 0.2226563,-0.1640625 0.5273438,-0.3515625 0.9609375,-0.3515625 0.421875,0 0.5390625,0.3398437 0.5390625,0.6914062 0,0.5390625 -0.375,1.6289063 -0.6210937,2.2382813 -0.082031,0.2226562 -0.1289063,0.35156249 -0.1289063,0.55078124 0,0.46875 0.3515625,0.80859375 0.8203125,0.80859375 0.9375,0 1.3007813,-1.45312499 1.3007813,-1.53515629 0,-0.09375 -0.09375,-0.09375 -0.1171875,-0.09375 -0.1054688,0 -0.1054688,0.023437 -0.1523438,0.1757813 -0.1523437,0.52734374 -0.46875,1.24218749 -1.0195312,1.24218749 -0.1640625,0 -0.234375,-0.10546875 -0.234375,-0.328125 0,-0.2578125 0.09375,-0.4921875 0.1757812,-0.71484379 0.1640625,-0.421875 0.609375,-1.6054687 0.609375,-2.1914062 0,-0.6445313 -0.3984375,-1.0664063 -1.1484375,-1.0664063 -0.6210937,0 -1.1015625,0.3164063 -1.4648437,0.7734375 z m 0,0"
         style="fill:#000000;fill-opacity:1;fill-rule:nonzero;stroke:none" />
      <path
         id="path6"
         d="m 9.3378359,-0.73227344 c 0,-0.76171876 -0.09375,-1.31249996 -0.4101562,-1.80468746 -0.2226563,-0.3164063 -0.6445313,-0.5976563 -1.2070313,-0.5976563 -1.6171875,0 -1.6171875,1.8984375 -1.6171875,2.40234376 0,0.50390625 0,2.36718754 1.6171875,2.36718754 1.6171875,0 1.6171875,-1.86328129 1.6171875,-2.36718754 z M 7.7206484,1.4356953 c -0.3164062,0 -0.75,-0.1875 -0.890625,-0.76171874 -0.09375,-0.41015625 -0.09375,-0.984375 -0.09375,-1.5 0,-0.50390626 0,-1.03124996 0.1054688,-1.41796876 0.1523437,-0.5507812 0.5976562,-0.6914062 0.8789062,-0.6914062 0.375,0 0.7382813,0.2226562 0.8671875,0.6328125 0.1054688,0.375 0.1171875,0.8789062 0.1171875,1.47656246 0,0.515625 0,1.04296875 -0.09375,1.4765625 C 8.4706484,1.2833516 8.0018984,1.4356953 7.7206484,1.4356953 Z m 0,0"
         style="fill:#000000;fill-opacity:1;fill-rule:nonzero;stroke:none" />
      <path
         id="path7"
         d="m 19.820258,-3.2576641 c 0.152344,0 0.339844,0 0.339844,-0.1992187 0,-0.1992188 -0.1875,-0.1992188 -0.328125,-0.1992188 h -5.964844 c -0.140625,0 -0.328125,0 -0.328125,0.1992188 0,0.1992187 0.1875,0.1992187 0.339844,0.1992187 z m 0.01172,1.9335938 c 0.140625,0 0.328125,0 0.328125,-0.1992188 0,-0.1992187 -0.1875,-0.1992187 -0.339844,-0.1992187 h -5.941406 c -0.152344,0 -0.339844,0 -0.339844,0.1992187 0,0.1992188 0.1875,0.1992188 0.328125,0.1992188 z m 0,0"
         style="fill:#000000;fill-opacity:1;fill-rule:nonzero;stroke:none" />
      <path
         id="path8"
         d="m 28.650336,-3.7146953 c 0.128906,0 0.492187,0 0.492187,-0.3398438 0,-0.234375 -0.210937,-0.234375 -0.386718,-0.234375 h -2.273438 c -1.5,0 -2.613281,1.640625 -2.613281,2.8242188 0,0.87890624 0.585937,1.57031249 1.5,1.57031249 1.171875,0 2.496094,-1.20703129 2.496094,-2.73046879 0,-0.1757812 0,-0.65625 -0.304688,-1.0898437 z m -3.269531,3.60937499 c -0.492188,0 -0.890625,-0.36328125 -0.890625,-1.07812499 0,-0.3046875 0.117187,-1.1132813 0.46875,-1.7109375 0.421875,-0.6796875 1.019531,-0.8203125 1.359375,-0.8203125 0.832031,0 0.914062,0.65625 0.914062,0.9609375 0,0.46875 -0.199219,1.2890625 -0.539062,1.79296874 -0.386719,0.59765625 -0.925782,0.85546875 -1.3125,0.85546875 z m 0,0"
         style="fill:#000000;fill-opacity:1;fill-rule:nonzero;stroke:none" />
      <path
         id="path9"
         d="m 32.836859,2.3907734 c 0,-0.035156 0,-0.046875 -0.164062,-0.2226562 -1.242188,-1.25390626 -1.570313,-3.12890626 -1.570313,-4.6640625 0,-1.7226563 0.386719,-3.4570313 1.605469,-4.7109375 0.128906,-0.1171875 0.128906,-0.1289063 0.128906,-0.1640625 0,-0.070312 -0.03516,-0.1054688 -0.09375,-0.1054688 -0.105468,0 -0.996093,0.6796875 -1.582031,1.9453125 -0.515625,1.1015625 -0.632812,2.203125 -0.632812,3.0351563 0,0.7851562 0.117187,1.99218749 0.65625,3.11718749 0.597656,1.21875001 1.453125,1.87500001 1.558593,1.87500001 0.05859,0 0.09375,-0.035156 0.09375,-0.1054688 z m 0,0"
         style="fill:#000000;fill-opacity:1;fill-rule:nonzero;stroke:none" />
      <path
         id="path10"
         d="m 39.440375,-3.7029766 c 0,-0.4453125 -0.175781,-0.703125 -0.398438,-0.703125 -0.257812,0 -0.527343,0.2460938 -0.527343,0.46875 0,0.1054688 0.04687,0.2109375 0.152343,0.3046875 0.164063,0.140625 0.351563,0.4101563 0.351563,0.8320313 0,0.3984375 -0.1875,0.9726562 -0.503906,1.4296875 -0.292969,0.42187499 -0.667969,0.76171874 -1.136719,0.76171874 -0.5625,0 -0.867188,-0.3515625 -0.960938,-0.89062504 0.105469,-0.2578125 0.339844,-0.9023437 0.339844,-1.1835937 0,-0.1171875 -0.04687,-0.2109375 -0.1875,-0.2109375 -0.07031,0 -0.1875,0.011719 -0.257812,0.1640625 -0.117188,0.1992187 -0.234375,0.84375 -0.234375,1.2070312 -0.328125,0.46875 -0.726563,0.91406254 -1.359375,0.91406254 -0.65625,0 -0.867188,-0.58593754 -0.867188,-1.14843754 0,-1.2421875 1.019531,-2.2851562 1.019531,-2.4140625 0,-0.1171875 -0.08203,-0.1875 -0.1875,-0.1875 -0.128906,0 -0.199218,0.1289063 -0.257812,0.2109375 -0.503906,0.7382813 -0.890625,1.921875 -0.890625,2.8359375 0,0.67968754 0.234375,1.41796879 1.042969,1.41796879 0.714843,0 1.183593,-0.4921875 1.535156,-1.04296875 0.09375,0.57421875 0.480469,1.04296875 1.101562,1.04296875 0.773438,0 1.253907,-0.609375 1.617188,-1.34765629 0.234375,-0.4921875 0.609375,-1.8515625 0.609375,-2.4609375 z m 0,0"
         style="fill:#000000;fill-opacity:1;fill-rule:nonzero;stroke:none" />
      <path
         id="path11"
         d="m 43.216742,-0.73227344 c 0,-0.76171876 -0.09375,-1.31249996 -0.410156,-1.80468746 -0.222656,-0.3164063 -0.644531,-0.5976563 -1.207031,-0.5976563 -1.617188,0 -1.617188,1.8984375 -1.617188,2.40234376 0,0.50390625 0,2.36718754 1.617188,2.36718754 1.617187,0 1.617187,-1.86328129 1.617187,-2.36718754 z M 41.599555,1.4356953 c -0.316407,0 -0.75,-0.1875 -0.890625,-0.76171874 -0.09375,-0.41015625 -0.09375,-0.984375 -0.09375,-1.5 0,-0.50390626 0,-1.03124996 0.105468,-1.41796876 0.152344,-0.5507812 0.597657,-0.6914062 0.878907,-0.6914062 0.375,0 0.738281,0.2226562 0.867187,0.6328125 0.105469,0.375 0.117188,0.8789062 0.117188,1.47656246 0,0.515625 0,1.04296875 -0.09375,1.4765625 C 42.349555,1.2833516 41.880805,1.4356953 41.599555,1.4356953 Z m 0,0"
         style="fill:#000000;fill-opacity:1;fill-rule:nonzero;stroke:none" />
      <path
         id="path12"
         d="m 48.211859,-2.4959453 c 0,-0.28125 -0.234375,-0.5273438 -0.527343,-0.5273438 -0.28125,0 -0.527344,0.2460938 -0.527344,0.5273438 0,0.2929687 0.246094,0.5390625 0.527344,0.5390625 0.292968,0 0.527343,-0.2460938 0.527343,-0.5390625 z m 0,0"
         style="fill:#000000;fill-opacity:1;fill-rule:nonzero;stroke:none" />
      <path
         id="path13"
         d="m 54.610297,-3.0115703 c 0.05859,-0.2578125 0.292969,-1.171875 0.984375,-1.171875 0.04687,0 0.292969,0 0.503906,0.1289062 -0.28125,0.046875 -0.480469,0.3046875 -0.480469,0.5390625 0,0.1640625 0.105469,0.3515625 0.375,0.3515625 0.222657,0 0.539063,-0.1875 0.539063,-0.5859375 0,-0.515625 -0.585938,-0.65625 -0.925781,-0.65625 -0.574219,0 -0.925782,0.5273438 -1.042969,0.7617188 -0.257813,-0.65625 -0.785156,-0.7617188 -1.078125,-0.7617188 -1.042969,0 -1.605469,1.2890625 -1.605469,1.5351563 0,0.1054687 0.105469,0.1054687 0.117188,0.1054687 0.08203,0 0.117187,-0.023437 0.128906,-0.1171875 0.339844,-1.0546875 0.996094,-1.3007812 1.335937,-1.3007812 0.1875,0 0.539063,0.09375 0.539063,0.6679687 0,0.3046875 -0.164063,0.9726563 -0.539063,2.3671875 -0.152343,0.62109379 -0.503906,1.04296879 -0.949218,1.04296879 -0.05859,0 -0.28125,0 -0.492188,-0.12890625 0.246094,-0.0585937 0.46875,-0.26953125 0.46875,-0.5390625 0,-0.26953124 -0.222656,-0.35156254 -0.375,-0.35156254 -0.292969,0 -0.539062,0.25781254 -0.539062,0.57421879 0,0.45703125 0.492187,0.65625 0.9375,0.65625 0.65625,0 1.007812,-0.69140625 1.042968,-0.75 0.117188,0.36328125 0.480469,0.75 1.078125,0.75 1.019532,0 1.59375,-1.27734379 1.59375,-1.53515629 0,-0.09375 -0.09375,-0.09375 -0.128906,-0.09375 -0.08203,0 -0.105469,0.035156 -0.128906,0.1054688 -0.328125,1.06640624 -0.996094,1.31249999 -1.324219,1.31249999 -0.386719,0 -0.539062,-0.328125 -0.539062,-0.65625 0,-0.22265625 0.05859,-0.44531249 0.164062,-0.87890629 z m 0,0"
         style="fill:#000000;fill-opacity:1;fill-rule:nonzero;stroke:none" />
      <path
         id="path14"
         d="m 63.270453,-2.2967266 h 2.777344 c 0.140625,0 0.328125,0 0.328125,-0.1992187 0,-0.1992188 -0.1875,-0.1992188 -0.328125,-0.1992188 h -2.777344 v -2.7890625 c 0,-0.1289062 0,-0.328125 -0.199219,-0.328125 -0.199218,0 -0.199218,0.1992188 -0.199218,0.328125 v 2.7890625 h -2.789063 c -0.140625,0 -0.328125,0 -0.328125,0.1992188 0,0.1992187 0.1875,0.1992187 0.328125,0.1992187 h 2.789063 v 2.80078129 c 0,0.12890625 0,0.328125 0.199218,0.328125 0.199219,0 0.199219,-0.19921875 0.199219,-0.328125 z m 0,0"
         style="fill:#000000;fill-opacity:1;fill-rule:nonzero;stroke:none" />
      <path
         id="path15"
         d="m 74.883734,-5.6717266 c 0,-0.7382812 -0.550781,-1.359375 -1.359375,-1.359375 -0.574218,0 -0.855468,0.1523438 -1.207031,0.421875 -0.539062,0.3984375 -1.089844,1.359375 -1.277344,2.1210938 l -1.582031,6.3164062 c -0.01172,0.046875 0.03516,0.1054688 0.117188,0.1054688 0.08203,0 0.105468,-0.023437 0.117187,-0.046875 l 0.691406,-2.75390626 c 0.199219,0.59765625 0.632813,0.97265625 1.359375,0.97265625 0.726563,0 1.476563,-0.3515625 1.921875,-0.796875 0.480469,-0.45703129 0.796875,-1.08984379 0.796875,-1.82812499 0,-0.7148438 -0.363281,-1.2304688 -0.726562,-1.4882813 0.574219,-0.328125 1.148437,-0.9375 1.148437,-1.6640625 z m -1.792968,1.6523438 c -0.128907,0.058594 -0.246094,0.070312 -0.480469,0.070312 -0.140625,0 -0.339844,0.011719 -0.433594,-0.035156 0.01172,-0.1054687 0.375,-0.082031 0.480469,-0.082031 0.210937,0 0.304687,0 0.433594,0.046875 z m 1.230468,-1.875 c 0,0.6914062 -0.375,1.40625 -0.890625,1.7226562 -0.269531,-0.1054687 -0.46875,-0.1171875 -0.773437,-0.1171875 -0.210938,0 -0.761719,-0.011719 -0.761719,0.3164063 -0.01172,0.28125 0.503906,0.2460937 0.679688,0.2460937 0.375,0 0.527343,-0.011719 0.820312,-0.1289062 0.375,0.3632812 0.433594,0.6679687 0.445313,1.125 0.01172,0.5742187 -0.222657,1.3242187 -0.503907,1.7109375 -0.386718,0.53906249 -1.054687,0.90234374 -1.628906,0.90234374 -0.75,0 -1.125,-0.5859375 -1.125,-1.28906254 0,-0.09375 0,-0.2460937 0.04687,-0.4335937 l 0.632813,-2.5195313 c 0.222656,-0.8554687 0.9375,-2.4492187 2.132812,-2.4492187 0.574219,0 0.925781,0.3164062 0.925781,0.9140625 z m 0,0"
         style="fill:#000000;fill-opacity:1;fill-rule:nonzero;stroke:none" />
      <path
         id="path16"
         d="m 78.387641,-0.73227344 c 0,-0.76171876 -0.09375,-1.31249996 -0.410157,-1.80468746 -0.222656,-0.3164063 -0.644531,-0.5976563 -1.207031,-0.5976563 -1.617187,0 -1.617187,1.8984375 -1.617187,2.40234376 0,0.50390625 0,2.36718754 1.617187,2.36718754 1.617188,0 1.617188,-1.86328129 1.617188,-2.36718754 z M 76.770453,1.4356953 c -0.316406,0 -0.75,-0.1875 -0.890625,-0.76171874 -0.09375,-0.41015625 -0.09375,-0.984375 -0.09375,-1.5 0,-0.50390626 0,-1.03124996 0.105469,-1.41796876 0.152344,-0.5507812 0.597656,-0.6914062 0.878906,-0.6914062 0.375,0 0.738281,0.2226562 0.867188,0.6328125 0.105468,0.375 0.117187,0.8789062 0.117187,1.47656246 0,0.515625 0,1.04296875 -0.09375,1.4765625 C 77.520453,1.2833516 77.051703,1.4356953 76.770453,1.4356953 Z m 0,0"
         style="fill:#000000;fill-opacity:1;fill-rule:nonzero;stroke:none" />
      <path
         id="path17"
         d="m 82.14057,-2.4959453 c 0,-0.7734375 -0.117187,-1.9804688 -0.65625,-3.1054688 -0.597656,-1.21875 -1.464843,-1.875 -1.558593,-1.875 -0.05859,0 -0.105469,0.046875 -0.105469,0.1054688 0,0.035156 0,0.046875 0.199219,0.234375 0.972656,0.984375 1.535156,2.5664062 1.535156,4.640625 0,1.71093749 -0.363281,3.45703124 -1.59375,4.7226562 -0.140625,0.1171875 -0.140625,0.1289063 -0.140625,0.1640625 0,0.058594 0.04687,0.1054688 0.105469,0.1054688 0.09375,0 0.996093,-0.6796875 1.582031,-1.94531251 0.503906,-1.1015625 0.632812,-2.20312499 0.632812,-3.04687499 z m 0,0"
         style="fill:#000000;fill-opacity:1;fill-rule:nonzero;stroke:none" />
    </g>
    <path
       id="path18"
       d="M 154.09856,-8.30194 H 248.3888 V 8.30196 H 154.09856 Z"
       style="fill:none;stroke:#000000;stroke-width:1.59404;stroke-linecap:butt;stroke-linejoin:miter;stroke-miterlimit:10;stroke-dasharray:none;stroke-opacity:1"
       transform="matrix(1.3333333,0,0,-1.3333333,42.725333,47.448)" />
    <g
       id="g18"
       aria-label="h&#10;1&#10;=σ(ω&#10;1&#10;·h&#10;0&#10;+β&#10;1&#10;)"
       transform="matrix(1.3333333,0,0,1.3333333,252.61733,50.769333)">
      <path
         id="path19"
         d="m 2.8592656,-6.8084453 c 0,0 0,-0.1054688 -0.1289062,-0.1054688 -0.234375,0 -0.9609375,0.082031 -1.21875,0.1054688 -0.082031,0 -0.1875,0.011719 -0.1875,0.1992187 0,0.1171875 0.09375,0.1171875 0.234375,0.1171875 0.4804687,0 0.5039062,0.070312 0.5039062,0.1640625 l -0.035156,0.1992188 -1.44140627,5.74218749 c -0.0351563,0.140625 -0.0351563,0.15234375 -0.0351563,0.22265625 0,0.22265625 0.19921875,0.26953125 0.28125,0.26953125 0.1640625,0 0.32812497,-0.1171875 0.37499997,-0.2578125 l 0.1875,-0.75 0.2226562,-0.90234379 c 0.058594,-0.2226562 0.1171875,-0.4335937 0.1640625,-0.6679687 0.023437,-0.058594 0.1054688,-0.3867188 0.1171875,-0.4453125 0.023437,-0.09375 0.328125,-0.6445313 0.6679688,-0.9140625 0.2226562,-0.1640625 0.5273437,-0.3515625 0.9609375,-0.3515625 0.421875,0 0.5390625,0.3398437 0.5390625,0.6914062 0,0.5390625 -0.375,1.6289063 -0.6210938,2.2382813 -0.082031,0.2226562 -0.1289062,0.35156249 -0.1289062,0.55078124 0,0.46875 0.3515625,0.80859375 0.8203125,0.80859375 0.9375,0 1.3007812,-1.45312499 1.3007812,-1.53515629 0,-0.09375 -0.09375,-0.09375 -0.1171875,-0.09375 -0.1054687,0 -0.1054687,0.023437 -0.1523437,0.1757813 -0.1523438,0.52734374 -0.46875,1.24218749 -1.0195313,1.24218749 -0.1640625,0 -0.234375,-0.10546875 -0.234375,-0.328125 0,-0.2578125 0.09375,-0.4921875 0.1757813,-0.71484379 0.1640625,-0.421875 0.609375,-1.6054687 0.609375,-2.1914062 0,-0.6445313 -0.3984375,-1.0664063 -1.1484375,-1.0664063 -0.6210938,0 -1.1015625,0.3164063 -1.4648438,0.7734375 z m 0,0"
         style="fill:#000000;fill-opacity:1;fill-rule:nonzero;stroke:none" />
      <path
         id="path20"
         d="m 8.0711797,-2.9353984 c 0,-0.1875 -0.011719,-0.1992188 -0.2109375,-0.1992188 -0.4453125,0.4335938 -1.078125,0.4453125 -1.359375,0.4453125 v 0.2460938 c 0.1640625,0 0.6210937,0 1.0078125,-0.1875 v 3.55078121 c 0,0.23437499 0,0.32812499 -0.6914063,0.32812499 H 6.5477422 v 0.2460938 c 0.1289062,-0.011719 0.984375,-0.023437 1.2421875,-0.023437 0.2109375,0 1.0898437,0.011719 1.2421875,0.023437 V 1.2481953 H 8.7743047 c -0.703125,0 -0.703125,-0.09375 -0.703125,-0.32812499 z m 0,0"
         style="fill:#000000;fill-opacity:1;fill-rule:nonzero;stroke:none" />
      <path
         id="path21"
         d="m 19.822156,-3.2576641 c 0.152344,0 0.339844,0 0.339844,-0.1992187 0,-0.1992188 -0.1875,-0.1992188 -0.328125,-0.1992188 h -5.964844 c -0.140625,0 -0.328125,0 -0.328125,0.1992188 0,0.1992187 0.1875,0.1992187 0.339844,0.1992187 z m 0.01172,1.9335938 c 0.140625,0 0.328125,0 0.328125,-0.1992188 0,-0.1992187 -0.1875,-0.1992187 -0.339844,-0.1992187 H 13.88075 c -0.152344,0 -0.339844,0 -0.339844,0.1992187 0,0.1992188 0.1875,0.1992188 0.328125,0.1992188 z m 0,0"
         style="fill:#000000;fill-opacity:1;fill-rule:nonzero;stroke:none" />
      <path
         id="path22"
         d="m 28.649305,-3.7146953 c 0.128906,0 0.492187,0 0.492187,-0.3398438 0,-0.234375 -0.210937,-0.234375 -0.386719,-0.234375 h -2.273437 c -1.5,0 -2.613281,1.640625 -2.613281,2.8242188 0,0.87890624 0.585937,1.57031249 1.5,1.57031249 1.171875,0 2.496093,-1.20703129 2.496093,-2.73046879 0,-0.1757812 0,-0.65625 -0.304687,-1.0898437 z m -3.269532,3.60937499 c -0.492187,0 -0.890625,-0.36328125 -0.890625,-1.07812499 0,-0.3046875 0.117188,-1.1132813 0.46875,-1.7109375 0.421875,-0.6796875 1.019532,-0.8203125 1.359375,-0.8203125 0.832032,0 0.914063,0.65625 0.914063,0.9609375 0,0.46875 -0.199219,1.2890625 -0.539063,1.79296874 -0.386718,0.59765625 -0.925781,0.85546875 -1.3125,0.85546875 z m 0,0"
         style="fill:#000000;fill-opacity:1;fill-rule:nonzero;stroke:none" />
      <path
         id="path23"
         d="m 32.835828,2.3907734 c 0,-0.035156 0,-0.046875 -0.164062,-0.2226562 -1.242188,-1.25390626 -1.570313,-3.12890626 -1.570313,-4.6640625 0,-1.7226563 0.386719,-3.4570313 1.605469,-4.7109375 0.128906,-0.1171875 0.128906,-0.1289063 0.128906,-0.1640625 0,-0.070312 -0.03516,-0.1054688 -0.09375,-0.1054688 -0.105469,0 -0.996094,0.6796875 -1.582031,1.9453125 -0.515625,1.1015625 -0.632813,2.203125 -0.632813,3.0351563 0,0.7851562 0.117188,1.99218749 0.65625,3.11718749 0.597657,1.21875001 1.453125,1.87500001 1.558594,1.87500001 0.05859,0 0.09375,-0.035156 0.09375,-0.1054688 z m 0,0"
         style="fill:#000000;fill-opacity:1;fill-rule:nonzero;stroke:none" />
      <path
         id="path24"
         d="m 39.442273,-3.7029766 c 0,-0.4453125 -0.175781,-0.703125 -0.398437,-0.703125 -0.257813,0 -0.527344,0.2460938 -0.527344,0.46875 0,0.1054688 0.04687,0.2109375 0.152344,0.3046875 0.164062,0.140625 0.351562,0.4101563 0.351562,0.8320313 0,0.3984375 -0.1875,0.9726562 -0.503906,1.4296875 -0.292969,0.42187499 -0.667969,0.76171874 -1.136719,0.76171874 -0.5625,0 -0.867187,-0.3515625 -0.960937,-0.89062504 0.105469,-0.2578125 0.339844,-0.9023437 0.339844,-1.1835937 0,-0.1171875 -0.04687,-0.2109375 -0.1875,-0.2109375 -0.07031,0 -0.1875,0.011719 -0.257813,0.1640625 -0.117187,0.1992187 -0.234375,0.84375 -0.234375,1.2070312 -0.328125,0.46875 -0.726562,0.91406254 -1.359375,0.91406254 -0.65625,0 -0.867187,-0.58593754 -0.867187,-1.14843754 0,-1.2421875 1.019531,-2.2851562 1.019531,-2.4140625 0,-0.1171875 -0.08203,-0.1875 -0.1875,-0.1875 -0.128906,0 -0.199219,0.1289063 -0.257813,0.2109375 -0.503906,0.7382813 -0.890625,1.921875 -0.890625,2.8359375 0,0.67968754 0.234375,1.41796879 1.042969,1.41796879 0.714844,0 1.183594,-0.4921875 1.535156,-1.04296875 0.09375,0.57421875 0.480469,1.04296875 1.101563,1.04296875 0.773437,0 1.253906,-0.609375 1.617187,-1.34765629 0.234375,-0.4921875 0.609375,-1.8515625 0.609375,-2.4609375 z m 0,0"
         style="fill:#000000;fill-opacity:1;fill-rule:nonzero;stroke:none" />
      <path
         id="path25"
         d="m 41.950086,-2.9353984 c 0,-0.1875 -0.01172,-0.1992188 -0.210938,-0.1992188 -0.445312,0.4335938 -1.078125,0.4453125 -1.359375,0.4453125 v 0.2460938 c 0.164063,0 0.621094,0 1.007813,-0.1875 v 3.55078121 c 0,0.23437499 0,0.32812499 -0.691406,0.32812499 h -0.269532 v 0.2460938 c 0.128907,-0.011719 0.984375,-0.023437 1.242188,-0.023437 0.210937,0 1.089844,0.011719 1.242187,0.023437 V 1.2481953 h -0.257812 c -0.703125,0 -0.703125,-0.09375 -0.703125,-0.32812499 z m 0,0"
         style="fill:#000000;fill-opacity:1;fill-rule:nonzero;stroke:none" />
      <path
         id="path26"
         d="m 48.210828,-2.4959453 c 0,-0.28125 -0.234375,-0.5273438 -0.527344,-0.5273438 -0.28125,0 -0.527343,0.2460938 -0.527343,0.5273438 0,0.2929687 0.246093,0.5390625 0.527343,0.5390625 0.292969,0 0.527344,-0.2460938 0.527344,-0.5390625 z m 0,0"
         style="fill:#000000;fill-opacity:1;fill-rule:nonzero;stroke:none" />
      <path
         id="path27"
         d="m 54.143445,-6.8084453 c 0,0 0,-0.1054688 -0.128906,-0.1054688 -0.234375,0 -0.960937,0.082031 -1.21875,0.1054688 -0.08203,0 -0.1875,0.011719 -0.1875,0.1992187 0,0.1171875 0.09375,0.1171875 0.234375,0.1171875 0.480469,0 0.503906,0.070312 0.503906,0.1640625 l -0.03516,0.1992188 -1.441406,5.74218749 c -0.03516,0.140625 -0.03516,0.15234375 -0.03516,0.22265625 0,0.22265625 0.199218,0.26953125 0.28125,0.26953125 0.164062,0 0.328125,-0.1171875 0.375,-0.2578125 l 0.1875,-0.75 0.222656,-0.90234379 c 0.05859,-0.2226562 0.117187,-0.4335937 0.164062,-0.6679687 0.02344,-0.058594 0.105469,-0.3867188 0.117188,-0.4453125 0.02344,-0.09375 0.328125,-0.6445313 0.667969,-0.9140625 0.222656,-0.1640625 0.527343,-0.3515625 0.960937,-0.3515625 0.421875,0 0.539063,0.3398437 0.539063,0.6914062 0,0.5390625 -0.375,1.6289063 -0.621094,2.2382813 -0.08203,0.2226562 -0.128906,0.35156249 -0.128906,0.55078124 0,0.46875 0.351562,0.80859375 0.820312,0.80859375 0.9375,0 1.300781,-1.45312499 1.300781,-1.53515629 0,-0.09375 -0.09375,-0.09375 -0.117187,-0.09375 -0.105469,0 -0.105469,0.023437 -0.152344,0.1757813 -0.152344,0.52734374 -0.46875,1.24218749 -1.019531,1.24218749 -0.164063,0 -0.234375,-0.10546875 -0.234375,-0.328125 0,-0.2578125 0.09375,-0.4921875 0.175781,-0.71484379 0.164063,-0.421875 0.609375,-1.6054687 0.609375,-2.1914062 0,-0.6445313 -0.398437,-1.0664063 -1.148437,-1.0664063 -0.621094,0 -1.101563,0.3164063 -1.464844,0.7734375 z m 0,0"
         style="fill:#000000;fill-opacity:1;fill-rule:nonzero;stroke:none" />
      <path
         id="path28"
         d="m 60.620984,-0.73227344 c 0,-0.76171876 -0.09375,-1.31249996 -0.410156,-1.80468746 -0.222656,-0.3164063 -0.644531,-0.5976563 -1.207031,-0.5976563 -1.617188,0 -1.617188,1.8984375 -1.617188,2.40234376 0,0.50390625 0,2.36718754 1.617188,2.36718754 1.617187,0 1.617187,-1.86328129 1.617187,-2.36718754 z M 59.003797,1.4356953 c -0.316406,0 -0.75,-0.1875 -0.890625,-0.76171874 -0.09375,-0.41015625 -0.09375,-0.984375 -0.09375,-1.5 0,-0.50390626 0,-1.03124996 0.105469,-1.41796876 0.152343,-0.5507812 0.597656,-0.6914062 0.878906,-0.6914062 0.375,0 0.738281,0.2226562 0.867187,0.6328125 0.105469,0.375 0.117188,0.8789062 0.117188,1.47656246 0,0.515625 0,1.04296875 -0.09375,1.4765625 C 59.753797,1.2833516 59.285047,1.4356953 59.003797,1.4356953 Z m 0,0"
         style="fill:#000000;fill-opacity:1;fill-rule:nonzero;stroke:none" />
      <path
         id="path29"
         d="m 67.78407,-2.2967266 h 2.777344 c 0.140625,0 0.328125,0 0.328125,-0.1992187 0,-0.1992188 -0.1875,-0.1992188 -0.328125,-0.1992188 H 67.78407 v -2.7890625 c 0,-0.1289062 0,-0.328125 -0.199218,-0.328125 -0.199219,0 -0.199219,0.1992188 -0.199219,0.328125 v 2.7890625 H 64.59657 c -0.140625,0 -0.328125,0 -0.328125,0.1992188 0,0.1992187 0.1875,0.1992187 0.328125,0.1992187 h 2.789063 v 2.80078129 c 0,0.12890625 0,0.328125 0.199219,0.328125 0.199218,0 0.199218,-0.19921875 0.199218,-0.328125 z m 0,0"
         style="fill:#000000;fill-opacity:1;fill-rule:nonzero;stroke:none" />
      <path
         id="path30"
         d="m 79.400281,-5.6717266 c 0,-0.7382812 -0.550781,-1.359375 -1.359375,-1.359375 -0.574218,0 -0.855468,0.1523438 -1.207031,0.421875 -0.539062,0.3984375 -1.089844,1.359375 -1.277344,2.1210938 L 73.9745,1.8282734 c -0.01172,0.046875 0.03516,0.1054688 0.117188,0.1054688 0.08203,0 0.105468,-0.023437 0.117187,-0.046875 l 0.691406,-2.75390626 c 0.199219,0.59765625 0.632813,0.97265625 1.359375,0.97265625 0.726563,0 1.476563,-0.3515625 1.921875,-0.796875 0.480469,-0.45703129 0.796875,-1.08984379 0.796875,-1.82812499 0,-0.7148438 -0.363281,-1.2304688 -0.726562,-1.4882813 0.574219,-0.328125 1.148437,-0.9375 1.148437,-1.6640625 z m -1.792968,1.6523438 c -0.128907,0.058594 -0.246094,0.070312 -0.480469,0.070312 -0.140625,0 -0.339844,0.011719 -0.433594,-0.035156 0.01172,-0.1054687 0.375,-0.082031 0.480469,-0.082031 0.210937,0 0.304687,0 0.433594,0.046875 z m 1.230468,-1.875 c 0,0.6914062 -0.375,1.40625 -0.890625,1.7226562 -0.269531,-0.1054687 -0.46875,-0.1171875 -0.773437,-0.1171875 -0.210938,0 -0.761719,-0.011719 -0.761719,0.3164063 -0.01172,0.28125 0.503906,0.2460937 0.679688,0.2460937 0.375,0 0.527343,-0.011719 0.820312,-0.1289062 0.375,0.3632812 0.433594,0.6679687 0.445313,1.125 0.01172,0.5742187 -0.222657,1.3242187 -0.503907,1.7109375 -0.386718,0.53906249 -1.054687,0.90234374 -1.628906,0.90234374 -0.75,0 -1.125,-0.5859375 -1.125,-1.28906254 0,-0.09375 0,-0.2460937 0.04687,-0.4335937 l 0.632813,-2.5195313 c 0.222656,-0.8554687 0.9375,-2.4492187 2.132812,-2.4492187 0.574219,0 0.925781,0.3164062 0.925781,0.9140625 z m 0,0"
         style="fill:#000000;fill-opacity:1;fill-rule:nonzero;stroke:none" />
      <path
         id="path31"
         d="m 81.635633,-2.9353984 c 0,-0.1875 -0.01172,-0.1992188 -0.210938,-0.1992188 -0.445312,0.4335938 -1.078125,0.4453125 -1.359375,0.4453125 v 0.2460938 c 0.164063,0 0.621094,0 1.007813,-0.1875 v 3.55078121 c 0,0.23437499 0,0.32812499 -0.691406,0.32812499 h -0.269532 v 0.2460938 c 0.128907,-0.011719 0.984375,-0.023437 1.242188,-0.023437 0.210937,0 1.089844,0.011719 1.242187,0.023437 V 1.2481953 h -0.257812 c -0.703125,0 -0.703125,-0.09375 -0.703125,-0.32812499 z m 0,0"
         style="fill:#000000;fill-opacity:1;fill-rule:nonzero;stroke:none" />
      <path
         id="path32"
         d="m 86.657117,-2.4959453 c 0,-0.7734375 -0.117187,-1.9804688 -0.65625,-3.1054688 -0.597656,-1.21875 -1.464844,-1.875 -1.558594,-1.875 -0.05859,0 -0.105468,0.046875 -0.105468,0.1054688 0,0.035156 0,0.046875 0.199218,0.234375 0.972657,0.984375 1.535157,2.5664062 1.535157,4.640625 0,1.71093749 -0.363282,3.45703124 -1.59375,4.7226562 -0.140625,0.1171875 -0.140625,0.1289063 -0.140625,0.1640625 0,0.058594 0.04687,0.1054688 0.105468,0.1054688 0.09375,0 0.996094,-0.6796875 1.582032,-1.94531251 0.503906,-1.1015625 0.632812,-2.20312499 0.632812,-3.04687499 z m 0,0"
         style="fill:#000000;fill-opacity:1;fill-rule:nonzero;stroke:none" />
    </g>
    <path
       id="path33"
       d="m 311.10811,0 c 0,13.71007 -11.11391,24.82397 -24.82398,24.82397 -13.71006,0 -24.82397,-11.1139 -24.82397,-24.82397 0,-13.71007 11.11391,-24.82397 24.82397,-24.82397 13.71007,0 24.82398,11.1139 24.82398,24.82397 z"
       style="fill:none;stroke:#000000;stroke-width:1.59404;stroke-linecap:butt;stroke-linejoin:miter;stroke-miterlimit:10;stroke-dasharray:none;stroke-opacity:1"
       transform="matrix(1.3333333,0,0,-1.3333333,42.725333,47.448)" />
    <g
       id="g33"
       aria-label="Outputˆy"
       transform="matrix(1.3333333,0,0,1.3333333,397.31733,50.838667)">
      <path
         id="path34"
         d="m 7.1828984,-3.3741172 c 0,-2.0390625 -1.5,-3.6445312 -3.3164062,-3.6445312 -1.78125,0 -3.30468751,1.59375 -3.30468751,3.6445312 0,2.0390625 1.53515621,3.59765626 3.30468751,3.59765626 1.8164062,0 3.3164062,-1.58203126 3.3164062,-3.59765626 z m -1.03125,-0.140625 c 0,2.63671876 -1.359375,3.48046876 -2.2734375,3.48046876 -0.9609375,0 -2.296875,-0.87890625 -2.296875,-3.48046876 0,-2.578125 1.453125,-3.2578125 2.2851563,-3.2578125 0.8671875,0 2.2851562,0.703125 2.2851562,3.2578125 z M 13.083289,8.828125e-4 V -0.30380469 c -0.703125,0 -0.785156,-0.0703125 -0.785156,-0.5625 V -4.4053672 l -1.453125,0.1171875 v 0.3046875 c 0.691406,0 0.773437,0.070312 0.773437,0.5625 v 1.7695313 c 0,0.86718746 -0.480468,1.54687496 -1.207031,1.54687496 -0.8320312,0 -0.8789062,-0.46875 -0.8789062,-0.99609376 v -3.3046875 l -1.4648437,0.1171875 v 0.3046875 c 0.7851562,0 0.7851562,0.035156 0.7851562,0.9140625 v 1.5 c 0,0.77343751 0,1.67578126 1.5117187,1.67578126 0.550781,0 0.996094,-0.26953125 1.277344,-0.890625 v 0.890625 z M 16.595984,-1.2295859 v -0.5742188 h -0.246093 v 0.5507813 c 0,0.73828121 -0.304688,1.11328121 -0.667969,1.11328121 -0.667969,0 -0.667969,-0.90234371 -0.667969,-1.07812501 v -2.765625 h 1.429688 v -0.3046875 h -1.429688 v -1.8398437 h -0.246094 c -0.01172,0.8203125 -0.316406,1.8867187 -1.289062,1.921875 v 0.2226562 h 0.84375 v 2.7539063 c 0,1.21874996 0.925781,1.33593746 1.289062,1.33593746 0.703125,0 0.984375,-0.703125 0.984375,-1.33593746 z m 5.759766,-0.9257813 c 0,-1.265625 -0.972656,-2.25 -2.085937,-2.25 -0.773438,0 -1.195313,0.4453125 -1.394532,0.65625 v -0.65625 l -1.429687,0.1171875 v 0.3046875 c 0.703125,0 0.773437,0.058594 0.773437,0.4921875 v 4.6640625 c 0,0.4570313 -0.105468,0.4570313 -0.773437,0.4570313 v 0.3046875 l 1.113281,-0.035156 1.125,0.035156 V 1.6297891 c -0.667969,0 -0.773437,0 -0.773437,-0.4570313 v -1.75781249 c 0.04687,0.15234375 0.46875,0.69140625 1.21875,0.69140625 1.183593,0 2.226562,-0.97265625 2.226562,-2.26171876 z m -0.832031,0 c 0,1.20703126 -0.691406,2.05078126 -1.429688,2.05078126 -0.398437,0 -0.773437,-0.19921875 -1.042968,-0.609375 -0.140625,-0.2109375 -0.140625,-0.22265625 -0.140625,-0.42187496 v -2.2148438 c 0.28125,-0.515625 0.773437,-0.796875 1.277343,-0.796875 0.726563,0 1.335938,0.8671875 1.335938,1.9921875 z M 28.036414,8.828125e-4 V -0.30380469 c -0.703125,0 -0.785156,-0.0703125 -0.785156,-0.5625 V -4.4053672 l -1.453125,0.1171875 v 0.3046875 c 0.691406,0 0.773437,0.070312 0.773437,0.5625 v 1.7695313 c 0,0.86718746 -0.480468,1.54687496 -1.207031,1.54687496 -0.832031,0 -0.878906,-0.46875 -0.878906,-0.99609376 v -3.3046875 l -1.464844,0.1171875 v 0.3046875 c 0.785156,0 0.785156,0.035156 0.785156,0.9140625 v 1.5 c 0,0.77343751 0,1.67578126 1.511719,1.67578126 0.550781,0 0.996094,-0.26953125 1.277344,-0.890625 v 0.890625 z M 31.549109,-1.2295859 v -0.5742188 h -0.246093 v 0.5507813 c 0,0.73828121 -0.304688,1.11328121 -0.667969,1.11328121 -0.667969,0 -0.667969,-0.90234371 -0.667969,-1.07812501 v -2.765625 h 1.429688 v -0.3046875 h -1.429688 v -1.8398437 h -0.246094 c -0.01172,0.8203125 -0.316406,1.8867187 -1.289062,1.921875 v 0.2226562 h 0.84375 v 2.7539063 c 0,1.21874996 0.925781,1.33593746 1.289062,1.33593746 0.703125,0 0.984375,-0.703125 0.984375,-1.33593746 z m 0,0"
         style="fill:#000000;fill-opacity:1;fill-rule:nonzero;stroke:none" />
      <path
         id="path35"
         d="m 38.618445,-6.9131797 -1.335937,1.359375 0.175781,0.1757813 1.160156,-1.0195313 1.136719,1.0195313 0.1875,-0.1757813 z m 0,0"
         style="fill:#000000;fill-opacity:1;fill-rule:nonzero;stroke:none" />
      <path
         id="path36"
         d="m 40.276648,-3.7959922 c 0.04687,-0.140625 0.04687,-0.1523437 0.04687,-0.2226562 0,-0.1875 -0.140625,-0.2695313 -0.292968,-0.2695313 -0.105469,0 -0.257813,0.058594 -0.351563,0.1992188 -0.02344,0.058594 -0.09375,0.3632812 -0.140625,0.5390625 -0.07031,0.2578125 -0.140625,0.5273437 -0.199219,0.796875 l -0.445312,1.79296871 c -0.03516,0.15234375 -0.46875,0.85546875 -1.125,0.85546875 -0.503906,0 -0.621094,-0.4453125 -0.621094,-0.80859375 0,-0.45703121 0.175781,-1.07812501 0.515625,-1.95703121 0.152344,-0.4101563 0.199219,-0.515625 0.199219,-0.7148438 0,-0.4453125 -0.328125,-0.8203125 -0.820313,-0.8203125 -0.949218,0 -1.3125,1.453125 -1.3125,1.5351563 0,0.1054687 0.09375,0.1054687 0.117188,0.1054687 0.09375,0 0.105469,-0.023437 0.152344,-0.1875 0.269531,-0.9375 0.667968,-1.2304687 1.007812,-1.2304687 0.08203,0 0.257813,0 0.257813,0.3164062 0,0.2460938 -0.105469,0.515625 -0.175782,0.703125 -0.398437,1.0546875 -0.574218,1.6171875 -0.574218,2.0859375 0,0.89062501 0.621093,1.18359376 1.21875,1.18359376 0.386718,0 0.726562,-0.1640625 0.996093,-0.4453125 -0.128906,0.515625 -0.246093,1.0078125 -0.644531,1.53515624 -0.257812,0.3398438 -0.632812,0.6328125 -1.089844,0.6328125 -0.140625,0 -0.597656,-0.035156 -0.761718,-0.421875 0.164062,0 0.292968,0 0.433593,-0.1171875 0.09375,-0.09375 0.199219,-0.2226562 0.199219,-0.41015624 0,-0.31640625 -0.269531,-0.3515625 -0.375,-0.3515625 -0.222656,0 -0.550781,0.1640625 -0.550781,0.64453124 0,0.5039063 0.433594,0.8671875 1.054687,0.8671875 1.019532,0 2.050782,-0.9023437 2.332032,-2.02734374 z m 0,0"
         style="fill:#000000;fill-opacity:1;fill-rule:nonzero;stroke:none" />
    </g>
    <path
       id="path37"
       d="M 335.89108,-8.30194 H 406.7581 V 8.30196 H 335.89108 Z"
       style="fill:none;stroke:#000000;stroke-width:1.59404;stroke-linecap:butt;stroke-linejoin:miter;stroke-miterlimit:10;stroke-dasharray:none;stroke-opacity:1"
       transform="matrix(1.3333333,0,0,-1.3333333,42.725333,47.448)" />
    <g
       id="g37"
       aria-label="L(y,ˆy)"
       transform="matrix(1.3333333,0,0,1.3333333,518.136,50.769333)">
      <path
         id="path38"
         d="m 1.7935078,-0.92563281 c 0.5390625,-0.83203129 0.703125,-1.47656249 0.8320313,-2.00390629 0.3515625,-1.3710937 0.7265625,-2.5664062 1.3476562,-3.2578125 0.1171875,-0.1289062 0.1992188,-0.2226562 0.515625,-0.2226562 0.6914063,0 0.7148438,0.6914062 0.7148438,0.8320312 0,0.1757813 -0.058594,0.3164063 -0.058594,0.3632813 0,0.070312 0.070312,0.070312 0.070312,0.070312 0.1640625,0 0.4335938,-0.1054688 0.6796875,-0.28125 0.1875,-0.140625 0.2695313,-0.2460938 0.2695313,-0.65625 0,-0.5273438 -0.28125,-0.9375 -0.8320313,-0.9375 -0.3164062,0 -1.1953125,0.082031 -2.1796875,1.0664062 -0.796875,0.8085938 -1.2539062,2.6015625 -1.453125,3.3515625 -0.1757812,0.6914063 -0.2578125,0.9960938 -0.5507812,1.59375 -0.070312,0.11718754 -0.32812504,0.56250004 -0.46875004,0.69140629 -0.26953125,0.24609375 -0.375,0.421875 -0.375,0.48046875 0,0.0117188 0.0234375,0.0585938 0.09375,0.0585938 0.0351563,0 0.24609375,-0.046875 0.50390625,-0.2109375 0.17578129,-0.10546875 0.19921879,-0.1171875 0.42187499,-0.36328125 0.5039063,0.0117188 0.84375,0.10546875 1.4765625,0.28125 0.5039063,0.140625 1.0195313,0.29296875 1.5234375,0.29296875 0.8085938,0 1.6171875,-0.609375 1.9453125,-1.0546875 0.1992188,-0.26953124 0.2578125,-0.51562494 0.2578125,-0.53906244 0,-0.070312 -0.058594,-0.070312 -0.070312,-0.070312 -0.1640625,0 -0.3984375,0.1054687 -0.5742187,0.2226562 -0.2695313,0.1757813 -0.28125,0.23437499 -0.3398438,0.39843749 -0.058594,0.1640625 -0.1171875,0.24609375 -0.1523437,0.3046875 -0.082031,0.1171875 -0.09375,0.1171875 -0.2460938,0.1171875 -0.46875,0 -0.9726562,-0.15234375 -1.6289062,-0.328125 -0.28125,-0.0820313 -0.8203125,-0.234375 -1.3242188,-0.234375 -0.1289062,0 -0.2695312,0 -0.3984373,0.0351562 z m 0,0"
         style="fill:#000000;fill-opacity:1;fill-rule:nonzero;stroke:none" />
      <path
         id="path39"
         d="m 10.163625,2.3907734 c 0,-0.035156 0,-0.046875 -0.1640625,-0.2226562 C 8.757375,0.91421094 8.42925,-0.96078906 8.42925,-2.4959453 c 0,-1.7226563 0.3867188,-3.4570313 1.605469,-4.7109375 0.128906,-0.1171875 0.128906,-0.1289063 0.128906,-0.1640625 0,-0.070312 -0.03516,-0.1054688 -0.09375,-0.1054688 -0.1054687,0 -0.9960937,0.6796875 -1.5820312,1.9453125 -0.515625,1.1015625 -0.6328125,2.203125 -0.6328125,3.0351563 0,0.7851562 0.1171875,1.99218749 0.65625,3.11718749 0.5976562,1.21875001 1.453125,1.87500001 1.5585937,1.87500001 0.05859,0 0.09375,-0.035156 0.09375,-0.1054688 z m 0,0"
         style="fill:#000000;fill-opacity:1;fill-rule:nonzero;stroke:none" />
      <path
         id="path40"
         d="m 15.586477,-3.7967266 c 0.04687,-0.140625 0.04687,-0.1523437 0.04687,-0.2226562 0,-0.1875 -0.140625,-0.2695313 -0.292969,-0.2695313 -0.105469,0 -0.257813,0.058594 -0.351563,0.1992188 -0.02344,0.058594 -0.09375,0.3632812 -0.140625,0.5390625 -0.07031,0.2578125 -0.140625,0.5273437 -0.199218,0.796875 l -0.445313,1.79296874 c -0.03516,0.15234375 -0.46875,0.85546875 -1.125,0.85546875 -0.503906,0 -0.621094,-0.4453125 -0.621094,-0.80859375 0,-0.45703124 0.175782,-1.07812504 0.515625,-1.95703124 0.152344,-0.4101563 0.199219,-0.515625 0.199219,-0.7148438 0,-0.4453125 -0.328125,-0.8203125 -0.820312,-0.8203125 -0.949219,0 -1.3125,1.453125 -1.3125,1.5351563 0,0.1054687 0.09375,0.1054687 0.117187,0.1054687 0.09375,0 0.105469,-0.023437 0.152344,-0.1875 0.269531,-0.9375 0.667969,-1.2304687 1.007812,-1.2304687 0.08203,0 0.257813,0 0.257813,0.3164062 0,0.2460938 -0.105469,0.515625 -0.175781,0.703125 -0.398438,1.0546875 -0.574219,1.6171875 -0.574219,2.0859375 0,0.89062504 0.621094,1.18359379 1.21875,1.18359379 0.386719,0 0.726562,-0.1640625 0.996094,-0.4453125 -0.128907,0.515625 -0.246094,1.0078125 -0.644532,1.53515621 -0.257812,0.3398438 -0.632812,0.6328125 -1.089843,0.6328125 -0.140625,0 -0.597657,-0.035156 -0.761719,-0.421875 0.164062,0 0.292969,0 0.433594,-0.1171875 0.09375,-0.09375 0.199218,-0.2226562 0.199218,-0.41015621 0,-0.31640625 -0.269531,-0.3515625 -0.375,-0.3515625 -0.222656,0 -0.550781,0.1640625 -0.550781,0.64453121 0,0.5039063 0.433594,0.8671875 1.054688,0.8671875 1.019531,0 2.050781,-0.9023437 2.332031,-2.02734371 z m 2.416992,3.78515629 c 0,-0.65625 -0.257813,-1.04296879 -0.644531,-1.04296879 -0.328125,0 -0.527344,0.24609379 -0.527344,0.52734379 0,0.26953125 0.199219,0.5273437475 0.527344,0.5273437475 0.117187,0 0.246093,-0.0351562475 0.351562,-0.1289062475 0.02344,-0.0234375 0.03516,-0.0351563 0.04687,-0.0351563 0.01172,0 0.02344,0.0117188 0.02344,0.15234375 0,0.73828125 -0.351563,1.33593756 -0.679688,1.66406256 -0.105469,0.1054687 -0.105469,0.1289062 -0.105469,0.1640625 0,0.070312 0.04687,0.1054687 0.09375,0.1054687 0.117188,0 0.914063,-0.7617187 0.914063,-1.93359376 z m 0,0"
         style="fill:#000000;fill-opacity:1;fill-rule:nonzero;stroke:none" />
      <path
         id="path41"
         d="m 23.596242,-6.9139141 -1.335937,1.359375 0.175781,0.1757813 1.160156,-1.0195313 1.136719,1.0195313 0.1875,-0.1757813 z m 0,0"
         style="fill:#000000;fill-opacity:1;fill-rule:nonzero;stroke:none" />
      <path
         id="path42"
         d="m 25.254445,-3.7967266 c 0.04687,-0.140625 0.04687,-0.1523437 0.04687,-0.2226562 0,-0.1875 -0.140625,-0.2695313 -0.292968,-0.2695313 -0.105469,0 -0.257813,0.058594 -0.351563,0.1992188 -0.02344,0.058594 -0.09375,0.3632812 -0.140625,0.5390625 -0.07031,0.2578125 -0.140625,0.5273437 -0.199219,0.796875 l -0.445312,1.79296874 c -0.03516,0.15234375 -0.46875,0.85546875 -1.125,0.85546875 -0.503906,0 -0.621094,-0.4453125 -0.621094,-0.80859375 0,-0.45703124 0.175781,-1.07812504 0.515625,-1.95703124 0.152344,-0.4101563 0.199219,-0.515625 0.199219,-0.7148438 0,-0.4453125 -0.328125,-0.8203125 -0.820313,-0.8203125 -0.949218,0 -1.3125,1.453125 -1.3125,1.5351563 0,0.1054687 0.09375,0.1054687 0.117188,0.1054687 0.09375,0 0.105469,-0.023437 0.152344,-0.1875 0.269531,-0.9375 0.667968,-1.2304687 1.007812,-1.2304687 0.08203,0 0.257813,0 0.257813,0.3164062 0,0.2460938 -0.105469,0.515625 -0.175782,0.703125 -0.398437,1.0546875 -0.574218,1.6171875 -0.574218,2.0859375 0,0.89062504 0.621093,1.18359379 1.21875,1.18359379 0.386718,0 0.726562,-0.1640625 0.996093,-0.4453125 -0.128906,0.515625 -0.246093,1.0078125 -0.644531,1.53515621 -0.257812,0.3398438 -0.632812,0.6328125 -1.089844,0.6328125 -0.140625,0 -0.597656,-0.035156 -0.761718,-0.421875 0.164062,0 0.292968,0 0.433593,-0.1171875 0.09375,-0.09375 0.199219,-0.2226562 0.199219,-0.41015621 0,-0.31640625 -0.269531,-0.3515625 -0.375,-0.3515625 -0.222656,0 -0.550781,0.1640625 -0.550781,0.64453121 0,0.5039063 0.433594,0.8671875 1.054687,0.8671875 1.019532,0 2.050782,-0.9023437 2.332032,-2.02734371 z m 0,0"
         style="fill:#000000;fill-opacity:1;fill-rule:nonzero;stroke:none" />
      <path
         id="path43"
         d="m 28.541555,-2.4959453 c 0,-0.7734375 -0.117188,-1.9804688 -0.65625,-3.1054688 -0.597657,-1.21875 -1.464844,-1.875 -1.558594,-1.875 -0.05859,0 -0.105469,0.046875 -0.105469,0.1054688 0,0.035156 0,0.046875 0.199219,0.234375 0.972656,0.984375 1.535156,2.5664062 1.535156,4.640625 0,1.71093749 -0.363281,3.45703124 -1.59375,4.7226562 -0.140625,0.1171875 -0.140625,0.1289063 -0.140625,0.1640625 0,0.058594 0.04687,0.1054688 0.105469,0.1054688 0.09375,0 0.996094,-0.6796875 1.582031,-1.94531251 0.503906,-1.1015625 0.632813,-2.20312499 0.632813,-3.04687499 z m 0,0"
         style="fill:#000000;fill-opacity:1;fill-rule:nonzero;stroke:none" />
    </g>
    <path
       id="path44"
       d="M 22.08173,0 H 40.61249"
       style="fill:none;stroke:#000000;stroke-width:0.3985;stroke-linecap:butt;stroke-linejoin:miter;stroke-miterlimit:10;stroke-dasharray:none;stroke-opacity:1"
       transform="matrix(1.3333333,0,0,-1.3333333,42.725333,47.448)" />
    <path
       id="path45"
       d="M -2.07224,2.39104 C -1.69365,0.95639 -0.84999,0.27895 0,0 -0.84999,-0.27895 -1.69365,-0.95639 -2.07224,-2.39104"
       style="fill:none;stroke:#000000;stroke-width:0.3985;stroke-linecap:round;stroke-linejoin:round;stroke-miterlimit:10;stroke-dasharray:none;stroke-opacity:1"
       transform="matrix(1.3333333,0,0,-1.3333333,97.140987,47.448)" />
    <path
       id="path46"
       d="m 133.37599,0 h 18.53076"
       style="fill:none;stroke:#000000;stroke-width:0.3985;stroke-linecap:butt;stroke-linejoin:miter;stroke-miterlimit:10;stroke-dasharray:none;stroke-opacity:1"
       transform="matrix(1.3333333,0,0,-1.3333333,42.725333,47.448)" />
    <path
       id="path47"
       d="M -2.07224,2.39104 C -1.69365,0.95639 -0.84999,0.27895 0,0 -0.84999,-0.27895 -1.69365,-0.95639 -2.07224,-2.39104"
       style="fill:none;stroke:#000000;stroke-width:0.3985;stroke-linecap:round;stroke-linejoin:round;stroke-miterlimit:10;stroke-dasharray:none;stroke-opacity:1"
       transform="matrix(1.3333333,0,0,-1.3333333,245.53333,47.448)" />
    <path
       id="path48"
       d="m 249.18582,0 h 10.08254"
       style="fill:none;stroke:#000000;stroke-width:0.3985;stroke-linecap:butt;stroke-linejoin:miter;stroke-miterlimit:10;stroke-dasharray:none;stroke-opacity:1"
       transform="matrix(1.3333333,0,0,-1.3333333,42.725333,47.448)" />
    <path
       id="path49"
       d="M -2.07224,2.39104 C -1.69365,0.95639 -0.84999,0.27895 0,0 -0.84999,-0.27895 -1.69365,-0.95639 -2.07224,-2.39104"
       style="fill:none;stroke:#000000;stroke-width:0.3985;stroke-linecap:round;stroke-linejoin:round;stroke-miterlimit:10;stroke-dasharray:none;stroke-opacity:1"
       transform="matrix(1.3333333,0,0,-1.3333333,388.68213,47.448)" />
    <path
       id="path50"
       d="m 311.90514,0 h 21.79414"
       style="fill:none;stroke:#000000;stroke-width:0.3985;stroke-linecap:butt;stroke-linejoin:miter;stroke-miterlimit:10;stroke-dasharray:none;stroke-opacity:1"
       transform="matrix(1.3333333,0,0,-1.3333333,42.725333,47.448)" />
    <path
       id="path51"
       d="M -2.07224,2.39104 C -1.69365,0.95639 -0.84999,0.27895 0,0 -0.84999,-0.27895 -1.69365,-0.95639 -2.07224,-2.39104"
       style="fill:none;stroke:#000000;stroke-width:0.3985;stroke-linecap:round;stroke-linejoin:round;stroke-miterlimit:10;stroke-dasharray:none;stroke-opacity:1"
       transform="matrix(1.3333333,0,0,-1.3333333,487.92337,47.448)" />
    <path
       id="path52"
       d="m 4.84025,-3.7971562 c 0.046875,-0.140625 0.046875,-0.1523438 0.046875,-0.2226563 0,-0.1875 -0.140625,-0.2695312 -0.2929687,-0.2695312 -0.1054688,0 -0.2578125,0.058594 -0.3515625,0.1992187 -0.023437,0.058594 -0.09375,0.3632813 -0.140625,0.5390625 -0.070312,0.2578125 -0.140625,0.5273438 -0.1992188,0.796875 l -0.4453125,1.79296875 c -0.035156,0.15234375 -0.46875,0.85546875 -1.125,0.85546875 -0.5039062,0 -0.6210937,-0.4453125 -0.6210937,-0.80859375 0,-0.45703125 0.1757812,-1.07812495 0.515625,-1.95703125 0.1523437,-0.4101562 0.1992187,-0.515625 0.1992187,-0.7148437 0,-0.4453125 -0.328125,-0.8203125 -0.8203125,-0.8203125 -0.94921875,0 -1.3125,1.453125 -1.3125,1.5351562 0,0.1054688 0.09375,0.1054688 0.1171875,0.1054688 0.09375,0 0.10546875,-0.023437 0.15234375,-0.1875 0.26953125,-0.9375 0.66796875,-1.2304688 1.00781255,-1.2304688 0.082031,0 0.2578125,0 0.2578125,0.3164063 0,0.2460937 -0.1054688,0.515625 -0.1757813,0.703125 -0.3984375,1.0546875 -0.5742187,1.6171875 -0.5742187,2.0859375 0,0.89062495 0.6210937,1.1835937 1.21875,1.1835937 0.3867187,0 0.7265625,-0.1640625 0.9960937,-0.4453125 C 3.1644688,0.1755 3.0472813,0.6676875 2.6488438,1.1950313 2.3910313,1.534875 2.0160313,1.8278438 1.559,1.8278438 c -0.140625,0 -0.59765625,-0.035156 -0.76171875,-0.421875 0.1640625,0 0.29296875,0 0.43359375,-0.1171875 0.09375,-0.09375 0.1992188,-0.2226563 0.1992188,-0.4101563 0,-0.31640625 -0.2695313,-0.3515625 -0.375,-0.3515625 -0.2226563,0 -0.5507813,0.1640625 -0.5507813,0.6445313 0,0.5039062 0.43359375,0.8671875 1.0546875,0.8671875 1.0195313,0 2.0507813,-0.9023438 2.3320313,-2.0273438 z m 0,0"
       style="fill:#000000;fill-opacity:1;fill-rule:nonzero;stroke:none"
       aria-label="y"
       transform="matrix(1.3333333,0,0,1.3333333,609.92133,49.016)" />
    <path
       id="path53"
       d="M 421.87741,0 H 408.94992"
       style="fill:none;stroke:#000000;stroke-width:0.3985;stroke-linecap:butt;stroke-linejoin:miter;stroke-miterlimit:10;stroke-dasharray:none;stroke-opacity:1"
       transform="matrix(1.3333333,0,0,-1.3333333,42.725333,47.448)" />
    <path
       id="path54"
       d="M -2.07224,2.39104 C -1.69365,0.95639 -0.84999,0.27895 0,0 -0.84999,-0.27895 -1.69365,-0.95639 -2.07224,-2.39104"
       style="fill:none;stroke:#000000;stroke-width:0.3985;stroke-linecap:round;stroke-linejoin:round;stroke-miterlimit:10;stroke-dasharray:none;stroke-opacity:1"
       transform="matrix(-1.3333333,0,0,1.3333333,587.72623,47.448)" />
  </g>
</svg>
