<?xml version="1.0" encoding="UTF-8" standalone="no"?>
<!-- Created with Inkscape (http://www.inkscape.org/) -->

<svg
   version="1.1"
   id="svg1"
   width="571.47998"
   height="104.26667"
   viewBox="0 0 571.47998 104.26667"
   sodipodi:docname="01_1D_mlp_filled.pdf"
   xmlns:inkscape="http://www.inkscape.org/namespaces/inkscape"
   xmlns:sodipodi="http://sodipodi.sourceforge.net/DTD/sodipodi-0.dtd"
   xmlns="http://www.w3.org/2000/svg"
   xmlns:svg="http://www.w3.org/2000/svg">
  <defs
     id="defs1" />
  <sodipodi:namedview
     id="namedview1"
     pagecolor="#ffffff"
     bordercolor="#666666"
     borderopacity="1.0"
     inkscape:showpageshadow="2"
     inkscape:pageopacity="0.0"
     inkscape:pagecheckerboard="0"
     inkscape:deskcolor="#d1d1d1">
    <inkscape:page
       x="0"
       y="0"
       inkscape:label="1"
       id="page1"
       width="571.47998"
       height="104.26667"
       margin="0"
       bleed="0" />
  </sodipodi:namedview>
  <g
     id="g1"
     inkscape:groupmode="layer"
     inkscape:label="1">
    <path
       id="path1"
       d="m 21.28471,0 c 0,11.75536 -9.52935,21.28471 -21.28471,21.28471 -11.75536,0 -21.28471,-9.52935 -21.28471,-21.28471 0,-11.75536 9.52935,-21.28471 21.28471,-21.28471 11.75536,0 21.28471,9.52935 21.28471,21.28471 z"
       style="fill:none;stroke:#000000;stroke-width:1.59404;stroke-linecap:butt;stroke-linejoin:miter;stroke-miterlimit:10;stroke-dasharray:none;stroke-opacity:1"
       transform="matrix(1.3333333,0,0,-1.3333333,117.18933,47.286667)" />
    <g
       id="g2"
       aria-label="Inputx"
       transform="matrix(1.3333333,0,0,1.3333333,95.121333,50.534667)">
      <path
         id="path2"
         d="M 3.3162266,3.671875e-4 V -0.30432031 H 3.0584141 c -0.7851563,0 -0.8203125,-0.1171875 -0.8203125,-0.46875 V -6.0230703 c 0,-0.3632813 0.035156,-0.46875 0.8203125,-0.46875 h 0.2578125 v -0.3164063 c -0.3515625,0.035156 -1.1367188,0.035156 -1.5117188,0.035156 -0.3867187,0 -1.17187499,0 -1.52343749,-0.035156 v 0.3164063 h 0.2578125 c 0.78515629,0 0.82031249,0.1054687 0.82031249,0.46875 v 5.24999999 c 0,0.3515625 -0.035156,0.46875 -0.82031249,0.46875 H 0.28107031 V 3.671875e-4 C 0.63263281,-0.03478906 1.4177891,-0.03478906 1.7927891,-0.03478906 c 0.3867187,0 1.171875,0 1.5234375,0.0351562475 z m 5.6132812,0 V -0.30432031 c -0.515625,0 -0.7734375,0 -0.7851562,-0.3046875 V -2.5074453 c 0,-0.8554688 0,-1.171875 -0.3046875,-1.5234375 -0.140625,-0.1757813 -0.46875,-0.375 -1.0429688,-0.375 -0.7265625,0 -1.1953125,0.4335937 -1.4765625,1.0546875 v -1.0546875 l -1.40625,0.1171875 v 0.3046875 c 0.703125,0 0.7851563,0.070312 0.7851563,0.5625 v 2.66015624 c 0,0.45703125 -0.1171875,0.45703125 -0.7851563,0.45703125 V 3.671875e-4 l 1.125,-0.0351562475 1.1132813,0.0351562475 V -0.30432031 c -0.65625,0 -0.7734375,0 -0.7734375,-0.45703125 V -2.5894766 c 0,-1.03125 0.7148437,-1.59375 1.3476562,-1.59375 0.6210938,0 0.7382813,0.5390625 0.7382813,1.1015625 v 2.32031254 c 0,0.45703125 -0.1171875,0.45703125 -0.7734375,0.45703125 V 3.671875e-4 l 1.125,-0.0351562475 z M 14.325992,-2.1558828 c 0,-1.265625 -0.972656,-2.25 -2.085937,-2.25 -0.773438,0 -1.195313,0.4453125 -1.394532,0.65625 v -0.65625 l -1.4296871,0.1171875 v 0.3046875 c 0.7031251,0 0.7734371,0.058594 0.7734371,0.4921875 v 4.6640625 c 0,0.4570312 -0.105468,0.4570312 -0.7734371,0.4570312 v 0.3046875 l 1.1132811,-0.035156 1.125,0.035156 V 1.6292734 c -0.667969,0 -0.773437,0 -0.773437,-0.4570312 v -1.75781251 c 0.04687,0.15234375 0.46875,0.69140625 1.21875,0.69140625 1.183593,0 2.226562,-0.97265625 2.226562,-2.26171874 z m -0.832031,0 c 0,1.20703124 -0.691406,2.05078124 -1.429688,2.05078124 -0.398437,0 -0.773437,-0.19921875 -1.042968,-0.609375 C 10.88068,-0.92541406 10.88068,-0.93713281 10.88068,-1.1363516 v -2.2148437 c 0.28125,-0.515625 0.773437,-0.796875 1.277343,-0.796875 0.726563,0 1.335938,0.8671875 1.335938,1.9921875 z M 20.006656,3.671875e-4 V -0.30432031 c -0.703125,0 -0.785156,-0.0703125 -0.785156,-0.5625 V -4.4058828 l -1.453125,0.1171875 v 0.3046875 c 0.691406,0 0.773437,0.070312 0.773437,0.5625 v 1.7695312 c 0,0.86718754 -0.480468,1.54687504 -1.207031,1.54687504 -0.832031,0 -0.878906,-0.46875 -0.878906,-0.99609374 v -3.3046875 l -1.464844,0.1171875 v 0.3046875 c 0.785156,0 0.785156,0.035156 0.785156,0.9140625 v 1.5 c 0,0.77343749 0,1.67578124 1.511719,1.67578124 0.550781,0 0.996094,-0.26953125 1.277344,-0.890625 v 0.890625 z M 23.519352,-1.2301016 v -0.5742187 h -0.246094 v 0.5507812 c 0,0.73828129 -0.304688,1.11328129 -0.667969,1.11328129 -0.667969,0 -0.667969,-0.90234379 -0.667969,-1.07812499 v -2.765625 h 1.429688 V -4.2886953 H 21.93732 v -1.8398438 h -0.246093 c -0.01172,0.8203125 -0.316407,1.8867188 -1.289063,1.921875 v 0.2226563 h 0.84375 v 2.7539062 c 0,1.21875004 0.925781,1.33593754 1.289063,1.33593754 0.703125,0 0.984375,-0.703125 0.984375,-1.33593754 z m 0,0"
         style="fill:#000000;fill-opacity:1;fill-rule:nonzero;stroke:none" />
      <path
         id="path3"
         d="m 30.735172,-3.0113516 c 0.05859,-0.2578125 0.292969,-1.171875 0.984375,-1.171875 0.04687,0 0.292969,0 0.503906,0.1289063 -0.28125,0.046875 -0.480469,0.3046875 -0.480469,0.5390625 0,0.1640625 0.105469,0.3515625 0.375,0.3515625 0.222657,0 0.539063,-0.1875 0.539063,-0.5859375 0,-0.515625 -0.585938,-0.65625 -0.925781,-0.65625 -0.574219,0 -0.925782,0.5273437 -1.042969,0.7617187 -0.257813,-0.65625 -0.785156,-0.7617187 -1.078125,-0.7617187 -1.042969,0 -1.605469,1.2890625 -1.605469,1.5351562 0,0.1054688 0.105469,0.1054688 0.117188,0.1054688 0.08203,0 0.117187,-0.023437 0.128906,-0.1171875 0.339844,-1.0546875 0.996094,-1.3007813 1.335937,-1.3007813 0.1875,0 0.539063,0.09375 0.539063,0.6679688 0,0.3046875 -0.164063,0.9726562 -0.539063,2.3671875 -0.152343,0.62109374 -0.503906,1.04296874 -0.949218,1.04296874 -0.05859,0 -0.28125,0 -0.492188,-0.12890625 0.246094,-0.0585937 0.46875,-0.26953125 0.46875,-0.5390625 0,-0.26953129 -0.222656,-0.35156249 -0.375,-0.35156249 -0.292969,0 -0.539062,0.25781249 -0.539062,0.57421874 0,0.45703125 0.492187,0.65625 0.9375,0.65625 0.65625,0 1.007812,-0.69140625 1.042968,-0.75 0.117188,0.36328125 0.480469,0.75 1.078125,0.75 1.019532,0 1.59375,-1.27734374 1.59375,-1.53515624 0,-0.09375 -0.09375,-0.09375 -0.128906,-0.09375 -0.08203,0 -0.105469,0.035156 -0.128906,0.1054687 -0.328125,1.06640629 -0.996094,1.31250004 -1.324219,1.31250004 -0.386719,0 -0.539062,-0.328125 -0.539062,-0.65625 0,-0.22265625 0.05859,-0.44531254 0.164062,-0.87890624 z m 0,0"
         style="fill:#000000;fill-opacity:1;fill-rule:nonzero;stroke:none" />
    </g>
    <path
       id="path4"
       d="m -77.73094,-18.4861 h 42.07463 v 36.97221 h -42.07463 z"
       style="fill:none;stroke:#000000;stroke-width:0.3985;stroke-linecap:butt;stroke-linejoin:miter;stroke-miterlimit:10;stroke-dasharray:2.98883, 2.98883;stroke-dashoffset:0;stroke-opacity:1"
       transform="matrix(1.3333333,0,0,-1.3333333,117.18933,47.286667)" />
    <g
       id="g4"
       aria-label="x=2&#10;w=.5&#10;b=1"
       transform="matrix(1.3333333,0,0,1.3333333,29.949333,35.626667)">
      <path
         id="path5"
         d="m 3.3280391,-3.0129687 c 0.058594,-0.2578125 0.2929687,-1.171875 0.984375,-1.171875 0.046875,0 0.2929687,0 0.5039062,0.1289062 -0.28125,0.046875 -0.4804687,0.3046875 -0.4804687,0.5390625 0,0.1640625 0.1054687,0.3515625 0.375,0.3515625 0.2226562,0 0.5390625,-0.1875 0.5390625,-0.5859375 0,-0.515625 -0.5859375,-0.65625 -0.9257813,-0.65625 -0.5742187,0 -0.9257812,0.5273438 -1.0429687,0.7617188 C 3.0233516,-4.3020312 2.4960078,-4.4075 2.2030391,-4.4075 c -1.0429688,0 -1.60546879,1.2890625 -1.60546879,1.5351563 0,0.1054687 0.10546875,0.1054687 0.1171875,0.1054687 0.0820313,0 0.1171875,-0.023437 0.12890625,-0.1171875 C 1.1835078,-3.93875 1.8397578,-4.1848437 2.1796016,-4.1848437 c 0.1875,0 0.5390625,0.09375 0.5390625,0.6679687 0,0.3046875 -0.1640625,0.9726563 -0.5390625,2.3671875 -0.1523438,0.62109375 -0.5039063,1.04296875 -0.9492188,1.04296875 -0.058594,0 -0.28124999,0 -0.49218749,-0.12890625 0.24609375,-0.0585937 0.46874999,-0.26953125 0.46874999,-0.5390625 0,-0.2695312 -0.22265624,-0.3515625 -0.37499999,-0.3515625 -0.29296875,0 -0.5390625,0.2578125 -0.5390625,0.57421875 0,0.45703125 0.4921875,0.65625 0.93749999,0.65625 0.65625,0 1.0078125,-0.69140625 1.0429688,-0.75 0.1171875,0.36328125 0.4804687,0.75 1.078125,0.75 1.0195312,0 1.59375,-1.27734375 1.59375,-1.53515625 0,-0.09375 -0.09375,-0.09375 -0.1289063,-0.09375 -0.082031,0 -0.1054687,0.035156 -0.1289062,0.1054688 -0.328125,1.0664062 -0.9960938,1.31249995 -1.3242188,1.31249995 -0.3867187,0 -0.5390625,-0.328125 -0.5390625,-0.65625 0,-0.22265625 0.058594,-0.44531245 0.1640625,-0.87890625 z m 0,0"
         style="fill:#000000;fill-opacity:1;fill-rule:nonzero;stroke:none" />
      <path
         id="path6"
         d="m 16.552648,-3.2590625 c 0.152344,0 0.339844,0 0.339844,-0.1992187 0,-0.1992188 -0.1875,-0.1992188 -0.328125,-0.1992188 h -5.964844 c -0.140625,0 -0.328125,0 -0.328125,0.1992188 0,0.1992187 0.1875,0.1992187 0.339844,0.1992187 z m 0.01172,1.9335938 c 0.140625,0 0.328125,0 0.328125,-0.1992188 0,-0.1992187 -0.1875,-0.1992187 -0.339844,-0.1992187 h -5.941406 c -0.152344,0 -0.339844,0 -0.339844,0.1992187 0,0.1992188 0.1875,0.1992188 0.328125,0.1992188 z m 6.155274,0.56249995 1.054687,-1.03124995 c 1.558594,-1.3710938 2.15625,-1.9101563 2.15625,-2.90625 0,-1.1367188 -0.902344,-1.9335938 -2.121094,-1.9335938 -1.125,0 -1.851562,0.9140625 -1.851562,1.8046875 0,0.5507813 0.492187,0.5507813 0.527344,0.5507813 0.164062,0 0.515625,-0.1171875 0.515625,-0.5273438 0,-0.2578125 -0.1875,-0.515625 -0.527344,-0.515625 -0.08203,0 -0.105469,0 -0.128906,0.011719 0.222656,-0.6445313 0.761718,-1.0195313 1.335937,-1.0195313 0.914063,0 1.335938,0.8085938 1.335938,1.6289063 0,0.796875 -0.492188,1.5820312 -1.042969,2.203125 l -1.910156,2.13281245 c -0.10547,0.10546855 -0.10547,0.12890605 -0.10547,0.36328105 h 3.691406 l 0.28125,-1.734375 h -0.257812 c -0.04687,0.3046875 -0.117188,0.73828125 -0.210938,0.890625 -0.07031,0.0820313 -0.726562,0.0820313 -0.949219,0.0820313 z m 0,0"
         style="fill:#000000;fill-opacity:1;fill-rule:nonzero;stroke:none" />
      <path
         id="path7"
         d="m 1.1044063,8.5798047 c 0.046875,-0.2226563 0.140625,-0.5859375 0.140625,-0.6445313 0,-0.1875 -0.1289063,-0.2695312 -0.28125005,-0.2695312 -0.1171875,0 -0.3046875,0.070312 -0.375,0.2695312 -0.0234375,0.070312 -0.4921875,1.9804688 -0.5625,2.2382816 -0.0703125,0.292968 -0.09375,0.480468 -0.09375,0.65625 0,0.105468 0,0.128906 0.01171875,0.175781 -0.22265625,0.527344 -0.52734375,0.84375 -0.9140625,0.84375 -0.796875,0 -0.796875,-0.738281 -0.796875,-0.914063 0,-0.316406 0.046875,-0.703125 0.515625,-1.9335933 0.1054688,-0.2929688 0.1757813,-0.4335938 0.1757813,-0.6328125 0,-0.4453125 -0.328125,-0.8203125 -0.8203125,-0.8203125 -0.9492188,0 -1.3125,1.453125 -1.3125,1.5351562 0,0.1054688 0.09375,0.1054688 0.1171875,0.1054688 0.09375,0 0.1054687,-0.023437 0.1523437,-0.1875 0.2695313,-0.9257813 0.6679688,-1.2304688 1.0078125,-1.2304688 0.09375,0 0.2578125,0.011719 0.2578125,0.328125 0,0.2460938 -0.1171875,0.5273438 -0.1875,0.703125 -0.4335937,1.171875 -0.5507812,1.6289061 -0.5507812,2.0039061 0,0.914063 0.6679687,1.253906 1.40625,1.253906 0.1757812,0 0.6445312,0 1.0429687,-0.691406 0.2578125,0.632813 0.94921875,0.691406 1.2421875,0.691406 0.75,0 1.1835938,-0.621093 1.4414063,-1.21875 0.3398437,-0.785156 0.65625,-2.1093746 0.65625,-2.5898433 0,-0.5507813 -0.2695313,-0.703125 -0.4335938,-0.703125 -0.2460937,0 -0.5039062,0.2578125 -0.5039062,0.4804687 0,0.1289063 0.070312,0.1875 0.1523437,0.2695313 0.1171875,0.1054687 0.3632813,0.3632812 0.3632813,0.84375 0,0.3398437 -0.2929688,1.3125003 -0.5507813,1.8281253 -0.2578125,0.527343 -0.609375,0.878906 -1.0898437,0.878906 -0.46875005,0 -0.7382813,-0.304688 -0.7382813,-0.867188 0,-0.28125 0.0703125,-0.585937 0.10546875,-0.726562 z m 0,0"
         style="fill:#000000;fill-opacity:1;fill-rule:nonzero;stroke:none" />
      <path
         id="path8"
         d="m 14.270422,8.6969922 c 0.152344,0 0.339844,0 0.339844,-0.1992188 0,-0.1992187 -0.1875,-0.1992187 -0.328125,-0.1992187 H 8.3172969 c -0.140625,0 -0.328125,0 -0.328125,0.1992187 0,0.1992188 0.1875,0.1992188 0.3398437,0.1992188 z m 0.01172,1.9335938 c 0.140625,0 0.328125,0 0.328125,-0.199219 0,-0.199219 -0.1875,-0.199219 -0.339844,-0.199219 H 8.3290156 c -0.1523437,0 -0.3398437,0 -0.3398437,0.199219 0,0.199219 0.1875,0.199219 0.328125,0.199219 z m 0,0"
         style="fill:#000000;fill-opacity:1;fill-rule:nonzero;stroke:none" />
      <path
         id="path9"
         d="m 20.613195,11.427461 c 0,-0.292969 -0.234375,-0.527344 -0.527343,-0.527344 -0.28125,0 -0.527344,0.234375 -0.527344,0.527344 0,0.292969 0.246094,0.527344 0.527344,0.527344 0.292968,0 0.527343,-0.234375 0.527343,-0.527344 z m 0,0"
         style="fill:#000000;fill-opacity:1;fill-rule:nonzero;stroke:none" />
      <path
         id="path10"
         d="m 25.948156,9.9508984 c 0,-1.1835937 -0.820312,-2.1796875 -1.898437,-2.1796875 -0.480469,0 -0.902344,0.1640625 -1.265625,0.5039063 V 6.3415234 c 0.199219,0.058594 0.527344,0.1289063 0.84375,0.1289063 1.230469,0 1.933594,-0.9140625 1.933594,-1.0429688 0,-0.058594 -0.03516,-0.1054687 -0.105469,-0.1054687 -0.01172,0 -0.03516,0 -0.08203,0.023437 -0.199219,0.09375 -0.679688,0.2929687 -1.347657,0.2929687 -0.398437,0 -0.855468,-0.070312 -1.324218,-0.28125 -0.08203,-0.023437 -0.105469,-0.023437 -0.128907,-0.023437 -0.09375,0 -0.09375,0.082031 -0.09375,0.234375 v 2.953125 c 0,0.1757813 0,0.2578125 0.140625,0.2578125 0.07031,0 0.08203,-0.035156 0.128907,-0.09375 0.105468,-0.1523437 0.480468,-0.6914062 1.277343,-0.6914062 0.527344,0 0.773438,0.4570312 0.855469,0.6328125 0.152344,0.375 0.175781,0.7617187 0.175781,1.2539062 0,0.3515621 0,0.9492191 -0.234375,1.3710941 -0.246093,0.386718 -0.609375,0.644531 -1.066406,0.644531 -0.726562,0 -1.300781,-0.527344 -1.464844,-1.113281 0.02344,0.01172 0.05859,0.01172 0.164063,0.01172 0.328125,0 0.503906,-0.246093 0.503906,-0.480468 0,-0.246094 -0.175781,-0.4921878 -0.503906,-0.4921878 -0.140625,0 -0.480469,0.070312 -0.480469,0.5273438 0,0.855469 0.679688,1.828125 1.792969,1.828125 1.160156,0 2.179687,-0.960938 2.179687,-2.2265626 z m 0,0"
         style="fill:#000000;fill-opacity:1;fill-rule:nonzero;stroke:none" />
      <path
         id="path11"
         d="m 3.4891719,17.102266 c 0,0 0,-0.105469 -0.1289063,-0.105469 -0.2226562,0 -0.9492187,0.08203 -1.21875,0.105469 -0.070312,0 -0.1875,0.01172 -0.1875,0.199218 0,0.117188 0.09375,0.117188 0.2460938,0.117188 0.46875,0 0.4921875,0.07031 0.4921875,0.164062 0,0.07031 -0.082031,0.410157 -0.140625,0.621094 l -0.8085938,3.246094 c -0.1289062,0.503906 -0.1640625,0.65625 -0.1640625,1.007812 0,0.949219 0.5273438,1.558594 1.265625,1.558594 1.171875,0 2.4023438,-1.476562 2.4023438,-2.917969 0,-0.902343 -0.5273438,-1.59375 -1.3242188,-1.59375 -0.4570312,0 -0.8671875,0.292969 -1.171875,0.597657 z m -0.9375,3.773437 c 0.058594,-0.222656 0.058594,-0.246094 0.1523437,-0.351562 0.4921875,-0.644532 0.9375,-0.796875 1.1953125,-0.796875 0.3632813,0 0.6328125,0.292968 0.6328125,0.9375 0,0.585937 -0.328125,1.734375 -0.515625,2.109375 -0.328125,0.667968 -0.7851562,1.03125 -1.171875,1.03125 -0.3398437,0 -0.6679687,-0.269532 -0.6679687,-1.007813 0,-0.1875 0,-0.386719 0.1640625,-1.007812 z m 0,0"
         style="fill:#000000;fill-opacity:1;fill-rule:nonzero;stroke:none" />
      <path
         id="path12"
         d="m 16.397375,20.653047 c 0.152344,0 0.339844,0 0.339844,-0.199219 0,-0.199219 -0.1875,-0.199219 -0.328125,-0.199219 H 10.44425 c -0.140625,0 -0.328125,0 -0.328125,0.199219 0,0.199219 0.1875,0.199219 0.339844,0.199219 z m 0.01172,1.933594 c 0.140625,0 0.328125,0 0.328125,-0.199219 0,-0.199219 -0.1875,-0.199219 -0.339844,-0.199219 H 10.45597 c -0.152344,0 -0.339844,0 -0.339844,0.199219 0,0.199219 0.1875,0.199219 0.328125,0.199219 z m 7.980469,-5.050782 c 0,-0.234375 0,-0.257812 -0.234375,-0.257812 -0.609375,0.632812 -1.488282,0.632812 -1.804688,0.632812 v 0.316407 c 0.199219,0 0.785156,0 1.300781,-0.257813 v 5.15625 c 0,0.351563 -0.03516,0.480469 -0.925781,0.480469 h -0.316406 v 0.304687 c 0.351562,-0.03516 1.207031,-0.03516 1.605469,-0.03516 0.398437,0 1.265625,0 1.617187,0.03516 v -0.304687 h -0.316406 c -0.902344,0 -0.925781,-0.117188 -0.925781,-0.480469 z m 0,0"
         style="fill:#000000;fill-opacity:1;fill-rule:nonzero;stroke:none" />
    </g>
    <path
       id="path13"
       d="m 126.70496,0 c 0,6.4843 -18.65356,11.74074 -41.66451,11.74074 C 62.0295,11.74074 43.37595,6.4843 43.37595,0 c 0,-6.4843 18.65355,-11.74074 41.6645,-11.74074 23.01095,0 41.66451,5.25644 41.66451,11.74074 z"
       style="fill:none;stroke:#000000;stroke-width:1.59404;stroke-linecap:butt;stroke-linejoin:miter;stroke-miterlimit:10;stroke-dasharray:none;stroke-opacity:1"
       transform="matrix(1.3333333,0,0,-1.3333333,117.18933,47.286667)" />
    <g
       id="g13"
       aria-label="F(w·x+b)"
       transform="matrix(1.3333333,0,0,1.3333333,195.72267,50.608)">
      <path
         id="path14"
         d="m 3.0234297,-3.2333437 h 0.9609375 c 0.75,0 0.8320312,0.1523437 0.8320312,0.4453125 0,0.070312 0,0.1875 -0.070312,0.4921875 -0.023437,0.046875 -0.035156,0.082031 -0.035156,0.1054687 0,0.082031 0.058594,0.1171875 0.1171875,0.1171875 0.1054687,0 0.1054687,-0.023437 0.1523437,-0.2109375 l 0.5507813,-2.15625 c 0.023437,-0.1054687 0.023437,-0.1289062 0.023437,-0.1640625 0,-0.011719 -0.011719,-0.1054687 -0.1171875,-0.1054687 -0.09375,0 -0.1054688,0.046875 -0.1523438,0.2109375 C 5.0859297,-3.7255312 4.8515547,-3.54975 4.0078047,-3.54975 H 3.0937422 L 3.7382734,-6.081 c 0.082031,-0.3398437 0.09375,-0.3867187 0.5390625,-0.3867187 h 1.3125 c 1.21875,0 1.453125,0.328125 1.453125,1.1015625 0,0.2226562 0,0.2695312 -0.035156,0.5390625 -0.011719,0.1289062 -0.011719,0.140625 -0.011719,0.1757812 0,0.046875 0.023437,0.1171875 0.1171875,0.1171875 0.1054688,0 0.1171875,-0.058594 0.140625,-0.2460937 L 7.4531172,-6.502875 C 7.4765547,-6.7724062 7.4296797,-6.7724062 7.1835859,-6.7724062 H 2.2968672 c -0.1992188,0 -0.2929688,0 -0.2929688,0.1992187 0,0.1054688 0.09375,0.1054688 0.28125,0.1054688 0.3632813,0 0.6445313,0 0.6445313,0.1875 0,0.035156 0,0.058594 -0.046875,0.234375 l -1.3242188,5.27343745 c -0.09375,0.38671875 -0.1171875,0.46875 -0.90234371,0.46875 -0.1640625,0 -0.28125,0 -0.28125,0.1875 0,0.1171875 0.12890625,0.1171875 0.15234375,0.1171875 0.29296875,0 1.03124996,-0.03515625 1.31249996,-0.03515625 0.328125,0 1.1601563,0.03515625 1.4882813,0.03515625 0.09375,0 0.2109375,0 0.2109375,-0.1875 0,-0.0820313 -0.058594,-0.10546875 -0.058594,-0.1171875 -0.035156,0 -0.058594,0 -0.28125,0 -0.2226562,0 -0.2695312,0 -0.515625,-0.0234375 -0.2929687,-0.0351563 -0.328125,-0.0703125 -0.328125,-0.19921875 0,-0.0234375 0,-0.0820313 0.046875,-0.234375 z m 0,0"
         style="fill:#000000;fill-opacity:1;fill-rule:nonzero;stroke:none" />
      <path
         id="path15"
         d="M 11.083,2.3916563 C 11.083,2.3565 11.083,2.3447813 10.918937,2.169 9.67675,0.91509375 9.348625,-0.95990625 9.348625,-2.4950625 9.348625,-4.2177187 9.7353437,-5.9520937 10.954094,-7.206 11.083,-7.3231875 11.083,-7.3349062 11.083,-7.3700625 c 0,-0.070312 -0.03516,-0.1054687 -0.09375,-0.1054687 -0.105469,0 -0.9960938,0.6796875 -1.5820313,1.9453125 -0.515625,1.1015625 -0.6328125,2.203125 -0.6328125,3.0351562 0,0.7851563 0.1171875,1.9921875 0.65625,3.1171875 0.5976558,1.21875 1.4531248,1.875 1.5585938,1.875 0.05859,0 0.09375,-0.035156 0.09375,-0.1054687 z m 0,0"
         style="fill:#000000;fill-opacity:1;fill-rule:nonzero;stroke:none" />
      <path
         id="path16"
         d="m 16.268547,-3.3739687 c 0.04687,-0.2226563 0.140625,-0.5859375 0.140625,-0.6445313 0,-0.1875 -0.128906,-0.2695312 -0.28125,-0.2695312 -0.117188,0 -0.304688,0.070312 -0.375,0.2695312 -0.02344,0.070313 -0.492188,1.9804688 -0.5625,2.2382813 -0.07031,0.2929687 -0.09375,0.4804687 -0.09375,0.65625 0,0.1054687 0,0.1289062 0.01172,0.1757812 -0.222657,0.52734375 -0.527344,0.84375 -0.914063,0.84375 -0.796875,0 -0.796875,-0.73828125 -0.796875,-0.9140625 0,-0.3164062 0.04687,-0.703125 0.515625,-1.9335937 0.105469,-0.2929688 0.175781,-0.4335938 0.175781,-0.6328125 0,-0.4453125 -0.328125,-0.8203125 -0.820312,-0.8203125 -0.949219,0 -1.3125,1.453125 -1.3125,1.5351562 0,0.1054688 0.09375,0.1054688 0.117187,0.1054688 0.09375,0 0.105469,-0.023437 0.152344,-0.1875 0.269531,-0.9257813 0.667969,-1.2304688 1.007813,-1.2304688 0.09375,0 0.257812,0.011719 0.257812,0.328125 0,0.2460938 -0.117187,0.5273438 -0.1875,0.703125 -0.433594,1.171875 -0.550781,1.6289063 -0.550781,2.0039063 0,0.91406245 0.667969,1.2539062 1.40625,1.2539062 0.175781,0 0.644531,0 1.042969,-0.69140625 C 15.459954,0.04790625 16.15136,0.1065 16.444329,0.1065 c 0.75,0 1.183594,-0.62109375 1.441406,-1.21875 0.339844,-0.7851562 0.65625,-2.109375 0.65625,-2.5898437 0,-0.5507813 -0.269531,-0.703125 -0.433593,-0.703125 -0.246094,0 -0.503907,0.2578125 -0.503907,0.4804687 0,0.1289063 0.07031,0.1875 0.152344,0.2695313 0.117188,0.1054687 0.363281,0.3632812 0.363281,0.84375 0,0.3398437 -0.292968,1.3125 -0.550781,1.82812495 -0.257812,0.52734375 -0.609375,0.87890625 -1.089844,0.87890625 -0.46875,0 -0.738281,-0.3046875 -0.738281,-0.8671875 0,-0.28125 0.07031,-0.5859375 0.105469,-0.7265625 z m 0,0"
         style="fill:#000000;fill-opacity:1;fill-rule:nonzero;stroke:none" />
      <path
         id="path17"
         d="m 23.188469,-2.4950625 c 0,-0.28125 -0.234375,-0.5273437 -0.527344,-0.5273437 -0.28125,0 -0.527344,0.2460937 -0.527344,0.5273437 0,0.2929688 0.246094,0.5390625 0.527344,0.5390625 0.292969,0 0.527344,-0.2460937 0.527344,-0.5390625 z m 0,0"
         style="fill:#000000;fill-opacity:1;fill-rule:nonzero;stroke:none" />
      <path
         id="path18"
         d="m 29.586906,-3.0106875 c 0.05859,-0.2578125 0.292969,-1.171875 0.984375,-1.171875 0.04687,0 0.292969,0 0.503906,0.1289063 -0.28125,0.046875 -0.480468,0.3046875 -0.480468,0.5390625 0,0.1640625 0.105468,0.3515625 0.375,0.3515625 0.222656,0 0.539062,-0.1875 0.539062,-0.5859375 0,-0.515625 -0.585937,-0.65625 -0.925781,-0.65625 -0.574219,0 -0.925781,0.5273437 -1.042969,0.7617187 -0.257812,-0.65625 -0.785156,-0.7617187 -1.078125,-0.7617187 -1.042969,0 -1.605469,1.2890625 -1.605469,1.5351562 0,0.1054688 0.105469,0.1054688 0.117188,0.1054688 0.08203,0 0.117187,-0.023437 0.128906,-0.1171875 0.339844,-1.0546875 0.996094,-1.3007813 1.335938,-1.3007813 0.1875,0 0.539062,0.09375 0.539062,0.6679688 0,0.3046875 -0.164062,0.9726562 -0.539062,2.3671875 -0.152344,0.6210937 -0.503907,1.0429687 -0.949219,1.0429687 -0.05859,0 -0.28125,0 -0.492188,-0.12890625 0.246094,-0.0585938 0.46875,-0.26953125 0.46875,-0.5390625 0,-0.26953125 -0.222656,-0.35156245 -0.375,-0.35156245 -0.292968,0 -0.539062,0.25781245 -0.539062,0.5742187 0,0.45703125 0.492187,0.65625 0.9375,0.65625 0.65625,0 1.007812,-0.69140625 1.042969,-0.75 0.117187,0.36328125 0.480468,0.75 1.078125,0.75 1.019531,0 1.59375,-1.2773437 1.59375,-1.5351562 0,-0.09375 -0.09375,-0.09375 -0.128907,-0.09375 -0.08203,0 -0.105468,0.035156 -0.128906,0.1054687 -0.328125,1.06640625 -0.996094,1.3125 -1.324219,1.3125 -0.386718,0 -0.539062,-0.328125 -0.539062,-0.65625 0,-0.22265625 0.05859,-0.4453125 0.164062,-0.8789062 z m 0,0"
         style="fill:#000000;fill-opacity:1;fill-rule:nonzero;stroke:none" />
      <path
         id="path19"
         d="m 38.247062,-2.2958437 h 2.777344 c 0.140625,0 0.328125,0 0.328125,-0.1992188 0,-0.1992187 -0.1875,-0.1992187 -0.328125,-0.1992187 h -2.777344 v -2.7890625 c 0,-0.1289063 0,-0.328125 -0.199218,-0.328125 -0.199219,0 -0.199219,0.1992187 -0.199219,0.328125 v 2.7890625 h -2.789063 c -0.140625,0 -0.328125,0 -0.328125,0.1992187 0,0.1992188 0.1875,0.1992188 0.328125,0.1992188 h 2.789063 v 2.8007812 c 0,0.12890625 0,0.328125 0.199219,0.328125 0.199218,0 0.199218,-0.19921875 0.199218,-0.328125 z m 0,0"
         style="fill:#000000;fill-opacity:1;fill-rule:nonzero;stroke:none" />
      <path
         id="path20"
         d="m 46.508781,-6.8075625 c 0,0 0,-0.1054687 -0.128906,-0.1054687 -0.222656,0 -0.949219,0.082031 -1.21875,0.1054687 -0.07031,0 -0.1875,0.011719 -0.1875,0.1992188 0,0.1171875 0.09375,0.1171875 0.246094,0.1171875 0.46875,0 0.492187,0.070312 0.492187,0.1640625 0,0.070312 -0.08203,0.4101562 -0.140625,0.6210937 l -0.808594,3.2460938 c -0.128906,0.5039062 -0.164062,0.65625 -0.164062,1.0078125 0,0.9492187 0.527344,1.5585937 1.265625,1.5585937 1.171875,0 2.402344,-1.4765625 2.402344,-2.9179687 0,-0.9023438 -0.527344,-1.59375 -1.324219,-1.59375 -0.457031,0 -0.867188,0.2929687 -1.171875,0.5976562 z m -0.9375,3.7734375 c 0.05859,-0.2226562 0.05859,-0.2460937 0.152344,-0.3515625 0.492187,-0.6445312 0.9375,-0.796875 1.195312,-0.796875 0.363282,0 0.632813,0.2929688 0.632813,0.9375 0,0.5859375 -0.328125,1.734375 -0.515625,2.109375 -0.328125,0.66796875 -0.785156,1.03125 -1.171875,1.03125 -0.339844,0 -0.667969,-0.26953125 -0.667969,-1.0078125 0,-0.1875 0,-0.3867187 0.164063,-1.0078125 z m 0,0"
         style="fill:#000000;fill-opacity:1;fill-rule:nonzero;stroke:none" />
      <path
         id="path21"
         d="m 51.290031,-2.4950625 c 0,-0.7734375 -0.117187,-1.9804687 -0.65625,-3.1054687 -0.597656,-1.21875 -1.464844,-1.875 -1.558594,-1.875 -0.05859,0 -0.105468,0.046875 -0.105468,0.1054687 0,0.035156 0,0.046875 0.199218,0.234375 0.972657,0.984375 1.535157,2.5664063 1.535157,4.640625 0,1.7109375 -0.363282,3.45703125 -1.59375,4.7226563 -0.140625,0.1171875 -0.140625,0.1289062 -0.140625,0.1640625 0,0.058594 0.04687,0.1054687 0.105468,0.1054687 0.09375,0 0.996094,-0.6796875 1.582032,-1.9453125 0.503906,-1.1015625 0.632812,-2.203125 0.632812,-3.046875 z m 0,0"
         style="fill:#000000;fill-opacity:1;fill-rule:nonzero;stroke:none" />
    </g>
    <path
       id="path22"
       d="m 194.78935,0 c 0,13.64626 -11.06216,24.70844 -24.70843,24.70844 -13.64627,0 -24.70845,-11.06218 -24.70845,-24.70844 0,-13.64626 11.06218,-24.70844 24.70845,-24.70844 13.64627,0 24.70843,11.06218 24.70843,24.70844 z"
       style="fill:none;stroke:#000000;stroke-width:1.59404;stroke-linecap:butt;stroke-linejoin:miter;stroke-miterlimit:10;stroke-dasharray:none;stroke-opacity:1"
       transform="matrix(1.3333333,0,0,-1.3333333,117.18933,47.286667)" />
    <g
       id="g22"
       aria-label="Outputo"
       transform="matrix(1.3333333,0,0,1.3333333,317.12,50.68)">
      <path
         id="path23"
         d="m 7.1844141,-3.3752344 c 0,-2.0390625 -1.5,-3.6445312 -3.3164063,-3.6445312 -1.78125,0 -3.30468749,1.59375 -3.30468749,3.6445312 0,2.0390625 1.53515629,3.59765628 3.30468749,3.59765628 1.8164063,0 3.3164063,-1.58203128 3.3164063,-3.59765628 z m -1.03125,-0.140625 c 0,2.63671878 -1.359375,3.48046878 -2.2734375,3.48046878 -0.9609375,0 -2.296875,-0.87890625 -2.296875,-3.48046878 0,-2.578125 1.453125,-3.2578125 2.2851562,-3.2578125 0.8671875,0 2.2851563,0.703125 2.2851563,3.2578125 z M 13.081875,-2.34375e-4 V -0.30492187 c -0.703125,0 -0.785156,-0.0703125 -0.785156,-0.5625 V -4.4064844 l -1.453125,0.1171875 v 0.3046875 c 0.691406,0 0.773437,0.070312 0.773437,0.5625 v 1.7695313 c 0,0.86718748 -0.480468,1.54687498 -1.207031,1.54687498 -0.8320312,0 -0.8789062,-0.46875 -0.8789062,-0.99609378 V -4.4064844 L 8.06625,-4.2892969 v 0.3046875 c 0.7851563,0 0.7851563,0.035156 0.7851563,0.9140625 v 1.5 c 0,0.77343753 0,1.67578128 1.5117187,1.67578128 0.550781,0 0.996094,-0.26953125 1.277344,-0.890625 v 0.890625 z M 16.59457,-1.2307031 v -0.5742188 h -0.246093 v 0.5507813 c 0,0.73828123 -0.304688,1.11328123 -0.667969,1.11328123 -0.667969,0 -0.667969,-0.90234373 -0.667969,-1.07812503 v -2.765625 h 1.429688 v -0.3046875 h -1.429688 v -1.8398437 h -0.246094 c -0.01172,0.8203125 -0.316406,1.8867187 -1.289062,1.921875 v 0.2226562 h 0.84375 v 2.7539063 c 0,1.21874998 0.925781,1.33593748 1.289062,1.33593748 0.703125,0 0.984375,-0.703125 0.984375,-1.33593748 z m 5.762696,-0.9257813 c 0,-1.265625 -0.972657,-2.25 -2.085938,-2.25 -0.773437,0 -1.195312,0.4453125 -1.394531,0.65625 v -0.65625 l -1.429688,0.1171875 v 0.3046875 c 0.703125,0 0.773438,0.058594 0.773438,0.4921875 v 4.6640625 c 0,0.4570313 -0.105469,0.4570313 -0.773438,0.4570313 v 0.3046875 l 1.113282,-0.035156 1.125,0.035156 V 1.6286719 c -0.667969,0 -0.773438,0 -0.773438,-0.4570313 v -1.75781247 c 0.04687,0.15234375 0.46875,0.69140625 1.21875,0.69140625 1.183594,0 2.226563,-0.97265625 2.226563,-2.26171878 z m -0.832032,0 c 0,1.20703128 -0.691406,2.05078128 -1.429687,2.05078128 -0.398438,0 -0.773438,-0.19921875 -1.042969,-0.609375 -0.140625,-0.2109375 -0.140625,-0.22265625 -0.140625,-0.42187498 v -2.2148438 c 0.28125,-0.515625 0.773438,-0.796875 1.277344,-0.796875 0.726562,0 1.335937,0.8671875 1.335937,1.9921875 z M 28.03793,-2.34375e-4 V -0.30492187 c -0.703125,0 -0.785157,-0.0703125 -0.785157,-0.5625 V -4.4064844 l -1.453125,0.1171875 v 0.3046875 c 0.691407,0 0.773438,0.070312 0.773438,0.5625 v 1.7695313 c 0,0.86718748 -0.480469,1.54687498 -1.207031,1.54687498 -0.832032,0 -0.878907,-0.46875 -0.878907,-0.99609378 v -3.3046875 l -1.464843,0.1171875 v 0.3046875 c 0.785156,0 0.785156,0.035156 0.785156,0.9140625 v 1.5 c 0,0.77343753 0,1.67578128 1.511719,1.67578128 0.550781,0 0.996093,-0.26953125 1.277343,-0.890625 v 0.890625 z M 31.547695,-1.2307031 v -0.5742188 h -0.246093 v 0.5507813 c 0,0.73828123 -0.304688,1.11328123 -0.667969,1.11328123 -0.667969,0 -0.667969,-0.90234373 -0.667969,-1.07812503 v -2.765625 h 1.429688 V -4.2892969 H 29.965664 V -6.1291406 H 29.71957 c -0.01172,0.8203125 -0.316406,1.8867187 -1.289062,1.921875 v 0.2226562 h 0.84375 v 2.7539063 c 0,1.21874998 0.925781,1.33593748 1.289062,1.33593748 0.703125,0 0.984375,-0.703125 0.984375,-1.33593748 z m 0,0"
         style="fill:#000000;fill-opacity:1;fill-rule:nonzero;stroke:none" />
      <path
         id="path24"
         d="m 40.114102,-2.7189844 c 0,-1.03125 -0.703125,-1.6875 -1.59375,-1.6875 -1.335938,0 -2.671875,1.4179688 -2.671875,2.8359375 0,0.98437503 0.667968,1.67578128 1.59375,1.67578128 1.324218,0 2.671875,-1.37109378 2.671875,-2.82421878 z m -2.660157,2.61328128 c -0.433593,0 -0.867187,-0.31640625 -0.867187,-1.08984378 0,-0.4921875 0.257812,-1.5585937 0.574219,-2.0742187 0.503906,-0.7617188 1.066406,-0.9140625 1.347656,-0.9140625 0.574219,0 0.878906,0.4804687 0.878906,1.078125 0,0.3867187 -0.199219,1.4296875 -0.585937,2.0742187 -0.339844,0.58593753 -0.890625,0.92578128 -1.347657,0.92578128 z m 0,0"
         style="fill:#000000;fill-opacity:1;fill-rule:nonzero;stroke:none" />
    </g>
    <path
       id="path25"
       d="m 219.68785,-8.30194 h 70.86702 v 16.6039 h -70.86702 z"
       style="fill:none;stroke:#000000;stroke-width:1.59404;stroke-linecap:butt;stroke-linejoin:miter;stroke-miterlimit:10;stroke-dasharray:none;stroke-opacity:1"
       transform="matrix(1.3333333,0,0,-1.3333333,117.18933,47.286667)" />
    <g
       id="g25"
       aria-label="L(y,ˆy)"
       transform="matrix(1.3333333,0,0,1.3333333,437.66267,50.608)">
      <path
         id="path26"
         d="M 1.7940156,-0.92475 C 2.3330781,-1.7567812 2.4971406,-2.4013125 2.6260469,-2.9286562 2.9776094,-4.29975 3.3526094,-5.4950625 3.9737031,-6.1864687 4.0908906,-6.315375 4.1729219,-6.409125 4.4893281,-6.409125 c 0.6914063,0 0.7148438,0.6914063 0.7148438,0.8320313 0,0.1757812 -0.058594,0.3164062 -0.058594,0.3632812 0,0.070312 0.070312,0.070312 0.070312,0.070312 0.1640625,0 0.4335938,-0.1054687 0.6796875,-0.28125 0.1875,-0.140625 0.2695313,-0.2460937 0.2695313,-0.65625 0,-0.5273437 -0.28125,-0.9375 -0.8320313,-0.9375 -0.3164062,0 -1.1953125,0.082031 -2.1796875,1.0664063 -0.796875,0.8085937 -1.2539062,2.6015625 -1.453125,3.3515625 -0.1757812,0.6914062 -0.2578125,0.9960937 -0.5507812,1.59375 -0.070312,0.11718745 -0.32812503,0.56249995 -0.46875003,0.6914062 -0.26953125,0.24609375 -0.375,0.421875 -0.375,0.48046875 0,0.0117188 0.0234375,0.0585938 0.09375,0.0585938 0.0351563,0 0.24609375,-0.046875 0.50390625,-0.2109375 0.17578128,-0.10546875 0.19921878,-0.1171875 0.42187498,-0.36328125 0.5039063,0.0117188 0.84375,0.10546875 1.4765625,0.28125 0.5039063,0.140625 1.0195313,0.29296875 1.5234375,0.29296875 0.8085938,0 1.6171875,-0.609375 1.9453125,-1.0546875 0.1992188,-0.26953125 0.2578125,-0.51562505 0.2578125,-0.53906255 0,-0.070312 -0.058594,-0.070312 -0.070312,-0.070312 -0.1640625,0 -0.3984375,0.1054688 -0.5742187,0.2226563 -0.2695313,0.1757812 -0.28125,0.234375 -0.3398438,0.3984375 -0.058594,0.1640625 -0.1171875,0.24609375 -0.1523437,0.3046875 -0.082031,0.1171875 -0.09375,0.1171875 -0.2460938,0.1171875 -0.46875,0 -0.9726562,-0.15234375 -1.6289062,-0.328125 -0.28125,-0.0820313 -0.8203125,-0.234375 -1.3242188,-0.234375 -0.1289062,0 -0.2695312,0 -0.3984373,0.0351562 z m 0,0"
         style="fill:#000000;fill-opacity:1;fill-rule:nonzero;stroke:none" />
      <path
         id="path27"
         d="m 10.164133,2.3916563 c 0,-0.035156 0,-0.046875 -0.164063,-0.2226563 -1.2421872,-1.25390625 -1.5703122,-3.12890625 -1.5703122,-4.6640625 0,-1.7226562 0.3867188,-3.4570312 1.6054692,-4.7109375 0.128906,-0.1171875 0.128906,-0.1289062 0.128906,-0.1640625 0,-0.070312 -0.03516,-0.1054687 -0.09375,-0.1054687 -0.1054689,0 -0.9960939,0.6796875 -1.5820314,1.9453125 -0.515625,1.1015625 -0.6328125,2.203125 -0.6328125,3.0351562 0,0.7851563 0.1171875,1.9921875 0.65625,3.1171875 0.5976562,1.21875 1.453125,1.875 1.5585939,1.875 0.05859,0 0.09375,-0.035156 0.09375,-0.1054687 z m 0,0"
         style="fill:#000000;fill-opacity:1;fill-rule:nonzero;stroke:none" />
      <path
         id="path28"
         d="m 15.586984,-3.7958437 c 0.04687,-0.140625 0.04687,-0.1523438 0.04687,-0.2226563 0,-0.1875 -0.140625,-0.2695312 -0.292968,-0.2695312 -0.105469,0 -0.257813,0.058594 -0.351563,0.1992187 -0.02344,0.058594 -0.09375,0.3632813 -0.140625,0.5390625 -0.07031,0.2578125 -0.140625,0.5273438 -0.199219,0.796875 l -0.445312,1.79296875 c -0.03516,0.15234375 -0.46875,0.85546875 -1.125,0.85546875 -0.503906,0 -0.621094,-0.4453125 -0.621094,-0.80859375 0,-0.45703125 0.175781,-1.07812495 0.515625,-1.95703125 0.152344,-0.4101562 0.199219,-0.515625 0.199219,-0.7148437 0,-0.4453125 -0.328125,-0.8203125 -0.820313,-0.8203125 -0.949218,0 -1.3125,1.453125 -1.3125,1.5351562 0,0.1054688 0.09375,0.1054688 0.117188,0.1054688 0.09375,0 0.105469,-0.023437 0.152344,-0.1875 0.269531,-0.9375 0.667968,-1.2304688 1.007812,-1.2304688 0.08203,0 0.257813,0 0.257813,0.3164063 0,0.2460937 -0.105469,0.515625 -0.175782,0.703125 -0.398437,1.0546875 -0.574218,1.6171875 -0.574218,2.0859375 0,0.89062495 0.621093,1.1835937 1.21875,1.1835937 0.386718,0 0.726562,-0.1640625 0.996093,-0.4453125 -0.128906,0.515625 -0.246093,1.0078125 -0.644531,1.5351563 -0.257812,0.3398437 -0.632812,0.6328125 -1.089844,0.6328125 -0.140625,0 -0.597656,-0.035156 -0.761718,-0.421875 0.164062,0 0.292968,0 0.433593,-0.1171875 0.09375,-0.09375 0.199219,-0.2226563 0.199219,-0.4101563 0,-0.31640625 -0.269531,-0.3515625 -0.375,-0.3515625 -0.222656,0 -0.550781,0.1640625 -0.550781,0.6445313 0,0.5039062 0.433594,0.8671875 1.054687,0.8671875 1.019532,0 2.050782,-0.9023438 2.332032,-2.0273438 z m 2.416993,3.7851562 c 0,-0.65625 -0.257813,-1.0429687 -0.644532,-1.0429687 -0.328125,0 -0.527343,0.2460937 -0.527343,0.5273437 0,0.26953125 0.199218,0.52734375 0.527343,0.52734375 0.117188,0 0.246094,-0.03515625 0.351563,-0.12890625 0.02344,-0.0234375 0.03516,-0.0351563 0.04687,-0.0351563 0.01172,0 0.02344,0.0117188 0.02344,0.15234375 0,0.73828125 -0.351562,1.33593745 -0.679687,1.66406245 -0.105469,0.1054688 -0.105469,0.1289063 -0.105469,0.1640625 0,0.070312 0.04687,0.1054688 0.09375,0.1054688 0.117188,0 0.914063,-0.7617188 0.914063,-1.93359375 z m 0,0"
         style="fill:#000000;fill-opacity:1;fill-rule:nonzero;stroke:none" />
      <path
         id="path29"
         d="m 23.59382,-6.9130312 -1.335937,1.359375 0.175781,0.1757812 1.160156,-1.0195312 1.136719,1.0195312 0.1875,-0.1757812 z m 0,0"
         style="fill:#000000;fill-opacity:1;fill-rule:nonzero;stroke:none" />
      <path
         id="path30"
         d="m 25.254953,-3.7958437 c 0.04687,-0.140625 0.04687,-0.1523438 0.04687,-0.2226563 0,-0.1875 -0.140625,-0.2695312 -0.292969,-0.2695312 -0.105468,0 -0.257812,0.058594 -0.351562,0.1992187 -0.02344,0.058594 -0.09375,0.3632813 -0.140625,0.5390625 -0.07031,0.2578125 -0.140625,0.5273438 -0.199219,0.796875 l -0.445312,1.79296875 c -0.03516,0.15234375 -0.46875,0.85546875 -1.125,0.85546875 -0.503907,0 -0.621094,-0.4453125 -0.621094,-0.80859375 0,-0.45703125 0.175781,-1.07812495 0.515625,-1.95703125 0.152344,-0.4101562 0.199219,-0.515625 0.199219,-0.7148437 0,-0.4453125 -0.328125,-0.8203125 -0.820313,-0.8203125 -0.949219,0 -1.3125,1.453125 -1.3125,1.5351562 0,0.1054688 0.09375,0.1054688 0.117188,0.1054688 0.09375,0 0.105468,-0.023437 0.152343,-0.1875 0.269532,-0.9375 0.667969,-1.2304688 1.007813,-1.2304688 0.08203,0 0.257812,0 0.257812,0.3164063 0,0.2460937 -0.105468,0.515625 -0.175781,0.703125 -0.398437,1.0546875 -0.574219,1.6171875 -0.574219,2.0859375 0,0.89062495 0.621094,1.1835937 1.21875,1.1835937 0.386719,0 0.726563,-0.1640625 0.996094,-0.4453125 -0.128906,0.515625 -0.246094,1.0078125 -0.644531,1.5351563 -0.257813,0.3398437 -0.632813,0.6328125 -1.089844,0.6328125 -0.140625,0 -0.597656,-0.035156 -0.761719,-0.421875 0.164063,0 0.292969,0 0.433594,-0.1171875 0.09375,-0.09375 0.199219,-0.2226563 0.199219,-0.4101563 0,-0.31640625 -0.269531,-0.3515625 -0.375,-0.3515625 -0.222656,0 -0.550781,0.1640625 -0.550781,0.6445313 0,0.5039062 0.433593,0.8671875 1.054687,0.8671875 1.019531,0 2.050781,-0.9023438 2.332031,-2.0273438 z m 0,0"
         style="fill:#000000;fill-opacity:1;fill-rule:nonzero;stroke:none" />
      <path
         id="path31"
         d="m 28.539133,-2.4950625 c 0,-0.7734375 -0.117188,-1.9804687 -0.65625,-3.1054687 -0.597656,-1.21875 -1.464844,-1.875 -1.558594,-1.875 -0.05859,0 -0.105469,0.046875 -0.105469,0.1054687 0,0.035156 0,0.046875 0.199219,0.234375 0.972656,0.984375 1.535156,2.5664063 1.535156,4.640625 0,1.7109375 -0.363281,3.45703125 -1.59375,4.7226563 C 26.21882,2.3447813 26.21882,2.3565 26.21882,2.3916563 c 0,0.058594 0.04687,0.1054687 0.105469,0.1054687 0.09375,0 0.996094,-0.6796875 1.582031,-1.9453125 0.503907,-1.1015625 0.632813,-2.203125 0.632813,-3.046875 z m 0,0"
         style="fill:#000000;fill-opacity:1;fill-rule:nonzero;stroke:none" />
    </g>
    <path
       id="path32"
       d="M 22.08173,0 H 41.18414"
       style="fill:none;stroke:#000000;stroke-width:0.3985;stroke-linecap:butt;stroke-linejoin:miter;stroke-miterlimit:10;stroke-dasharray:none;stroke-opacity:1"
       transform="matrix(1.3333333,0,0,-1.3333333,117.18933,47.286667)" />
    <path
       id="path33"
       d="M -2.07224,2.39104 C -1.69365,0.95639 -0.84999,0.27895 0,0 -0.84999,-0.27895 -1.69365,-0.95639 -2.07224,-2.39104"
       style="fill:none;stroke:#000000;stroke-width:0.3985;stroke-linecap:round;stroke-linejoin:round;stroke-miterlimit:10;stroke-dasharray:none;stroke-opacity:1"
       transform="matrix(1.3333333,0,0,-1.3333333,172.36719,47.286667)" />
    <path
       id="path34"
       d="m 7.0068125,-3.9834609 v -0.3046875 c -0.2226563,0.011719 -0.515625,0.023437 -0.7265625,0.023437 l -0.9375,-0.023437 v 0.3046875 c 0.3632812,0.011719 0.5859375,0.1875 0.5859375,0.4804687 0,0.058594 0,0.082031 -0.046875,0.2109375 L 4.96775,-0.74908594 3.983375,-3.5264297 C 3.948219,-3.6436172 3.9365,-3.6670547 3.9365,-3.7139297 c 0,-0.2695312 0.3867187,-0.2695312 0.5859375,-0.2695312 v -0.3046875 l -1.03125,0.023437 c -0.3046875,0 -0.5976563,-0.011719 -0.890625,-0.023437 v 0.3046875 c 0.3632812,0 0.5273437,0.023437 0.6210937,0.1523437 0.058594,0.058594 0.1640625,0.3515625 0.234375,0.5390625 L 2.6005625,-0.87799219 1.6513437,-3.5381484 c -0.046875,-0.1171875 -0.046875,-0.140625 -0.046875,-0.1757813 0,-0.2695312 0.3867188,-0.2695312 0.5859375,-0.2695312 v -0.3046875 l -1.0898437,0.023437 -0.92578125,-0.023437 v 0.3046875 c 0.50390625,0 0.62109375,0.035156 0.73828125,0.3515625 l 1.2539062,3.52734371 c 0.058594,0.140625 0.082031,0.2109375 0.2109375,0.2109375 0.1289063,0 0.1523438,-0.05859375 0.1992188,-0.19921875 l 1.0078125,-2.81249996 1.0195312,2.82421871 c 0.035156,0.1171875 0.070312,0.1875 0.1992188,0.1875 0.1289062,0 0.1523437,-0.08203125 0.1992187,-0.1875 L 6.1630625,-3.3506484 c 0.1757812,-0.4921875 0.4921875,-0.6210938 0.84375,-0.6328125 z m 0,0"
       style="fill:#000000;fill-opacity:1;fill-rule:nonzero;stroke:none"
       aria-label="w"
       transform="matrix(1.3333333,0,0,1.3333333,155.50133,42.448)" />
    <path
       id="path35"
       d="m 127.50198,0 h 15.67868"
       style="fill:none;stroke:#000000;stroke-width:0.3985;stroke-linecap:butt;stroke-linejoin:miter;stroke-miterlimit:10;stroke-dasharray:none;stroke-opacity:1"
       transform="matrix(1.3333333,0,0,-1.3333333,117.18933,47.286667)" />
    <path
       id="path36"
       d="M -2.07224,2.39104 C -1.69365,0.95639 -0.84999,0.27895 0,0 -0.84999,-0.27895 -1.69365,-0.95639 -2.07224,-2.39104"
       style="fill:none;stroke:#000000;stroke-width:0.3985;stroke-linecap:round;stroke-linejoin:round;stroke-miterlimit:10;stroke-dasharray:none;stroke-opacity:1"
       transform="matrix(1.3333333,0,0,-1.3333333,308.36255,47.286667)" />
    <path
       id="path37"
       d="m 195.58638,0 h 21.90967"
       style="fill:none;stroke:#000000;stroke-width:0.3985;stroke-linecap:butt;stroke-linejoin:miter;stroke-miterlimit:10;stroke-dasharray:none;stroke-opacity:1"
       transform="matrix(1.3333333,0,0,-1.3333333,117.18933,47.286667)" />
    <path
       id="path38"
       d="M -2.07224,2.39104 C -1.69365,0.95639 -0.84999,0.27895 0,0 -0.84999,-0.27895 -1.69365,-0.95639 -2.07224,-2.39104"
       style="fill:none;stroke:#000000;stroke-width:0.3985;stroke-linecap:round;stroke-linejoin:round;stroke-miterlimit:10;stroke-dasharray:none;stroke-opacity:1"
       transform="matrix(1.3333333,0,0,-1.3333333,407.44973,47.286667)" />
    <g
       id="g38"
       aria-label="ˆy"
       transform="matrix(1.3333333,0,0,1.3333333,390.92533,40.010667)">
      <path
         id="path39"
         d="m 2.4964297,-6.9132734 -1.3359375,1.359375 0.1757812,0.1757812 1.1601563,-1.0195312 1.1367187,1.0195312 0.1875,-0.1757812 z m 0,0"
         style="fill:#000000;fill-opacity:1;fill-rule:nonzero;stroke:none" />
      <path
         id="path40"
         d="m 4.1546328,-3.7960859 c 0.046875,-0.140625 0.046875,-0.1523438 0.046875,-0.2226563 0,-0.1875 -0.140625,-0.2695312 -0.2929687,-0.2695312 -0.1054688,0 -0.2578125,0.058594 -0.3515625,0.1992187 -0.023437,0.058594 -0.09375,0.3632813 -0.140625,0.5390625 -0.070312,0.2578125 -0.140625,0.5273438 -0.1992188,0.796875 l -0.4453125,1.79296876 c -0.035156,0.15234375 -0.46875,0.85546875 -1.125,0.85546875 -0.5039062,0 -0.6210937,-0.4453125 -0.6210937,-0.80859375 0,-0.45703126 0.1757812,-1.07812496 0.515625,-1.95703126 0.1523437,-0.4101562 0.1992187,-0.515625 0.1992187,-0.7148437 0,-0.4453125 -0.328125,-0.8203125 -0.82031249,-0.8203125 -0.94921875,0 -1.3125,1.453125 -1.3125,1.5351562 0,0.1054688 0.09375,0.1054688 0.1171875,0.1054688 0.09375,0 0.10546875,-0.023437 0.15234375,-0.1875 0.26953125,-0.9375 0.66796875,-1.2304688 1.0078125,-1.2304688 0.0820313,0 0.25781254,0 0.25781254,0.3164063 0,0.2460937 -0.1054688,0.515625 -0.17578129,0.703125 -0.3984375,1.0546875 -0.57421875,1.6171875 -0.57421875,2.0859375 0,0.89062496 0.62109374,1.18359371 1.21875004,1.18359371 0.3867187,0 0.7265625,-0.1640625 0.9960937,-0.4453125 -0.1289062,0.515625 -0.2460937,1.0078125 -0.6445312,1.53515629 -0.2578125,0.3398437 -0.6328125,0.6328125 -1.08984379,0.6328125 -0.140625,0 -0.59765625,-0.035156 -0.76171875,-0.421875 0.1640625,0 0.29296875,0 0.43359375,-0.1171875 0.09375,-0.09375 0.19921875,-0.2226563 0.19921875,-0.41015629 0,-0.31640625 -0.26953125,-0.3515625 -0.375,-0.3515625 -0.22265625,0 -0.55078125,0.1640625 -0.55078125,0.64453129 0,0.5039062 0.43359375,0.8671875 1.0546875,0.8671875 1.01953129,0 2.05078129,-0.9023438 2.33203129,-2.02734379 z m 0,0"
         style="fill:#000000;fill-opacity:1;fill-rule:nonzero;stroke:none" />
    </g>
    <g
       id="g40"
       aria-label="=&#10;1"
       transform="matrix(1.3333333,0,0,1.3333333,420.788,81.976)">
      <path
         id="path41"
         d="m 6.8445469,-3.2573906 c 0.1523437,0 0.3398437,0 0.3398437,-0.1992188 0,-0.1992187 -0.1875,-0.1992187 -0.328125,-0.1992187 H 0.89142188 c -0.140625,0 -0.328125,0 -0.328125,0.1992187 0,0.1992188 0.1875,0.1992188 0.33984375,0.1992188 z m 0.011719,1.9335937 c 0.140625,0 0.328125,0 0.328125,-0.1992187 0,-0.1992188 -0.1875,-0.1992188 -0.3398437,-0.1992188 H 0.90314063 c -0.15234375,0 -0.33984375,0 -0.33984375,0.1992188 0,0.1992187 0.1875,0.1992187 0.328125,0.1992187 z m 0,0"
         style="fill:#000000;fill-opacity:1;fill-rule:nonzero;stroke:none" />
      <path
         id="path42"
         d="m 15.586734,-8.3521172 c 0,-0.1875 -0.01172,-0.1992187 -0.210937,-0.1992187 -0.445313,0.4335937 -1.078125,0.4453125 -1.359375,0.4453125 v 0.2460937 c 0.164062,0 0.621094,0 1.007812,-0.1875 v 3.5507813 c 0,0.234375 0,0.328125 -0.691406,0.328125 h -0.269531 v 0.2460937 c 0.128906,-0.011719 0.984375,-0.023437 1.242187,-0.023437 0.210938,0 1.089844,0.011719 1.242188,0.023437 v -0.2460937 h -0.257813 c -0.703125,0 -0.703125,-0.09375 -0.703125,-0.328125 z m 0,0"
         style="fill:#000000;fill-opacity:1;fill-rule:nonzero;stroke:none" />
    </g>
    <path
       id="path43"
       d="m 27.603,39.023 h 7.059"
       style="fill:none;stroke:#000000;stroke-width:0.3985;stroke-linecap:butt;stroke-linejoin:miter;stroke-miterlimit:10;stroke-dasharray:none;stroke-opacity:1"
       transform="matrix(1.3333333,0,0,-1.3333333,399.59867,130.68533)" />
    <g
       id="g43"
       aria-label="N&#10;(y−ˆy)&#10;2"
       transform="matrix(1.3333333,0,0,1.3333333,436.40267,86.556)">
      <path
         id="path44"
         d="m 5.8122578,-4.0087969 c 0.070312,-0.2578125 0.1875,-0.4921875 0.7382813,-0.5039062 0.035156,0 0.140625,-0.011719 0.140625,-0.1523438 0,-0.046875 -0.035156,-0.09375 -0.1054688,-0.09375 -0.2226562,0 -0.4804687,0.023437 -0.7265625,0.023437 -0.1640625,0 -0.5625,-0.023437 -0.7382812,-0.023437 -0.035156,0 -0.140625,0 -0.140625,0.1523438 0,0.082031 0.09375,0.09375 0.1640625,0.09375 0.3164062,0.011719 0.4453125,0.1171875 0.4453125,0.28125 0,0.058594 -0.011719,0.09375 -0.035156,0.1757812 L 4.7927266,-1.0205156 3.0231953,-4.6416094 C 2.9646016,-4.7587969 2.9528828,-4.7587969 2.7888203,-4.7587969 H 1.8278828 c -0.1289062,0 -0.2226562,0 -0.2226562,0.1523438 0,0.09375 0.09375,0.09375 0.234375,0.09375 0.1523437,0 0.3046875,0.011719 0.4453125,0.035156 l -0.9375,3.72656252 c -0.058594,0.26953125 -0.1757813,0.48046875 -0.71484379,0.50390625 -0.0585938,0 -0.15234375,0 -0.15234375,0.140625 0,0.08203125 0.0585937,0.105468755 0.10546875,0.105468755 0.234375,0 0.49218749,-0.023437505 0.72656249,-0.023437505 0.1640625,0 0.5742188,0.023437505 0.7382813,0.023437505 0.070312,0 0.140625,-0.035156255 0.140625,-0.140625005 0,-0.10546875 -0.082031,-0.10546875 -0.1640625,-0.10546875 -0.4335938,-0.0234375 -0.4335938,-0.19921875 -0.4335938,-0.29296875 0,-0.0351563 0,-0.0703125 0.023437,-0.17578125 l 0.890625,-3.57421877 2.0390625,4.17187502 c 0.058594,0.10546875 0.082031,0.117187505 0.1523438,0.117187505 0.1171875,0 0.1171875,-0.023437505 0.1523437,-0.140625005 z m 0,0"
         style="fill:#000000;fill-opacity:1;fill-rule:nonzero;stroke:none" />
      <path
         id="path45"
         d="m 11.545656,-1.0439531 c 0,-0.035156 0,-0.046875 -0.164062,-0.2226563 -1.242188,-1.2539062 -1.5703127,-3.1289062 -1.5703127,-4.6640625 0,-1.7226562 0.3867187,-3.4570312 1.6054687,-4.7109371 0.128906,-0.117188 0.128906,-0.128907 0.128906,-0.164063 0,-0.07031 -0.03516,-0.105469 -0.09375,-0.105469 -0.105468,0 -0.996093,0.679688 -1.582031,1.9453129 -0.515625,1.1015625 -0.6328125,2.203125 -0.6328125,3.0351562 0,0.7851563 0.1171875,1.9921875 0.65625,3.1171875 0.5976565,1.21875 1.4531255,1.87500002 1.5585935,1.87500002 0.05859,0 0.09375,-0.0351563 0.09375,-0.10546872 z m 0,0"
         style="fill:#000000;fill-opacity:1;fill-rule:nonzero;stroke:none" />
      <path
         id="path46"
         d="m 16.968508,-7.2314531 c 0.04687,-0.140625 0.04687,-0.1523438 0.04687,-0.2226563 0,-0.1875 -0.140625,-0.2695312 -0.292969,-0.2695312 -0.105469,0 -0.257812,0.058594 -0.351562,0.1992187 -0.02344,0.058594 -0.09375,0.3632813 -0.140625,0.5390625 -0.07031,0.2578125 -0.140625,0.5273438 -0.199219,0.796875 l -0.445313,1.7929688 c -0.03516,0.1523437 -0.46875,0.8554687 -1.125,0.8554687 -0.503906,0 -0.621093,-0.4453125 -0.621093,-0.8085937 0,-0.4570313 0.175781,-1.078125 0.515625,-1.9570313 0.152343,-0.4101562 0.199218,-0.515625 0.199218,-0.7148437 0,-0.4453125 -0.328125,-0.8203125 -0.820312,-0.8203125 -0.949219,0 -1.3125,1.453125 -1.3125,1.5351562 0,0.1054688 0.09375,0.1054688 0.117187,0.1054688 0.09375,0 0.105469,-0.023437 0.152344,-0.1875 0.269531,-0.9375 0.667969,-1.2304688 1.007813,-1.2304688 0.08203,0 0.257812,0 0.257812,0.3164063 0,0.2460937 -0.105469,0.515625 -0.175781,0.703125 -0.398438,1.0546875 -0.574219,1.6171875 -0.574219,2.0859375 0,0.890625 0.621094,1.1835937 1.21875,1.1835937 0.386719,0 0.726563,-0.1640625 0.996094,-0.4453125 -0.128906,0.515625 -0.246094,1.0078125 -0.644531,1.5351563 -0.257813,0.3398437 -0.632813,0.6328125 -1.089844,0.6328125 -0.140625,0 -0.597656,-0.035156 -0.761719,-0.421875 0.164063,0 0.292969,0 0.433594,-0.1171875 0.09375,-0.09375 0.199219,-0.2226563 0.199219,-0.4101563 0,-0.3164062 -0.269532,-0.3515625 -0.375,-0.3515625 -0.222657,0 -0.550782,0.1640625 -0.550782,0.6445313 0,0.5039062 0.433594,0.8671875 1.054688,0.8671875 1.019531,0 2.050781,-0.9023438 2.332031,-2.0273438 z m 0,0"
         style="fill:#000000;fill-opacity:1;fill-rule:nonzero;stroke:none" />
      <path
         id="path47"
         d="m 26.147219,-5.7314531 c 0.175781,0 0.351562,0 0.351562,-0.1992188 0,-0.1992187 -0.175781,-0.1992187 -0.351562,-0.1992187 h -5.390625 c -0.164063,0 -0.339844,0 -0.339844,0.1992187 0,0.1992188 0.175781,0.1992188 0.339844,0.1992188 z m 0,0"
         style="fill:#000000;fill-opacity:1;fill-rule:nonzero;stroke:none" />
      <path
         id="path48"
         d="m 32.727297,-10.348641 -1.335938,1.3593754 0.175782,0.1757812 1.160156,-1.0195312 1.136719,1.0195312 0.1875,-0.1757812 z m 0,0"
         style="fill:#000000;fill-opacity:1;fill-rule:nonzero;stroke:none" />
      <path
         id="path49"
         d="m 34.3855,-7.2314531 c 0.04687,-0.140625 0.04687,-0.1523438 0.04687,-0.2226563 0,-0.1875 -0.140625,-0.2695312 -0.292969,-0.2695312 -0.105468,0 -0.257812,0.058594 -0.351562,0.1992187 -0.02344,0.058594 -0.09375,0.3632813 -0.140625,0.5390625 -0.07031,0.2578125 -0.140625,0.5273438 -0.199219,0.796875 l -0.445312,1.7929688 c -0.03516,0.1523437 -0.46875,0.8554687 -1.125,0.8554687 -0.503907,0 -0.621094,-0.4453125 -0.621094,-0.8085937 0,-0.4570313 0.175781,-1.078125 0.515625,-1.9570313 0.152344,-0.4101562 0.199219,-0.515625 0.199219,-0.7148437 0,-0.4453125 -0.328125,-0.8203125 -0.820313,-0.8203125 -0.949219,0 -1.3125,1.453125 -1.3125,1.5351562 0,0.1054688 0.09375,0.1054688 0.117188,0.1054688 0.09375,0 0.105468,-0.023437 0.152343,-0.1875 0.269532,-0.9375 0.667969,-1.2304688 1.007813,-1.2304688 0.08203,0 0.257812,0 0.257812,0.3164063 0,0.2460937 -0.105468,0.515625 -0.175781,0.703125 -0.398437,1.0546875 -0.574219,1.6171875 -0.574219,2.0859375 0,0.890625 0.621094,1.1835937 1.21875,1.1835937 0.386719,0 0.726563,-0.1640625 0.996094,-0.4453125 -0.128906,0.515625 -0.246094,1.0078125 -0.644531,1.5351563 -0.257813,0.3398437 -0.632813,0.6328125 -1.089844,0.6328125 -0.140625,0 -0.597656,-0.035156 -0.761719,-0.421875 0.164063,0 0.292969,0 0.433594,-0.1171875 0.09375,-0.09375 0.199219,-0.2226563 0.199219,-0.4101563 0,-0.3164062 -0.269531,-0.3515625 -0.375,-0.3515625 -0.222656,0 -0.550781,0.1640625 -0.550781,0.6445313 0,0.5039062 0.433593,0.8671875 1.054687,0.8671875 1.019531,0 2.050781,-0.9023438 2.332031,-2.0273438 z m 0,0"
         style="fill:#000000;fill-opacity:1;fill-rule:nonzero;stroke:none" />
      <path
         id="path50"
         d="m 37.672609,-5.9306719 c 0,-0.7734375 -0.117187,-1.9804687 -0.65625,-3.1054687 -0.597656,-1.2187504 -1.464843,-1.8750004 -1.558593,-1.8750004 -0.05859,0 -0.105469,0.04687 -0.105469,0.105469 0,0.03516 0,0.04687 0.199219,0.234375 0.972656,0.9843751 1.535156,2.5664064 1.535156,4.6406251 0,1.7109375 -0.363281,3.4570313 -1.59375,4.7226563 -0.140625,0.1171875 -0.140625,0.1289062 -0.140625,0.1640625 0,0.0585937 0.04687,0.10546872 0.105469,0.10546872 0.09375,0 0.996093,-0.67968752 1.582031,-1.94531252 0.503906,-1.1015625 0.632812,-2.203125 0.632812,-3.046875 z m 0,0"
         style="fill:#000000;fill-opacity:1;fill-rule:nonzero;stroke:none" />
      <path
         id="path51"
         d="m 42.178469,-8.3154375 h -0.234375 c -0.02344,0.1523437 -0.08203,0.5625 -0.175781,0.6328125 -0.05859,0.035156 -0.597657,0.035156 -0.691407,0.035156 h -1.289062 c 0.738281,-0.6445312 0.984375,-0.84375 1.394531,-1.171875 0.515625,-0.4101562 0.996094,-0.84375 0.996094,-1.5 0,-0.84375 -0.738281,-1.359375 -1.628906,-1.359375 -0.867188,0 -1.453125,0.609375 -1.453125,1.242188 0,0.363281 0.304687,0.398437 0.375,0.398437 0.164062,0 0.375,-0.117187 0.375,-0.375 0,-0.128906 -0.05859,-0.363281 -0.421875,-0.363281 0.222656,-0.503906 0.691406,-0.65625 1.019531,-0.65625 0.703125,0 1.066406,0.550781 1.066406,1.113281 0,0.609375 -0.433594,1.0898438 -0.65625,1.3359375 l -1.6875,1.6640625 c -0.07031,0.058594 -0.07031,0.070312 -0.07031,0.2695313 h 2.882812 z m 0,0"
         style="fill:#000000;fill-opacity:1;fill-rule:nonzero;stroke:none" />
    </g>
    <g
       id="g51"
       aria-label="y=1.5"
       transform="matrix(1.3333333,0,0,1.3333333,512.10533,50.276)">
      <path
         id="path52"
         d="m 4.8399453,-3.7958672 c 0.046875,-0.140625 0.046875,-0.1523437 0.046875,-0.2226562 0,-0.1875 -0.140625,-0.2695313 -0.2929687,-0.2695313 -0.1054688,0 -0.2578125,0.058594 -0.3515625,0.1992188 -0.023437,0.058594 -0.09375,0.3632812 -0.140625,0.5390625 -0.070312,0.2578125 -0.140625,0.5273437 -0.1992188,0.796875 l -0.4453125,1.79296871 c -0.035156,0.15234375 -0.46875,0.85546875 -1.125,0.85546875 -0.5039062,0 -0.6210937,-0.4453125 -0.6210937,-0.80859375 0,-0.45703121 0.1757812,-1.07812501 0.515625,-1.95703121 0.1523437,-0.4101563 0.1992187,-0.515625 0.1992187,-0.7148438 0,-0.4453125 -0.328125,-0.8203125 -0.8203125,-0.8203125 -0.94921874,0 -1.31249999,1.453125 -1.31249999,1.5351563 0,0.1054687 0.09375,0.1054687 0.1171875,0.1054687 0.09375,0 0.10546875,-0.023437 0.15234375,-0.1875 0.26953125,-0.9375 0.66796874,-1.2304687 1.00781254,-1.2304687 0.082031,0 0.2578125,0 0.2578125,0.3164062 0,0.2460938 -0.1054688,0.515625 -0.1757813,0.703125 -0.3984375,1.0546875 -0.5742187,1.6171875 -0.5742187,2.0859375 0,0.89062501 0.6210937,1.18359376 1.21875,1.18359376 0.3867187,0 0.7265625,-0.1640625 0.9960937,-0.4453125 -0.1289062,0.515625 -0.2460937,1.0078125 -0.6445312,1.53515624 -0.2578125,0.3398438 -0.6328125,0.6328125 -1.0898438,0.6328125 -0.140625,0 -0.59765624,-0.035156 -0.76171874,-0.421875 0.1640625,0 0.29296874,0 0.43359374,-0.1171875 0.09375,-0.09375 0.1992188,-0.2226562 0.1992188,-0.41015624 0,-0.31640625 -0.2695313,-0.3515625 -0.375,-0.3515625 -0.22265629,0 -0.55078129,0.1640625 -0.55078129,0.64453124 0,0.5039063 0.43359375,0.8671875 1.05468749,0.8671875 1.0195313,0 2.0507813,-0.9023437 2.3320313,-2.02734374 z m 0,0"
         style="fill:#000000;fill-opacity:1;fill-rule:nonzero;stroke:none" />
      <path
         id="path53"
         d="m 14.853617,-3.2568047 c 0.152344,0 0.339844,0 0.339844,-0.1992187 0,-0.1992188 -0.1875,-0.1992188 -0.328125,-0.1992188 H 8.9004922 c -0.140625,0 -0.328125,0 -0.328125,0.1992188 0,0.1992187 0.1875,0.1992187 0.3398437,0.1992187 z m 0.01172,1.9335938 c 0.140625,0 0.328125,0 0.328125,-0.1992188 0,-0.1992187 -0.1875,-0.1992187 -0.339844,-0.1992187 H 8.9122109 c -0.1523437,0 -0.3398437,0 -0.3398437,0.1992187 0,0.1992188 0.1875,0.1992188 0.328125,0.1992188 z m 6.574219,-5.0507813 c 0,-0.234375 0,-0.2578125 -0.234375,-0.2578125 -0.609375,0.6328125 -1.488282,0.6328125 -1.804688,0.6328125 v 0.3164063 c 0.199219,0 0.785156,0 1.300781,-0.2578125 v 5.15624996 c 0,0.3515625 -0.03516,0.48046875 -0.925781,0.48046875 h -0.316406 v 0.3046875 c 0.351562,-0.03515625 1.207031,-0.03515625 1.605469,-0.03515625 0.398437,0 1.265625,0 1.617187,0.03515625 v -0.3046875 h -0.316406 c -0.902344,0 -0.925781,-0.1171875 -0.925781,-0.48046875 z m 0,0"
         style="fill:#000000;fill-opacity:1;fill-rule:nonzero;stroke:none" />
      <path
         id="path54"
         d="m 25.41807,-0.52633594 c 0,-0.29296875 -0.234375,-0.52734376 -0.527343,-0.52734376 -0.28125,0 -0.527344,0.23437501 -0.527344,0.52734376 0,0.29296875 0.246094,0.52734375 0.527344,0.52734375 0.292968,0 0.527343,-0.234375 0.527343,-0.52734375 z m 0,0"
         style="fill:#000000;fill-opacity:1;fill-rule:nonzero;stroke:none" />
      <path
         id="path55"
         d="m 30.750102,-2.0028984 c 0,-1.1835938 -0.820313,-2.1796875 -1.898438,-2.1796875 -0.480469,0 -0.902344,0.1640625 -1.265625,0.5039062 v -1.9335937 c 0.199219,0.058594 0.527344,0.1289062 0.84375,0.1289062 1.230469,0 1.933594,-0.9140625 1.933594,-1.0429687 0,-0.058594 -0.03516,-0.1054688 -0.105469,-0.1054688 -0.01172,0 -0.03516,0 -0.08203,0.023437 -0.199219,0.09375 -0.679688,0.2929688 -1.347656,0.2929688 -0.398438,0 -0.855469,-0.070312 -1.324219,-0.28125 -0.08203,-0.023437 -0.105469,-0.023437 -0.128906,-0.023437 -0.09375,0 -0.09375,0.082031 -0.09375,0.234375 v 2.953125 c 0,0.1757812 0,0.2578125 0.140625,0.2578125 0.07031,0 0.08203,-0.035156 0.128906,-0.09375 0.105469,-0.1523438 0.480469,-0.6914063 1.277344,-0.6914063 0.527343,0 0.773437,0.4570313 0.855468,0.6328125 0.152344,0.375 0.175782,0.7617188 0.175782,1.2539063 0,0.3515625 0,0.9492187 -0.234375,1.37109371 -0.246094,0.38671875 -0.609375,0.64453125 -1.066407,0.64453125 -0.726562,0 -1.300781,-0.52734375 -1.464843,-1.11328126 0.02344,0.011719 0.05859,0.011719 0.164062,0.011719 0.328125,0 0.503906,-0.2460938 0.503906,-0.4804688 0,-0.2460937 -0.175781,-0.4921875 -0.503906,-0.4921875 -0.140625,0 -0.480469,0.070312 -0.480469,0.5273438 0,0.85546871 0.679688,1.82812496 1.792969,1.82812496 1.160156,0 2.179688,-0.9609375 2.179688,-2.22656246 z m 0,0"
         style="fill:#000000;fill-opacity:1;fill-rule:nonzero;stroke:none" />
    </g>
    <path
       id="path56"
       d="m 292.66728,0 h 0.0794"
       style="fill:none;stroke:#000000;stroke-width:0.3985;stroke-linecap:butt;stroke-linejoin:miter;stroke-miterlimit:10;stroke-dasharray:none;stroke-opacity:1"
       transform="matrix(1.3333333,0,0,-1.3333333,117.18933,47.286667)" />
    <path
       id="path57"
       d="M -2.07224,2.39104 C -1.69365,0.95639 -0.84999,0.27895 0,0 -0.84999,-0.27895 -1.69365,-0.95639 -2.07224,-2.39104"
       style="fill:none;stroke:#000000;stroke-width:0.3985;stroke-linecap:round;stroke-linejoin:round;stroke-miterlimit:10;stroke-dasharray:none;stroke-opacity:1"
       transform="matrix(-1.3333333,0,0,1.3333333,507.25259,47.286667)" />
  </g>
</svg>
