<?xml version="1.0" encoding="UTF-8" standalone="no"?>
<!-- Created with Inkscape (http://www.inkscape.org/) -->

<svg
   version="1.1"
   id="svg1"
   width="479.67999"
   height="94.58667"
   viewBox="0 0 479.67999 94.58667"
   sodipodi:docname="01_1D_mlp.pdf"
   xmlns:inkscape="http://www.inkscape.org/namespaces/inkscape"
   xmlns:sodipodi="http://sodipodi.sourceforge.net/DTD/sodipodi-0.dtd"
   xmlns="http://www.w3.org/2000/svg"
   xmlns:svg="http://www.w3.org/2000/svg">
  <defs
     id="defs1" />
  <sodipodi:namedview
     id="namedview1"
     pagecolor="#ffffff"
     bordercolor="#000000"
     borderopacity="0.25"
     inkscape:showpageshadow="2"
     inkscape:pageopacity="0.0"
     inkscape:pagecheckerboard="0"
     inkscape:deskcolor="#d1d1d1">
    <inkscape:page
       x="0"
       y="0"
       inkscape:label="1"
       id="page1"
       width="479.67999"
       height="94.58667"
       margin="0"
       bleed="0" />
  </sodipodi:namedview>
  <g
     id="g1"
     inkscape:groupmode="layer"
     inkscape:label="1">
    <path
       id="path1"
       d="m 21.28471,0 c 0,11.75536 -9.52935,21.28471 -21.28471,21.28471 -11.75536,0 -21.28471,-9.52935 -21.28471,-21.28471 0,-11.75536 9.52935,-21.28471 21.28471,-21.28471 11.75536,0 21.28471,9.52935 21.28471,21.28471 z"
       style="fill:none;stroke:#000000;stroke-width:1.59404;stroke-linecap:butt;stroke-linejoin:miter;stroke-miterlimit:10;stroke-dasharray:none;stroke-opacity:1"
       transform="matrix(1.3333333,0,0,-1.3333333,42.725333,47.296)" />
    <g
       id="g2"
       aria-label="Inputx"
       transform="matrix(1.3333333,0,0,1.3333333,20.657333,50.544)">
      <path
         id="path2"
         d="M 3.3155937,-7.734375e-4 V -0.30546094 H 3.0577812 c -0.7851562,0 -0.8203125,-0.1171875 -0.8203125,-0.46875 V -6.0242109 c 0,-0.3632813 0.035156,-0.46875 0.8203125,-0.46875 h 0.2578125 v -0.3164063 c -0.3515625,0.035156 -1.1367187,0.035156 -1.5117187,0.035156 -0.3867188,0 -1.171875,0 -1.5234375,-0.035156 v 0.3164063 H 0.53825 c 0.7851562,0 0.8203125,0.1054687 0.8203125,0.46875 v 5.24999996 c 0,0.3515625 -0.035156,0.46875 -0.8203125,0.46875 H 0.2804375 V -7.734375e-4 C 0.632,-0.03592969 1.4171562,-0.03592969 1.7921562,-0.03592969 c 0.3867188,0 1.171875,0 1.5234375,0.0351562525 z m 5.6132813,0 V -0.30546094 c -0.515625,0 -0.7734375,0 -0.7851563,-0.3046875 V -2.5085859 c 0,-0.8554688 0,-1.171875 -0.3046875,-1.5234375 -0.140625,-0.1757813 -0.46875,-0.375 -1.0429687,-0.375 -0.7265625,0 -1.1953125,0.4335937 -1.4765625,1.0546875 v -1.0546875 l -1.40625,0.1171875 v 0.3046875 c 0.703125,0 0.7851562,0.070312 0.7851562,0.5625 v 2.66015621 c 0,0.45703125 -0.1171875,0.45703125 -0.7851562,0.45703125 V -7.734375e-4 L 5.03825,-0.03592969 6.1515312,-7.734375e-4 V -0.30546094 c -0.65625,0 -0.7734375,0 -0.7734375,-0.45703125 V -2.5906172 c 0,-1.03125 0.7148438,-1.59375 1.3476563,-1.59375 0.6210937,0 0.7382812,0.5390625 0.7382812,1.1015625 v 2.32031251 c 0,0.45703125 -0.1171875,0.45703125 -0.7734375,0.45703125 v 0.3046875025 l 1.125,-0.0351562525 z M 14.328289,-2.1570234 c 0,-1.265625 -0.972656,-2.25 -2.085937,-2.25 -0.773438,0 -1.195313,0.4453125 -1.394532,0.65625 v -0.65625 l -1.4296872,0.1171875 v 0.3046875 c 0.7031252,0 0.7734372,0.058594 0.7734372,0.4921875 v 4.6640625 c 0,0.4570312 -0.105468,0.4570312 -0.7734372,0.4570312 v 0.3046875 l 1.1132812,-0.035156 1.125,0.035156 V 1.6281328 c -0.667969,0 -0.773437,0 -0.773437,-0.4570312 v -1.75781254 c 0.04687,0.15234375 0.46875,0.69140625 1.21875,0.69140625 1.183593,0 2.226562,-0.97265625 2.226562,-2.26171871 z m -0.832031,0 c 0,1.20703121 -0.691406,2.05078121 -1.429688,2.05078121 -0.398437,0 -0.773437,-0.19921875 -1.042968,-0.609375 -0.140625,-0.2109375 -0.140625,-0.22265625 -0.140625,-0.42187501 v -2.2148437 c 0.28125,-0.515625 0.773437,-0.796875 1.277343,-0.796875 0.726563,0 1.335938,0.8671875 1.335938,1.9921875 z m 6.509765,2.1562499625 V -0.30546094 c -0.703125,0 -0.785156,-0.0703125 -0.785156,-0.5625 V -4.4070234 l -1.453125,0.1171875 v 0.3046875 c 0.691406,0 0.773438,0.070312 0.773438,0.5625 v 1.7695312 c 0,0.86718751 -0.480469,1.54687501 -1.207032,1.54687501 -0.832031,0 -0.878906,-0.46875 -0.878906,-0.99609371 v -3.3046875 l -1.464844,0.1171875 v 0.3046875 c 0.785157,0 0.785157,0.035156 0.785157,0.9140625 v 1.5 c 0,0.77343746 0,1.67578121 1.511718,1.67578121 0.550782,0 0.996094,-0.26953125 1.277344,-0.890625 v 0.890625 z M 23.518719,-1.2312422 v -0.5742187 h -0.246094 v 0.5507812 c 0,0.73828126 -0.304688,1.11328126 -0.667969,1.11328126 -0.667969,0 -0.667969,-0.90234376 -0.667969,-1.07812496 v -2.765625 h 1.429688 v -0.3046875 h -1.429688 v -1.8398438 h -0.246093 c -0.01172,0.8203125 -0.316407,1.8867188 -1.289063,1.921875 v 0.2226563 h 0.84375 v 2.7539062 c 0,1.21875001 0.925781,1.33593751 1.289063,1.33593751 0.703125,0 0.984375,-0.703125 0.984375,-1.33593751 z m 0,0"
         style="fill:#000000;fill-opacity:1;fill-rule:nonzero;stroke:none" />
      <path
         id="path3"
         d="m 30.734539,-3.0124922 c 0.05859,-0.2578125 0.292969,-1.171875 0.984375,-1.171875 0.04687,0 0.292969,0 0.503906,0.1289063 -0.28125,0.046875 -0.480468,0.3046875 -0.480468,0.5390625 0,0.1640625 0.105468,0.3515625 0.375,0.3515625 0.222656,0 0.539062,-0.1875 0.539062,-0.5859375 0,-0.515625 -0.585937,-0.65625 -0.925781,-0.65625 -0.574219,0 -0.925781,0.5273437 -1.042969,0.7617187 -0.257812,-0.65625 -0.785156,-0.7617187 -1.078125,-0.7617187 -1.042969,0 -1.605469,1.2890625 -1.605469,1.5351562 0,0.1054688 0.105469,0.1054688 0.117188,0.1054688 0.08203,0 0.117187,-0.023437 0.128906,-0.1171875 0.339844,-1.0546875 0.996094,-1.3007813 1.335938,-1.3007813 0.1875,0 0.539062,0.09375 0.539062,0.6679688 0,0.3046875 -0.164062,0.9726562 -0.539062,2.3671875 -0.152344,0.62109371 -0.503907,1.04296871 -0.949219,1.04296871 -0.05859,0 -0.28125,0 -0.492188,-0.12890625 0.246094,-0.0585938 0.46875,-0.26953125 0.46875,-0.5390625 0,-0.26953126 -0.222656,-0.35156246 -0.375,-0.35156246 -0.292968,0 -0.539062,0.25781246 -0.539062,0.57421871 0,0.45703125 0.492187,0.65625 0.9375,0.65625 0.65625,0 1.007812,-0.69140625 1.042969,-0.75 0.117187,0.36328125 0.480468,0.75 1.078125,0.75 1.019531,0 1.59375,-1.27734371 1.59375,-1.53515621 0,-0.09375 -0.09375,-0.09375 -0.128907,-0.09375 -0.08203,0 -0.105468,0.035156 -0.128906,0.1054687 -0.328125,1.06640626 -0.996094,1.31250001 -1.324219,1.31250001 -0.386718,0 -0.539062,-0.328125 -0.539062,-0.65625 0,-0.22265625 0.05859,-0.44531251 0.164062,-0.87890621 z m 0,0"
         style="fill:#000000;fill-opacity:1;fill-rule:nonzero;stroke:none" />
    </g>
    <path
       id="path4"
       d="m 126.21243,0 c 0,6.4843 -18.43304,11.74074 -41.17198,11.74074 C 62.30151,11.74074 43.86848,6.4843 43.86848,0 c 0,-6.4843 18.43303,-11.74074 41.17197,-11.74074 22.73894,0 41.17198,5.25644 41.17198,11.74074 z"
       style="fill:none;stroke:#000000;stroke-width:1.59404;stroke-linecap:butt;stroke-linejoin:miter;stroke-miterlimit:10;stroke-dasharray:none;stroke-opacity:1"
       transform="matrix(1.3333333,0,0,-1.3333333,42.725333,47.296)" />
    <g
       id="g4"
       aria-label="σ(ω·x+β)"
       transform="matrix(1.3333333,0,0,1.3333333,121.72267,50.617333)">
      <path
         id="path5"
         d="m 5.1562422,-3.7149531 c 0.1289062,0 0.4921875,0 0.4921875,-0.3398438 0,-0.234375 -0.2109375,-0.234375 -0.3867188,-0.234375 H 2.9882734 c -1.5,0 -2.61328121,1.640625 -2.61328121,2.8242188 0,0.87890622 0.5859375,1.57031247 1.50000001,1.57031247 1.171875,0 2.4960937,-1.20703127 2.4960937,-2.73046877 0,-0.1757812 0,-0.65625 -0.3046875,-1.0898437 z m -3.2695313,3.60937497 c -0.4921875,0 -0.89062496,-0.36328125 -0.89062496,-1.07812497 0,-0.3046875 0.11718746,-1.1132813 0.46874996,-1.7109375 0.421875,-0.6796875 1.0195313,-0.8203125 1.359375,-0.8203125 0.8320313,0 0.9140625,0.65625 0.9140625,0.9609375 0,0.46875 -0.1992187,1.2890625 -0.5390625,1.79296872 -0.3867187,0.59765625 -0.9257812,0.85546875 -1.3125,0.85546875 z m 0,0"
         style="fill:#000000;fill-opacity:1;fill-rule:nonzero;stroke:none" />
      <path
         id="path6"
         d="m 9.3427656,2.3905156 c 0,-0.035156 0,-0.046875 -0.1640625,-0.2226562 -1.2421875,-1.25390628 -1.5703125,-3.12890628 -1.5703125,-4.6640625 0,-1.7226563 0.3867188,-3.4570313 1.6054688,-4.7109375 0.1289062,-0.1171875 0.1289062,-0.1289063 0.1289062,-0.1640625 0,-0.070312 -0.035156,-0.1054688 -0.09375,-0.1054688 -0.1054687,0 -0.9960937,0.6796875 -1.5820312,1.9453125 -0.515625,1.1015625 -0.6328125,2.203125 -0.6328125,3.0351563 0,0.7851562 0.1171875,1.99218747 0.65625,3.11718747 0.5976562,1.21875003 1.453125,1.87500003 1.5585937,1.87500003 0.058594,0 0.09375,-0.035156 0.09375,-0.1054688 z m 0,0"
         style="fill:#000000;fill-opacity:1;fill-rule:nonzero;stroke:none" />
      <path
         id="path7"
         d="m 15.949211,-3.7032344 c 0,-0.4453125 -0.175781,-0.703125 -0.398438,-0.703125 -0.257812,0 -0.527343,0.2460938 -0.527343,0.46875 0,0.1054688 0.04687,0.2109375 0.152343,0.3046875 0.164063,0.140625 0.351563,0.4101563 0.351563,0.8320313 0,0.3984375 -0.1875,0.9726562 -0.503906,1.4296875 -0.292969,0.42187497 -0.667969,0.76171872 -1.136719,0.76171872 -0.5625,0 -0.867188,-0.3515625 -0.960938,-0.89062502 0.105469,-0.2578125 0.339844,-0.9023437 0.339844,-1.1835937 0,-0.1171875 -0.04687,-0.2109375 -0.1875,-0.2109375 -0.07031,0 -0.1875,0.011719 -0.257812,0.1640625 -0.117188,0.1992187 -0.234375,0.84375 -0.234375,1.2070312 -0.328125,0.46875 -0.726563,0.91406252 -1.359375,0.91406252 -0.65625,0 -0.867188,-0.58593752 -0.867188,-1.14843752 0,-1.2421875 1.019531,-2.2851562 1.019531,-2.4140625 0,-0.1171875 -0.08203,-0.1875 -0.1875,-0.1875 -0.128906,0 -0.199218,0.1289063 -0.257812,0.2109375 -0.503906,0.7382813 -0.890625,1.921875 -0.890625,2.8359375 0,0.67968752 0.234375,1.41796877 1.042969,1.41796877 0.714843,0 1.183593,-0.4921875 1.535156,-1.04296875 0.09375,0.57421875 0.480469,1.04296875 1.101562,1.04296875 0.773438,0 1.253907,-0.609375 1.617188,-1.34765627 0.234375,-0.4921875 0.609375,-1.8515625 0.609375,-2.4609375 z m 0,0"
         style="fill:#000000;fill-opacity:1;fill-rule:nonzero;stroke:none" />
      <path
         id="path8"
         d="m 20.607414,-2.4962031 c 0,-0.28125 -0.234375,-0.5273438 -0.527344,-0.5273438 -0.28125,0 -0.527343,0.2460938 -0.527343,0.5273438 0,0.2929687 0.246093,0.5390625 0.527343,0.5390625 0.292969,0 0.527344,-0.2460938 0.527344,-0.5390625 z m 0,0"
         style="fill:#000000;fill-opacity:1;fill-rule:nonzero;stroke:none" />
      <path
         id="path9"
         d="m 27.005852,-3.0118281 c 0.05859,-0.2578125 0.292968,-1.171875 0.984375,-1.171875 0.04687,0 0.292968,0 0.503906,0.1289062 -0.28125,0.046875 -0.480469,0.3046875 -0.480469,0.5390625 0,0.1640625 0.105469,0.3515625 0.375,0.3515625 0.222656,0 0.539063,-0.1875 0.539063,-0.5859375 0,-0.515625 -0.585938,-0.65625 -0.925782,-0.65625 -0.574218,0 -0.925781,0.5273438 -1.042968,0.7617188 -0.257813,-0.65625 -0.785157,-0.7617188 -1.078125,-0.7617188 -1.042969,0 -1.605469,1.2890625 -1.605469,1.5351563 0,0.1054687 0.105469,0.1054687 0.117187,0.1054687 0.08203,0 0.117188,-0.023437 0.128907,-0.1171875 0.339843,-1.0546875 0.996093,-1.3007812 1.335937,-1.3007812 0.1875,0 0.539063,0.09375 0.539063,0.6679687 0,0.3046875 -0.164063,0.9726563 -0.539063,2.3671875 -0.152344,0.62109377 -0.503906,1.04296877 -0.949219,1.04296877 -0.05859,0 -0.28125,0 -0.492187,-0.12890625 0.246094,-0.0585938 0.46875,-0.26953125 0.46875,-0.5390625 0,-0.26953122 -0.222656,-0.35156252 -0.375,-0.35156252 -0.292969,0 -0.539063,0.25781252 -0.539063,0.57421877 0,0.45703125 0.492188,0.65625 0.9375,0.65625 0.65625,0 1.007813,-0.69140625 1.042969,-0.75 0.117188,0.36328125 0.480469,0.75 1.078125,0.75 1.019531,0 1.59375,-1.27734377 1.59375,-1.53515627 0,-0.09375 -0.09375,-0.09375 -0.128906,-0.09375 -0.08203,0 -0.105469,0.035156 -0.128906,0.1054688 -0.328125,1.06640622 -0.996094,1.31249997 -1.324219,1.31249997 -0.386719,0 -0.539063,-0.328125 -0.539063,-0.65625 0,-0.22265625 0.05859,-0.44531247 0.164063,-0.87890627 z m 0,0"
         style="fill:#000000;fill-opacity:1;fill-rule:nonzero;stroke:none" />
      <path
         id="path10"
         d="m 35.663078,-2.2969844 h 2.777344 c 0.140625,0 0.328125,0 0.328125,-0.1992187 0,-0.1992188 -0.1875,-0.1992188 -0.328125,-0.1992188 h -2.777344 v -2.7890625 c 0,-0.1289062 0,-0.328125 -0.199219,-0.328125 -0.199218,0 -0.199218,0.1992188 -0.199218,0.328125 v 2.7890625 h -2.789063 c -0.140625,0 -0.328125,0 -0.328125,0.1992188 0,0.1992187 0.1875,0.1992187 0.328125,0.1992187 h 2.789063 v 2.80078127 c 0,0.12890625 0,0.328125 0.199218,0.328125 0.199219,0 0.199219,-0.19921875 0.199219,-0.328125 z m 0,0"
         style="fill:#000000;fill-opacity:1;fill-rule:nonzero;stroke:none" />
      <path
         id="path11"
         d="m 47.279289,-5.6719844 c 0,-0.7382812 -0.550781,-1.359375 -1.359375,-1.359375 -0.574219,0 -0.855469,0.1523438 -1.207031,0.421875 -0.539063,0.3984375 -1.089844,1.359375 -1.277344,2.1210938 l -1.582031,6.3164062 c -0.01172,0.046875 0.03516,0.1054688 0.117187,0.1054688 0.08203,0 0.105469,-0.023437 0.117188,-0.046875 l 0.691406,-2.75390628 c 0.199219,0.59765625 0.632813,0.97265625 1.359375,0.97265625 0.726563,0 1.476563,-0.3515625 1.921875,-0.796875 0.480469,-0.45703127 0.796875,-1.08984377 0.796875,-1.82812497 0,-0.7148438 -0.363281,-1.2304688 -0.726562,-1.4882813 0.574218,-0.328125 1.148437,-0.9375 1.148437,-1.6640625 z m -1.792969,1.6523438 c -0.128906,0.058594 -0.246093,0.070312 -0.480468,0.070312 -0.140625,0 -0.339844,0.011719 -0.433594,-0.035156 0.01172,-0.1054687 0.375,-0.082031 0.480469,-0.082031 0.210937,0 0.304687,0 0.433593,0.046875 z m 1.230469,-1.875 c 0,0.6914062 -0.375,1.40625 -0.890625,1.7226562 -0.269531,-0.1054687 -0.46875,-0.1171875 -0.773437,-0.1171875 -0.210938,0 -0.761719,-0.011719 -0.761719,0.3164063 -0.01172,0.28125 0.503906,0.2460937 0.679687,0.2460937 0.375,0 0.527344,-0.011719 0.820313,-0.1289062 0.375,0.3632812 0.433594,0.6679687 0.445312,1.125 0.01172,0.5742187 -0.222656,1.3242187 -0.503906,1.7109375 -0.386719,0.53906247 -1.054687,0.90234372 -1.628906,0.90234372 -0.75,0 -1.125,-0.5859375 -1.125,-1.28906252 0,-0.09375 0,-0.2460937 0.04687,-0.4335937 l 0.632812,-2.5195313 c 0.222657,-0.8554687 0.9375,-2.4492187 2.132813,-2.4492187 0.574219,0 0.925781,0.3164062 0.925781,0.9140625 z m 0,0"
         style="fill:#000000;fill-opacity:1;fill-rule:nonzero;stroke:none" />
      <path
         id="path12"
         d="m 50.592766,-2.4962031 c 0,-0.7734375 -0.117188,-1.9804688 -0.65625,-3.1054688 -0.597657,-1.21875 -1.464844,-1.875 -1.558594,-1.875 -0.05859,0 -0.105469,0.046875 -0.105469,0.1054688 0,0.035156 0,0.046875 0.199219,0.234375 0.972656,0.984375 1.535156,2.5664062 1.535156,4.640625 0,1.71093747 -0.363281,3.45703122 -1.59375,4.7226562 -0.140625,0.1171875 -0.140625,0.1289063 -0.140625,0.1640625 0,0.058594 0.04687,0.1054688 0.105469,0.1054688 0.09375,0 0.996094,-0.6796875 1.582031,-1.94531253 0.503906,-1.1015625 0.632813,-2.20312497 0.632813,-3.04687497 z m 0,0"
         style="fill:#000000;fill-opacity:1;fill-rule:nonzero;stroke:none" />
    </g>
    <path
       id="path13"
       d="m 194.78935,0 c 0,13.64626 -11.06216,24.70844 -24.70843,24.70844 -13.64627,0 -24.70845,-11.06218 -24.70845,-24.70844 0,-13.64626 11.06218,-24.70844 24.70845,-24.70844 13.64627,0 24.70843,11.06218 24.70843,24.70844 z"
       style="fill:none;stroke:#000000;stroke-width:1.59404;stroke-linecap:butt;stroke-linejoin:miter;stroke-miterlimit:10;stroke-dasharray:none;stroke-opacity:1"
       transform="matrix(1.3333333,0,0,-1.3333333,42.725333,47.296)" />
    <g
       id="g13"
       aria-label="Outputo"
       transform="matrix(1.3333333,0,0,1.3333333,242.656,50.689333)">
      <path
         id="path14"
         d="m 7.1837813,-3.376375 c 0,-2.0390625 -1.5,-3.6445313 -3.3164063,-3.6445313 -1.78125,0 -3.3046875,1.59375 -3.3046875,3.6445313 0,2.0390625 1.5351563,3.59765625 3.3046875,3.59765625 1.8164063,0 3.3164063,-1.58203125 3.3164063,-3.59765625 z M 6.1525313,-3.517 c 0,2.63671875 -1.359375,3.48046875 -2.2734375,3.48046875 -0.9609375,0 -2.296875,-0.87890625 -2.296875,-3.48046875 0,-2.578125 1.453125,-3.2578125 2.2851562,-3.2578125 0.8671875,0 2.2851563,0.703125 2.2851563,3.2578125 z m 6.9316407,3.515625 v -0.3046875 c -0.703125,0 -0.785156,-0.0703125 -0.785156,-0.5625 V -4.407625 l -1.453125,0.1171875 V -3.98575 c 0.691406,0 0.773437,0.070312 0.773437,0.5625 v 1.7695312 c 0,0.86718755 -0.480469,1.54687505 -1.207031,1.54687505 -0.8320314,0 -0.8789064,-0.46875 -0.8789064,-0.99609375 V -4.407625 L 8.0685469,-4.2904375 V -3.98575 c 0.7851562,0 0.7851562,0.035156 0.7851562,0.9140625 v 1.5 c 0,0.7734375 0,1.67578125 1.5117189,1.67578125 0.550781,0 0.996094,-0.26953125 1.277344,-0.890625 v 0.890625 z m 3.509766,-1.2304688 v -0.5742187 h -0.246094 v 0.5507812 c 0,0.7382813 -0.304688,1.1132813 -0.667969,1.1132813 -0.667969,0 -0.667969,-0.9023438 -0.667969,-1.078125 V -3.98575 h 1.429688 v -0.3046875 h -1.429688 v -1.8398438 h -0.246093 c -0.01172,0.8203125 -0.316407,1.8867188 -1.289063,1.921875 V -3.98575 h 0.84375 v 2.7539062 c 0,1.21875005 0.925781,1.33593755 1.289063,1.33593755 0.703125,0 0.984375,-0.703125 0.984375,-1.33593755 z m 5.762695,-0.9257812 c 0,-1.265625 -0.972656,-2.25 -2.085938,-2.25 -0.773437,0 -1.195312,0.4453125 -1.394531,0.65625 v -0.65625 l -1.429687,0.1171875 V -3.98575 c 0.703125,0 0.773437,0.058594 0.773437,0.4921875 V 1.1705 c 0,0.4570312 -0.105469,0.4570312 -0.773437,0.4570312 v 0.3046875 l 1.113281,-0.035156 1.125,0.035156 V 1.6275312 c -0.667969,0 -0.773438,0 -0.773438,-0.4570312 v -1.7578125 c 0.04687,0.15234375 0.46875,0.69140625 1.21875,0.69140625 1.183594,0 2.226563,-0.97265625 2.226563,-2.26171875 z m -0.832031,0 c 0,1.20703125 -0.691407,2.05078125 -1.429688,2.05078125 -0.398437,0 -0.773437,-0.19921875 -1.042969,-0.609375 C 18.91132,-0.92715625 18.91132,-0.938875 18.91132,-1.1380938 v -2.2148437 c 0.28125,-0.515625 0.773438,-0.796875 1.277344,-0.796875 0.726563,0 1.335938,0.8671875 1.335938,1.9921875 z m 6.512695,2.15625 v -0.3046875 c -0.703125,0 -0.785156,-0.0703125 -0.785156,-0.5625 V -4.407625 l -1.453125,0.1171875 V -3.98575 c 0.691406,0 0.773437,0.070312 0.773437,0.5625 v 1.7695312 c 0,0.86718755 -0.480469,1.54687505 -1.207031,1.54687505 -0.832031,0 -0.878906,-0.46875 -0.878906,-0.99609375 V -4.407625 l -1.464844,0.1171875 V -3.98575 c 0.785156,0 0.785156,0.035156 0.785156,0.9140625 v 1.5 c 0,0.7734375 0,1.67578125 1.511719,1.67578125 0.550781,0 0.996094,-0.26953125 1.277344,-0.890625 v 0.890625 z m 3.512695,-1.2304688 v -0.5742187 h -0.246094 v 0.5507812 c 0,0.7382813 -0.304687,1.1132813 -0.667968,1.1132813 -0.667969,0 -0.667969,-0.9023438 -0.667969,-1.078125 V -3.98575 h 1.429687 v -0.3046875 h -1.429687 v -1.8398438 h -0.246094 c -0.01172,0.8203125 -0.316406,1.8867188 -1.289062,1.921875 V -3.98575 h 0.84375 v 2.7539062 c 0,1.21875005 0.925781,1.33593755 1.289062,1.33593755 0.703125,0 0.984375,-0.703125 0.984375,-1.33593755 z m 0,0"
         style="fill:#000000;fill-opacity:1;fill-rule:nonzero;stroke:none" />
      <path
         id="path15"
         d="m 40.113469,-2.720125 c 0,-1.03125 -0.703125,-1.6875 -1.59375,-1.6875 -1.335938,0 -2.671875,1.4179687 -2.671875,2.8359375 0,0.984375 0.667969,1.67578125 1.59375,1.67578125 1.324219,0 2.671875,-1.37109375 2.671875,-2.82421875 z m -2.660156,2.61328125 c -0.433594,0 -0.867188,-0.31640625 -0.867188,-1.08984375 0,-0.4921875 0.257813,-1.5585938 0.574219,-2.0742188 0.503906,-0.7617187 1.066406,-0.9140625 1.347656,-0.9140625 0.574219,0 0.878906,0.4804688 0.878906,1.078125 0,0.3867188 -0.199218,1.4296875 -0.585937,2.0742188 -0.339844,0.5859375 -0.890625,0.92578125 -1.347656,0.92578125 z m 0,0"
         style="fill:#000000;fill-opacity:1;fill-rule:nonzero;stroke:none" />
    </g>
    <path
       id="path16"
       d="m 219.68785,-8.30194 h 70.86702 v 16.6039 h -70.86702 z"
       style="fill:none;stroke:#000000;stroke-width:1.59404;stroke-linecap:butt;stroke-linejoin:miter;stroke-miterlimit:10;stroke-dasharray:none;stroke-opacity:1"
       transform="matrix(1.3333333,0,0,-1.3333333,42.725333,47.296)" />
    <g
       id="g16"
       aria-label="L(y,ˆy)"
       transform="matrix(1.3333333,0,0,1.3333333,363.19867,50.617333)">
      <path
         id="path17"
         d="m 1.7933828,-0.92589063 c 0.5390625,-0.83203127 0.703125,-1.47656247 0.8320313,-2.00390627 0.3515625,-1.3710937 0.7265625,-2.5664062 1.3476562,-3.2578125 0.1171875,-0.1289062 0.1992188,-0.2226562 0.515625,-0.2226562 0.6914063,0 0.7148438,0.6914062 0.7148438,0.8320312 0,0.1757813 -0.058594,0.3164063 -0.058594,0.3632813 0,0.070312 0.070312,0.070312 0.070312,0.070312 0.1640625,0 0.4335938,-0.1054688 0.6796875,-0.28125 0.1875,-0.140625 0.2695313,-0.2460938 0.2695313,-0.65625 0,-0.5273438 -0.28125,-0.9375 -0.8320313,-0.9375 -0.3164062,0 -1.1953125,0.082031 -2.1796875,1.0664062 -0.796875,0.8085938 -1.2539062,2.6015625 -1.453125,3.3515625 -0.1757812,0.6914063 -0.2578125,0.9960938 -0.5507812,1.59375 -0.070312,0.11718752 -0.32812504,0.56250002 -0.46875004,0.69140627 -0.26953125,0.24609375 -0.375,0.421875 -0.375,0.48046875 0,0.0117188 0.0234375,0.0585938 0.09375,0.0585938 0.0351563,0 0.24609375,-0.046875 0.50390625,-0.2109375 0.17578129,-0.10546875 0.19921879,-0.1171875 0.42187499,-0.36328125 0.5039063,0.0117188 0.84375,0.10546875 1.4765625,0.28125 0.5039063,0.140625 1.0195313,0.29296875 1.5234375,0.29296875 0.8085938,0 1.6171875,-0.609375 1.9453125,-1.0546875 0.1992188,-0.26953122 0.2578125,-0.51562492 0.2578125,-0.53906242 0,-0.070312 -0.058594,-0.070312 -0.070312,-0.070312 -0.1640625,0 -0.3984375,0.1054687 -0.5742187,0.2226562 -0.2695313,0.1757813 -0.28125,0.23437497 -0.3398438,0.39843747 -0.058594,0.1640625 -0.1171875,0.24609375 -0.1523437,0.3046875 -0.082031,0.1171875 -0.09375,0.1171875 -0.2460938,0.1171875 -0.46875,0 -0.9726562,-0.15234375 -1.6289062,-0.328125 -0.28125,-0.0820313 -0.8203125,-0.234375 -1.3242188,-0.234375 -0.1289062,0 -0.2695312,0 -0.3984373,0.0351562 z m 0,0"
         style="fill:#000000;fill-opacity:1;fill-rule:nonzero;stroke:none" />
      <path
         id="path18"
         d="m 10.16643,2.3905156 c 0,-0.035156 0,-0.046875 -0.164063,-0.2226562 -1.2421873,-1.25390628 -1.5703123,-3.12890628 -1.5703123,-4.6640625 0,-1.7226563 0.3867187,-3.4570313 1.6054683,-4.7109375 0.128907,-0.1171875 0.128907,-0.1289063 0.128907,-0.1640625 0,-0.070312 -0.03516,-0.1054688 -0.09375,-0.1054688 -0.1054691,0 -0.9960941,0.6796875 -1.5820316,1.9453125 -0.515625,1.1015625 -0.6328125,2.203125 -0.6328125,3.0351563 0,0.7851562 0.1171875,1.99218747 0.65625,3.11718747 0.5976563,1.21875003 1.453125,1.87500003 1.5585941,1.87500003 0.05859,0 0.09375,-0.035156 0.09375,-0.1054688 z m 0,0"
         style="fill:#000000;fill-opacity:1;fill-rule:nonzero;stroke:none" />
      <path
         id="path19"
         d="m 15.586352,-3.7969844 c 0.04687,-0.140625 0.04687,-0.1523437 0.04687,-0.2226562 0,-0.1875 -0.140625,-0.2695313 -0.292969,-0.2695313 -0.105469,0 -0.257813,0.058594 -0.351563,0.1992188 -0.02344,0.058594 -0.09375,0.3632812 -0.140625,0.5390625 -0.07031,0.2578125 -0.140625,0.5273437 -0.199218,0.796875 l -0.445313,1.79296872 c -0.03516,0.15234375 -0.46875,0.85546875 -1.125,0.85546875 -0.503906,0 -0.621094,-0.4453125 -0.621094,-0.80859375 0,-0.45703122 0.175782,-1.07812502 0.515625,-1.95703122 0.152344,-0.4101563 0.199219,-0.515625 0.199219,-0.7148438 0,-0.4453125 -0.328125,-0.8203125 -0.820312,-0.8203125 -0.949219,0 -1.3125,1.453125 -1.3125,1.5351563 0,0.1054687 0.09375,0.1054687 0.117187,0.1054687 0.09375,0 0.105469,-0.023437 0.152344,-0.1875 0.269531,-0.9375 0.667969,-1.2304687 1.007812,-1.2304687 0.08203,0 0.257813,0 0.257813,0.3164062 0,0.2460938 -0.105469,0.515625 -0.175781,0.703125 -0.398438,1.0546875 -0.574219,1.6171875 -0.574219,2.0859375 0,0.89062502 0.621094,1.18359377 1.21875,1.18359377 0.386719,0 0.726562,-0.1640625 0.996094,-0.4453125 -0.128907,0.515625 -0.246094,1.0078125 -0.644532,1.53515623 -0.257812,0.3398438 -0.632812,0.6328125 -1.089843,0.6328125 -0.140625,0 -0.597657,-0.035156 -0.761719,-0.421875 0.164062,0 0.292969,0 0.433594,-0.1171875 0.09375,-0.09375 0.199218,-0.2226562 0.199218,-0.41015623 0,-0.31640625 -0.269531,-0.3515625 -0.375,-0.3515625 -0.222656,0 -0.550781,0.1640625 -0.550781,0.64453123 0,0.5039063 0.433594,0.8671875 1.054688,0.8671875 1.019531,0 2.050781,-0.9023437 2.332031,-2.02734373 z m 2.416992,3.78515627 c 0,-0.65625 -0.257813,-1.04296877 -0.644532,-1.04296877 -0.328125,0 -0.527343,0.24609377 -0.527343,0.52734377 0,0.26953125 0.199218,0.527343755 0.527343,0.527343755 0.117188,0 0.246094,-0.035156255 0.351563,-0.128906255 0.02344,-0.0234375 0.03516,-0.0351563 0.04687,-0.0351563 0.01172,0 0.02344,0.0117188 0.02344,0.15234375 0,0.73828125 -0.351562,1.33593748 -0.679687,1.66406248 -0.105469,0.1054687 -0.105469,0.1289062 -0.105469,0.1640625 0,0.070312 0.04687,0.1054687 0.09375,0.1054687 0.117188,0 0.914063,-0.7617187 0.914063,-1.93359368 z m 0,0"
         style="fill:#000000;fill-opacity:1;fill-rule:nonzero;stroke:none" />
      <path
         id="path20"
         d="m 23.596117,-6.9141719 -1.335937,1.359375 0.175781,0.1757813 1.160156,-1.0195313 1.136719,1.0195313 0.1875,-0.1757813 z m 0,0"
         style="fill:#000000;fill-opacity:1;fill-rule:nonzero;stroke:none" />
      <path
         id="path21"
         d="m 25.25725,-3.7969844 c 0.04687,-0.140625 0.04687,-0.1523437 0.04687,-0.2226562 0,-0.1875 -0.140625,-0.2695313 -0.292969,-0.2695313 -0.105469,0 -0.257812,0.058594 -0.351562,0.1992188 -0.02344,0.058594 -0.09375,0.3632812 -0.140625,0.5390625 -0.07031,0.2578125 -0.140625,0.5273437 -0.199219,0.796875 l -0.445313,1.79296872 c -0.03516,0.15234375 -0.46875,0.85546875 -1.125,0.85546875 -0.503906,0 -0.621093,-0.4453125 -0.621093,-0.80859375 0,-0.45703122 0.175781,-1.07812502 0.515625,-1.95703122 0.152343,-0.4101563 0.199218,-0.515625 0.199218,-0.7148438 0,-0.4453125 -0.328125,-0.8203125 -0.820312,-0.8203125 -0.949219,0 -1.3125,1.453125 -1.3125,1.5351563 0,0.1054687 0.09375,0.1054687 0.117187,0.1054687 0.09375,0 0.105469,-0.023437 0.152344,-0.1875 0.269531,-0.9375 0.667969,-1.2304687 1.007813,-1.2304687 0.08203,0 0.257812,0 0.257812,0.3164062 0,0.2460938 -0.105469,0.515625 -0.175781,0.703125 -0.398438,1.0546875 -0.574219,1.6171875 -0.574219,2.0859375 0,0.89062502 0.621094,1.18359377 1.21875,1.18359377 0.386719,0 0.726563,-0.1640625 0.996094,-0.4453125 -0.128906,0.515625 -0.246094,1.0078125 -0.644531,1.53515623 -0.257813,0.3398438 -0.632813,0.6328125 -1.089844,0.6328125 -0.140625,0 -0.597656,-0.035156 -0.761719,-0.421875 0.164063,0 0.292969,0 0.433594,-0.1171875 0.09375,-0.09375 0.199219,-0.2226562 0.199219,-0.41015623 0,-0.31640625 -0.269532,-0.3515625 -0.375,-0.3515625 -0.222657,0 -0.550782,0.1640625 -0.550782,0.64453123 0,0.5039063 0.433594,0.8671875 1.054688,0.8671875 1.019531,0 2.050781,-0.9023437 2.332031,-2.02734373 z m 0,0"
         style="fill:#000000;fill-opacity:1;fill-rule:nonzero;stroke:none" />
      <path
         id="path22"
         d="m 28.54143,-2.4962031 c 0,-0.7734375 -0.117188,-1.9804688 -0.65625,-3.1054688 -0.597657,-1.21875 -1.464844,-1.875 -1.558594,-1.875 -0.05859,0 -0.105469,0.046875 -0.105469,0.1054688 0,0.035156 0,0.046875 0.199219,0.234375 0.972656,0.984375 1.535156,2.5664062 1.535156,4.640625 0,1.71093747 -0.363281,3.45703122 -1.59375,4.7226562 -0.140625,0.1171875 -0.140625,0.1289063 -0.140625,0.1640625 0,0.058594 0.04687,0.1054688 0.105469,0.1054688 0.09375,0 0.996094,-0.6796875 1.582031,-1.94531253 0.503906,-1.1015625 0.632813,-2.20312497 0.632813,-3.04687497 z m 0,0"
         style="fill:#000000;fill-opacity:1;fill-rule:nonzero;stroke:none" />
    </g>
    <path
       id="path23"
       d="M 22.08173,0 H 41.67667"
       style="fill:none;stroke:#000000;stroke-width:0.3985;stroke-linecap:butt;stroke-linejoin:miter;stroke-miterlimit:10;stroke-dasharray:none;stroke-opacity:1"
       transform="matrix(1.3333333,0,0,-1.3333333,42.725333,47.296)" />
    <path
       id="path24"
       d="M -2.07224,2.39104 C -1.69365,0.95639 -0.84999,0.27895 0,0 -0.84999,-0.27895 -1.69365,-0.95639 -2.07224,-2.39104"
       style="fill:none;stroke:#000000;stroke-width:0.3985;stroke-linecap:round;stroke-linejoin:round;stroke-miterlimit:10;stroke-dasharray:none;stroke-opacity:1"
       transform="matrix(1.3333333,0,0,-1.3333333,98.559907,47.296)" />
    <path
       id="path25"
       d="m 7.0092031,-3.9846016 v -0.3046875 c -0.2226562,0.011719 -0.515625,0.023437 -0.7265625,0.023437 l -0.9375,-0.023437 v 0.3046875 c 0.3632813,0.011719 0.5859375,0.1875 0.5859375,0.4804688 0,0.058594 0,0.082031 -0.046875,0.2109375 L 4.9701406,-0.75022656 3.9857656,-3.5275703 c -0.035156,-0.1171875 -0.046875,-0.140625 -0.046875,-0.1875 0,-0.2695313 0.3867188,-0.2695313 0.5859375,-0.2695313 v -0.3046875 l -1.03125,0.023437 c -0.3046875,0 -0.5976562,-0.011719 -0.890625,-0.023437 v 0.3046875 c 0.3632813,0 0.5273438,0.023437 0.6210938,0.1523438 0.058594,0.058594 0.1640625,0.3515625 0.234375,0.5390625 L 2.6029531,-0.87913281 1.6537344,-3.5392891 c -0.046875,-0.1171875 -0.046875,-0.140625 -0.046875,-0.1757812 0,-0.2695313 0.3867187,-0.2695313 0.5859375,-0.2695313 v -0.3046875 l -1.0898438,0.023437 -0.92578122,-0.023437 v 0.3046875 c 0.50390625,0 0.62109375,0.035156 0.73828125,0.3515625 l 1.25390627,3.52734379 c 0.058594,0.140625 0.082031,0.2109375 0.2109375,0.2109375 0.1289062,0 0.1523437,-0.05859375 0.1992187,-0.19921875 l 1.0078125,-2.81250004 1.0195313,2.82421879 c 0.035156,0.1171875 0.070312,0.1875 0.1992187,0.1875 0.1289063,0 0.1523438,-0.08203125 0.1992188,-0.1875 L 6.1654531,-3.3517891 c 0.1757813,-0.4921875 0.4921875,-0.6210937 0.84375,-0.6328125 z m 0,0"
       style="fill:#000000;fill-opacity:1;fill-rule:nonzero;stroke:none"
       aria-label="w"
       transform="matrix(1.3333333,0,0,1.3333333,81.365333,42.457333)" />
    <path
       id="path26"
       d="m 127.00945,0 h 16.17121"
       style="fill:none;stroke:#000000;stroke-width:0.3985;stroke-linecap:butt;stroke-linejoin:miter;stroke-miterlimit:10;stroke-dasharray:none;stroke-opacity:1"
       transform="matrix(1.3333333,0,0,-1.3333333,42.725333,47.296)" />
    <path
       id="path27"
       d="M -2.07224,2.39104 C -1.69365,0.95639 -0.84999,0.27895 0,0 -0.84999,-0.27895 -1.69365,-0.95639 -2.07224,-2.39104"
       style="fill:none;stroke:#000000;stroke-width:0.3985;stroke-linecap:round;stroke-linejoin:round;stroke-miterlimit:10;stroke-dasharray:none;stroke-opacity:1"
       transform="matrix(1.3333333,0,0,-1.3333333,233.89855,47.296)" />
    <path
       id="path28"
       d="m 195.58638,0 h 21.90967"
       style="fill:none;stroke:#000000;stroke-width:0.3985;stroke-linecap:butt;stroke-linejoin:miter;stroke-miterlimit:10;stroke-dasharray:none;stroke-opacity:1"
       transform="matrix(1.3333333,0,0,-1.3333333,42.725333,47.296)" />
    <path
       id="path29"
       d="M -2.07224,2.39104 C -1.69365,0.95639 -0.84999,0.27895 0,0 -0.84999,-0.27895 -1.69365,-0.95639 -2.07224,-2.39104"
       style="fill:none;stroke:#000000;stroke-width:0.3985;stroke-linecap:round;stroke-linejoin:round;stroke-miterlimit:10;stroke-dasharray:none;stroke-opacity:1"
       transform="matrix(1.3333333,0,0,-1.3333333,332.98573,47.296)" />
    <g
       id="g29"
       aria-label="ˆy"
       transform="matrix(1.3333333,0,0,1.3333333,316.46133,40.02)">
      <path
         id="path30"
         d="m 2.4957969,-6.9144141 -1.3359375,1.359375 0.1757812,0.1757813 1.1601563,-1.0195313 1.1367187,1.0195313 0.1875,-0.1757813 z m 0,0"
         style="fill:#000000;fill-opacity:1;fill-rule:nonzero;stroke:none" />
      <path
         id="path31"
         d="m 4.1569297,-3.7972266 c 0.046875,-0.140625 0.046875,-0.1523437 0.046875,-0.2226562 0,-0.1875 -0.140625,-0.2695313 -0.2929688,-0.2695313 -0.1054687,0 -0.2578125,0.058594 -0.3515625,0.1992188 -0.023437,0.058594 -0.09375,0.3632812 -0.140625,0.5390625 -0.070312,0.2578125 -0.140625,0.5273437 -0.1992187,0.796875 l -0.4453125,1.79296874 c -0.035156,0.15234375 -0.46875,0.85546875 -1.125,0.85546875 -0.5039063,0 -0.6210938,-0.4453125 -0.6210938,-0.80859375 0,-0.45703124 0.1757813,-1.07812504 0.515625,-1.95703124 0.1523438,-0.4101563 0.1992188,-0.515625 0.1992188,-0.7148438 0,-0.4453125 -0.328125,-0.8203125 -0.82031251,-0.8203125 -0.94921875,0 -1.3125,1.453125 -1.3125,1.5351563 0,0.1054687 0.09375,0.1054687 0.1171875,0.1054687 0.09375,0 0.10546875,-0.023437 0.15234375,-0.1875 0.26953125,-0.9375 0.66796875,-1.2304687 1.0078125,-1.2304687 0.0820313,0 0.25781246,0 0.25781246,0.3164062 0,0.2460938 -0.1054687,0.515625 -0.17578121,0.703125 -0.3984375,1.0546875 -0.57421875,1.6171875 -0.57421875,2.0859375 0,0.89062504 0.62109376,1.18359379 1.21874996,1.18359379 0.3867188,0 0.7265625,-0.1640625 0.9960938,-0.4453125 -0.1289063,0.515625 -0.2460938,1.0078125 -0.6445313,1.53515621 -0.2578125,0.3398438 -0.6328125,0.6328125 -1.08984371,0.6328125 -0.140625,0 -0.59765625,-0.035156 -0.76171875,-0.421875 0.1640625,0 0.29296875,0 0.43359375,-0.1171875 0.09375,-0.09375 0.19921875,-0.2226562 0.19921875,-0.41015621 0,-0.31640625 -0.26953125,-0.3515625 -0.375,-0.3515625 -0.22265625,0 -0.55078125,0.1640625 -0.55078125,0.64453121 0,0.5039063 0.43359375,0.8671875 1.0546875,0.8671875 1.01953121,0 2.05078121,-0.9023437 2.33203121,-2.02734371 z m 0,0"
         style="fill:#000000;fill-opacity:1;fill-rule:nonzero;stroke:none" />
    </g>
    <path
       id="path32"
       d="M 4.840125,-3.7974141 C 4.887,-3.9380391 4.887,-3.9497578 4.887,-4.0200703 c 0,-0.1875 -0.140625,-0.2695313 -0.2929688,-0.2695313 -0.1054687,0 -0.2578125,0.058594 -0.3515625,0.1992188 -0.023437,0.058594 -0.09375,0.3632812 -0.140625,0.5390625 -0.070312,0.2578125 -0.140625,0.5273437 -0.1992187,0.796875 l -0.4453125,1.79296874 c -0.035156,0.15234375 -0.46875,0.85546875 -1.125,0.85546875 -0.5039063,0 -0.6210938,-0.4453125 -0.6210938,-0.80859375 0,-0.45703124 0.1757813,-1.07812504 0.515625,-1.95703124 0.1523438,-0.4101563 0.1992188,-0.515625 0.1992188,-0.7148438 0,-0.4453125 -0.328125,-0.8203125 -0.8203125,-0.8203125 -0.94921875,0 -1.3125,1.453125 -1.3125,1.5351563 0,0.1054687 0.09375,0.1054687 0.1171875,0.1054687 0.09375,0 0.10546875,-0.023437 0.15234375,-0.1875 0.26953125,-0.9375 0.66796875,-1.2304687 1.00781245,-1.2304687 0.082031,0 0.2578125,0 0.2578125,0.3164062 0,0.2460938 -0.1054687,0.515625 -0.1757812,0.703125 -0.3984375,1.0546875 -0.5742188,1.6171875 -0.5742188,2.0859375 0,0.89062504 0.6210938,1.18359379 1.21875,1.18359379 0.3867188,0 0.7265625,-0.1640625 0.9960938,-0.4453125 C 3.1643437,0.17524219 3.0471562,0.66742969 2.6487187,1.1947734 2.3909062,1.5346172 2.0159062,1.8275859 1.558875,1.8275859 c -0.140625,0 -0.59765625,-0.035156 -0.76171875,-0.421875 0.1640625,0 0.29296875,0 0.43359375,-0.1171875 0.09375,-0.09375 0.1992187,-0.2226562 0.1992187,-0.41015621 0,-0.31640625 -0.2695312,-0.3515625 -0.375,-0.3515625 -0.2226562,0 -0.5507812,0.1640625 -0.5507812,0.64453121 0,0.5039063 0.43359375,0.8671875 1.0546875,0.8671875 1.0195312,0 2.0507812,-0.9023437 2.3320312,-2.02734371 z m 0,0"
       style="fill:#000000;fill-opacity:1;fill-rule:nonzero;stroke:none"
       aria-label="y"
       transform="matrix(1.3333333,0,0,1.3333333,454.984,48.864)" />
    <path
       id="path33"
       d="M 305.67418,0 H 292.74669"
       style="fill:none;stroke:#000000;stroke-width:0.3985;stroke-linecap:butt;stroke-linejoin:miter;stroke-miterlimit:10;stroke-dasharray:none;stroke-opacity:1"
       transform="matrix(1.3333333,0,0,-1.3333333,42.725333,47.296)" />
    <path
       id="path34"
       d="M -2.07224,2.39104 C -1.69365,0.95639 -0.84999,0.27895 0,0 -0.84999,-0.27895 -1.69365,-0.95639 -2.07224,-2.39104"
       style="fill:none;stroke:#000000;stroke-width:0.3985;stroke-linecap:round;stroke-linejoin:round;stroke-miterlimit:10;stroke-dasharray:none;stroke-opacity:1"
       transform="matrix(-1.3333333,0,0,1.3333333,432.78859,47.296)" />
  </g>
</svg>
