<?xml version="1.0" encoding="UTF-8" standalone="no"?>
<!-- Created with Inkscape (http://www.inkscape.org/) -->

<svg
   version="1.1"
   id="svg1"
   width="571.47998"
   height="102.76"
   viewBox="0 0 571.47998 102.76"
   sodipodi:docname="01_1D_mlp_filled.pdf"
   xmlns:inkscape="http://www.inkscape.org/namespaces/inkscape"
   xmlns:sodipodi="http://sodipodi.sourceforge.net/DTD/sodipodi-0.dtd"
   xmlns="http://www.w3.org/2000/svg"
   xmlns:svg="http://www.w3.org/2000/svg">
  <defs
     id="defs1" />
  <sodipodi:namedview
     id="namedview1"
     pagecolor="#ffffff"
     bordercolor="#000000"
     borderopacity="0.25"
     inkscape:showpageshadow="2"
     inkscape:pageopacity="0.0"
     inkscape:pagecheckerboard="0"
     inkscape:deskcolor="#d1d1d1">
    <inkscape:page
       x="0"
       y="0"
       inkscape:label="1"
       id="page1"
       width="571.47998"
       height="102.76"
       margin="0"
       bleed="0" />
  </sodipodi:namedview>
  <g
     id="g1"
     inkscape:groupmode="layer"
     inkscape:label="1">
    <path
       id="path1"
       d="m 21.28471,0 c 0,11.75536 -9.52935,21.28471 -21.28471,21.28471 -11.75536,0 -21.28471,-9.52935 -21.28471,-21.28471 0,-11.75536 9.52935,-21.28471 21.28471,-21.28471 11.75536,0 21.28471,9.52935 21.28471,21.28471 z"
       style="fill:none;stroke:#000000;stroke-width:1.59404;stroke-linecap:butt;stroke-linejoin:miter;stroke-miterlimit:10;stroke-dasharray:none;stroke-opacity:1"
       transform="matrix(1.3333333,0,0,-1.3333333,117.18933,47.448)" />
    <g
       id="g2"
       aria-label="Inputx"
       transform="matrix(1.3333333,0,0,1.3333333,95.121333,50.696)">
      <path
         id="path2"
         d="M 3.3162266,-5.15625e-4 V -0.30520313 H 3.0584141 c -0.7851563,0 -0.8203125,-0.1171875 -0.8203125,-0.46875 V -6.0239531 c 0,-0.3632813 0.035156,-0.46875 0.8203125,-0.46875 h 0.2578125 v -0.3164063 c -0.3515625,0.035156 -1.1367188,0.035156 -1.5117188,0.035156 -0.3867187,0 -1.17187499,0 -1.52343749,-0.035156 v 0.3164063 h 0.2578125 c 0.78515629,0 0.82031249,0.1054687 0.82031249,0.46875 v 5.24999997 c 0,0.3515625 -0.035156,0.46875 -0.82031249,0.46875 H 0.28107031 V -5.15625e-4 C 0.63263281,-0.03567188 1.4177891,-0.03567188 1.7927891,-0.03567188 c 0.3867187,0 1.171875,0 1.5234375,0.035156255 z m 5.6132812,0 V -0.30520313 c -0.515625,0 -0.7734375,0 -0.7851562,-0.3046875 V -2.5083281 c 0,-0.8554688 0,-1.171875 -0.3046875,-1.5234375 -0.140625,-0.1757813 -0.46875,-0.375 -1.0429688,-0.375 -0.7265625,0 -1.1953125,0.4335937 -1.4765625,1.0546875 v -1.0546875 l -1.40625,0.1171875 v 0.3046875 c 0.703125,0 0.7851563,0.070312 0.7851563,0.5625 v 2.66015622 c 0,0.45703125 -0.1171875,0.45703125 -0.7851563,0.45703125 v 0.304687505 l 1.125,-0.035156255 1.1132813,0.035156255 V -0.30520313 c -0.65625,0 -0.7734375,0 -0.7734375,-0.45703125 V -2.5903594 c 0,-1.03125 0.7148437,-1.59375 1.3476562,-1.59375 0.6210938,0 0.7382813,0.5390625 0.7382813,1.1015625 v 2.32031252 c 0,0.45703125 -0.1171875,0.45703125 -0.7734375,0.45703125 v 0.304687505 l 1.125,-0.035156255 z M 14.325992,-2.1567656 c 0,-1.265625 -0.972656,-2.25 -2.085937,-2.25 -0.773438,0 -1.195313,0.4453125 -1.394532,0.65625 v -0.65625 l -1.4296871,0.1171875 v 0.3046875 c 0.7031251,0 0.7734371,0.058594 0.7734371,0.4921875 v 4.6640625 c 0,0.4570312 -0.105468,0.4570312 -0.7734371,0.4570312 v 0.3046875 l 1.1132811,-0.035156 1.125,0.035156 V 1.6283906 c -0.667969,0 -0.773437,0 -0.773437,-0.4570312 v -1.75781253 c 0.04687,0.15234375 0.46875,0.69140625 1.21875,0.69140625 1.183593,0 2.226562,-0.97265625 2.226562,-2.26171872 z m -0.832031,0 c 0,1.20703122 -0.691406,2.05078122 -1.429688,2.05078122 -0.398437,0 -0.773437,-0.19921875 -1.042968,-0.609375 C 10.88068,-0.92629688 10.88068,-0.93801563 10.88068,-1.1372344 v -2.2148437 c 0.28125,-0.515625 0.773437,-0.796875 1.277343,-0.796875 0.726563,0 1.335938,0.8671875 1.335938,1.9921875 z m 6.512695,2.156249975 V -0.30520313 c -0.703125,0 -0.785156,-0.0703125 -0.785156,-0.5625 V -4.4067656 l -1.453125,0.1171875 v 0.3046875 c 0.691406,0 0.773437,0.070312 0.773437,0.5625 v 1.7695312 c 0,0.86718752 -0.480468,1.54687502 -1.207031,1.54687502 -0.832031,0 -0.878906,-0.46875 -0.878906,-0.99609372 v -3.3046875 l -1.464844,0.1171875 v 0.3046875 c 0.785156,0 0.785156,0.035156 0.785156,0.9140625 v 1.5 c 0,0.77343747 0,1.67578122 1.511719,1.67578122 0.550781,0 0.996094,-0.26953125 1.277344,-0.890625 v 0.890625 z M 23.519352,-1.2309844 v -0.5742187 h -0.246094 v 0.5507812 c 0,0.73828127 -0.304688,1.11328127 -0.667969,1.11328127 -0.667969,0 -0.667969,-0.90234377 -0.667969,-1.07812497 v -2.765625 h 1.429688 V -4.2895781 H 21.93732 v -1.8398438 h -0.246093 c -0.01172,0.8203125 -0.316407,1.8867188 -1.289063,1.921875 v 0.2226563 h 0.84375 v 2.7539062 c 0,1.21875002 0.925781,1.33593752 1.289063,1.33593752 0.703125,0 0.984375,-0.703125 0.984375,-1.33593752 z m 0,0"
         style="fill:#000000;fill-opacity:1;fill-rule:nonzero;stroke:none" />
      <path
         id="path3"
         d="m 30.735172,-3.0122344 c 0.05859,-0.2578125 0.292969,-1.171875 0.984375,-1.171875 0.04687,0 0.292969,0 0.503906,0.1289063 -0.28125,0.046875 -0.480469,0.3046875 -0.480469,0.5390625 0,0.1640625 0.105469,0.3515625 0.375,0.3515625 0.222657,0 0.539063,-0.1875 0.539063,-0.5859375 0,-0.515625 -0.585938,-0.65625 -0.925781,-0.65625 -0.574219,0 -0.925782,0.5273437 -1.042969,0.7617187 -0.257813,-0.65625 -0.785156,-0.7617187 -1.078125,-0.7617187 -1.042969,0 -1.605469,1.2890625 -1.605469,1.5351562 0,0.1054688 0.105469,0.1054688 0.117188,0.1054688 0.08203,0 0.117187,-0.023437 0.128906,-0.1171875 0.339844,-1.0546875 0.996094,-1.3007813 1.335937,-1.3007813 0.1875,0 0.539063,0.09375 0.539063,0.6679688 0,0.3046875 -0.164063,0.9726562 -0.539063,2.3671875 -0.152343,0.62109372 -0.503906,1.04296872 -0.949218,1.04296872 -0.05859,0 -0.28125,0 -0.492188,-0.12890625 0.246094,-0.0585938 0.46875,-0.26953125 0.46875,-0.5390625 0,-0.26953127 -0.222656,-0.35156247 -0.375,-0.35156247 -0.292969,0 -0.539062,0.25781247 -0.539062,0.57421872 0,0.45703125 0.492187,0.65625 0.9375,0.65625 0.65625,0 1.007812,-0.69140625 1.042968,-0.75 0.117188,0.36328125 0.480469,0.75 1.078125,0.75 1.019532,0 1.59375,-1.27734372 1.59375,-1.53515622 0,-0.09375 -0.09375,-0.09375 -0.128906,-0.09375 -0.08203,0 -0.105469,0.035156 -0.128906,0.1054687 -0.328125,1.06640627 -0.996094,1.31250002 -1.324219,1.31250002 -0.386719,0 -0.539062,-0.328125 -0.539062,-0.65625 0,-0.22265625 0.05859,-0.44531252 0.164062,-0.87890622 z m 0,0"
         style="fill:#000000;fill-opacity:1;fill-rule:nonzero;stroke:none" />
    </g>
    <path
       id="path4"
       d="m -77.73094,-19.45471 h 42.07463 v 38.90942 h -42.07463 z"
       style="fill:none;stroke:#000000;stroke-width:0.3985;stroke-linecap:butt;stroke-linejoin:miter;stroke-miterlimit:10;stroke-dasharray:2.98883, 2.98883;stroke-dashoffset:0;stroke-opacity:1"
       transform="matrix(1.3333333,0,0,-1.3333333,117.18933,47.448)" />
    <g
       id="g4"
       aria-label="x=2&#10;ω=.5&#10;β=1"
       transform="matrix(1.3333333,0,0,1.3333333,29.949333,34.496)">
      <path
         id="path5"
         d="m 3.3280391,-3.0116484 c 0.058594,-0.2578125 0.2929687,-1.171875 0.984375,-1.171875 0.046875,0 0.2929687,0 0.5039062,0.1289062 -0.28125,0.046875 -0.4804687,0.3046875 -0.4804687,0.5390625 0,0.1640625 0.1054687,0.3515625 0.375,0.3515625 0.2226562,0 0.5390625,-0.1875 0.5390625,-0.5859375 0,-0.515625 -0.5859375,-0.65625 -0.9257813,-0.65625 -0.5742187,0 -0.9257812,0.5273438 -1.0429687,0.7617188 -0.2578125,-0.65625 -0.7851563,-0.7617188 -1.078125,-0.7617188 -1.0429688,0 -1.60546879,1.2890625 -1.60546879,1.5351563 0,0.1054687 0.10546875,0.1054687 0.1171875,0.1054687 0.0820313,0 0.1171875,-0.023437 0.12890625,-0.1171875 0.33984374,-1.0546875 0.99609374,-1.3007812 1.33593754,-1.3007812 0.1875,0 0.5390625,0.09375 0.5390625,0.6679687 0,0.3046875 -0.1640625,0.9726563 -0.5390625,2.3671875 -0.1523438,0.62109376 -0.5039063,1.04296876 -0.9492188,1.04296876 -0.058594,0 -0.28124999,0 -0.49218749,-0.12890625 0.24609375,-0.0585937 0.46874999,-0.26953125 0.46874999,-0.5390625 0,-0.26953121 -0.22265624,-0.35156251 -0.37499999,-0.35156251 -0.29296875,0 -0.5390625,0.25781251 -0.5390625,0.57421876 0,0.45703125 0.4921875,0.65625 0.93749999,0.65625 0.65625,0 1.0078125,-0.69140625 1.0429688,-0.75 0.1171875,0.36328125 0.4804687,0.75 1.078125,0.75 1.0195312,0 1.59375,-1.27734376 1.59375,-1.53515626 0,-0.09375 -0.09375,-0.09375 -0.1289063,-0.09375 -0.082031,0 -0.1054687,0.035156 -0.1289062,0.1054688 -0.328125,1.06640621 -0.9960938,1.31249996 -1.3242188,1.31249996 -0.3867187,0 -0.5390625,-0.328125 -0.5390625,-0.65625 0,-0.22265625 0.058594,-0.44531246 0.1640625,-0.87890626 z m 0,0"
         style="fill:#000000;fill-opacity:1;fill-rule:nonzero;stroke:none" />
      <path
         id="path6"
         d="m 16.552648,-3.2577422 c 0.152344,0 0.339844,0 0.339844,-0.1992187 0,-0.1992188 -0.1875,-0.1992188 -0.328125,-0.1992188 h -5.964844 c -0.140625,0 -0.328125,0 -0.328125,0.1992188 0,0.1992187 0.1875,0.1992187 0.339844,0.1992187 z m 0.01172,1.9335938 c 0.140625,0 0.328125,0 0.328125,-0.1992188 0,-0.1992187 -0.1875,-0.1992187 -0.339844,-0.1992187 h -5.941406 c -0.152344,0 -0.339844,0 -0.339844,0.1992187 0,0.1992188 0.1875,0.1992188 0.328125,0.1992188 z m 6.155274,0.56249996 1.054687,-1.03124996 c 1.558594,-1.3710938 2.15625,-1.9101563 2.15625,-2.90625 0,-1.1367188 -0.902344,-1.9335938 -2.121094,-1.9335938 -1.125,0 -1.851562,0.9140625 -1.851562,1.8046875 0,0.5507813 0.492187,0.5507813 0.527344,0.5507813 0.164062,0 0.515625,-0.1171875 0.515625,-0.5273438 0,-0.2578125 -0.1875,-0.515625 -0.527344,-0.515625 -0.08203,0 -0.105469,0 -0.128906,0.011719 0.222656,-0.6445313 0.761718,-1.0195313 1.335937,-1.0195313 0.914063,0 1.335938,0.8085938 1.335938,1.6289063 0,0.796875 -0.492188,1.5820312 -1.042969,2.203125 l -1.910156,2.13281246 c -0.105469,0.10546875 -0.105469,0.12890625 -0.105469,0.3632812525 h 3.691406 L 25.930578,-1.7343047 h -0.257812 c -0.04687,0.3046875 -0.117188,0.73828126 -0.210938,0.89062501 -0.07031,0.0820313 -0.726562,0.0820313 -0.949219,0.0820313 z m 0,0"
         style="fill:#000000;fill-opacity:1;fill-rule:nonzero;stroke:none" />
      <path
         id="path7"
         d="m 3.1815547,8.253 c 0,-0.4453125 -0.1757813,-0.703125 -0.3984375,-0.703125 -0.2578125,0 -0.5273438,0.2460937 -0.5273438,0.46875 0,0.1054688 0.046875,0.2109375 0.1523438,0.3046875 0.1640625,0.140625 0.3515625,0.4101563 0.3515625,0.8320313 0,0.3984375 -0.1875,0.9726562 -0.5039063,1.4296872 -0.2929687,0.421875 -0.6679687,0.761719 -1.1367187,0.761719 -0.56250001,0 -0.86718751,-0.351562 -0.96093751,-0.890625 0.10546875,-0.257812 0.33984375,-0.9023437 0.33984375,-1.1835937 0,-0.1171875 -0.046875,-0.2109375 -0.1875,-0.2109375 -0.0703125,0 -0.1875,0.011719 -0.2578125,0.1640625 -0.1171875,0.1992187 -0.234375,0.8437497 -0.234375,1.2070317 -0.328125,0.46875 -0.7265625,0.914062 -1.35937504,0.914062 -0.65625,0 -0.8671875,-0.585937 -0.8671875,-1.148437 0,-1.242188 1.0195313,-2.2851568 1.0195313,-2.414063 0,-0.1171875 -0.082031,-0.1875 -0.1875,-0.1875 -0.1289063,0 -0.1992188,0.1289062 -0.2578125,0.2109375 -0.5039063,0.7382813 -0.890625,1.921875 -0.890625,2.8359375 0,0.679688 0.234375,1.417969 1.0429687,1.417969 0.71484379,0 1.18359379,-0.492188 1.53515629,-1.042969 0.09375,0.574219 0.48046875,1.042969 1.1015625,1.042969 0.77343751,0 1.25390621,-0.609375 1.61718751,-1.347656 C 2.8065547,10.22175 3.1815547,8.862375 3.1815547,8.253 Z m 0,0"
         style="fill:#000000;fill-opacity:1;fill-rule:nonzero;stroke:none" />
      <path
         id="path8"
         d="m 14.179602,8.6983125 c 0.152343,0 0.339843,0 0.339843,-0.1992187 0,-0.1992188 -0.1875,-0.1992188 -0.328125,-0.1992188 H 8.2264766 c -0.140625,0 -0.328125,0 -0.328125,0.1992188 0,0.1992187 0.1875,0.1992187 0.3398437,0.1992187 z m 0.01172,1.9335935 c 0.140625,0 0.328125,0 0.328125,-0.199218 0,-0.199219 -0.1875,-0.199219 -0.339843,-0.199219 H 8.2381953 c -0.1523437,0 -0.3398437,0 -0.3398437,0.199219 0,0.199218 0.1875,0.199218 0.328125,0.199218 z m 0,0"
         style="fill:#000000;fill-opacity:1;fill-rule:nonzero;stroke:none" />
      <path
         id="path9"
         d="m 20.613195,11.428781 c 0,-0.292968 -0.234375,-0.527343 -0.527343,-0.527343 -0.28125,0 -0.527344,0.234375 -0.527344,0.527343 0,0.292969 0.246094,0.527344 0.527344,0.527344 0.292968,0 0.527343,-0.234375 0.527343,-0.527344 z m 0,0"
         style="fill:#000000;fill-opacity:1;fill-rule:nonzero;stroke:none" />
      <path
         id="path10"
         d="m 25.948156,9.9522188 c 0,-1.1835938 -0.820312,-2.1796876 -1.898437,-2.1796876 -0.480469,0 -0.902344,0.1640625 -1.265625,0.5039063 V 6.3428437 c 0.199219,0.058594 0.527344,0.1289063 0.84375,0.1289063 1.230469,0 1.933594,-0.9140625 1.933594,-1.0429688 0,-0.058594 -0.03516,-0.1054687 -0.105469,-0.1054687 -0.01172,0 -0.03516,0 -0.08203,0.023437 -0.199219,0.09375 -0.679688,0.2929687 -1.347657,0.2929687 -0.398437,0 -0.855468,-0.070312 -1.324218,-0.28125 -0.08203,-0.023437 -0.105469,-0.023437 -0.128907,-0.023437 -0.09375,0 -0.09375,0.082031 -0.09375,0.234375 v 2.9531251 c 0,0.1757812 0,0.2578125 0.140625,0.2578125 0.07031,0 0.08203,-0.035156 0.128907,-0.09375 0.105468,-0.1523438 0.480468,-0.6914063 1.277343,-0.6914063 0.527344,0 0.773438,0.4570313 0.855469,0.6328125 0.152344,0.375 0.175781,0.7617188 0.175781,1.2539063 0,0.3515627 0,0.9492187 -0.234375,1.3710937 -0.246093,0.386719 -0.609375,0.644531 -1.066406,0.644531 -0.726562,0 -1.300781,-0.527343 -1.464844,-1.113281 0.02344,0.01172 0.05859,0.01172 0.164063,0.01172 0.328125,0 0.503906,-0.246094 0.503906,-0.480469 0,-0.246094 -0.175781,-0.4921875 -0.503906,-0.4921875 -0.140625,0 -0.480469,0.070312 -0.480469,0.5273435 0,0.855469 0.679688,1.828125 1.792969,1.828125 1.160156,0 2.179687,-0.960937 2.179687,-2.2265622 z m 0,0"
         style="fill:#000000;fill-opacity:1;fill-rule:nonzero;stroke:none" />
      <path
         id="path11"
         d="m 5.3641719,18.240305 c 0,-0.738282 -0.5507813,-1.359375 -1.359375,-1.359375 -0.5742188,0 -0.8554688,0.152343 -1.2070313,0.421875 -0.5390625,0.398437 -1.0898437,1.359375 -1.2773437,2.121093 l -1.58203127,6.316407 c -0.01171875,0.04687 0.03515625,0.105468 0.1171875,0.105468 0.08203125,0 0.10546875,-0.02344 0.1171875,-0.04687 l 0.69140625,-2.753906 c 0.19921872,0.597656 0.63281252,0.972656 1.35937502,0.972656 0.7265625,0 1.4765625,-0.351562 1.921875,-0.796875 0.4804687,-0.457031 0.796875,-1.089843 0.796875,-1.828125 0,-0.714843 -0.3632813,-1.230468 -0.7265625,-1.488281 0.5742187,-0.328125 1.1484375,-0.9375 1.1484375,-1.664062 z m -1.7929688,1.652343 c -0.1289062,0.05859 -0.2460937,0.07031 -0.4804687,0.07031 -0.140625,0 -0.3398438,0.01172 -0.4335938,-0.03516 0.011719,-0.105469 0.375,-0.08203 0.4804688,-0.08203 0.2109375,0 0.3046875,0 0.4335937,0.04687 z m 1.2304688,-1.875 c 0,0.691407 -0.375,1.40625 -0.890625,1.722657 -0.2695313,-0.105469 -0.46875,-0.117188 -0.7734375,-0.117188 -0.2109375,0 -0.7617188,-0.01172 -0.7617188,0.316406 -0.011719,0.28125 0.5039063,0.246094 0.6796875,0.246094 0.375,0 0.5273438,-0.01172 0.8203125,-0.128906 0.375,0.363281 0.4335938,0.667969 0.4453125,1.125 0.011719,0.574219 -0.2226562,1.324219 -0.5039062,1.710937 -0.3867188,0.539063 -1.0546875,0.902344 -1.6289063,0.902344 -0.75,0 -1.125,-0.585937 -1.125,-1.289062 0,-0.09375 0,-0.246094 0.046875,-0.433594 l 0.6328125,-2.519531 c 0.2226563,-0.855469 0.9375,-2.449219 2.1328125,-2.449219 0.5742188,0 0.9257813,0.316406 0.9257813,0.914062 z m 0,0"
         style="fill:#000000;fill-opacity:1;fill-rule:nonzero;stroke:none" />
      <path
         id="path12"
         d="m 16.602453,20.654367 c 0.152344,0 0.339844,0 0.339844,-0.199219 0,-0.199218 -0.1875,-0.199218 -0.328125,-0.199218 h -5.964844 c -0.140625,0 -0.328125,0 -0.328125,0.199218 0,0.199219 0.1875,0.199219 0.339844,0.199219 z m 0.01172,1.933594 c 0.140625,0 0.328125,0 0.328125,-0.199219 0,-0.199219 -0.1875,-0.199219 -0.339844,-0.199219 h -5.941406 c -0.152344,0 -0.339844,0 -0.339844,0.199219 0,0.199219 0.1875,0.199219 0.328125,0.199219 z m 7.769531,-5.050781 c 0,-0.234375 0,-0.257813 -0.234375,-0.257813 -0.609375,0.632813 -1.488281,0.632813 -1.804687,0.632813 v 0.316406 c 0.199218,0 0.785156,0 1.300781,-0.257813 v 5.15625 c 0,0.351563 -0.03516,0.480469 -0.925781,0.480469 h -0.316407 v 0.304688 c 0.351563,-0.03516 1.207032,-0.03516 1.605469,-0.03516 0.398438,0 1.265625,0 1.617188,0.03516 v -0.304688 h -0.316407 c -0.902343,0 -0.925781,-0.117187 -0.925781,-0.480469 z m 0,0"
         style="fill:#000000;fill-opacity:1;fill-rule:nonzero;stroke:none" />
    </g>
    <path
       id="path13"
       d="m 126.21243,0 c 0,6.4843 -18.43304,11.74074 -41.17198,11.74074 C 62.30151,11.74074 43.86848,6.4843 43.86848,0 c 0,-6.4843 18.43303,-11.74074 41.17197,-11.74074 22.73894,0 41.17198,5.25644 41.17198,11.74074 z"
       style="fill:none;stroke:#000000;stroke-width:1.59404;stroke-linecap:butt;stroke-linejoin:miter;stroke-miterlimit:10;stroke-dasharray:none;stroke-opacity:1"
       transform="matrix(1.3333333,0,0,-1.3333333,117.18933,47.448)" />
    <g
       id="g13"
       aria-label="σ(ω·x+β)"
       transform="matrix(1.3333333,0,0,1.3333333,196.18667,50.769333)">
      <path
         id="path14"
         d="m 5.156875,-3.7146953 c 0.1289063,0 0.4921875,0 0.4921875,-0.3398438 0,-0.234375 -0.2109375,-0.234375 -0.3867187,-0.234375 H 2.9889063 c -1.5,0 -2.6132813,1.640625 -2.6132813,2.8242188 0,0.87890624 0.5859375,1.57031249 1.5,1.57031249 1.171875,0 2.4960938,-1.20703129 2.4960938,-2.73046879 0,-0.1757812 0,-0.65625 -0.3046875,-1.0898437 z m -3.2695312,3.60937499 c -0.4921875,0 -0.89062505,-0.36328125 -0.89062505,-1.07812499 0,-0.3046875 0.11718755,-1.1132813 0.46875005,-1.7109375 0.421875,-0.6796875 1.0195312,-0.8203125 1.359375,-0.8203125 0.8320312,0 0.9140625,0.65625 0.9140625,0.9609375 0,0.46875 -0.1992188,1.2890625 -0.5390625,1.79296874 -0.3867188,0.59765625 -0.9257813,0.85546875 -1.3125,0.85546875 z m 0,0"
         style="fill:#000000;fill-opacity:1;fill-rule:nonzero;stroke:none" />
      <path
         id="path15"
         d="m 9.3433984,2.3907734 c 0,-0.035156 0,-0.046875 -0.1640625,-0.2226562 -1.2421875,-1.25390626 -1.5703125,-3.12890626 -1.5703125,-4.6640625 0,-1.7226563 0.3867188,-3.4570313 1.6054688,-4.7109375 0.1289062,-0.1171875 0.1289062,-0.1289063 0.1289062,-0.1640625 0,-0.070312 -0.035156,-0.1054688 -0.09375,-0.1054688 -0.1054687,0 -0.9960937,0.6796875 -1.5820312,1.9453125 -0.515625,1.1015625 -0.6328125,2.203125 -0.6328125,3.0351563 0,0.7851562 0.1171875,1.99218749 0.65625,3.11718749 0.5976562,1.21875001 1.453125,1.87500001 1.5585937,1.87500001 0.058594,0 0.09375,-0.035156 0.09375,-0.1054688 z m 0,0"
         style="fill:#000000;fill-opacity:1;fill-rule:nonzero;stroke:none" />
      <path
         id="path16"
         d="m 15.946914,-3.7029766 c 0,-0.4453125 -0.175781,-0.703125 -0.398437,-0.703125 -0.257813,0 -0.527344,0.2460938 -0.527344,0.46875 0,0.1054688 0.04687,0.2109375 0.152344,0.3046875 0.164062,0.140625 0.351562,0.4101563 0.351562,0.8320313 0,0.3984375 -0.1875,0.9726562 -0.503906,1.4296875 -0.292969,0.42187499 -0.667969,0.76171874 -1.136719,0.76171874 -0.5625,0 -0.867187,-0.3515625 -0.960937,-0.89062504 0.105468,-0.2578125 0.339843,-0.9023437 0.339843,-1.1835937 0,-0.1171875 -0.04687,-0.2109375 -0.1875,-0.2109375 -0.07031,0 -0.1875,0.011719 -0.257812,0.1640625 -0.117188,0.1992187 -0.234375,0.84375 -0.234375,1.2070312 -0.328125,0.46875 -0.726563,0.91406254 -1.359375,0.91406254 -0.65625,0 -0.867188,-0.58593754 -0.867188,-1.14843754 0,-1.2421875 1.019532,-2.2851562 1.019532,-2.4140625 0,-0.1171875 -0.08203,-0.1875 -0.1875,-0.1875 -0.128907,0 -0.199219,0.1289063 -0.257813,0.2109375 -0.503906,0.7382813 -0.890625,1.921875 -0.890625,2.8359375 0,0.67968754 0.234375,1.41796879 1.042969,1.41796879 0.714844,0 1.183594,-0.4921875 1.535156,-1.04296875 0.09375,0.57421875 0.480469,1.04296875 1.101563,1.04296875 0.773437,0 1.253906,-0.609375 1.617187,-1.34765629 0.234375,-0.4921875 0.609375,-1.8515625 0.609375,-2.4609375 z m 0,0"
         style="fill:#000000;fill-opacity:1;fill-rule:nonzero;stroke:none" />
      <path
         id="path17"
         d="m 20.608047,-2.4959453 c 0,-0.28125 -0.234375,-0.5273438 -0.527344,-0.5273438 -0.28125,0 -0.527344,0.2460938 -0.527344,0.5273438 0,0.2929687 0.246094,0.5390625 0.527344,0.5390625 0.292969,0 0.527344,-0.2460938 0.527344,-0.5390625 z m 0,0"
         style="fill:#000000;fill-opacity:1;fill-rule:nonzero;stroke:none" />
      <path
         id="path18"
         d="m 27.006484,-3.0115703 c 0.05859,-0.2578125 0.292969,-1.171875 0.984375,-1.171875 0.04687,0 0.292969,0 0.503907,0.1289062 -0.28125,0.046875 -0.480469,0.3046875 -0.480469,0.5390625 0,0.1640625 0.105469,0.3515625 0.375,0.3515625 0.222656,0 0.539062,-0.1875 0.539062,-0.5859375 0,-0.515625 -0.585937,-0.65625 -0.925781,-0.65625 -0.574219,0 -0.925781,0.5273438 -1.042969,0.7617188 -0.257812,-0.65625 -0.785156,-0.7617188 -1.078125,-0.7617188 -1.042968,0 -1.605468,1.2890625 -1.605468,1.5351563 0,0.1054687 0.105468,0.1054687 0.117187,0.1054687 0.08203,0 0.117188,-0.023437 0.128906,-0.1171875 0.339844,-1.0546875 0.996094,-1.3007812 1.335938,-1.3007812 0.1875,0 0.539062,0.09375 0.539062,0.6679687 0,0.3046875 -0.164062,0.9726563 -0.539062,2.3671875 -0.152344,0.62109379 -0.503906,1.04296879 -0.949219,1.04296879 -0.05859,0 -0.28125,0 -0.492187,-0.12890625 0.246093,-0.0585937 0.46875,-0.26953125 0.46875,-0.5390625 0,-0.26953124 -0.222657,-0.35156254 -0.375,-0.35156254 -0.292969,0 -0.539063,0.25781254 -0.539063,0.57421879 0,0.45703125 0.492188,0.65625 0.9375,0.65625 0.65625,0 1.007813,-0.69140625 1.042969,-0.75 0.117187,0.36328125 0.480469,0.75 1.078125,0.75 1.019531,0 1.59375,-1.27734379 1.59375,-1.53515629 0,-0.09375 -0.09375,-0.09375 -0.128906,-0.09375 -0.08203,0 -0.105469,0.035156 -0.128907,0.1054688 -0.328125,1.06640624 -0.996093,1.31249999 -1.324218,1.31249999 -0.386719,0 -0.539063,-0.328125 -0.539063,-0.65625 0,-0.22265625 0.05859,-0.44531249 0.164063,-0.87890629 z m 0,0"
         style="fill:#000000;fill-opacity:1;fill-rule:nonzero;stroke:none" />
      <path
         id="path19"
         d="m 35.663711,-2.2967266 h 2.777344 c 0.140625,0 0.328125,0 0.328125,-0.1992187 0,-0.1992188 -0.1875,-0.1992188 -0.328125,-0.1992188 h -2.777344 v -2.7890625 c 0,-0.1289062 0,-0.328125 -0.199219,-0.328125 -0.199219,0 -0.199219,0.1992188 -0.199219,0.328125 v 2.7890625 h -2.789062 c -0.140625,0 -0.328125,0 -0.328125,0.1992188 0,0.1992187 0.1875,0.1992187 0.328125,0.1992187 h 2.789062 v 2.80078129 c 0,0.12890625 0,0.328125 0.199219,0.328125 0.199219,0 0.199219,-0.19921875 0.199219,-0.328125 z m 0,0"
         style="fill:#000000;fill-opacity:1;fill-rule:nonzero;stroke:none" />
      <path
         id="path20"
         d="m 47.279922,-5.6717266 c 0,-0.7382812 -0.550781,-1.359375 -1.359375,-1.359375 -0.574219,0 -0.855469,0.1523438 -1.207031,0.421875 -0.539063,0.3984375 -1.089844,1.359375 -1.277344,2.1210938 l -1.582031,6.3164062 c -0.01172,0.046875 0.03516,0.1054688 0.117187,0.1054688 0.08203,0 0.105469,-0.023437 0.117188,-0.046875 l 0.691406,-2.75390626 c 0.199219,0.59765625 0.632812,0.97265625 1.359375,0.97265625 0.726562,0 1.476562,-0.3515625 1.921875,-0.796875 0.480469,-0.45703129 0.796875,-1.08984379 0.796875,-1.82812499 0,-0.7148438 -0.363281,-1.2304688 -0.726563,-1.4882813 0.574219,-0.328125 1.148438,-0.9375 1.148438,-1.6640625 z m -1.792969,1.6523438 c -0.128906,0.058594 -0.246094,0.070312 -0.480469,0.070312 -0.140625,0 -0.339843,0.011719 -0.433593,-0.035156 0.01172,-0.1054687 0.375,-0.082031 0.480468,-0.082031 0.210938,0 0.304688,0 0.433594,0.046875 z m 1.230469,-1.875 c 0,0.6914062 -0.375,1.40625 -0.890625,1.7226562 -0.269531,-0.1054687 -0.46875,-0.1171875 -0.773438,-0.1171875 -0.210937,0 -0.761718,-0.011719 -0.761718,0.3164063 -0.01172,0.28125 0.503906,0.2460937 0.679687,0.2460937 0.375,0 0.527344,-0.011719 0.820313,-0.1289062 0.375,0.3632812 0.433593,0.6679687 0.445312,1.125 0.01172,0.5742187 -0.222656,1.3242187 -0.503906,1.7109375 -0.386719,0.53906249 -1.054688,0.90234374 -1.628906,0.90234374 -0.75,0 -1.125,-0.5859375 -1.125,-1.28906254 0,-0.09375 0,-0.2460937 0.04687,-0.4335937 l 0.632812,-2.5195313 c 0.222656,-0.8554687 0.9375,-2.4492187 2.132813,-2.4492187 0.574218,0 0.925781,0.3164062 0.925781,0.9140625 z m 0,0"
         style="fill:#000000;fill-opacity:1;fill-rule:nonzero;stroke:none" />
      <path
         id="path21"
         d="m 50.593398,-2.4959453 c 0,-0.7734375 -0.117187,-1.9804688 -0.65625,-3.1054688 -0.597656,-1.21875 -1.464843,-1.875 -1.558593,-1.875 -0.05859,0 -0.105469,0.046875 -0.105469,0.1054688 0,0.035156 0,0.046875 0.199219,0.234375 0.972656,0.984375 1.535156,2.5664062 1.535156,4.640625 0,1.71093749 -0.363281,3.45703124 -1.59375,4.7226562 -0.140625,0.1171875 -0.140625,0.1289063 -0.140625,0.1640625 0,0.058594 0.04687,0.1054688 0.105469,0.1054688 0.09375,0 0.996093,-0.6796875 1.582031,-1.94531251 0.503906,-1.1015625 0.632812,-2.20312499 0.632812,-3.04687499 z m 0,0"
         style="fill:#000000;fill-opacity:1;fill-rule:nonzero;stroke:none" />
    </g>
    <path
       id="path22"
       d="m 194.90489,0 c 0,13.71007 -11.1139,24.82397 -24.82397,24.82397 -13.71009,0 -24.82399,-11.1139 -24.82399,-24.82397 0,-13.71007 11.1139,-24.82397 24.82399,-24.82397 13.71007,0 24.82397,11.1139 24.82397,24.82397 z"
       style="fill:none;stroke:#000000;stroke-width:1.59404;stroke-linecap:butt;stroke-linejoin:miter;stroke-miterlimit:10;stroke-dasharray:none;stroke-opacity:1"
       transform="matrix(1.3333333,0,0,-1.3333333,117.18933,47.448)" />
    <g
       id="g22"
       aria-label="Outputˆy"
       transform="matrix(1.3333333,0,0,1.3333333,316.844,50.838667)">
      <path
         id="path23"
         d="m 7.1834063,-3.3741172 c 0,-2.0390625 -1.5,-3.6445312 -3.3164063,-3.6445312 -1.78125,0 -3.3046875,1.59375 -3.3046875,3.6445312 0,2.0390625 1.5351563,3.59765626 3.3046875,3.59765626 1.8164063,0 3.3164063,-1.58203126 3.3164063,-3.59765626 z m -1.03125,-0.140625 c 0,2.63671876 -1.359375,3.48046876 -2.2734375,3.48046876 -0.9609375,0 -2.296875,-0.87890625 -2.296875,-3.48046876 0,-2.578125 1.453125,-3.2578125 2.2851562,-3.2578125 0.8671875,0 2.2851563,0.703125 2.2851563,3.2578125 z M 13.083797,8.828125e-4 V -0.30380469 c -0.703125,0 -0.785156,-0.0703125 -0.785156,-0.5625 V -4.4053672 l -1.453125,0.1171875 v 0.3046875 c 0.691406,0 0.773437,0.070312 0.773437,0.5625 v 1.7695313 c 0,0.86718746 -0.480469,1.54687496 -1.207031,1.54687496 -0.8320314,0 -0.8789064,-0.46875 -0.8789064,-0.99609376 v -3.3046875 l -1.4648437,0.1171875 v 0.3046875 c 0.7851562,0 0.7851562,0.035156 0.7851562,0.9140625 v 1.5 c 0,0.77343751 0,1.67578126 1.5117189,1.67578126 0.550781,0 0.996094,-0.26953125 1.277344,-0.890625 v 0.890625 z M 16.593563,-1.2295859 v -0.5742188 h -0.246094 v 0.5507813 c 0,0.73828121 -0.304688,1.11328121 -0.667969,1.11328121 -0.667969,0 -0.667969,-0.90234371 -0.667969,-1.07812501 v -2.765625 h 1.429688 v -0.3046875 h -1.429688 v -1.8398437 h -0.246093 c -0.01172,0.8203125 -0.316407,1.8867187 -1.289063,1.921875 v 0.2226562 h 0.84375 v 2.7539063 c 0,1.21874996 0.925781,1.33593746 1.289063,1.33593746 0.703125,0 0.984375,-0.703125 0.984375,-1.33593746 z m 5.762695,-0.9257813 c 0,-1.265625 -0.972656,-2.25 -2.085938,-2.25 -0.773437,0 -1.195312,0.4453125 -1.394531,0.65625 v -0.65625 l -1.429687,0.1171875 v 0.3046875 c 0.703125,0 0.773437,0.058594 0.773437,0.4921875 v 4.6640625 c 0,0.4570313 -0.105469,0.4570313 -0.773437,0.4570313 v 0.3046875 l 1.113281,-0.035156 1.125,0.035156 V 1.6297891 c -0.667969,0 -0.773438,0 -0.773438,-0.4570313 v -1.75781249 c 0.04687,0.15234375 0.46875,0.69140625 1.21875,0.69140625 1.183594,0 2.226563,-0.97265625 2.226563,-2.26171876 z m -0.832031,0 c 0,1.20703126 -0.691407,2.05078126 -1.429688,2.05078126 -0.398437,0 -0.773437,-0.19921875 -1.042969,-0.609375 -0.140625,-0.2109375 -0.140625,-0.22265625 -0.140625,-0.42187496 v -2.2148438 c 0.28125,-0.515625 0.773438,-0.796875 1.277344,-0.796875 0.726563,0 1.335938,0.8671875 1.335938,1.9921875 z M 28.036922,8.828125e-4 V -0.30380469 c -0.703125,0 -0.785156,-0.0703125 -0.785156,-0.5625 V -4.4053672 l -1.453125,0.1171875 v 0.3046875 c 0.691406,0 0.773437,0.070312 0.773437,0.5625 v 1.7695313 c 0,0.86718746 -0.480469,1.54687496 -1.207031,1.54687496 -0.832031,0 -0.878906,-0.46875 -0.878906,-0.99609376 v -3.3046875 l -1.464844,0.1171875 v 0.3046875 c 0.785156,0 0.785156,0.035156 0.785156,0.9140625 v 1.5 c 0,0.77343751 0,1.67578126 1.511719,1.67578126 0.550781,0 0.996094,-0.26953125 1.277344,-0.890625 v 0.890625 z M 31.549617,-1.2295859 v -0.5742188 h -0.246094 v 0.5507813 c 0,0.73828121 -0.304687,1.11328121 -0.667968,1.11328121 -0.667969,0 -0.667969,-0.90234371 -0.667969,-1.07812501 v -2.765625 h 1.429687 v -0.3046875 h -1.429687 v -1.8398437 h -0.246094 c -0.01172,0.8203125 -0.316406,1.8867187 -1.289062,1.921875 v 0.2226562 h 0.84375 v 2.7539063 c 0,1.21874996 0.925781,1.33593746 1.289062,1.33593746 0.703125,0 0.984375,-0.703125 0.984375,-1.33593746 z m 0,0"
         style="fill:#000000;fill-opacity:1;fill-rule:nonzero;stroke:none" />
      <path
         id="path24"
         d="m 38.616023,-6.9131797 -1.335937,1.359375 0.175781,0.1757813 1.160156,-1.0195313 1.136719,1.0195313 0.1875,-0.1757813 z m 0,0"
         style="fill:#000000;fill-opacity:1;fill-rule:nonzero;stroke:none" />
      <path
         id="path25"
         d="m 40.277156,-3.7959922 c 0.04687,-0.140625 0.04687,-0.1523437 0.04687,-0.2226562 0,-0.1875 -0.140625,-0.2695313 -0.292968,-0.2695313 -0.105469,0 -0.257813,0.058594 -0.351563,0.1992188 -0.02344,0.058594 -0.09375,0.3632812 -0.140625,0.5390625 -0.07031,0.2578125 -0.140625,0.5273437 -0.199219,0.796875 l -0.445312,1.79296871 c -0.03516,0.15234375 -0.46875,0.85546875 -1.125,0.85546875 -0.503906,0 -0.621094,-0.4453125 -0.621094,-0.80859375 0,-0.45703121 0.175781,-1.07812501 0.515625,-1.95703121 0.152344,-0.4101563 0.199219,-0.515625 0.199219,-0.7148438 0,-0.4453125 -0.328125,-0.8203125 -0.820313,-0.8203125 -0.949218,0 -1.3125,1.453125 -1.3125,1.5351563 0,0.1054687 0.09375,0.1054687 0.117188,0.1054687 0.09375,0 0.105469,-0.023437 0.152344,-0.1875 0.269531,-0.9375 0.667968,-1.2304687 1.007812,-1.2304687 0.08203,0 0.257813,0 0.257813,0.3164062 0,0.2460938 -0.105469,0.515625 -0.175782,0.703125 -0.398437,1.0546875 -0.574218,1.6171875 -0.574218,2.0859375 0,0.89062501 0.621093,1.18359376 1.21875,1.18359376 0.386718,0 0.726562,-0.1640625 0.996093,-0.4453125 -0.128906,0.515625 -0.246093,1.0078125 -0.644531,1.53515624 -0.257812,0.3398438 -0.632812,0.6328125 -1.089844,0.6328125 -0.140625,0 -0.597656,-0.035156 -0.761718,-0.421875 0.164062,0 0.292968,0 0.433593,-0.1171875 0.09375,-0.09375 0.199219,-0.2226562 0.199219,-0.41015624 0,-0.31640625 -0.269531,-0.3515625 -0.375,-0.3515625 -0.222656,0 -0.550781,0.1640625 -0.550781,0.64453124 0,0.5039063 0.433594,0.8671875 1.054687,0.8671875 1.019532,0 2.050782,-0.9023437 2.332032,-2.02734374 z m 0,0"
         style="fill:#000000;fill-opacity:1;fill-rule:nonzero;stroke:none" />
    </g>
    <path
       id="path26"
       d="m 219.68785,-8.30194 h 70.86702 v 16.6039 h -70.86702 z"
       style="fill:none;stroke:#000000;stroke-width:1.59404;stroke-linecap:butt;stroke-linejoin:miter;stroke-miterlimit:10;stroke-dasharray:none;stroke-opacity:1"
       transform="matrix(1.3333333,0,0,-1.3333333,117.18933,47.448)" />
    <g
       id="g26"
       aria-label="L(y,ˆy)"
       transform="matrix(1.3333333,0,0,1.3333333,437.66267,50.769333)">
      <path
         id="path27"
         d="m 1.7940156,-0.92563281 c 0.5390625,-0.83203129 0.703125,-1.47656249 0.8320313,-2.00390629 0.3515625,-1.3710937 0.7265625,-2.5664062 1.3476562,-3.2578125 0.1171875,-0.1289062 0.1992188,-0.2226562 0.515625,-0.2226562 0.6914063,0 0.7148438,0.6914062 0.7148438,0.8320312 0,0.1757813 -0.058594,0.3164063 -0.058594,0.3632813 0,0.070312 0.070312,0.070312 0.070312,0.070312 0.1640625,0 0.4335938,-0.1054688 0.6796875,-0.28125 0.1875,-0.140625 0.2695313,-0.2460938 0.2695313,-0.65625 0,-0.5273438 -0.28125,-0.9375 -0.8320313,-0.9375 -0.3164062,0 -1.1953125,0.082031 -2.1796875,1.0664062 -0.796875,0.8085938 -1.2539062,2.6015625 -1.453125,3.3515625 -0.1757812,0.6914063 -0.2578125,0.9960938 -0.5507812,1.59375 -0.070312,0.11718754 -0.32812503,0.56250004 -0.46875003,0.69140629 -0.26953125,0.24609375 -0.375,0.421875 -0.375,0.48046875 0,0.0117188 0.0234375,0.0585938 0.09375,0.0585938 0.0351563,0 0.24609375,-0.046875 0.50390625,-0.2109375 0.17578128,-0.10546875 0.19921878,-0.1171875 0.42187498,-0.36328125 0.5039063,0.0117188 0.84375,0.10546875 1.4765625,0.28125 0.5039063,0.140625 1.0195313,0.29296875 1.5234375,0.29296875 0.8085938,0 1.6171875,-0.609375 1.9453125,-1.0546875 0.1992188,-0.26953124 0.2578125,-0.51562494 0.2578125,-0.53906244 0,-0.070312 -0.058594,-0.070312 -0.070312,-0.070312 -0.1640625,0 -0.3984375,0.1054687 -0.5742187,0.2226562 -0.2695313,0.1757813 -0.28125,0.23437499 -0.3398438,0.39843749 -0.058594,0.1640625 -0.1171875,0.24609375 -0.1523437,0.3046875 -0.082031,0.1171875 -0.09375,0.1171875 -0.2460938,0.1171875 -0.46875,0 -0.9726562,-0.15234375 -1.6289062,-0.328125 -0.28125,-0.0820313 -0.8203125,-0.234375 -1.3242188,-0.234375 -0.1289062,0 -0.2695312,0 -0.3984373,0.0351562 z m 0,0"
         style="fill:#000000;fill-opacity:1;fill-rule:nonzero;stroke:none" />
      <path
         id="path28"
         d="m 10.164133,2.3907734 c 0,-0.035156 0,-0.046875 -0.164063,-0.2226562 -1.2421872,-1.25390626 -1.5703122,-3.12890626 -1.5703122,-4.6640625 0,-1.7226563 0.3867188,-3.4570313 1.6054692,-4.7109375 0.128906,-0.1171875 0.128906,-0.1289063 0.128906,-0.1640625 0,-0.070312 -0.03516,-0.1054688 -0.09375,-0.1054688 -0.1054689,0 -0.9960939,0.6796875 -1.5820314,1.9453125 -0.515625,1.1015625 -0.6328125,2.203125 -0.6328125,3.0351563 0,0.7851562 0.1171875,1.99218749 0.65625,3.11718749 0.5976562,1.21875001 1.453125,1.87500001 1.5585939,1.87500001 0.05859,0 0.09375,-0.035156 0.09375,-0.1054688 z m 0,0"
         style="fill:#000000;fill-opacity:1;fill-rule:nonzero;stroke:none" />
      <path
         id="path29"
         d="m 15.586984,-3.7967266 c 0.04687,-0.140625 0.04687,-0.1523437 0.04687,-0.2226562 0,-0.1875 -0.140625,-0.2695313 -0.292968,-0.2695313 -0.105469,0 -0.257813,0.058594 -0.351563,0.1992188 -0.02344,0.058594 -0.09375,0.3632812 -0.140625,0.5390625 -0.07031,0.2578125 -0.140625,0.5273437 -0.199219,0.796875 l -0.445312,1.79296874 c -0.03516,0.15234375 -0.46875,0.85546875 -1.125,0.85546875 -0.503906,0 -0.621094,-0.4453125 -0.621094,-0.80859375 0,-0.45703124 0.175781,-1.07812504 0.515625,-1.95703124 0.152344,-0.4101563 0.199219,-0.515625 0.199219,-0.7148438 0,-0.4453125 -0.328125,-0.8203125 -0.820313,-0.8203125 -0.949218,0 -1.3125,1.453125 -1.3125,1.5351563 0,0.1054687 0.09375,0.1054687 0.117188,0.1054687 0.09375,0 0.105469,-0.023437 0.152344,-0.1875 0.269531,-0.9375 0.667968,-1.2304687 1.007812,-1.2304687 0.08203,0 0.257813,0 0.257813,0.3164062 0,0.2460938 -0.105469,0.515625 -0.175782,0.703125 -0.398437,1.0546875 -0.574218,1.6171875 -0.574218,2.0859375 0,0.89062504 0.621093,1.18359379 1.21875,1.18359379 0.386718,0 0.726562,-0.1640625 0.996093,-0.4453125 -0.128906,0.515625 -0.246093,1.0078125 -0.644531,1.53515621 -0.257812,0.3398438 -0.632812,0.6328125 -1.089844,0.6328125 -0.140625,0 -0.597656,-0.035156 -0.761718,-0.421875 0.164062,0 0.292968,0 0.433593,-0.1171875 0.09375,-0.09375 0.199219,-0.2226562 0.199219,-0.41015621 0,-0.31640625 -0.269531,-0.3515625 -0.375,-0.3515625 -0.222656,0 -0.550781,0.1640625 -0.550781,0.64453121 0,0.5039063 0.433594,0.8671875 1.054687,0.8671875 1.019532,0 2.050782,-0.9023437 2.332032,-2.02734371 z m 2.416993,3.78515629 c 0,-0.65625 -0.257813,-1.04296879 -0.644532,-1.04296879 -0.328125,0 -0.527343,0.24609379 -0.527343,0.52734379 0,0.26953125 0.199218,0.5273437475 0.527343,0.5273437475 0.117188,0 0.246094,-0.0351562475 0.351563,-0.1289062475 0.02344,-0.0234375 0.03516,-0.0351563 0.04687,-0.0351563 0.01172,0 0.02344,0.0117188 0.02344,0.15234375 0,0.73828125 -0.351562,1.33593756 -0.679687,1.66406256 -0.105469,0.1054687 -0.105469,0.1289062 -0.105469,0.1640625 0,0.070312 0.04687,0.1054687 0.09375,0.1054687 0.117188,0 0.914063,-0.7617187 0.914063,-1.93359376 z m 0,0"
         style="fill:#000000;fill-opacity:1;fill-rule:nonzero;stroke:none" />
      <path
         id="path30"
         d="m 23.59382,-6.9139141 -1.335937,1.359375 0.175781,0.1757813 1.160156,-1.0195313 1.136719,1.0195313 0.1875,-0.1757813 z m 0,0"
         style="fill:#000000;fill-opacity:1;fill-rule:nonzero;stroke:none" />
      <path
         id="path31"
         d="m 25.254953,-3.7967266 c 0.04687,-0.140625 0.04687,-0.1523437 0.04687,-0.2226562 0,-0.1875 -0.140625,-0.2695313 -0.292969,-0.2695313 -0.105468,0 -0.257812,0.058594 -0.351562,0.1992188 -0.02344,0.058594 -0.09375,0.3632812 -0.140625,0.5390625 -0.07031,0.2578125 -0.140625,0.5273437 -0.199219,0.796875 l -0.445312,1.79296874 c -0.03516,0.15234375 -0.46875,0.85546875 -1.125,0.85546875 -0.503907,0 -0.621094,-0.4453125 -0.621094,-0.80859375 0,-0.45703124 0.175781,-1.07812504 0.515625,-1.95703124 0.152344,-0.4101563 0.199219,-0.515625 0.199219,-0.7148438 0,-0.4453125 -0.328125,-0.8203125 -0.820313,-0.8203125 -0.949219,0 -1.3125,1.453125 -1.3125,1.5351563 0,0.1054687 0.09375,0.1054687 0.117188,0.1054687 0.09375,0 0.105468,-0.023437 0.152343,-0.1875 0.269532,-0.9375 0.667969,-1.2304687 1.007813,-1.2304687 0.08203,0 0.257812,0 0.257812,0.3164062 0,0.2460938 -0.105468,0.515625 -0.175781,0.703125 -0.398437,1.0546875 -0.574219,1.6171875 -0.574219,2.0859375 0,0.89062504 0.621094,1.18359379 1.21875,1.18359379 0.386719,0 0.726563,-0.1640625 0.996094,-0.4453125 -0.128906,0.515625 -0.246094,1.0078125 -0.644531,1.53515621 -0.257813,0.3398438 -0.632813,0.6328125 -1.089844,0.6328125 -0.140625,0 -0.597656,-0.035156 -0.761719,-0.421875 0.164063,0 0.292969,0 0.433594,-0.1171875 0.09375,-0.09375 0.199219,-0.2226562 0.199219,-0.41015621 0,-0.31640625 -0.269531,-0.3515625 -0.375,-0.3515625 -0.222656,0 -0.550781,0.1640625 -0.550781,0.64453121 0,0.5039063 0.433593,0.8671875 1.054687,0.8671875 1.019531,0 2.050781,-0.9023437 2.332031,-2.02734371 z m 0,0"
         style="fill:#000000;fill-opacity:1;fill-rule:nonzero;stroke:none" />
      <path
         id="path32"
         d="m 28.539133,-2.4959453 c 0,-0.7734375 -0.117188,-1.9804688 -0.65625,-3.1054688 -0.597656,-1.21875 -1.464844,-1.875 -1.558594,-1.875 -0.05859,0 -0.105469,0.046875 -0.105469,0.1054688 0,0.035156 0,0.046875 0.199219,0.234375 0.972656,0.984375 1.535156,2.5664062 1.535156,4.640625 0,1.71093749 -0.363281,3.45703124 -1.59375,4.7226562 -0.140625,0.1171875 -0.140625,0.1289063 -0.140625,0.1640625 0,0.058594 0.04687,0.1054688 0.105469,0.1054688 0.09375,0 0.996094,-0.6796875 1.582031,-1.94531251 0.503907,-1.1015625 0.632813,-2.20312499 0.632813,-3.04687499 z m 0,0"
         style="fill:#000000;fill-opacity:1;fill-rule:nonzero;stroke:none" />
    </g>
    <path
       id="path33"
       d="M 22.08173,0 H 41.67667"
       style="fill:none;stroke:#000000;stroke-width:0.3985;stroke-linecap:butt;stroke-linejoin:miter;stroke-miterlimit:10;stroke-dasharray:none;stroke-opacity:1"
       transform="matrix(1.3333333,0,0,-1.3333333,117.18933,47.448)" />
    <path
       id="path34"
       d="M -2.07224,2.39104 C -1.69365,0.95639 -0.84999,0.27895 0,0 -0.84999,-0.27895 -1.69365,-0.95639 -2.07224,-2.39104"
       style="fill:none;stroke:#000000;stroke-width:0.3985;stroke-linecap:round;stroke-linejoin:round;stroke-miterlimit:10;stroke-dasharray:none;stroke-opacity:1"
       transform="matrix(1.3333333,0,0,-1.3333333,173.02391,47.448)" />
    <path
       id="path35"
       d="m 7.0069063,-3.9843438 v -0.3046875 c -0.2226563,0.011719 -0.515625,0.023437 -0.7265625,0.023437 l -0.9375,-0.023437 v 0.3046875 c 0.3632812,0.011719 0.5859375,0.1875 0.5859375,0.4804688 0,0.058594 0,0.082031 -0.046875,0.2109375 L 4.9678438,-0.74996875 3.9834688,-3.5273125 c -0.035156,-0.1171875 -0.046875,-0.140625 -0.046875,-0.1875 0,-0.2695313 0.3867187,-0.2695313 0.5859375,-0.2695313 v -0.3046875 l -1.03125,0.023437 c -0.3046875,0 -0.5976563,-0.011719 -0.890625,-0.023437 v 0.3046875 c 0.3632812,0 0.5273437,0.023437 0.6210937,0.1523438 0.058594,0.058594 0.1640625,0.3515625 0.234375,0.5390625 L 2.6006563,-0.878875 1.6514375,-3.5390313 c -0.046875,-0.1171875 -0.046875,-0.140625 -0.046875,-0.1757812 0,-0.2695313 0.3867188,-0.2695313 0.5859375,-0.2695313 v -0.3046875 l -1.0898437,0.023437 -0.9257813,-0.023437 v 0.3046875 c 0.50390625,0 0.62109375,0.035156 0.73828125,0.3515625 L 2.1670625,-0.1054375 C 2.2256563,0.0351875 2.2490938,0.1055 2.378,0.1055 c 0.1289063,0 0.1523438,-0.05859375 0.1992188,-0.19921875 L 3.5850313,-2.9062188 4.6045625,-0.082 C 4.6397188,0.0351875 4.674875,0.1055 4.8037813,0.1055 4.9326875,0.1055 4.956125,0.02346875 5.003,-0.082 l 1.1601563,-3.2695313 c 0.1757812,-0.4921875 0.4921875,-0.6210937 0.84375,-0.6328125 z m 0,0"
       style="fill:#000000;fill-opacity:1;fill-rule:nonzero;stroke:none"
       aria-label="w"
       transform="matrix(1.3333333,0,0,1.3333333,155.82933,42.609333)" />
    <path
       id="path36"
       d="m 127.00945,0 h 16.05567"
       style="fill:none;stroke:#000000;stroke-width:0.3985;stroke-linecap:butt;stroke-linejoin:miter;stroke-miterlimit:10;stroke-dasharray:none;stroke-opacity:1"
       transform="matrix(1.3333333,0,0,-1.3333333,117.18933,47.448)" />
    <path
       id="path37"
       d="M -2.07224,2.39104 C -1.69365,0.95639 -0.84999,0.27895 0,0 -0.84999,-0.27895 -1.69365,-0.95639 -2.07224,-2.39104"
       style="fill:none;stroke:#000000;stroke-width:0.3985;stroke-linecap:round;stroke-linejoin:round;stroke-miterlimit:10;stroke-dasharray:none;stroke-opacity:1"
       transform="matrix(1.3333333,0,0,-1.3333333,308.20849,47.448)" />
    <path
       id="path38"
       d="m 195.70192,0 h 21.79413"
       style="fill:none;stroke:#000000;stroke-width:0.3985;stroke-linecap:butt;stroke-linejoin:miter;stroke-miterlimit:10;stroke-dasharray:none;stroke-opacity:1"
       transform="matrix(1.3333333,0,0,-1.3333333,117.18933,47.448)" />
    <path
       id="path39"
       d="M -2.07224,2.39104 C -1.69365,0.95639 -0.84999,0.27895 0,0 -0.84999,-0.27895 -1.69365,-0.95639 -2.07224,-2.39104"
       style="fill:none;stroke:#000000;stroke-width:0.3985;stroke-linecap:round;stroke-linejoin:round;stroke-miterlimit:10;stroke-dasharray:none;stroke-opacity:1"
       transform="matrix(1.3333333,0,0,-1.3333333,407.44973,47.448)" />
    <g
       id="g39"
       aria-label="=(y−ˆy)&#10;2"
       transform="matrix(1.3333333,0,0,1.3333333,427.088,81.728)">
      <path
         id="path40"
         d="m 6.8451328,-3.2588906 c 0.1523438,0 0.3398438,0 0.3398438,-0.1992188 0,-0.1992187 -0.1875,-0.1992187 -0.328125,-0.1992187 H 0.89200781 c -0.140625,0 -0.328125,0 -0.328125,0.1992187 0,0.1992188 0.1875,0.1992188 0.33984375,0.1992188 z m 0.011719,1.9335937 c 0.140625,0 0.328125,0 0.328125,-0.1992187 0,-0.1992188 -0.1875,-0.1992188 -0.3398438,-0.1992188 H 0.90372656 c -0.15234375,0 -0.33984375,0 -0.33984375,0.1992188 0,0.1992187 0.1875,0.1992187 0.328125,0.1992187 z m 6.9375002,3.7148438 c 0,-0.035156 0,-0.046875 -0.164063,-0.2226563 -1.242187,-1.25390623 -1.570312,-3.12890623 -1.570312,-4.6640625 0,-1.7226562 0.386718,-3.4570312 1.605468,-4.7109375 0.128907,-0.1171875 0.128907,-0.1289062 0.128907,-0.1640625 0,-0.070312 -0.03516,-0.1054687 -0.09375,-0.1054687 -0.105469,0 -0.996094,0.6796875 -1.582032,1.9453125 -0.515625,1.1015625 -0.632812,2.203125 -0.632812,3.0351562 0,0.7851563 0.117187,1.99218752 0.65625,3.11718752 0.597656,1.21874998 1.453125,1.87499998 1.558594,1.87499998 0.05859,0 0.09375,-0.035156 0.09375,-0.1054687 z m 0,0"
         style="fill:#000000;fill-opacity:1;fill-rule:nonzero;stroke:none" />
      <path
         id="path41"
         d="m 19.228922,-3.7979531 c 0.04687,-0.140625 0.04687,-0.1523438 0.04687,-0.2226563 0,-0.1875 -0.140625,-0.2695312 -0.292969,-0.2695312 -0.105469,0 -0.257812,0.058594 -0.351562,0.1992187 -0.02344,0.058594 -0.09375,0.3632813 -0.140625,0.5390625 -0.07031,0.2578125 -0.140625,0.5273438 -0.199219,0.796875 l -0.445313,1.79296877 c -0.03516,0.15234375 -0.46875,0.85546875 -1.125,0.85546875 -0.503906,0 -0.621093,-0.4453125 -0.621093,-0.80859375 0,-0.45703127 0.175781,-1.07812497 0.515625,-1.95703127 0.152343,-0.4101562 0.199218,-0.515625 0.199218,-0.7148437 0,-0.4453125 -0.328125,-0.8203125 -0.820312,-0.8203125 -0.949219,0 -1.3125,1.453125 -1.3125,1.5351562 0,0.1054688 0.09375,0.1054688 0.117187,0.1054688 0.09375,0 0.105469,-0.023437 0.152344,-0.1875 0.269531,-0.9375 0.667969,-1.2304688 1.007813,-1.2304688 0.08203,0 0.257812,0 0.257812,0.3164063 0,0.2460937 -0.105469,0.515625 -0.175781,0.703125 -0.398438,1.0546875 -0.574219,1.6171875 -0.574219,2.0859375 0,0.89062497 0.621094,1.18359372 1.21875,1.18359372 0.386719,0 0.726563,-0.1640625 0.996094,-0.4453125 -0.128906,0.515625 -0.246094,1.0078125 -0.644531,1.53515628 -0.257813,0.3398437 -0.632813,0.6328125 -1.089844,0.6328125 -0.140625,0 -0.597656,-0.035156 -0.761719,-0.421875 0.164063,0 0.292969,0 0.433594,-0.1171875 0.09375,-0.09375 0.199219,-0.2226563 0.199219,-0.41015628 0,-0.31640625 -0.269532,-0.3515625 -0.375,-0.3515625 -0.222657,0 -0.550782,0.1640625 -0.550782,0.64453128 0,0.5039062 0.433594,0.8671875 1.054688,0.8671875 1.019531,0 2.050781,-0.9023438 2.332031,-2.02734378 z m 0,0"
         style="fill:#000000;fill-opacity:1;fill-rule:nonzero;stroke:none" />
      <path
         id="path42"
         d="m 28.407633,-2.2979531 c 0.175781,0 0.351562,0 0.351562,-0.1992188 0,-0.1992187 -0.175781,-0.1992187 -0.351562,-0.1992187 h -5.390625 c -0.164063,0 -0.339844,0 -0.339844,0.1992187 0,0.1992188 0.175781,0.1992188 0.339844,0.1992188 z m 0,0"
         style="fill:#000000;fill-opacity:1;fill-rule:nonzero;stroke:none" />
      <path
         id="path43"
         d="m 34.987711,-6.9151406 -1.335938,1.359375 0.175782,0.1757812 1.160156,-1.0195312 1.136719,1.0195312 0.1875,-0.1757812 z m 0,0"
         style="fill:#000000;fill-opacity:1;fill-rule:nonzero;stroke:none" />
      <path
         id="path44"
         d="m 36.648844,-3.7979531 c 0.04687,-0.140625 0.04687,-0.1523438 0.04687,-0.2226563 0,-0.1875 -0.140625,-0.2695312 -0.292969,-0.2695312 -0.105469,0 -0.257812,0.058594 -0.351562,0.1992187 -0.02344,0.058594 -0.09375,0.3632813 -0.140625,0.5390625 -0.07031,0.2578125 -0.140625,0.5273438 -0.199219,0.796875 l -0.445313,1.79296877 c -0.03516,0.15234375 -0.46875,0.85546875 -1.125,0.85546875 -0.503906,0 -0.621093,-0.4453125 -0.621093,-0.80859375 0,-0.45703127 0.175781,-1.07812497 0.515625,-1.95703127 0.152343,-0.4101562 0.199218,-0.515625 0.199218,-0.7148437 0,-0.4453125 -0.328125,-0.8203125 -0.820312,-0.8203125 -0.949219,0 -1.3125,1.453125 -1.3125,1.5351562 0,0.1054688 0.09375,0.1054688 0.117187,0.1054688 0.09375,0 0.105469,-0.023437 0.152344,-0.1875 0.269531,-0.9375 0.667969,-1.2304688 1.007813,-1.2304688 0.08203,0 0.257812,0 0.257812,0.3164063 0,0.2460937 -0.105469,0.515625 -0.175781,0.703125 -0.398438,1.0546875 -0.574219,1.6171875 -0.574219,2.0859375 0,0.89062497 0.621094,1.18359372 1.21875,1.18359372 0.386719,0 0.726563,-0.1640625 0.996094,-0.4453125 -0.128906,0.515625 -0.246094,1.0078125 -0.644531,1.53515628 -0.257813,0.3398437 -0.632813,0.6328125 -1.089844,0.6328125 -0.140625,0 -0.597656,-0.035156 -0.761719,-0.421875 0.164063,0 0.292969,0 0.433594,-0.1171875 0.09375,-0.09375 0.199219,-0.2226563 0.199219,-0.41015628 0,-0.31640625 -0.269532,-0.3515625 -0.375,-0.3515625 -0.222657,0 -0.550782,0.1640625 -0.550782,0.64453128 0,0.5039062 0.433594,0.8671875 1.054688,0.8671875 1.019531,0 2.050781,-0.9023438 2.332031,-2.02734378 z m 0,0"
         style="fill:#000000;fill-opacity:1;fill-rule:nonzero;stroke:none" />
      <path
         id="path45"
         d="m 39.933023,-2.4971719 c 0,-0.7734375 -0.117187,-1.9804687 -0.65625,-3.1054687 -0.597656,-1.21875 -1.464843,-1.875 -1.558593,-1.875 -0.05859,0 -0.105469,0.046875 -0.105469,0.1054687 0,0.035156 0,0.046875 0.199219,0.234375 0.972656,0.984375 1.535156,2.5664063 1.535156,4.640625 0,1.71093752 -0.363281,3.45703127 -1.59375,4.7226563 -0.140625,0.1171875 -0.140625,0.1289062 -0.140625,0.1640625 0,0.058594 0.04687,0.1054687 0.105469,0.1054687 0.09375,0 0.996093,-0.6796875 1.582031,-1.94531248 0.503906,-1.1015625 0.632812,-2.20312502 0.632812,-3.04687502 z m 0,0"
         style="fill:#000000;fill-opacity:1;fill-rule:nonzero;stroke:none" />
      <path
         id="path46"
         d="m 44.441813,-4.8819375 h -0.234375 c -0.02344,0.1523437 -0.08203,0.5625 -0.175782,0.6328125 -0.05859,0.035156 -0.597656,0.035156 -0.691406,0.035156 h -1.289062 c 0.738281,-0.6445312 0.984375,-0.84375 1.394531,-1.171875 0.515625,-0.4101562 0.996094,-0.84375 0.996094,-1.5 0,-0.84375 -0.738282,-1.359375 -1.628907,-1.359375 -0.867187,0 -1.453125,0.609375 -1.453125,1.2421875 0,0.3632813 0.304688,0.3984375 0.375,0.3984375 0.164063,0 0.375,-0.1171875 0.375,-0.375 0,-0.1289062 -0.05859,-0.3632812 -0.421875,-0.3632812 0.222657,-0.5039063 0.691407,-0.65625 1.019532,-0.65625 0.703125,0 1.066406,0.5507812 1.066406,1.1132812 0,0.609375 -0.433594,1.0898438 -0.65625,1.3359375 l -1.6875,1.6640625 c -0.07031,0.058594 -0.07031,0.070312 -0.07031,0.2695313 h 2.882813 z m 0,0"
         style="fill:#000000;fill-opacity:1;fill-rule:nonzero;stroke:none" />
    </g>
    <g
       id="g46"
       aria-label="y=1.5"
       transform="matrix(1.3333333,0,0,1.3333333,512.10533,50.437333)">
      <path
         id="path47"
         d="m 4.8399453,-3.79675 c 0.046875,-0.140625 0.046875,-0.1523438 0.046875,-0.2226563 0,-0.1875 -0.140625,-0.2695312 -0.2929687,-0.2695312 -0.1054688,0 -0.2578125,0.058594 -0.3515625,0.1992187 -0.023437,0.058594 -0.09375,0.3632813 -0.140625,0.5390625 -0.070312,0.2578125 -0.140625,0.5273438 -0.1992188,0.796875 l -0.4453125,1.7929688 c -0.035156,0.15234375 -0.46875,0.85546875 -1.125,0.85546875 -0.5039062,0 -0.6210937,-0.4453125 -0.6210937,-0.80859375 0,-0.4570313 0.1757812,-1.078125 0.515625,-1.9570313 0.1523437,-0.4101562 0.1992187,-0.515625 0.1992187,-0.7148437 0,-0.4453125 -0.328125,-0.8203125 -0.8203125,-0.8203125 -0.94921874,0 -1.31249999,1.453125 -1.31249999,1.5351562 0,0.1054688 0.09375,0.1054688 0.1171875,0.1054688 0.09375,0 0.10546875,-0.023437 0.15234375,-0.1875 0.26953125,-0.9375 0.66796874,-1.2304688 1.00781254,-1.2304688 0.082031,0 0.2578125,0 0.2578125,0.3164063 0,0.2460937 -0.1054688,0.515625 -0.1757813,0.703125 C 1.2540078,-2.10925 1.0782266,-1.54675 1.0782266,-1.078 c 0,0.890625 0.6210937,1.18359375 1.21875,1.18359375 0.3867187,0 0.7265625,-0.1640625 0.9960937,-0.4453125 C 3.1641641,0.17590625 3.0469766,0.66809375 2.6485391,1.1954375 2.3907266,1.5352812 2.0157266,1.82825 1.5586953,1.82825 c -0.140625,0 -0.59765624,-0.035156 -0.76171874,-0.421875 0.1640625,0 0.29296874,0 0.43359374,-0.1171875 0.09375,-0.09375 0.1992188,-0.2226563 0.1992188,-0.41015625 0,-0.31640625 -0.2695313,-0.3515625 -0.375,-0.3515625 -0.22265629,0 -0.55078129,0.1640625 -0.55078129,0.64453125 0,0.5039062 0.43359375,0.8671875 1.05468749,0.8671875 1.0195313,0 2.0507813,-0.9023438 2.3320313,-2.02734375 z m 0,0"
         style="fill:#000000;fill-opacity:1;fill-rule:nonzero;stroke:none" />
      <path
         id="path48"
         d="m 14.853617,-3.2576875 c 0.152344,0 0.339844,0 0.339844,-0.1992188 0,-0.1992187 -0.1875,-0.1992187 -0.328125,-0.1992187 H 8.9004922 c -0.140625,0 -0.328125,0 -0.328125,0.1992187 0,0.1992188 0.1875,0.1992188 0.3398437,0.1992188 z m 0.01172,1.9335937 c 0.140625,0 0.328125,0 0.328125,-0.1992187 0,-0.1992188 -0.1875,-0.1992188 -0.339844,-0.1992188 H 8.9122109 c -0.1523437,0 -0.3398437,0 -0.3398437,0.1992188 0,0.1992187 0.1875,0.1992187 0.328125,0.1992187 z m 6.574219,-5.0507812 c 0,-0.234375 0,-0.2578125 -0.234375,-0.2578125 -0.609375,0.6328125 -1.488282,0.6328125 -1.804688,0.6328125 v 0.3164062 c 0.199219,0 0.785156,0 1.300781,-0.2578125 v 5.15625005 c 0,0.3515625 -0.03516,0.48046875 -0.925781,0.48046875 H 19.459086 V 1.25e-4 c 0.351562,-0.03515625 1.207031,-0.03515625 1.605469,-0.03515625 0.398437,0 1.265625,0 1.617187,0.03515625 v -0.3046875 h -0.316406 c -0.902344,0 -0.925781,-0.1171875 -0.925781,-0.48046875 z m 0,0"
         style="fill:#000000;fill-opacity:1;fill-rule:nonzero;stroke:none" />
      <path
         id="path49"
         d="m 25.41807,-0.52721875 c 0,-0.29296875 -0.234375,-0.52734375 -0.527343,-0.52734375 -0.28125,0 -0.527344,0.234375 -0.527344,0.52734375 0,0.29296875 0.246094,0.52734375 0.527344,0.52734375 0.292968,0 0.527343,-0.234375 0.527343,-0.52734375 z m 0,0"
         style="fill:#000000;fill-opacity:1;fill-rule:nonzero;stroke:none" />
      <path
         id="path50"
         d="m 30.750102,-2.0037813 c 0,-1.1835937 -0.820313,-2.1796875 -1.898438,-2.1796875 -0.480469,0 -0.902344,0.1640625 -1.265625,0.5039063 v -1.9335938 c 0.199219,0.058594 0.527344,0.1289063 0.84375,0.1289063 1.230469,0 1.933594,-0.9140625 1.933594,-1.0429688 0,-0.058594 -0.03516,-0.1054687 -0.105469,-0.1054687 -0.01172,0 -0.03516,0 -0.08203,0.023437 -0.199219,0.09375 -0.679688,0.2929687 -1.347656,0.2929687 -0.398438,0 -0.855469,-0.070312 -1.324219,-0.28125 -0.08203,-0.023437 -0.105469,-0.023437 -0.128906,-0.023437 -0.09375,0 -0.09375,0.082031 -0.09375,0.234375 v 2.953125 c 0,0.1757813 0,0.2578125 0.140625,0.2578125 0.07031,0 0.08203,-0.035156 0.128906,-0.09375 0.105469,-0.1523437 0.480469,-0.6914062 1.277344,-0.6914062 0.527343,0 0.773437,0.4570312 0.855468,0.6328125 0.152344,0.375 0.175782,0.7617187 0.175782,1.2539062 0,0.3515625 0,0.9492188 -0.234375,1.3710938 -0.246094,0.38671875 -0.609375,0.64453125 -1.066407,0.64453125 -0.726562,0 -1.300781,-0.52734375 -1.464843,-1.11328125 0.02344,0.011719 0.05859,0.011719 0.164062,0.011719 0.328125,0 0.503906,-0.2460937 0.503906,-0.4804687 0,-0.2460938 -0.175781,-0.4921875 -0.503906,-0.4921875 -0.140625,0 -0.480469,0.070312 -0.480469,0.5273437 0,0.8554688 0.679688,1.82812505 1.792969,1.82812505 1.160156,0 2.179688,-0.9609375 2.179688,-2.22656255 z m 0,0"
         style="fill:#000000;fill-opacity:1;fill-rule:nonzero;stroke:none" />
    </g>
    <path
       id="path51"
       d="m 292.66728,0 h 0.0794"
       style="fill:none;stroke:#000000;stroke-width:0.3985;stroke-linecap:butt;stroke-linejoin:miter;stroke-miterlimit:10;stroke-dasharray:none;stroke-opacity:1"
       transform="matrix(1.3333333,0,0,-1.3333333,117.18933,47.448)" />
    <path
       id="path52"
       d="M -2.07224,2.39104 C -1.69365,0.95639 -0.84999,0.27895 0,0 -0.84999,-0.27895 -1.69365,-0.95639 -2.07224,-2.39104"
       style="fill:none;stroke:#000000;stroke-width:0.3985;stroke-linecap:round;stroke-linejoin:round;stroke-miterlimit:10;stroke-dasharray:none;stroke-opacity:1"
       transform="matrix(-1.3333333,0,0,1.3333333,507.25259,47.448)" />
  </g>
</svg>
