<?xml version="1.0" encoding="UTF-8" standalone="no"?>
<!-- Created with Inkscape (http://www.inkscape.org/) -->

<svg
   version="1.1"
   id="svg1"
   width="355.81332"
   height="308.66666"
   viewBox="0 0 355.81332 308.66666"
   sodipodi:docname="01_plain_mlp.pdf"
   xmlns:inkscape="http://www.inkscape.org/namespaces/inkscape"
   xmlns:sodipodi="http://sodipodi.sourceforge.net/DTD/sodipodi-0.dtd"
   xmlns="http://www.w3.org/2000/svg"
   xmlns:svg="http://www.w3.org/2000/svg">
  <defs
     id="defs1" />
  <sodipodi:namedview
     id="namedview1"
     pagecolor="#ffffff"
     bordercolor="#000000"
     borderopacity="0.25"
     inkscape:showpageshadow="2"
     inkscape:pageopacity="0.0"
     inkscape:pagecheckerboard="0"
     inkscape:deskcolor="#d1d1d1">
    <inkscape:page
       x="0"
       y="0"
       inkscape:label="1"
       id="page1"
       width="355.81332"
       height="308.66666"
       margin="0"
       bleed="0" />
  </sodipodi:namedview>
  <g
     id="g1"
     inkscape:groupmode="layer"
     inkscape:label="1">
    <path
       id="path1"
       d="M 19.92554,0 C 19.92554,11.0047 11.0047,19.92554 0,19.92554 -11.0047,19.92554 -19.92554,11.0047 -19.92554,0 c 0,-11.0047 8.92084,-19.92554 19.92554,-19.92554 11.0047,0 19.92554,8.92084 19.92554,19.92554 z"
       style="fill:#ccccff;fill-opacity:1;fill-rule:nonzero;stroke:#0000ff;stroke-width:0.3985;stroke-linecap:butt;stroke-linejoin:miter;stroke-miterlimit:10;stroke-dasharray:none;stroke-opacity:1"
       transform="matrix(1.3333333,0,0,-1.3333333,48.962667,108.08533)" />
    <g
       id="g2"
       aria-label="x&#10;0"
       transform="matrix(1.3333333,0,0,1.3333333,39.974667,109.94933)">
      <path
         id="path2"
         d="m 3.3295469,-3.0118047 c 0.058594,-0.2578125 0.2929687,-1.171875 0.984375,-1.171875 0.046875,0 0.2929687,0 0.5039062,0.1289063 -0.28125,0.046875 -0.4804687,0.3046875 -0.4804687,0.5390625 0,0.1640625 0.1054687,0.3515625 0.375,0.3515625 0.2226562,0 0.5390625,-0.1875 0.5390625,-0.5859375 0,-0.515625 -0.5859375,-0.65625 -0.9257813,-0.65625 -0.5742187,0 -0.9257812,0.5273437 -1.0429687,0.7617187 -0.2578125,-0.65625 -0.7851563,-0.7617187 -1.078125,-0.7617187 -1.0429688,0 -1.60546877,1.2890625 -1.60546877,1.5351562 0,0.1054688 0.10546875,0.1054688 0.1171875,0.1054688 0.0820313,0 0.1171875,-0.023437 0.12890625,-0.1171875 0.33984372,-1.0546875 0.99609372,-1.3007813 1.33593752,-1.3007813 0.1875,0 0.5390625,0.09375 0.5390625,0.6679688 0,0.3046875 -0.1640625,0.9726562 -0.5390625,2.3671875 -0.1523438,0.62109371 -0.5039063,1.04296871 -0.9492188,1.04296871 -0.058594,0 -0.28124997,0 -0.49218747,-0.12890625 0.24609375,-0.0585938 0.46874997,-0.26953125 0.46874997,-0.5390625 0,-0.26953126 -0.22265622,-0.35156246 -0.37499997,-0.35156246 -0.29296875,0 -0.5390625,0.25781246 -0.5390625,0.57421871 0,0.45703125 0.4921875,0.65625 0.93749997,0.65625 0.65625,0 1.0078125,-0.69140625 1.0429688,-0.75 0.1171875,0.36328125 0.4804687,0.75 1.078125,0.75 1.0195312,0 1.59375,-1.27734371 1.59375,-1.53515621 0,-0.09375 -0.09375,-0.09375 -0.1289063,-0.09375 -0.082031,0 -0.1054687,0.035156 -0.1289062,0.1054687 -0.328125,1.06640626 -0.9960938,1.31250001 -1.3242188,1.31250001 -0.3867187,0 -0.5390625,-0.328125 -0.5390625,-0.65625 0,-0.22265625 0.058594,-0.44531251 0.1640625,-0.87890621 z m 0,0"
         style="fill:#000000;fill-opacity:1;fill-rule:nonzero;stroke:none" />
      <path
         id="path3"
         d="m 9.2914609,-0.73250781 c 0,-0.76171879 -0.09375,-1.31249999 -0.4101562,-1.80468749 -0.2226563,-0.3164063 -0.6445313,-0.5976563 -1.2070313,-0.5976563 -1.6171875,0 -1.6171875,1.8984375 -1.6171875,2.40234379 0,0.50390625 0,2.36718751 1.6171875,2.36718751 1.6171875,0 1.6171875,-1.86328126 1.6171875,-2.36718751 z M 7.6742734,1.4354609 c -0.3164062,0 -0.75,-0.1875 -0.890625,-0.76171871 -0.09375,-0.41015625 -0.09375,-0.984375 -0.09375,-1.5 0,-0.50390629 0,-1.03124999 0.1054688,-1.41796879 0.1523437,-0.5507812 0.5976562,-0.6914062 0.8789062,-0.6914062 0.375,0 0.7382813,0.2226562 0.8671875,0.6328125 0.1054688,0.375 0.1171875,0.8789062 0.1171875,1.47656249 0,0.515625 0,1.04296875 -0.09375,1.4765625 C 8.4242734,1.2831172 7.9555234,1.4354609 7.6742734,1.4354609 Z m 0,0"
         style="fill:#000000;fill-opacity:1;fill-rule:nonzero;stroke:none" />
    </g>
    <path
       id="path4"
       d="m 19.92554,-60.17511 c 0,11.00471 -8.92084,19.92554 -19.92554,19.92554 -11.0047,0 -19.92554,-8.92083 -19.92554,-19.92554 0,-11.00471 8.92084,-19.92554 19.92554,-19.92554 11.0047,0 19.92554,8.92083 19.92554,19.92554 z"
       style="fill:#ccccff;fill-opacity:1;fill-rule:nonzero;stroke:#0000ff;stroke-width:0.3985;stroke-linecap:butt;stroke-linejoin:miter;stroke-miterlimit:10;stroke-dasharray:none;stroke-opacity:1"
       transform="matrix(1.3333333,0,0,-1.3333333,48.962667,108.08533)" />
    <g
       id="g4"
       aria-label="x&#10;1"
       transform="matrix(1.3333333,0,0,1.3333333,39.974667,190.18267)">
      <path
         id="path5"
         d="m 3.3295469,-3.0110234 c 0.058594,-0.2578125 0.2929687,-1.171875 0.984375,-1.171875 0.046875,0 0.2929687,0 0.5039062,0.1289062 -0.28125,0.046875 -0.4804687,0.3046875 -0.4804687,0.5390625 0,0.1640625 0.1054687,0.3515625 0.375,0.3515625 0.2226562,0 0.5390625,-0.1875 0.5390625,-0.5859375 0,-0.515625 -0.5859375,-0.65625 -0.9257813,-0.65625 -0.5742187,0 -0.9257812,0.5273438 -1.0429687,0.7617188 -0.2578125,-0.65625 -0.7851563,-0.7617188 -1.078125,-0.7617188 -1.0429688,0 -1.60546877,1.2890625 -1.60546877,1.5351563 0,0.1054687 0.10546875,0.1054687 0.1171875,0.1054687 0.0820313,0 0.1171875,-0.023437 0.12890625,-0.1171875 0.33984372,-1.0546875 0.99609372,-1.3007812 1.33593752,-1.3007812 0.1875,0 0.5390625,0.09375 0.5390625,0.6679687 0,0.3046875 -0.1640625,0.9726563 -0.5390625,2.3671875 -0.1523438,0.62109376 -0.5039063,1.04296876 -0.9492188,1.04296876 -0.058594,0 -0.28124997,0 -0.49218747,-0.12890625 0.24609375,-0.0585938 0.46874997,-0.26953125 0.46874997,-0.5390625 0,-0.26953121 -0.22265622,-0.35156251 -0.37499997,-0.35156251 -0.29296875,0 -0.5390625,0.25781251 -0.5390625,0.57421876 0,0.45703125 0.4921875,0.65625 0.93749997,0.65625 0.65625,0 1.0078125,-0.69140625 1.0429688,-0.75 0.1171875,0.36328125 0.4804687,0.75 1.078125,0.75 1.0195312,0 1.59375,-1.27734376 1.59375,-1.53515626 0,-0.09375 -0.09375,-0.09375 -0.1289063,-0.09375 -0.082031,0 -0.1054687,0.035156 -0.1289062,0.1054688 -0.328125,1.06640621 -0.9960938,1.31249996 -1.3242188,1.31249996 -0.3867187,0 -0.5390625,-0.328125 -0.5390625,-0.65625 0,-0.22265625 0.058594,-0.44531246 0.1640625,-0.87890626 z m 0,0"
         style="fill:#000000;fill-opacity:1;fill-rule:nonzero;stroke:none" />
      <path
         id="path6"
         d="m 8.0258359,-2.9348516 c 0,-0.1875 -0.011719,-0.1992187 -0.2109375,-0.1992187 -0.4453125,0.4335937 -1.078125,0.4453125 -1.359375,0.4453125 v 0.2460937 c 0.1640625,0 0.6210938,0 1.0078125,-0.1875 v 3.55078129 c 0,0.23437501 0,0.32812501 -0.6914062,0.32812501 H 6.5023984 v 0.2460937 c 0.1289063,-0.011719 0.984375,-0.023437 1.2421875,-0.023437 0.2109375,0 1.0898438,0.011719 1.2421875,0.023437 V 1.2487422 H 8.7289609 c -0.703125,0 -0.703125,-0.09375 -0.703125,-0.32812501 z m 0,0"
         style="fill:#000000;fill-opacity:1;fill-rule:nonzero;stroke:none" />
    </g>
    <path
       id="path7"
       d="m 19.92554,-120.35022 c 0,11.00472 -8.92084,19.92554 -19.92554,19.92554 -11.0047,0 -19.92554,-8.92082 -19.92554,-19.92554 0,-11.00471 8.92084,-19.92554 19.92554,-19.92554 11.0047,0 19.92554,8.92083 19.92554,19.92554 z"
       style="fill:#ccccff;fill-opacity:1;fill-rule:nonzero;stroke:#0000ff;stroke-width:0.3985;stroke-linecap:butt;stroke-linejoin:miter;stroke-miterlimit:10;stroke-dasharray:none;stroke-opacity:1"
       transform="matrix(1.3333333,0,0,-1.3333333,48.962667,108.08533)" />
    <g
       id="g7"
       aria-label="x&#10;2"
       transform="matrix(1.3333333,0,0,1.3333333,39.974667,270.416)">
      <path
         id="path8"
         d="m 3.3295469,-3.0131719 c 0.058594,-0.2578125 0.2929687,-1.171875 0.984375,-1.171875 0.046875,0 0.2929687,0 0.5039062,0.1289063 -0.28125,0.046875 -0.4804687,0.3046875 -0.4804687,0.5390625 0,0.1640625 0.1054687,0.3515625 0.375,0.3515625 0.2226562,0 0.5390625,-0.1875 0.5390625,-0.5859375 0,-0.515625 -0.5859375,-0.65625 -0.9257813,-0.65625 -0.5742187,0 -0.9257812,0.5273437 -1.0429687,0.7617187 -0.2578125,-0.65625 -0.7851563,-0.7617187 -1.078125,-0.7617187 -1.0429688,0 -1.60546877,1.2890625 -1.60546877,1.5351562 0,0.1054688 0.10546875,0.1054688 0.1171875,0.1054688 0.0820313,0 0.1171875,-0.023437 0.12890625,-0.1171875 0.33984372,-1.0546875 0.99609372,-1.3007813 1.33593752,-1.3007813 0.1875,0 0.5390625,0.09375 0.5390625,0.6679688 0,0.3046875 -0.1640625,0.9726562 -0.5390625,2.3671875 -0.1523438,0.62109372 -0.5039063,1.04296872 -0.9492188,1.04296872 -0.058594,0 -0.28124997,0 -0.49218747,-0.12890625 0.24609375,-0.0585938 0.46874997,-0.26953125 0.46874997,-0.5390625 0,-0.26953127 -0.22265622,-0.35156247 -0.37499997,-0.35156247 -0.29296875,0 -0.5390625,0.25781247 -0.5390625,0.57421872 0,0.45703125 0.4921875,0.65625 0.93749997,0.65625 0.65625,0 1.0078125,-0.69140625 1.0429688,-0.75 0.1171875,0.36328125 0.4804687,0.75 1.078125,0.75 1.0195312,0 1.59375,-1.27734372 1.59375,-1.53515622 0,-0.09375 -0.09375,-0.09375 -0.1289063,-0.09375 -0.082031,0 -0.1054687,0.035156 -0.1289062,0.1054687 -0.328125,1.06640627 -0.9960938,1.31250002 -1.3242188,1.31250002 -0.3867187,0 -0.5390625,-0.328125 -0.5390625,-0.65625 0,-0.22265625 0.058594,-0.44531252 0.1640625,-0.87890622 z m 0,0"
         style="fill:#000000;fill-opacity:1;fill-rule:nonzero;stroke:none" />
      <path
         id="path9"
         d="m 9.2094297,0.22999219 h -0.234375 c -0.023437,0.15234375 -0.082031,0.5625 -0.1757813,0.6328125 -0.058594,0.0351563 -0.5976562,0.0351563 -0.6914062,0.0351563 H 6.8188047 c 0.7382812,-0.64453125 0.984375,-0.84375 1.3945312,-1.171875 0.515625,-0.41015625 0.9960938,-0.84374999 0.9960938,-1.49999999 0,-0.8437501 -0.7382813,-1.3593751 -1.6289063,-1.3593751 -0.8671875,0 -1.453125,0.609375 -1.453125,1.2421875 0,0.3632813 0.3046875,0.3984375 0.375,0.3984375 0.1640625,0 0.375,-0.1171875 0.375,-0.375 0,-0.1289062 -0.058594,-0.3632812 -0.421875,-0.3632812 0.2226563,-0.5039063 0.6914063,-0.65625 1.0195313,-0.65625 0.703125,0 1.0664062,0.5507812 1.0664062,1.1132813 0,0.609375 -0.4335937,1.08984374 -0.65625,1.33593749 l -1.6875,1.66406251 c -0.070312,0.058594 -0.070312,0.070312 -0.070312,0.2695312 h 2.8828125 z m 0,0"
         style="fill:#000000;fill-opacity:1;fill-rule:nonzero;stroke:none" />
    </g>
    <path
       id="path10"
       d="m 119.95172,0 c 0,11.0047 -8.92082,19.92554 -19.92554,19.92554 C 89.02147,19.92554 80.10065,11.0047 80.10065,0 c 0,-11.0047 8.92082,-19.92554 19.92553,-19.92554 11.00472,0 19.92554,8.92084 19.92554,19.92554 z"
       style="fill:#ccffcc;fill-opacity:1;fill-rule:nonzero;stroke:#00ff00;stroke-width:0.3985;stroke-linecap:butt;stroke-linejoin:miter;stroke-miterlimit:10;stroke-dasharray:none;stroke-opacity:1"
       transform="matrix(1.3333333,0,0,-1.3333333,48.962667,108.08533)" />
    <g
       id="g10"
       aria-label="h&#10;0"
       transform="matrix(1.3333333,0,0,1.3333333,175.524,111.70133)">
      <path
         id="path11"
         d="m 2.8589531,-6.80725 c 0,0 0,-0.1054687 -0.1289062,-0.1054687 -0.234375,0 -0.9609375,0.082031 -1.21875,0.1054687 -0.082031,0 -0.1875,0.011719 -0.1875,0.1992188 0,0.1171875 0.09375,0.1171875 0.234375,0.1171875 0.4804687,0 0.5039062,0.070312 0.5039062,0.1640625 l -0.035156,0.1992187 -1.44140628,5.7421875 c -0.0351563,0.140625 -0.0351563,0.15234375 -0.0351563,0.22265625 0,0.22265625 0.19921875,0.26953125 0.28125,0.26953125 0.1640625,0 0.32812498,-0.1171875 0.37499998,-0.2578125 l 0.1875,-0.75 0.2226562,-0.9023437 C 1.6753594,-2.026 1.7339531,-2.2369375 1.7808281,-2.4713125 1.8042656,-2.5299062 1.8862969,-2.8580312 1.8980156,-2.916625 1.9214531,-3.010375 2.2261406,-3.5611562 2.5659844,-3.8306875 2.7886406,-3.99475 3.0933281,-4.18225 3.5269219,-4.18225 c 0.421875,0 0.5390625,0.3398438 0.5390625,0.6914063 0,0.5390625 -0.375,1.6289062 -0.6210938,2.2382812 -0.082031,0.2226563 -0.1289062,0.3515625 -0.1289062,0.55078125 0,0.46875 0.3515625,0.80859375 0.8203125,0.80859375 0.9375,0 1.3007812,-1.453125 1.3007812,-1.5351562 0,-0.09375 -0.09375,-0.09375 -0.1171875,-0.09375 -0.1054687,0 -0.1054687,0.023437 -0.1523437,0.1757812 -0.1523438,0.52734375 -0.46875,1.2421875 -1.0195313,1.2421875 -0.1640625,0 -0.234375,-0.10546875 -0.234375,-0.328125 0,-0.2578125 0.09375,-0.4921875 0.1757813,-0.7148437 0.1640625,-0.421875 0.609375,-1.6054688 0.609375,-2.1914063 0,-0.6445312 -0.3984375,-1.0664062 -1.1484375,-1.0664062 -0.6210938,0 -1.1015625,0.3164062 -1.4648438,0.7734375 z m 0,0"
         style="fill:#000000;fill-opacity:1;fill-rule:nonzero;stroke:none" />
      <path
         id="path12"
         d="m 9.3364922,-0.73107812 c 0,-0.76171878 -0.09375,-1.31249998 -0.4101563,-1.80468748 -0.2226562,-0.3164063 -0.6445312,-0.5976563 -1.2070312,-0.5976563 -1.6171875,0 -1.6171875,1.8984375 -1.6171875,2.40234378 0,0.50390625 0,2.36718752 1.6171875,2.36718752 1.6171875,0 1.6171875,-1.86328127 1.6171875,-2.36718752 z M 7.7193047,1.4368906 c -0.3164063,0 -0.75,-0.1875 -0.890625,-0.76171872 -0.09375,-0.41015625 -0.09375,-0.984375 -0.09375,-1.5 0,-0.50390628 0,-1.03124998 0.1054687,-1.41796878 0.1523438,-0.5507812 0.5976563,-0.6914062 0.8789063,-0.6914062 0.375,0 0.7382812,0.2226562 0.8671875,0.6328125 0.1054687,0.375 0.1171875,0.8789062 0.1171875,1.47656248 0,0.515625 0,1.04296875 -0.09375,1.4765625 C 8.4693047,1.2845469 8.0005547,1.4368906 7.7193047,1.4368906 Z m 0,0"
         style="fill:#000000;fill-opacity:1;fill-rule:nonzero;stroke:none" />
    </g>
    <path
       id="path13"
       d="m 119.95172,-60.17511 c 0,11.00471 -8.92082,19.92554 -19.92554,19.92554 -11.00471,0 -19.92553,-8.92083 -19.92553,-19.92554 0,-11.00471 8.92082,-19.92554 19.92553,-19.92554 11.00472,0 19.92554,8.92083 19.92554,19.92554 z"
       style="fill:#ccffcc;fill-opacity:1;fill-rule:nonzero;stroke:#00ff00;stroke-width:0.3985;stroke-linecap:butt;stroke-linejoin:miter;stroke-miterlimit:10;stroke-dasharray:none;stroke-opacity:1"
       transform="matrix(1.3333333,0,0,-1.3333333,48.962667,108.08533)" />
    <g
       id="g13"
       aria-label="h&#10;1"
       transform="matrix(1.3333333,0,0,1.3333333,175.524,191.93467)">
      <path
         id="path14"
         d="m 2.8589531,-6.8093984 c 0,0 0,-0.1054688 -0.1289062,-0.1054688 -0.234375,0 -0.9609375,0.082031 -1.21875,0.1054688 -0.082031,0 -0.1875,0.011719 -0.1875,0.1992187 0,0.1171875 0.09375,0.1171875 0.234375,0.1171875 0.4804687,0 0.5039062,0.070312 0.5039062,0.1640625 l -0.035156,0.1992188 -1.44140628,5.74218746 c -0.0351563,0.140625 -0.0351563,0.15234375 -0.0351563,0.22265625 0,0.22265625 0.19921875,0.26953125 0.28125,0.26953125 0.1640625,0 0.32812498,-0.1171875 0.37499998,-0.2578125 l 0.1875,-0.75 0.2226562,-0.90234376 c 0.058594,-0.2226562 0.1171875,-0.4335937 0.1640625,-0.6679687 0.023437,-0.058594 0.1054688,-0.3867188 0.1171875,-0.4453125 0.023437,-0.09375 0.3281251,-0.6445313 0.6679688,-0.9140625 0.2226562,-0.1640625 0.5273437,-0.3515625 0.9609375,-0.3515625 0.421875,0 0.5390625,0.3398437 0.5390625,0.6914062 0,0.5390625 -0.375,1.6289063 -0.6210938,2.2382813 -0.082031,0.2226562 -0.1289062,0.35156246 -0.1289062,0.55078121 0,0.46875 0.3515625,0.80859375 0.8203125,0.80859375 0.9375,0 1.3007812,-1.45312496 1.3007812,-1.53515626 0,-0.09375 -0.09375,-0.09375 -0.1171875,-0.09375 -0.1054687,0 -0.1054687,0.023437 -0.1523437,0.1757813 -0.1523438,0.52734371 -0.46875,1.24218746 -1.0195313,1.24218746 -0.1640625,0 -0.234375,-0.10546875 -0.234375,-0.328125 0,-0.2578125 0.09375,-0.4921875 0.1757813,-0.71484376 0.1640625,-0.421875 0.609375,-1.6054687 0.609375,-2.1914062 0,-0.6445313 -0.3984375,-1.0664063 -1.1484375,-1.0664063 -0.6210938,0 -1.1015625,0.3164063 -1.4648437,0.7734375 z m 0,0"
         style="fill:#000000;fill-opacity:1;fill-rule:nonzero;stroke:none" />
      <path
         id="path15"
         d="m 8.0708672,-2.9334219 c 0,-0.1875 -0.011719,-0.1992187 -0.2109375,-0.1992187 -0.4453125,0.4335937 -1.078125,0.4453125 -1.359375,0.4453125 v 0.2460937 c 0.1640625,0 0.6210937,0 1.0078125,-0.1875 v 3.55078128 c 0,0.23437502 0,0.32812502 -0.6914063,0.32812502 H 6.5474297 v 0.2460937 c 0.1289062,-0.011719 0.984375,-0.023437 1.2421875,-0.023437 0.2109375,0 1.0898437,0.011719 1.2421875,0.023437 V 1.2501719 H 8.7739922 c -0.703125,0 -0.703125,-0.09375 -0.703125,-0.32812502 z m 0,0"
         style="fill:#000000;fill-opacity:1;fill-rule:nonzero;stroke:none" />
    </g>
    <path
       id="path16"
       d="m 119.95172,-120.35022 c 0,11.00472 -8.92082,19.92554 -19.92554,19.92554 -11.00471,0 -19.92553,-8.92082 -19.92553,-19.92554 0,-11.00471 8.92082,-19.92554 19.92553,-19.92554 11.00472,0 19.92554,8.92083 19.92554,19.92554 z"
       style="fill:#ccffcc;fill-opacity:1;fill-rule:nonzero;stroke:#00ff00;stroke-width:0.3985;stroke-linecap:butt;stroke-linejoin:miter;stroke-miterlimit:10;stroke-dasharray:none;stroke-opacity:1"
       transform="matrix(1.3333333,0,0,-1.3333333,48.962667,108.08533)" />
    <g
       id="g16"
       aria-label="h&#10;2"
       transform="matrix(1.3333333,0,0,1.3333333,175.524,272.168)">
      <path
         id="path17"
         d="m 2.8589531,-6.8086172 c 0,0 0,-0.1054687 -0.1289062,-0.1054687 -0.234375,0 -0.9609375,0.082031 -1.21875,0.1054687 -0.082031,0 -0.1875,0.011719 -0.1875,0.1992188 0,0.1171875 0.09375,0.1171875 0.234375,0.1171875 0.4804687,0 0.5039062,0.070312 0.5039062,0.1640625 l -0.035156,0.1992187 -1.44140628,5.74218751 c -0.0351563,0.140625 -0.0351563,0.15234375 -0.0351563,0.22265625 0,0.22265625 0.19921875,0.26953125 0.28125,0.26953125 0.1640625,0 0.32812498,-0.1171875 0.37499998,-0.2578125 l 0.1875,-0.75 0.2226562,-0.90234371 c 0.058594,-0.2226563 0.1171875,-0.4335938 0.1640625,-0.6679688 0.023437,-0.058594 0.1054688,-0.3867187 0.1171875,-0.4453125 0.023437,-0.09375 0.3281251,-0.6445312 0.6679688,-0.9140625 0.2226562,-0.1640625 0.5273437,-0.3515625 0.9609375,-0.3515625 0.421875,0 0.5390625,0.3398438 0.5390625,0.6914063 0,0.5390625 -0.375,1.6289062 -0.6210938,2.2382812 -0.082031,0.2226563 -0.1289062,0.35156251 -0.1289062,0.55078126 0,0.46875 0.3515625,0.80859375 0.8203125,0.80859375 0.9375,0 1.3007812,-1.45312501 1.3007812,-1.53515621 0,-0.09375 -0.09375,-0.09375 -0.1171875,-0.09375 -0.1054687,0 -0.1054687,0.023437 -0.1523437,0.1757812 -0.1523438,0.52734376 -0.46875,1.24218751 -1.0195313,1.24218751 -0.1640625,0 -0.234375,-0.10546875 -0.234375,-0.328125 0,-0.2578125 0.09375,-0.4921875 0.1757813,-0.71484371 0.1640625,-0.421875 0.609375,-1.6054688 0.609375,-2.1914063 0,-0.6445312 -0.3984375,-1.0664062 -1.1484375,-1.0664062 -0.6210938,0 -1.1015625,0.3164062 -1.4648437,0.7734375 z m 0,0"
         style="fill:#000000;fill-opacity:1;fill-rule:nonzero;stroke:none" />
      <path
         id="path18"
         d="m 9.2544609,0.22849219 h -0.234375 c -0.023437,0.15234375 -0.082031,0.5625 -0.1757812,0.6328125 -0.058594,0.0351563 -0.5976563,0.0351563 -0.6914063,0.0351563 H 6.8638359 c 0.7382813,-0.64453125 0.984375,-0.84375 1.3945313,-1.171875 0.515625,-0.41015625 0.9960937,-0.84374999 0.9960937,-1.49999999 0,-0.8437501 -0.7382812,-1.3593751 -1.6289062,-1.3593751 -0.8671875,0 -1.453125,0.609375 -1.453125,1.2421875 0,0.3632813 0.3046875,0.3984375 0.375,0.3984375 0.1640625,0 0.375,-0.1171875 0.375,-0.375 0,-0.1289062 -0.058594,-0.3632812 -0.421875,-0.3632812 0.2226562,-0.5039063 0.6914062,-0.65625 1.0195312,-0.65625 0.703125,0 1.0664063,0.5507812 1.0664063,1.1132813 0,0.609375 -0.4335938,1.08984374 -0.65625,1.33593749 l -1.6875,1.66406241 c -0.070312,0.058594 -0.070312,0.070312 -0.070312,0.2695313 h 2.8828125 z m 0,0"
         style="fill:#000000;fill-opacity:1;fill-rule:nonzero;stroke:none" />
    </g>
    <path
       id="path19"
       d="m 219.9779,-30.08755 c 0,11.00471 -8.92082,19.92553 -19.92553,19.92553 -11.00472,0 -19.92554,-8.92082 -19.92554,-19.92553 0,-11.00472 8.92082,-19.92554 19.92554,-19.92554 11.00471,0 19.92553,8.92082 19.92553,19.92554 z"
       style="fill:#ffcccc;fill-opacity:1;fill-rule:nonzero;stroke:#ff0000;stroke-width:0.3985;stroke-linecap:butt;stroke-linejoin:miter;stroke-miterlimit:10;stroke-dasharray:none;stroke-opacity:1"
       transform="matrix(1.3333333,0,0,-1.3333333,48.962667,108.08533)" />
    <g
       id="g19"
       aria-label="ˆy&#10;0"
       transform="matrix(1.3333333,0,0,1.3333333,310.37467,151.52267)">
      <path
         id="path20"
         d="m 2.4963437,-6.9134844 -1.3359375,1.359375 0.1757813,0.1757813 1.1601562,-1.0195313 1.1367188,1.0195313 0.1875,-0.1757813 z m 0,0"
         style="fill:#000000;fill-opacity:1;fill-rule:nonzero;stroke:none" />
      <path
         id="path21"
         d="m 4.1545469,-3.7962969 c 0.046875,-0.140625 0.046875,-0.1523437 0.046875,-0.2226562 0,-0.1875 -0.140625,-0.2695313 -0.2929688,-0.2695313 -0.1054687,0 -0.2578125,0.058594 -0.3515625,0.1992188 -0.023437,0.058594 -0.09375,0.3632812 -0.140625,0.5390625 -0.070312,0.2578125 -0.140625,0.5273437 -0.1992187,0.796875 l -0.4453125,1.79296873 c -0.035156,0.15234375 -0.46875,0.85546875 -1.125,0.85546875 -0.5039063,0 -0.6210938,-0.4453125 -0.6210938,-0.80859375 0,-0.45703123 0.1757813,-1.07812503 0.515625,-1.95703123 0.1523438,-0.4101563 0.1992188,-0.515625 0.1992188,-0.7148438 0,-0.4453125 -0.328125,-0.8203125 -0.82031253,-0.8203125 -0.94921875,0 -1.3125,1.453125 -1.3125,1.5351563 0,0.1054687 0.09375,0.1054687 0.1171875,0.1054687 0.09375,0 0.10546875,-0.023437 0.15234375,-0.1875 0.26953125,-0.9375 0.66796875,-1.2304687 1.0078125,-1.2304687 0.0820313,0 0.25781248,0 0.25781248,0.3164062 0,0.2460938 -0.1054687,0.515625 -0.17578123,0.703125 -0.3984375,1.0546875 -0.57421875,1.6171875 -0.57421875,2.0859375 0,0.89062503 0.62109378,1.18359378 1.21874998,1.18359378 0.3867188,0 0.7265625,-0.1640625 0.9960938,-0.4453125 -0.1289063,0.515625 -0.2460938,1.0078125 -0.6445313,1.53515622 -0.2578125,0.3398438 -0.6328125,0.6328125 -1.08984373,0.6328125 -0.140625,0 -0.59765625,-0.035156 -0.76171875,-0.421875 0.1640625,0 0.29296875,0 0.43359375,-0.1171875 0.09375,-0.09375 0.19921875,-0.2226562 0.19921875,-0.41015622 0,-0.31640625 -0.26953125,-0.3515625 -0.375,-0.3515625 -0.22265625,0 -0.55078125,0.1640625 -0.55078125,0.64453122 0,0.5039063 0.43359375,0.8671875 1.0546875,0.8671875 1.01953123,0 2.05078123,-0.9023437 2.33203123,-2.02734372 z m 0,0"
         style="fill:#000000;fill-opacity:1;fill-rule:nonzero;stroke:none" />
      <path
         id="path22"
         d="m 7.7990781,-0.73184375 c 0,-0.76171875 -0.09375,-1.31249995 -0.4101562,-1.80468745 -0.2226563,-0.3164063 -0.6445313,-0.5976563 -1.2070313,-0.5976563 -1.6171875,0 -1.6171875,1.8984375 -1.6171875,2.40234375 0,0.50390625 0,2.36718755 1.6171875,2.36718755 1.6171875,0 1.6171875,-1.8632813 1.6171875,-2.36718755 z M 6.1818906,1.436125 c -0.3164062,0 -0.75,-0.1875 -0.890625,-0.76171875 -0.09375,-0.41015625 -0.09375,-0.984375 -0.09375,-1.5 0,-0.50390625 0,-1.03124995 0.1054688,-1.41796875 0.1523437,-0.5507812 0.5976562,-0.6914062 0.8789062,-0.6914062 0.375,0 0.7382813,0.2226562 0.8671875,0.6328125 0.1054688,0.375 0.1171875,0.8789062 0.1171875,1.47656245 0,0.515625 0,1.04296875 -0.09375,1.4765625 C 6.9318906,1.2837813 6.4631406,1.436125 6.1818906,1.436125 Z m 0,0"
         style="fill:#000000;fill-opacity:1;fill-rule:nonzero;stroke:none" />
    </g>
    <path
       id="path23"
       d="m 219.9779,-90.26266 c 0,11.00471 -8.92082,19.92553 -19.92553,19.92553 -11.00472,0 -19.92554,-8.92082 -19.92554,-19.92553 0,-11.00472 8.92082,-19.92554 19.92554,-19.92554 11.00471,0 19.92553,8.92082 19.92553,19.92554 z"
       style="fill:#ffcccc;fill-opacity:1;fill-rule:nonzero;stroke:#ff0000;stroke-width:0.3985;stroke-linecap:butt;stroke-linejoin:miter;stroke-miterlimit:10;stroke-dasharray:none;stroke-opacity:1"
       transform="matrix(1.3333333,0,0,-1.3333333,48.962667,108.08533)" />
    <g
       id="g23"
       aria-label="ˆy&#10;1"
       transform="matrix(1.3333333,0,0,1.3333333,310.37467,231.756)">
      <path
         id="path24"
         d="m 2.4963437,-6.9127031 -1.3359375,1.359375 0.1757813,0.1757812 1.1601562,-1.0195312 1.1367188,1.0195312 0.1875,-0.1757812 z m 0,0"
         style="fill:#000000;fill-opacity:1;fill-rule:nonzero;stroke:none" />
      <path
         id="path25"
         d="m 4.1545469,-3.7955156 c 0.046875,-0.140625 0.046875,-0.1523438 0.046875,-0.2226563 0,-0.1875 -0.140625,-0.2695312 -0.2929688,-0.2695312 -0.1054687,0 -0.2578125,0.058594 -0.3515625,0.1992187 -0.023437,0.058594 -0.09375,0.3632813 -0.140625,0.5390625 -0.070312,0.2578125 -0.140625,0.5273438 -0.1992187,0.796875 l -0.4453125,1.79296878 c -0.035156,0.15234375 -0.46875,0.85546875 -1.125,0.85546875 -0.5039063,0 -0.6210938,-0.4453125 -0.6210938,-0.80859375 0,-0.45703128 0.1757813,-1.07812498 0.515625,-1.95703128 0.1523438,-0.4101562 0.1992188,-0.515625 0.1992188,-0.7148437 0,-0.4453125 -0.328125,-0.8203125 -0.82031253,-0.8203125 -0.94921875,0 -1.3125,1.453125 -1.3125,1.5351562 0,0.1054688 0.09375,0.1054688 0.1171875,0.1054688 0.09375,0 0.10546875,-0.023437 0.15234375,-0.1875 0.26953125,-0.9375 0.66796875,-1.2304688 1.0078125,-1.2304688 0.0820313,0 0.25781248,0 0.25781248,0.3164063 0,0.2460937 -0.1054687,0.515625 -0.17578123,0.703125 -0.3984375,1.0546875 -0.57421875,1.6171875 -0.57421875,2.0859375 0,0.89062498 0.62109378,1.18359373 1.21874998,1.18359373 0.3867188,0 0.7265625,-0.1640625 0.9960938,-0.4453125 -0.1289063,0.515625 -0.2460938,1.0078125 -0.6445313,1.53515627 -0.2578125,0.3398437 -0.6328125,0.6328125 -1.08984373,0.6328125 -0.140625,0 -0.59765625,-0.035156 -0.76171875,-0.421875 0.1640625,0 0.29296875,0 0.43359375,-0.1171875 0.09375,-0.09375 0.19921875,-0.2226563 0.19921875,-0.41015627 0,-0.31640625 -0.26953125,-0.3515625 -0.375,-0.3515625 -0.22265625,0 -0.55078125,0.1640625 -0.55078125,0.64453127 0,0.5039062 0.43359375,0.8671875 1.0546875,0.8671875 1.01953123,0 2.05078123,-0.9023438 2.33203123,-2.02734377 z m 0,0"
         style="fill:#000000;fill-opacity:1;fill-rule:nonzero;stroke:none" />
      <path
         id="path26"
         d="m 6.5334531,-2.9341875 c 0,-0.1875 -0.011719,-0.1992187 -0.2109375,-0.1992187 -0.4453125,0.4335937 -1.078125,0.4453125 -1.359375,0.4453125 V -2.442 c 0.1640625,0 0.6210938,0 1.0078125,-0.1875 v 3.55078125 c 0,0.23437505 0,0.32812505 -0.6914062,0.32812505 H 5.0100156 V 1.4955 c 0.1289063,-0.011719 0.984375,-0.023437 1.2421875,-0.023437 0.2109375,0 1.0898438,0.011719 1.2421875,0.023437 V 1.2494063 H 7.2365781 c -0.703125,0 -0.703125,-0.09375 -0.703125,-0.32812505 z m 0,0"
         style="fill:#000000;fill-opacity:1;fill-rule:nonzero;stroke:none" />
    </g>
    <path
       id="path27"
       d="M 20.12479,0 H 79.9014"
       style="fill:none;stroke:#000000;stroke-width:0.3985;stroke-linecap:butt;stroke-linejoin:miter;stroke-miterlimit:10;stroke-dasharray:none;stroke-opacity:1"
       transform="matrix(1.3333333,0,0,-1.3333333,48.962667,108.08533)" />
    <path
       id="path28"
       d="M 17.24437,-10.37407 82.7818,-49.80104"
       style="fill:none;stroke:#000000;stroke-width:0.3985;stroke-linecap:butt;stroke-linejoin:miter;stroke-miterlimit:10;stroke-dasharray:none;stroke-opacity:1"
       transform="matrix(1.3333333,0,0,-1.3333333,48.962667,108.08533)" />
    <path
       id="path29"
       d="m 12.86264,-15.4762 74.30089,-89.39782"
       style="fill:none;stroke:#000000;stroke-width:0.3985;stroke-linecap:butt;stroke-linejoin:miter;stroke-miterlimit:10;stroke-dasharray:none;stroke-opacity:1"
       transform="matrix(1.3333333,0,0,-1.3333333,48.962667,108.08533)" />
    <path
       id="path30"
       d="M 17.24437,-49.80104 82.7818,-10.37407"
       style="fill:none;stroke:#000000;stroke-width:0.3985;stroke-linecap:butt;stroke-linejoin:miter;stroke-miterlimit:10;stroke-dasharray:none;stroke-opacity:1"
       transform="matrix(1.3333333,0,0,-1.3333333,48.962667,108.08533)" />
    <path
       id="path31"
       d="M 20.12479,-60.17511 H 79.9014"
       style="fill:none;stroke:#000000;stroke-width:0.3985;stroke-linecap:butt;stroke-linejoin:miter;stroke-miterlimit:10;stroke-dasharray:none;stroke-opacity:1"
       transform="matrix(1.3333333,0,0,-1.3333333,48.962667,108.08533)" />
    <path
       id="path32"
       d="M 17.24437,-70.54918 82.7818,-109.97615"
       style="fill:none;stroke:#000000;stroke-width:0.3985;stroke-linecap:butt;stroke-linejoin:miter;stroke-miterlimit:10;stroke-dasharray:none;stroke-opacity:1"
       transform="matrix(1.3333333,0,0,-1.3333333,48.962667,108.08533)" />
    <path
       id="path33"
       d="M 12.86264,-104.87402 87.16353,-15.4762"
       style="fill:none;stroke:#000000;stroke-width:0.3985;stroke-linecap:butt;stroke-linejoin:miter;stroke-miterlimit:10;stroke-dasharray:none;stroke-opacity:1"
       transform="matrix(1.3333333,0,0,-1.3333333,48.962667,108.08533)" />
    <path
       id="path34"
       d="M 17.24437,-109.97615 82.7818,-70.54918"
       style="fill:none;stroke:#000000;stroke-width:0.3985;stroke-linecap:butt;stroke-linejoin:miter;stroke-miterlimit:10;stroke-dasharray:none;stroke-opacity:1"
       transform="matrix(1.3333333,0,0,-1.3333333,48.962667,108.08533)" />
    <path
       id="path35"
       d="M 20.12479,-120.35022 H 79.9014"
       style="fill:none;stroke:#000000;stroke-width:0.3985;stroke-linecap:butt;stroke-linejoin:miter;stroke-miterlimit:10;stroke-dasharray:none;stroke-opacity:1"
       transform="matrix(1.3333333,0,0,-1.3333333,48.962667,108.08533)" />
    <path
       id="path36"
       d="M 119.29697,-5.79674 180.78159,-24.2911"
       style="fill:none;stroke:#000000;stroke-width:0.3985;stroke-linecap:butt;stroke-linejoin:miter;stroke-miterlimit:10;stroke-dasharray:none;stroke-opacity:1"
       transform="matrix(1.3333333,0,0,-1.3333333,48.962667,108.08533)" />
    <path
       id="path37"
       d="m 114.96654,-13.48203 70.14547,-63.29861"
       style="fill:none;stroke:#000000;stroke-width:0.3985;stroke-linecap:butt;stroke-linejoin:miter;stroke-miterlimit:10;stroke-dasharray:none;stroke-opacity:1"
       transform="matrix(1.3333333,0,0,-1.3333333,48.962667,108.08533)" />
    <path
       id="path38"
       d="m 119.29697,-54.37837 61.48462,18.49438"
       style="fill:none;stroke:#000000;stroke-width:0.3985;stroke-linecap:butt;stroke-linejoin:miter;stroke-miterlimit:10;stroke-dasharray:none;stroke-opacity:1"
       transform="matrix(1.3333333,0,0,-1.3333333,48.962667,108.08533)" />
    <path
       id="path39"
       d="m 119.29697,-65.97185 61.48462,-18.49438"
       style="fill:none;stroke:#000000;stroke-width:0.3985;stroke-linecap:butt;stroke-linejoin:miter;stroke-miterlimit:10;stroke-dasharray:none;stroke-opacity:1"
       transform="matrix(1.3333333,0,0,-1.3333333,48.962667,108.08533)" />
    <path
       id="path40"
       d="m 114.96654,-106.8682 70.14547,63.29862"
       style="fill:none;stroke:#000000;stroke-width:0.3985;stroke-linecap:butt;stroke-linejoin:miter;stroke-miterlimit:10;stroke-dasharray:none;stroke-opacity:1"
       transform="matrix(1.3333333,0,0,-1.3333333,48.962667,108.08533)" />
    <path
       id="path41"
       d="m 119.29697,-114.55348 61.48462,18.49438"
       style="fill:none;stroke:#000000;stroke-width:0.3985;stroke-linecap:butt;stroke-linejoin:miter;stroke-miterlimit:10;stroke-dasharray:none;stroke-opacity:1"
       transform="matrix(1.3333333,0,0,-1.3333333,48.962667,108.08533)" />
    <g
       id="g41"
       aria-label="Input&#10;Layer&#10;⃗x"
       transform="matrix(1.3333333,0,0,1.3333333,32.902667,23.868)">
      <path
         id="path42"
         d="M 3.3161641,-6.09375e-4 V -0.30529687 H 3.0583516 c -0.7851563,0 -0.8203125,-0.1171875 -0.8203125,-0.46875 V -6.0240469 c 0,-0.3632812 0.035156,-0.46875 0.8203125,-0.46875 h 0.2578125 v -0.3164062 c -0.3515625,0.035156 -1.1367188,0.035156 -1.5117188,0.035156 -0.3867187,0 -1.17187499,0 -1.52343749,-0.035156 v 0.3164062 h 0.2578125 c 0.78515629,0 0.82031249,0.1054688 0.82031249,0.46875 v 5.25000003 c 0,0.3515625 -0.035156,0.46875 -0.82031249,0.46875 H 0.28100781 V -6.09375e-4 C 0.63257031,-0.03576562 1.4177266,-0.03576562 1.7927266,-0.03576562 c 0.3867187,0 1.171875,0 1.5234375,0.035156245 z m 5.6132812,0 V -0.30529687 c -0.515625,0 -0.7734375,0 -0.7851562,-0.3046875 V -2.5084219 c 0,-0.8554687 0,-1.171875 -0.3046875,-1.5234375 -0.140625,-0.1757812 -0.46875,-0.375 -1.0429688,-0.375 -0.7265625,0 -1.1953125,0.4335938 -1.4765625,1.0546875 v -1.0546875 l -1.40625,0.1171875 v 0.3046875 c 0.703125,0 0.7851563,0.070312 0.7851563,0.5625 v 2.66015628 c 0,0.45703125 -0.1171875,0.45703125 -0.7851563,0.45703125 v 0.304687495 l 1.125,-0.035156245 1.1132813,0.035156245 V -0.30529687 c -0.65625,0 -0.7734375,0 -0.7734375,-0.45703125 V -2.5904531 c 0,-1.03125 0.7148437,-1.59375 1.3476562,-1.59375 0.6210938,0 0.7382813,0.5390625 0.7382813,1.1015625 v 2.32031248 c 0,0.45703125 -0.1171875,0.45703125 -0.7734375,0.45703125 v 0.304687495 l 1.125,-0.035156245 z M 14.32593,-2.1568594 c 0,-1.265625 -0.972657,-2.25 -2.085938,-2.25 -0.773437,0 -1.195312,0.4453125 -1.394531,0.65625 v -0.65625 l -1.4296876,0.1171875 v 0.3046875 c 0.7031246,0 0.7734376,0.058594 0.7734376,0.4921875 v 4.6640625 c 0,0.4570313 -0.105469,0.4570313 -0.7734376,0.4570313 v 0.3046875 l 1.1132816,-0.035156 1.125,0.035156 V 1.6282969 c -0.667969,0 -0.773438,0 -0.773438,-0.4570313 v -1.75781247 c 0.04687,0.15234375 0.46875,0.69140625 1.21875,0.69140625 1.183594,0 2.226563,-0.97265625 2.226563,-2.26171878 z m -0.832032,0 c 0,1.20703128 -0.691406,2.05078128 -1.429687,2.05078128 -0.398438,0 -0.773438,-0.19921875 -1.042969,-0.609375 -0.140625,-0.2109375 -0.140625,-0.22265625 -0.140625,-0.42187498 v -2.2148438 c 0.28125,-0.515625 0.773438,-0.796875 1.277344,-0.796875 0.726562,0 1.335937,0.8671875 1.335937,1.9921875 z m 6.512696,2.156250025 V -0.30529687 c -0.703125,0 -0.785157,-0.0703125 -0.785157,-0.5625 V -4.4068594 l -1.453125,0.1171875 v 0.3046875 c 0.691407,0 0.773438,0.070312 0.773438,0.5625 v 1.7695313 c 0,0.86718748 -0.480469,1.54687498 -1.207031,1.54687498 -0.832032,0 -0.878907,-0.46875 -0.878907,-0.99609378 v -3.3046875 l -1.464843,0.1171875 v 0.3046875 c 0.785156,0 0.785156,0.035156 0.785156,0.9140625 v 1.5 c 0,0.77343753 0,1.67578128 1.511719,1.67578128 0.550781,0 0.996093,-0.26953125 1.277343,-0.890625 v 0.890625 z M 23.519289,-1.2310781 v -0.5742188 h -0.246094 v 0.5507813 c 0,0.73828123 -0.304687,1.11328123 -0.667968,1.11328123 -0.667969,0 -0.667969,-0.90234373 -0.667969,-1.07812503 v -2.765625 h 1.429687 v -0.3046875 h -1.429687 v -1.8398437 h -0.246094 c -0.01172,0.8203125 -0.316406,1.8867187 -1.289062,1.921875 v 0.2226562 h 0.84375 v 2.7539063 c 0,1.21874998 0.925781,1.33593748 1.289062,1.33593748 0.703125,0 0.984375,-0.703125 0.984375,-1.33593748 z M 5.7243672,9.3890391 H 5.4665547 C 5.3610859,10.396852 5.2204609,11.650758 3.4743672,11.650758 H 2.6540547 c -0.46875,0 -0.4921875,-0.07031 -0.4921875,-0.398438 V 5.9437266 c 0,-0.3398438 0,-0.4804688 0.9492187,-0.4804688 h 0.328125 V 5.1468516 c -0.3632812,0.035156 -1.265625,0.035156 -1.6757812,0.035156 -0.3867188,0 -1.16015626,0 -1.51171876,-0.035156 v 0.3164062 h 0.234375 c 0.77343746,0 0.79687496,0.1054688 0.79687496,0.46875 v 5.2500002 c 0,0.351562 -0.023437,0.46875 -0.79687496,0.46875 h -0.234375 v 0.304687 H 5.4431172 Z M 10.968508,11.06482 v -0.550781 h -0.257813 v 0.550781 c 0,0.585938 -0.246093,0.644532 -0.351562,0.644532 -0.328125,0 -0.3750002,-0.457032 -0.3750002,-0.503907 V 9.2132578 c 0,-0.4101562 0,-0.8085937 -0.3515625,-1.171875 C 9.2458516,7.6546641 8.7419453,7.4906016 8.2614766,7.4906016 c -0.8085938,0 -1.5,0.46875 -1.5,1.125 0,0.3046875 0.1992187,0.46875 0.4570312,0.46875 0.28125,0 0.4570313,-0.1992188 0.4570313,-0.4570313 0,-0.1171875 -0.046875,-0.4453125 -0.5039063,-0.4570312 0.2695313,-0.3515625 0.75,-0.4570313 1.078125,-0.4570313 0.4804688,0 1.0546875,0.3867188 1.0546875,1.2773438 v 0.3632812 c -0.515625,0.035156 -1.2070312,0.058594 -1.8398437,0.3632813 -0.75,0.3398439 -0.9960938,0.8554689 -0.9960938,1.2890629 0,0.808593 0.9726563,1.054687 1.59375,1.054687 0.65625,0 1.1132813,-0.398437 1.3125,-0.867187 0.035156,0.398437 0.3046875,0.820312 0.7734372,0.820312 0.210938,0 0.820313,-0.140625 0.820313,-0.949219 z M 9.3044453,10.560914 c 0,0.949219 -0.7265625,1.289063 -1.171875,1.289063 -0.4804687,0 -0.890625,-0.351563 -0.890625,-0.855469 0,-0.539063 0.4101563,-1.3710939 2.0625,-1.4296877 z M 15.925539,7.9710703 V 7.6663828 c -0.234375,0.011719 -0.515625,0.023437 -0.75,0.023437 l -0.867187,-0.023437 v 0.3046875 c 0.304687,0.011719 0.46875,0.1757813 0.46875,0.4335938 0,0.09375 -0.01172,0.1171875 -0.05859,0.234375 L 13.710695,11.088258 12.609133,8.4046641 c -0.04687,-0.09375 -0.05859,-0.140625 -0.05859,-0.1757813 0,-0.2578125 0.363281,-0.2578125 0.550781,-0.2578125 V 7.6663828 l -1.078125,0.023437 c -0.269531,0 -0.667968,-0.011719 -0.972656,-0.023437 v 0.3046875 c 0.480469,0 0.667969,0 0.808594,0.3515625 l 1.5,3.6328122 -0.257813,0.585938 c -0.210937,0.550781 -0.492187,1.242187 -1.136718,1.242187 -0.04687,0 -0.269532,0 -0.46875,-0.1875 0.316406,-0.03516 0.398437,-0.257812 0.398437,-0.410156 0,-0.269531 -0.199219,-0.421875 -0.421875,-0.421875 -0.199219,0 -0.421875,0.128906 -0.421875,0.421875 0,0.457031 0.421875,0.808594 0.914063,0.808594 0.632812,0 1.042968,-0.5625 1.277343,-1.136719 L 14.999758,8.6038828 C 15.25757,7.9827891 15.761477,7.9710703 15.925539,7.9710703 Z m 4.057617,2.8007817 c 0,-0.105469 -0.08203,-0.117188 -0.128906,-0.117188 -0.09375,0 -0.117188,0.05859 -0.128906,0.140625 -0.351563,1.019531 -1.253907,1.019531 -1.347657,1.019531 -0.503906,0 -0.902343,-0.292968 -1.125,-0.667968 C 16.948,10.666383 16.948,10.010133 16.948,9.6585703 h 2.789062 c 0.210938,0 0.246094,0 0.246094,-0.2109375 0,-0.984375 -0.539062,-1.9570312 -1.78125,-1.9570312 -1.160156,0 -2.074219,1.03125 -2.074219,2.2734375 0,1.3359379 1.042969,2.2968749 2.191407,2.2968749 1.21875,0 1.664062,-1.101562 1.664062,-1.289062 z m -0.65625,-1.3242192 h -2.367187 c 0.05859,-1.4882812 0.902343,-1.734375 1.242187,-1.734375 1.019531,0 1.125,1.3476563 1.125,1.734375 z M 23.88843,8.1585703 c 0,-0.3164062 -0.304688,-0.609375 -0.726563,-0.609375 -0.738281,0 -1.089844,0.6679688 -1.230469,1.1015625 V 7.5491953 l -1.382812,0.1171875 v 0.3046875 c 0.691406,0 0.773437,0.070312 0.773437,0.5625 v 2.6601567 c 0,0.457031 -0.105468,0.457031 -0.773437,0.457031 v 0.304687 l 1.136719,-0.03516 c 0.398437,0 0.867187,0 1.265625,0.03516 v -0.304687 h -0.210938 c -0.738281,0 -0.761719,-0.117188 -0.761719,-0.46875 V 9.6468516 c 0,-0.984375 0.421875,-1.875 1.183594,-1.875 0.05859,0 0.08203,0 0.105469,0.011719 -0.03516,0.011719 -0.234375,0.1289063 -0.234375,0.3867188 0,0.28125 0.210937,0.4335937 0.433594,0.4335937 0.175781,0 0.421875,-0.1289062 0.421875,-0.4453128 z m 0,0"
         style="fill:#000000;fill-opacity:1;fill-rule:nonzero;stroke:none" />
      <path
         id="path43"
         d="m 14.407961,21.966188 c -0.128906,0.128906 -0.457031,0.410156 -0.457031,0.585937 0,0.105469 0.09375,0.199219 0.199218,0.199219 0.08203,0 0.128907,-0.07031 0.1875,-0.128906 0.117188,-0.140625 0.339844,-0.421875 0.785157,-0.644532 0.07031,-0.03516 0.164062,-0.09375 0.164062,-0.210937 0,-0.09375 -0.07031,-0.152344 -0.140625,-0.199219 -0.210937,-0.152344 -0.328125,-0.328125 -0.398437,-0.5625 -0.02344,-0.09375 -0.07031,-0.222656 -0.199219,-0.222656 -0.140625,0 -0.199219,0.128906 -0.199219,0.210937 0,0.04687 0.07031,0.363282 0.234375,0.574219 h -3.363281 c -0.164063,0 -0.339844,0 -0.339844,0.199219 0,0.199219 0.175781,0.199219 0.339844,0.199219 z m -1.875,2.917968 c 0.05859,-0.257812 0.292969,-1.171875 0.984375,-1.171875 0.04687,0 0.292969,0 0.503906,0.128907 -0.28125,0.04687 -0.480469,0.304687 -0.480469,0.539062 0,0.164063 0.105469,0.351563 0.375,0.351563 0.222657,0 0.539063,-0.1875 0.539063,-0.585938 0,-0.515625 -0.585938,-0.65625 -0.925781,-0.65625 -0.574219,0 -0.925782,0.527344 -1.042969,0.761719 -0.257813,-0.65625 -0.785156,-0.761719 -1.078125,-0.761719 -1.042969,0 -1.6054688,1.289063 -1.6054688,1.535156 0,0.105469 0.1054687,0.105469 0.1171875,0.105469 0.082031,0 0.1171873,-0.02344 0.1289063,-0.117187 0.339844,-1.054688 0.996094,-1.300782 1.335937,-1.300782 0.1875,0 0.539063,0.09375 0.539063,0.667969 0,0.304688 -0.164063,0.972656 -0.539063,2.367188 -0.152343,0.621093 -0.503906,1.042968 -0.949218,1.042968 -0.05859,0 -0.28125,0 -0.4921878,-0.128906 0.2460938,-0.05859 0.4687498,-0.269531 0.4687498,-0.539062 0,-0.269532 -0.222656,-0.351563 -0.375,-0.351563 -0.2929686,0 -0.5390623,0.257813 -0.5390623,0.574219 0,0.457031 0.4921875,0.65625 0.9375003,0.65625 0.65625,0 1.007812,-0.691406 1.042968,-0.75 0.117188,0.363281 0.480469,0.75 1.078125,0.75 1.019532,0 1.59375,-1.277344 1.59375,-1.535156 0,-0.09375 -0.09375,-0.09375 -0.128906,-0.09375 -0.08203,0 -0.105469,0.03516 -0.128906,0.105468 -0.328125,1.066407 -0.996094,1.3125 -1.324219,1.3125 -0.386719,0 -0.539062,-0.328125 -0.539062,-0.65625 0,-0.222656 0.05859,-0.445312 0.164062,-0.878906 z m 0,0"
         style="fill:#000000;fill-opacity:1;fill-rule:nonzero;stroke:none" />
    </g>
    <g
       id="g43"
       aria-label="Hidden&#10;Layer&#10;⃗&#10;h"
       transform="matrix(1.3333333,0,0,1.3333333,161.476,23.868)">
      <path
         id="path44"
         d="M 7.1371406,-6.09375e-4 V -0.30529687 H 6.8910469 c -0.7617188,0 -0.7851563,-0.1171875 -0.7851563,-0.46875 V -6.0240469 c 0,-0.3632812 0.023437,-0.46875 0.7851563,-0.46875 h 0.2460937 v -0.3164062 c -0.3515625,0.035156 -1.0898437,0.035156 -1.4648437,0.035156 -0.3867188,0 -1.125,0 -1.4765625,-0.035156 v 0.3164062 h 0.234375 c 0.7734375,0 0.7851562,0.1054688 0.7851562,0.46875 v 2.3320313 H 2.2387031 v -2.3320313 c 0,-0.3632812 0.023437,-0.46875 0.7851563,-0.46875 h 0.2460937 v -0.3164062 c -0.3515625,0.035156 -1.0898437,0.035156 -1.4648437,0.035156 -0.375,0 -1.12500002,0 -1.47656252,-0.035156 v 0.3164062 h 0.234375 c 0.77343752,0 0.79687502,0.1054688 0.79687502,0.46875 v 5.25000003 c 0,0.3515625 -0.023437,0.46875 -0.79687502,0.46875 h -0.234375 V -6.09375e-4 C 0.68010938,-0.03576562 1.4183906,-0.03576562 1.7933906,-0.03576562 c 0.375,0 1.125,0 1.4765625,0.035156245 V -0.30529687 H 3.0238594 c -0.7617188,0 -0.7851563,-0.1171875 -0.7851563,-0.46875 V -3.3873281 h 2.9765625 v 2.61328123 c 0,0.3515625 -0.011719,0.46875 -0.7851562,0.46875 H 4.1957344 V -6.09375e-4 C 4.5472969,-0.03576562 5.2855781,-0.03576562 5.6605781,-0.03576562 c 0.375,0 1.125,0 1.4765625,0.035156245 z m 2.7949219,0 V -0.30529687 c -0.65625,0 -0.703125,-0.0585938 -0.703125,-0.4453125 V -4.4068594 l -1.3945312,0.1171875 v 0.3046875 c 0.65625,0 0.7382812,0.058594 0.7382812,0.5507813 v 2.67187498 c 0,0.45703125 -0.1054687,0.45703125 -0.7734375,0.45703125 V -6.09375e-4 L 8.9008125,-0.03576562 c 0.3398438,0 0.6914063,0.0234375 1.03125,0.035156245 z M 9.3812813,-6.0123281 c 0,-0.2695313 -0.2226563,-0.5273438 -0.5273438,-0.5273438 -0.3398437,0 -0.5390625,0.2695313 -0.5390625,0.5273438 0,0.2695312 0.234375,0.5273437 0.5273438,0.5273437 0.3398437,0 0.5390625,-0.28125 0.5390625,-0.5273437 z M 15.492609,-6.09375e-4 V -0.30529687 c -0.703125,0 -0.773437,-0.0703125 -0.773437,-0.5625 V -6.9146719 l -1.441406,0.1054688 v 0.3164062 c 0.703125,0 0.785156,0.070312 0.785156,0.5507813 v 2.15625 c -0.292969,-0.3632813 -0.726563,-0.6210938 -1.265625,-0.6210938 -1.171875,0 -2.214844,0.984375 -2.214844,2.2617188 0,1.26562498 0.972656,2.24999998 2.109375,2.24999998 0.644531,0 1.089844,-0.33984375 1.335938,-0.65625 v 0.65625 z M 14.027766,-1.1724844 c 0,0.17578128 0,0.19921878 -0.105469,0.36328128 -0.304688,0.48046875 -0.75,0.703125 -1.183594,0.703125 -0.445312,0 -0.796875,-0.2578125 -1.042969,-0.64453125 -0.257812,-0.41015623 -0.292968,-0.97265623 -0.292968,-1.38281253 0,-0.3632812 0.02344,-0.9609375 0.316406,-1.4179687 0.210937,-0.3046875 0.585937,-0.6328125 1.125,-0.6328125 0.351562,0 0.761719,0.1523437 1.078125,0.5976562 0.105469,0.1640625 0.105469,0.1875 0.105469,0.3632813 z m 7.001953,1.171875025 V -0.30529687 c -0.703125,0 -0.773438,-0.0703125 -0.773438,-0.5625 V -6.9146719 l -1.441406,0.1054688 v 0.3164062 c 0.703125,0 0.785156,0.070312 0.785156,0.5507813 v 2.15625 c -0.292969,-0.3632813 -0.726562,-0.6210938 -1.265625,-0.6210938 -1.171875,0 -2.214844,0.984375 -2.214844,2.2617188 0,1.26562498 0.972657,2.24999998 2.109375,2.24999998 0.644532,0 1.089844,-0.33984375 1.335938,-0.65625 v 0.65625 z M 19.564875,-1.1724844 c 0,0.17578128 0,0.19921878 -0.105469,0.36328128 -0.304687,0.48046875 -0.75,0.703125 -1.183594,0.703125 -0.445312,0 -0.796875,-0.2578125 -1.042968,-0.64453125 -0.257813,-0.41015623 -0.292969,-0.97265623 -0.292969,-1.38281253 0,-0.3632812 0.02344,-0.9609375 0.316406,-1.4179687 0.210938,-0.3046875 0.585938,-0.6328125 1.125,-0.6328125 0.351563,0 0.761719,0.1523437 1.078125,0.5976562 0.105469,0.1640625 0.105469,0.1875 0.105469,0.3632813 z m 5.891602,-0.011719 c 0,-0.1054688 -0.08203,-0.1171875 -0.128907,-0.1171875 -0.09375,0 -0.117187,0.058594 -0.128906,0.140625 -0.351562,1.01953123 -1.253906,1.01953123 -1.347656,1.01953123 -0.503906,0 -0.902344,-0.29296875 -1.125,-0.66796875 C 22.42132,-1.2896719 22.42132,-1.9459219 22.42132,-2.2974844 h 2.789063 c 0.210937,0 0.246094,0 0.246094,-0.2109375 0,-0.984375 -0.539063,-1.9570312 -1.78125,-1.9570312 -1.160157,0 -2.074219,1.03125 -2.074219,2.2734375 0,1.33593748 1.042969,2.29687498 2.191406,2.29687498 1.21875,0 1.664063,-1.1015625 1.664063,-1.28906278 z m -0.65625,-1.3242188 h -2.367188 c 0.05859,-1.4882812 0.902344,-1.734375 1.242188,-1.734375 1.019531,0 1.125,1.3476563 1.125,1.734375 z m 6.27539,2.507812525 V -0.30529687 c -0.515625,0 -0.773437,0 -0.785156,-0.3046875 V -2.5084219 c 0,-0.8554687 0,-1.171875 -0.304688,-1.5234375 -0.140625,-0.1757812 -0.46875,-0.375 -1.042968,-0.375 -0.726563,0 -1.195313,0.4335938 -1.476563,1.0546875 v -1.0546875 l -1.40625,0.1171875 v 0.3046875 c 0.703125,0 0.785156,0.070312 0.785156,0.5625 v 2.66015628 c 0,0.45703125 -0.117187,0.45703125 -0.785156,0.45703125 v 0.304687495 l 1.125,-0.035156245 1.113281,0.035156245 V -0.30529687 c -0.65625,0 -0.773437,0 -0.773437,-0.45703125 V -2.5904531 c 0,-1.03125 0.714844,-1.59375 1.347656,-1.59375 0.621094,0 0.738281,0.5390625 0.738281,1.1015625 v 2.32031248 c 0,0.45703125 -0.117187,0.45703125 -0.773437,0.45703125 v 0.304687495 l 1.125,-0.035156245 z M 9.3226875,9.3890391 H 9.064875 C 8.9594063,10.396852 8.8187813,11.650758 7.0726875,11.650758 H 6.252375 c -0.46875,0 -0.4921875,-0.07031 -0.4921875,-0.398438 V 5.9437266 c 0,-0.3398438 0,-0.4804688 0.9492188,-0.4804688 h 0.328125 V 5.1468516 C 6.67425,5.1820078 5.7719063,5.1820078 5.36175,5.1820078 c -0.3867187,0 -1.1601562,0 -1.5117187,-0.035156 V 5.463258 h 0.234375 c 0.7734375,0 0.796875,0.1054688 0.796875,0.46875 v 5.25 c 0,0.351562 -0.023437,0.46875 -0.796875,0.46875 h -0.234375 v 0.304687 H 9.0414375 Z M 14.563898,11.06482 v -0.550781 h -0.257812 v 0.550781 c 0,0.585938 -0.246094,0.644532 -0.351563,0.644532 -0.328125,0 -0.375,-0.457032 -0.375,-0.503907 V 9.2132578 c 0,-0.4101562 0,-0.8085937 -0.351562,-1.171875 -0.386719,-0.3867187 -0.890625,-0.5507812 -1.371094,-0.5507812 -0.808594,0 -1.5,0.46875 -1.5,1.125 0,0.3046875 0.199219,0.46875 0.457031,0.46875 0.28125,0 0.457032,-0.1992188 0.457032,-0.4570313 0,-0.1171875 -0.04687,-0.4453125 -0.503907,-0.4570312 0.269532,-0.3515625 0.75,-0.4570313 1.078125,-0.4570313 0.480469,0 1.054688,0.3867188 1.054688,1.2773438 v 0.3632812 c -0.515625,0.035156 -1.207031,0.058594 -1.839844,0.3632813 -0.75,0.3398439 -0.996094,0.8554689 -0.996094,1.2890629 0,0.808593 0.972657,1.054687 1.59375,1.054687 0.65625,0 1.113282,-0.398437 1.3125,-0.867187 0.03516,0.398437 0.304688,0.820312 0.773438,0.820312 0.210937,0 0.820312,-0.140625 0.820312,-0.949219 z m -1.664062,-0.503906 c 0,0.949219 -0.726563,1.289063 -1.171875,1.289063 -0.480469,0 -0.890625,-0.351563 -0.890625,-0.855469 0,-0.539063 0.410156,-1.3710939 2.0625,-1.4296877 z M 19.523859,7.9710703 V 7.6663828 c -0.234375,0.011719 -0.515625,0.023437 -0.75,0.023437 l -0.867187,-0.023437 v 0.3046875 c 0.304687,0.011719 0.46875,0.1757813 0.46875,0.4335938 0,0.09375 -0.01172,0.1171875 -0.05859,0.234375 L 17.309016,11.088258 16.207453,8.4046641 c -0.04687,-0.09375 -0.05859,-0.140625 -0.05859,-0.1757813 0,-0.2578125 0.363282,-0.2578125 0.550782,-0.2578125 V 7.6663828 l -1.078125,0.023437 c -0.269532,0 -0.667969,-0.011719 -0.972657,-0.023437 v 0.3046875 c 0.480469,0 0.667969,0 0.808594,0.3515625 l 1.5,3.6328122 -0.257812,0.585938 c -0.210938,0.550781 -0.492188,1.242187 -1.136719,1.242187 -0.04687,0 -0.269531,0 -0.46875,-0.1875 0.316406,-0.03516 0.398437,-0.257812 0.398437,-0.410156 0,-0.269531 -0.199218,-0.421875 -0.421875,-0.421875 -0.199218,0 -0.421875,0.128906 -0.421875,0.421875 0,0.457031 0.421875,0.808594 0.914063,0.808594 0.632812,0 1.042969,-0.5625 1.277344,-1.136719 l 1.757812,-4.2539062 c 0.257813,-0.6210937 0.761719,-0.6328125 0.925781,-0.6328125 z m 4.054688,2.8007817 c 0,-0.105469 -0.08203,-0.117188 -0.128906,-0.117188 -0.09375,0 -0.117188,0.05859 -0.128907,0.140625 -0.351562,1.019531 -1.253906,1.019531 -1.347656,1.019531 -0.503906,0 -0.902344,-0.292968 -1.125,-0.667968 -0.304687,-0.480469 -0.304687,-1.136719 -0.304687,-1.4882817 h 2.789062 c 0.210938,0 0.246094,0 0.246094,-0.2109375 0,-0.984375 -0.539063,-1.9570312 -1.78125,-1.9570312 -1.160156,0 -2.074219,1.03125 -2.074219,2.2734375 0,1.3359379 1.042969,2.2968749 2.191406,2.2968749 1.21875,0 1.664063,-1.101562 1.664063,-1.289062 z m -0.65625,-1.3242192 h -2.367188 c 0.05859,-1.4882812 0.902344,-1.734375 1.242188,-1.734375 1.019531,0 1.125,1.3476563 1.125,1.734375 z M 27.48675,8.1585703 c 0,-0.3164062 -0.304688,-0.609375 -0.726563,-0.609375 -0.738281,0 -1.089843,0.6679688 -1.230468,1.1015625 V 7.5491953 l -1.382813,0.1171875 v 0.3046875 c 0.691406,0 0.773438,0.070312 0.773438,0.5625 v 2.6601567 c 0,0.457031 -0.105469,0.457031 -0.773438,0.457031 v 0.304687 l 1.136719,-0.03516 c 0.398437,0 0.867187,0 1.265625,0.03516 v -0.304687 h -0.210938 c -0.738281,0 -0.761718,-0.117188 -0.761718,-0.46875 V 9.6468516 c 0,-0.984375 0.421875,-1.875 1.183593,-1.875 0.05859,0 0.08203,0 0.105469,0.011719 -0.03516,0.011719 -0.234375,0.1289063 -0.234375,0.3867188 0,0.28125 0.210938,0.4335937 0.433594,0.4335937 0.175781,0 0.421875,-0.1289062 0.421875,-0.4453128 z m 0,0"
         style="fill:#000000;fill-opacity:1;fill-rule:nonzero;stroke:none" />
      <path
         id="path45"
         d="m 17.45257,19.335328 c -0.128906,0.128906 -0.457031,0.410156 -0.457031,0.585938 0,0.105468 0.09375,0.199218 0.199219,0.199218 0.08203,0 0.128906,-0.07031 0.1875,-0.128906 0.117187,-0.140625 0.339844,-0.421875 0.785156,-0.644531 0.07031,-0.03516 0.164063,-0.09375 0.164063,-0.210938 0,-0.09375 -0.07031,-0.152343 -0.140625,-0.199218 -0.210938,-0.152344 -0.328125,-0.328125 -0.398438,-0.5625 -0.02344,-0.09375 -0.07031,-0.222657 -0.199219,-0.222657 -0.140625,0 -0.199218,0.128907 -0.199218,0.210938 0,0.04687 0.07031,0.363281 0.234375,0.574219 H 14.26507 c -0.164062,0 -0.339843,0 -0.339843,0.199218 0,0.199219 0.175781,0.199219 0.339843,0.199219 z m -1.822265,1.751953 c 0,0 0,-0.105468 -0.128907,-0.105468 -0.234375,0 -0.960937,0.08203 -1.21875,0.105468 -0.08203,0 -0.1875,0.01172 -0.1875,0.199219 0,0.117188 0.09375,0.117188 0.234375,0.117188 0.480469,0 0.503907,0.07031 0.503907,0.164062 l -0.03516,0.199219 -1.441406,5.742187 c -0.03516,0.140625 -0.03516,0.152344 -0.03516,0.222657 0,0.222656 0.199219,0.269531 0.28125,0.269531 0.164062,0 0.328125,-0.117188 0.375,-0.257813 l 0.1875,-0.75 0.222656,-0.902343 c 0.05859,-0.222657 0.117188,-0.433594 0.164063,-0.667969 0.02344,-0.05859 0.105468,-0.386719 0.117187,-0.445313 0.02344,-0.09375 0.328125,-0.644531 0.667969,-0.914062 0.222656,-0.164063 0.527344,-0.351563 0.960937,-0.351563 0.421875,0 0.539063,0.339844 0.539063,0.691407 0,0.539062 -0.375,1.628906 -0.621094,2.238281 -0.08203,0.222656 -0.128906,0.351562 -0.128906,0.550781 0,0.46875 0.351562,0.808594 0.820312,0.808594 0.9375,0 1.300782,-1.453125 1.300782,-1.535156 0,-0.09375 -0.09375,-0.09375 -0.117188,-0.09375 -0.105469,0 -0.105469,0.02344 -0.152344,0.175781 -0.152343,0.527344 -0.46875,1.242187 -1.019531,1.242187 -0.164062,0 -0.234375,-0.105468 -0.234375,-0.328125 0,-0.257812 0.09375,-0.492187 0.175781,-0.714843 0.164063,-0.421875 0.609375,-1.605469 0.609375,-2.191407 0,-0.644531 -0.398437,-1.066406 -1.148437,-1.066406 -0.621094,0 -1.101563,0.316406 -1.464844,0.773438 z m 0,0"
         style="fill:#000000;fill-opacity:1;fill-rule:nonzero;stroke:none" />
    </g>
    <g
       id="g45"
       aria-label="Output&#10;Layer&#10;⃗&#10;ˆy"
       transform="matrix(1.3333333,0,0,1.3333333,294.28533,22.649333)">
      <path
         id="path46"
         d="m 7.1834609,-3.3756719 c 0,-2.0390625 -1.5,-3.6445312 -3.3164062,-3.6445312 -1.78125,0 -3.30468751,1.59375 -3.30468751,3.6445312 0,2.0390625 1.53515621,3.59765628 3.30468751,3.59765628 1.8164062,0 3.3164062,-1.58203128 3.3164062,-3.59765628 z m -1.03125,-0.140625 c 0,2.63671878 -1.359375,3.48046878 -2.2734375,3.48046878 -0.9609375,0 -2.296875,-0.87890625 -2.296875,-3.48046878 0,-2.578125 1.453125,-3.2578125 2.2851563,-3.2578125 0.8671875,0 2.2851562,0.703125 2.2851562,3.2578125 z M 13.083852,-6.71875e-4 V -0.30535937 c -0.703125,0 -0.785157,-0.0703125 -0.785157,-0.5625 V -4.4069219 l -1.453125,0.1171875 v 0.3046875 c 0.691407,0 0.773438,0.070312 0.773438,0.5625 v 1.7695313 c 0,0.86718748 -0.480469,1.54687498 -1.207031,1.54687498 -0.8320317,0 -0.8789067,-0.46875 -0.8789067,-0.99609378 v -3.3046875 l -1.4648437,0.1171875 v 0.3046875 c 0.7851562,0 0.7851562,0.035156 0.7851562,0.9140625 v 1.5 c 0,0.77343753 0,1.67578128 1.5117192,1.67578128 0.550781,0 0.996093,-0.26953125 1.277343,-0.890625 v 0.890625 z M 16.593617,-1.2311406 v -0.5742188 h -0.246094 v 0.5507813 c 0,0.73828123 -0.304687,1.11328123 -0.667968,1.11328123 -0.667969,0 -0.667969,-0.90234373 -0.667969,-1.07812503 v -2.765625 h 1.429687 v -0.3046875 h -1.429687 v -1.8398437 h -0.246094 c -0.01172,0.8203125 -0.316406,1.8867187 -1.289062,1.921875 v 0.2226562 h 0.84375 v 2.7539063 c 0,1.21874998 0.925781,1.33593748 1.289062,1.33593748 0.703125,0 0.984375,-0.703125 0.984375,-1.33593748 z m 5.762695,-0.9257813 c 0,-1.265625 -0.972656,-2.25 -2.085937,-2.25 -0.773438,0 -1.195313,0.4453125 -1.394531,0.65625 v -0.65625 l -1.429688,0.1171875 v 0.3046875 c 0.703125,0 0.773438,0.058594 0.773438,0.4921875 v 4.6640625 c 0,0.4570313 -0.105469,0.4570313 -0.773438,0.4570313 v 0.3046875 l 1.113281,-0.035156 1.125,0.035156 V 1.6282344 c -0.667968,0 -0.773437,0 -0.773437,-0.4570313 v -1.75781247 c 0.04687,0.15234375 0.46875,0.69140625 1.21875,0.69140625 1.183594,0 2.226562,-0.97265625 2.226562,-2.26171878 z m -0.832031,0 c 0,1.20703128 -0.691406,2.05078128 -1.429687,2.05078128 -0.398438,0 -0.773438,-0.19921875 -1.042969,-0.609375 C 18.911,-0.92645312 18.911,-0.93817187 18.911,-1.1373906 v -2.2148438 c 0.28125,-0.515625 0.773437,-0.796875 1.277344,-0.796875 0.726562,0 1.335937,0.8671875 1.335937,1.9921875 z m 6.512696,2.156250025 V -0.30535937 c -0.703125,0 -0.785157,-0.0703125 -0.785157,-0.5625 V -4.4069219 l -1.453125,0.1171875 v 0.3046875 c 0.691407,0 0.773438,0.070312 0.773438,0.5625 v 1.7695313 c 0,0.86718748 -0.480469,1.54687498 -1.207031,1.54687498 -0.832032,0 -0.878907,-0.46875 -0.878907,-0.99609378 v -3.3046875 l -1.464843,0.1171875 v 0.3046875 c 0.785156,0 0.785156,0.035156 0.785156,0.9140625 v 1.5 c 0,0.77343753 0,1.67578128 1.511719,1.67578128 0.550781,0 0.996093,-0.26953125 1.277343,-0.890625 v 0.890625 z M 31.549672,-1.2311406 v -0.5742188 h -0.246094 v 0.5507813 c 0,0.73828123 -0.304687,1.11328123 -0.667969,1.11328123 -0.667968,0 -0.667968,-0.90234373 -0.667968,-1.07812503 v -2.765625 h 1.429687 v -0.3046875 h -1.429687 v -1.8398437 h -0.246094 c -0.01172,0.8203125 -0.316406,1.8867187 -1.289063,1.921875 v 0.2226562 h 0.84375 v 2.7539063 c 0,1.21874998 0.925782,1.33593748 1.289063,1.33593748 0.703125,0 0.984375,-0.703125 0.984375,-1.33593748 z M 9.7410781,9.3889766 H 9.4832656 C 9.3777969,10.396789 9.2371719,11.650695 7.4910781,11.650695 H 6.6707656 c -0.46875,0 -0.4921875,-0.07031 -0.4921875,-0.398437 V 5.9436641 c 0,-0.3398438 0,-0.4804688 0.9492188,-0.4804688 h 0.328125 V 5.1467891 c -0.3632813,0.035156 -1.265625,0.035156 -1.6757813,0.035156 -0.3867187,0 -1.1601562,0 -1.5117187,-0.035156 v 0.3164062 h 0.234375 c 0.7734375,0 0.796875,0.1054688 0.796875,0.46875 v 5.2499997 c 0,0.351563 -0.023437,0.46875 -0.796875,0.46875 h -0.234375 v 0.304688 h 5.1914062 z m 5.2441409,1.6757814 v -0.550781 h -0.257813 v 0.550781 c 0,0.585937 -0.246094,0.644531 -0.351562,0.644531 -0.328125,0 -0.375,-0.457031 -0.375,-0.503906 V 9.2131953 c 0,-0.4101562 0,-0.8085937 -0.351563,-1.171875 -0.386719,-0.3867187 -0.890625,-0.5507812 -1.371094,-0.5507812 -0.808593,0 -1.5,0.46875 -1.5,1.125 0,0.3046875 0.199219,0.46875 0.457032,0.46875 0.28125,0 0.457031,-0.1992188 0.457031,-0.4570313 0,-0.1171875 -0.04687,-0.4453125 -0.503906,-0.4570312 0.269531,-0.3515625 0.75,-0.4570313 1.078125,-0.4570313 0.480468,0 1.054687,0.3867188 1.054687,1.2773438 v 0.3632812 c -0.515625,0.035156 -1.207031,0.058594 -1.839844,0.3632813 -0.75,0.3398434 -0.996093,0.8554684 -0.996093,1.2890624 0,0.808594 0.972656,1.054688 1.59375,1.054688 0.65625,0 1.113281,-0.398438 1.3125,-0.867188 0.03516,0.398438 0.304687,0.820313 0.773437,0.820313 0.210938,0 0.820313,-0.140625 0.820313,-0.949219 z m -1.664063,-0.503906 c 0,0.949218 -0.726562,1.289062 -1.171875,1.289062 -0.480469,0 -0.890625,-0.351562 -0.890625,-0.855469 0,-0.539062 0.410156,-1.3710934 2.0625,-1.4296872 z M 19.933461,7.9710078 V 7.6663203 c -0.234375,0.011719 -0.515625,0.023437 -0.75,0.023437 l -0.867188,-0.023437 v 0.3046875 c 0.304688,0.011719 0.46875,0.1757813 0.46875,0.4335938 0,0.09375 -0.01172,0.1171875 -0.05859,0.234375 L 17.718617,11.088195 16.617055,8.4046016 c -0.04687,-0.09375 -0.05859,-0.140625 -0.05859,-0.1757813 0,-0.2578125 0.363281,-0.2578125 0.550781,-0.2578125 V 7.6663203 l -1.078125,0.023437 c -0.269531,0 -0.667969,-0.011719 -0.972656,-0.023437 v 0.3046875 c 0.480469,0 0.667969,0 0.808594,0.3515625 l 1.5,3.6328127 -0.257813,0.585937 c -0.210937,0.550782 -0.492187,1.242188 -1.136719,1.242188 -0.04687,0 -0.269531,0 -0.46875,-0.1875 0.316407,-0.03516 0.398438,-0.257813 0.398438,-0.410156 0,-0.269532 -0.199219,-0.421875 -0.421875,-0.421875 -0.199219,0 -0.421875,0.128906 -0.421875,0.421875 0,0.457031 0.421875,0.808593 0.914062,0.808593 0.632813,0 1.042969,-0.5625 1.277344,-1.136718 L 19.00768,8.6038203 c 0.257812,-0.6210937 0.761718,-0.6328125 0.925781,-0.6328125 z m 4.054687,2.8007812 c 0,-0.105469 -0.08203,-0.117187 -0.128906,-0.117187 -0.09375,0 -0.117187,0.05859 -0.128906,0.140625 -0.351563,1.019531 -1.253906,1.019531 -1.347656,1.019531 -0.503907,0 -0.902344,-0.292969 -1.125,-0.667969 C 20.952992,10.66632 20.952992,10.01007 20.952992,9.6585078 h 2.789063 c 0.210937,0 0.246093,0 0.246093,-0.2109375 0,-0.984375 -0.539062,-1.9570312 -1.78125,-1.9570312 -1.160156,0 -2.074218,1.03125 -2.074218,2.2734375 0,1.3359374 1.042968,2.2968754 2.191406,2.2968754 1.21875,0 1.664062,-1.101563 1.664062,-1.289063 z m -0.65625,-1.3242187 h -2.367187 c 0.05859,-1.4882812 0.902344,-1.734375 1.242187,-1.734375 1.019532,0 1.125,1.3476563 1.125,1.734375 z m 4.564454,-1.2890625 c 0,-0.3164062 -0.304688,-0.609375 -0.726563,-0.609375 -0.738281,0 -1.089844,0.6679688 -1.230469,1.1015625 V 7.5491328 l -1.382812,0.1171875 v 0.3046875 c 0.691406,0 0.773437,0.070313 0.773437,0.5625 v 2.6601562 c 0,0.457031 -0.105468,0.457031 -0.773437,0.457031 v 0.304688 l 1.136719,-0.03516 c 0.398437,0 0.867187,0 1.265625,0.03516 v -0.304688 h -0.210938 c -0.738281,0 -0.761719,-0.117187 -0.761719,-0.46875 V 9.6467891 c 0,-0.984375 0.421875,-1.875 1.183594,-1.875 0.05859,0 0.08203,0 0.105469,0.011719 -0.03516,0.011719 -0.234375,0.1289063 -0.234375,0.3867188 0,0.28125 0.210937,0.4335937 0.433594,0.4335937 0.175781,0 0.421875,-0.1289062 0.421875,-0.4453128 z m 0,0"
         style="fill:#000000;fill-opacity:1;fill-rule:nonzero;stroke:none" />
      <path
         id="path47"
         d="m 18.146352,19.335266 c -0.128907,0.128906 -0.457032,0.410156 -0.457032,0.585937 0,0.105469 0.09375,0.199219 0.199219,0.199219 0.08203,0 0.128906,-0.07031 0.1875,-0.128906 0.117188,-0.140625 0.339844,-0.421875 0.785156,-0.644532 0.07031,-0.03516 0.164063,-0.09375 0.164063,-0.210937 0,-0.09375 -0.07031,-0.152344 -0.140625,-0.199219 -0.210938,-0.152344 -0.328125,-0.328125 -0.398438,-0.5625 -0.02344,-0.09375 -0.07031,-0.222656 -0.199218,-0.222656 -0.140625,0 -0.199219,0.128906 -0.199219,0.210937 0,0.04687 0.07031,0.363282 0.234375,0.574219 h -3.363281 c -0.164063,0 -0.339844,0 -0.339844,0.199219 0,0.199219 0.175781,0.199219 0.339844,0.199219 z m 0,0"
         style="fill:#000000;fill-opacity:1;fill-rule:nonzero;stroke:none" />
      <path
         id="path48"
         d="m 16.619984,20.98175 -1.335937,1.359375 0.175781,0.175781 1.160156,-1.019531 1.136719,1.019531 0.1875,-0.175781 z m 0,0"
         style="fill:#000000;fill-opacity:1;fill-rule:nonzero;stroke:none" />
      <path
         id="path49"
         d="m 18.278187,24.098938 c 0.04687,-0.140625 0.04687,-0.152344 0.04687,-0.222657 0,-0.1875 -0.140625,-0.269531 -0.292968,-0.269531 -0.105469,0 -0.257813,0.05859 -0.351563,0.199219 -0.02344,0.05859 -0.09375,0.363281 -0.140625,0.539062 -0.07031,0.257813 -0.140625,0.527344 -0.199219,0.796875 l -0.445312,1.792969 c -0.03516,0.152344 -0.46875,0.855469 -1.125,0.855469 -0.503906,0 -0.621094,-0.445313 -0.621094,-0.808594 0,-0.457031 0.175781,-1.078125 0.515625,-1.957031 0.152344,-0.410156 0.199219,-0.515625 0.199219,-0.714844 0,-0.445312 -0.328125,-0.820312 -0.820313,-0.820312 -0.949218,0 -1.3125,1.453125 -1.3125,1.535156 0,0.105469 0.09375,0.105469 0.117188,0.105469 0.09375,0 0.105469,-0.02344 0.152344,-0.1875 0.269531,-0.9375 0.667968,-1.230469 1.007812,-1.230469 0.08203,0 0.257813,0 0.257813,0.316406 0,0.246094 -0.105469,0.515625 -0.175782,0.703125 -0.398437,1.054688 -0.574218,1.617188 -0.574218,2.085938 0,0.890625 0.621093,1.183593 1.21875,1.183593 0.386718,0 0.726562,-0.164062 0.996093,-0.445312 -0.128906,0.515625 -0.246093,1.007812 -0.644531,1.535156 -0.257812,0.339844 -0.632812,0.632813 -1.089844,0.632813 -0.140625,0 -0.597656,-0.03516 -0.761718,-0.421875 0.164062,0 0.292968,0 0.433593,-0.117188 0.09375,-0.09375 0.199219,-0.222656 0.199219,-0.410156 0,-0.316406 -0.269531,-0.351563 -0.375,-0.351563 -0.222656,0 -0.550781,0.164063 -0.550781,0.644532 0,0.503906 0.433594,0.867187 1.054687,0.867187 1.019532,0 2.050782,-0.902344 2.332032,-2.027344 z m 0,0"
         style="fill:#000000;fill-opacity:1;fill-rule:nonzero;stroke:none" />
    </g>
  </g>
</svg>
