<?xml version="1.0" encoding="UTF-8" standalone="no"?>
<!-- Created with Inkscape (http://www.inkscape.org/) -->

<svg
   version="1.1"
   id="svg1"
   width="265.73334"
   height="109.62667"
   viewBox="0 0 265.73334 109.62667"
   sodipodi:docname="02_1D_convolution_1o3.pdf"
   xmlns:inkscape="http://www.inkscape.org/namespaces/inkscape"
   xmlns:sodipodi="http://sodipodi.sourceforge.net/DTD/sodipodi-0.dtd"
   xmlns="http://www.w3.org/2000/svg"
   xmlns:svg="http://www.w3.org/2000/svg">
  <defs
     id="defs1" />
  <sodipodi:namedview
     id="namedview1"
     pagecolor="#ffffff"
     bordercolor="#666666"
     borderopacity="1.0"
     inkscape:showpageshadow="2"
     inkscape:pageopacity="0.0"
     inkscape:pagecheckerboard="0"
     inkscape:deskcolor="#d1d1d1">
    <inkscape:page
       x="0"
       y="0"
       inkscape:label="1"
       id="page1"
       width="265.73334"
       height="109.62667"
       margin="0"
       bleed="0" />
  </sodipodi:namedview>
  <g
     id="g1"
     inkscape:groupmode="layer"
     inkscape:label="1">
    <path
       id="path1"
       d="M -9.92134,-6.53078 H 9.92134 V 6.53079 H -9.92134 Z"
       style="fill:#bfbfbf;fill-opacity:1;fill-rule:nonzero;stroke:#000000;stroke-width:0.3985;stroke-linecap:butt;stroke-linejoin:miter;stroke-miterlimit:10;stroke-dasharray:2.98883, 2.98883;stroke-dashoffset:0;stroke-opacity:1"
       transform="matrix(1.3333333,0,0,-1.3333333,27.309333,22.788)" />
    <path
       id="path2"
       d="m 4.5822422,-3.1886953 c 0,-0.796875 -0.046875,-1.59375 -0.3984375,-2.3320313 -0.4570313,-0.9609375 -1.2773438,-1.1132812 -1.6875,-1.1132812 -0.5976563,0 -1.3359375,0.2578125 -1.73437501,1.1835937 -0.328125,0.6914063 -0.375,1.4648438 -0.375,2.2617188 0,0.75 0.046875,1.640625 0.4453125,2.40234374 0.43359371,0.80859375 1.16015621,1.0078125 1.65234371,1.0078125 0.5390625,0 1.2890625,-0.2109375 1.734375,-1.16015625 C 4.5353672,-1.6301016 4.5822422,-2.4035391 4.5822422,-3.1886953 Z m -2.0976563,3.18749999 c -0.3867187,0 -0.984375,-0.24609375 -1.1601562,-1.20703129 -0.1054688,-0.5976562 -0.1054688,-1.5117187 -0.1054688,-2.0976562 0,-0.6445313 0,-1.3007813 0.082031,-1.8398438 0.1875,-1.1835937 0.9257812,-1.265625 1.1835937,-1.265625 0.328125,0 0.984375,0.1757813 1.171875,1.1601563 0.09375,0.5625 0.09375,1.3125 0.09375,1.9453125 0,0.75 0,1.4179687 -0.1054687,2.0625 -0.1523438,0.93749999 -0.7148438,1.24218749 -1.160156,1.24218749 z m 0,0"
       style="fill:#000000;fill-opacity:1;fill-rule:nonzero;stroke:none"
       aria-label="0"
       transform="matrix(1.3333333,0,0,1.3333333,23.988,27.068)" />
    <path
       id="path3"
       d="M 9.92133,-6.53078 H 29.76401 V 6.53079 H 9.92133 Z"
       style="fill:none;stroke:#000000;stroke-width:0.3985;stroke-linecap:butt;stroke-linejoin:miter;stroke-miterlimit:10;stroke-dasharray:none;stroke-opacity:1"
       transform="matrix(1.3333333,0,0,-1.3333333,27.309333,22.788)" />
    <path
       id="path4"
       d="m 2.9296719,-6.3761953 c 0,-0.234375 0,-0.2578125 -0.234375,-0.2578125 -0.609375,0.6328125 -1.4882813,0.6328125 -1.80468753,0.6328125 v 0.3164062 c 0.19921873,0 0.78515623,0 1.30078123,-0.2578125 v 5.15625004 c 0,0.3515625 -0.035156,0.48046875 -0.9257812,0.48046875 H 0.94920312 v 0.3046875 C 1.3007656,-0.03635156 2.1562344,-0.03635156 2.5546719,-0.03635156 c 0.3984375,0 1.265625,0 1.6171875,0.03515625 v -0.3046875 H 3.8554531 c -0.9023437,0 -0.9257812,-0.1171875 -0.9257812,-0.48046875 z m 0,0"
       style="fill:#000000;fill-opacity:1;fill-rule:nonzero;stroke:none"
       aria-label="1"
       transform="matrix(1.3333333,0,0,1.3333333,50.445333,27.068)" />
    <path
       id="path5"
       d="M 29.764,-6.53078 H 49.60668 V 6.53079 H 29.764 Z"
       style="fill:none;stroke:#000000;stroke-width:0.3985;stroke-linecap:butt;stroke-linejoin:miter;stroke-miterlimit:10;stroke-dasharray:none;stroke-opacity:1"
       transform="matrix(1.3333333,0,0,-1.3333333,27.309333,22.788)" />
    <path
       id="path6"
       d="M 1.2653828,-0.76291406 2.3200703,-1.7941641 c 1.5585938,-1.3710937 2.15625,-1.9101562 2.15625,-2.90625 0,-1.1367187 -0.9023437,-1.9335937 -2.1210937,-1.9335937 -1.125,0 -1.85156254,0.9140625 -1.85156254,1.8046875 0,0.5507812 0.4921875,0.5507812 0.52734374,0.5507812 0.1640625,0 0.515625,-0.1171875 0.515625,-0.5273437 0,-0.2578125 -0.1875,-0.515625 -0.5273437,-0.515625 -0.0820313,0 -0.10546879,0 -0.12890629,0.011719 C 1.1130391,-5.95432 1.6521016,-6.32932 2.2263203,-6.32932 c 0.9140625,0 1.3359375,0.8085937 1.3359375,1.6289062 0,0.796875 -0.4921875,1.5820313 -1.0429687,2.203125 L 0.60913281,-0.36447656 C 0.50366406,-0.25900781 0.50366406,-0.23557031 0.50366406,-0.00119531 H 4.1950703 l 0.28125,-1.73437499 H 4.2185078 c -0.046875,0.3046875 -0.1171875,0.73828124 -0.2109375,0.89062499 -0.070313,0.0820313 -0.7265625,0.0820313 -0.9492187,0.0820313 z m 0,0"
       style="fill:#000000;fill-opacity:1;fill-rule:nonzero;stroke:none"
       aria-label="2"
       transform="matrix(1.3333333,0,0,1.3333333,76.902667,27.068)" />
    <path
       id="path7"
       d="M 49.60667,-6.53078 H 69.44935 V 6.53079 H 49.60667 Z"
       style="fill:none;stroke:#000000;stroke-width:0.3985;stroke-linecap:butt;stroke-linejoin:miter;stroke-miterlimit:10;stroke-dasharray:none;stroke-opacity:1"
       transform="matrix(1.3333333,0,0,-1.3333333,27.309333,22.788)" />
    <path
       id="path8"
       d="m 2.8950625,-3.5051016 c 0.8085937,-0.2695312 1.3945312,-0.9726562 1.3945312,-1.7578125 0,-0.8203125 -0.8789062,-1.3710937 -1.8398437,-1.3710937 -1.0078125,0 -1.7578125,0.5976562 -1.7578125,1.3476562 0,0.3398438 0.2109375,0.5273438 0.5039062,0.5273438 0.3046875,0 0.5039063,-0.2226563 0.5039063,-0.515625 0,-0.4921875 -0.46875,-0.4921875 -0.609375,-0.4921875 0.3046875,-0.4921875 0.9609375,-0.6210938 1.3242187,-0.6210938 0.4101563,0 0.9492188,0.2226563 0.9492188,1.1132813 0,0.1289062 -0.011719,0.703125 -0.2695313,1.1367187 -0.3046875,0.4804688 -0.6445312,0.515625 -0.890625,0.515625 -0.082031,0.011719 -0.3164062,0.035156 -0.3867187,0.035156 -0.082031,0.011719 -0.1523438,0.023437 -0.1523438,0.1171875 0,0.1171875 0.070312,0.1171875 0.234375,0.1171875 h 0.4453125 c 0.8085938,0 1.1835938,0.6679687 1.1835938,1.6523437 0,1.34765629 -0.6914063,1.64062504 -1.125,1.64062504 -0.4335938,0 -1.171875,-0.17578125 -1.5234375,-0.76171875 0.3515625,0.0585938 0.65625,-0.1640625 0.65625,-0.53906249 0,-0.3632813 -0.2695313,-0.5625 -0.5625,-0.5625 -0.234375,0 -0.55078125,0.140625 -0.55078125,0.5742187 0,0.91406254 0.92578125,1.57031254 2.00390625,1.57031254 1.21875,0 2.1210937,-0.9140625 2.1210937,-1.92187504 0,-0.8203125 -0.6210937,-1.59375 -1.6523437,-1.8046872 z m 0,0"
       style="fill:#000000;fill-opacity:1;fill-rule:nonzero;stroke:none"
       aria-label="3"
       transform="matrix(1.3333333,0,0,1.3333333,103.35867,27.068)" />
    <path
       id="path9"
       d="M 69.44937,-6.53078 H 89.29205 V 6.53079 H 69.44937 Z"
       style="fill:none;stroke:#000000;stroke-width:0.3985;stroke-linecap:butt;stroke-linejoin:miter;stroke-miterlimit:10;stroke-dasharray:none;stroke-opacity:1"
       transform="matrix(1.3333333,0,0,-1.3333333,27.309333,22.788)" />
    <path
       id="path10"
       d="m 2.9299922,-1.6418203 v 0.86718749 c 0,0.3515625 -0.023437,0.46875 -0.7617188,0.46875 H 1.9573359 v 0.3046875 c 0.4101563,-0.03515625 0.9375,-0.03515625 1.3476563,-0.03515625 0.421875,0 0.9492187,0 1.359375,0.03515625 v -0.3046875 H 4.4534297 c -0.7382813,0 -0.7617188,-0.1171875 -0.7617188,-0.46875 V -1.6418203 H 4.6878047 V -1.9582266 H 3.6917109 v -4.5234375 c 0,-0.1992187 0,-0.2578125 -0.1523437,-0.2578125 -0.09375,0 -0.1171875,0 -0.1992188,0.1171875 l -3.05859371,4.6640625 v 0.3164063 z m 0.058594,-0.3164063 H 0.56280469 L 2.9885859,-5.6730703 Z m 0,0"
       style="fill:#000000;fill-opacity:1;fill-rule:nonzero;stroke:none"
       aria-label="4"
       transform="matrix(1.3333333,0,0,1.3333333,129.816,27.068)" />
    <path
       id="path11"
       d="m 89.29205,-6.53078 h 19.84268 V 6.53079 H 89.29205 Z"
       style="fill:none;stroke:#000000;stroke-width:0.3985;stroke-linecap:butt;stroke-linejoin:miter;stroke-miterlimit:10;stroke-dasharray:none;stroke-opacity:1"
       transform="matrix(1.3333333,0,0,-1.3333333,27.309333,22.788)" />
    <path
       id="path12"
       d="m 4.4766406,-2.0051016 c 0,-1.1835937 -0.8203125,-2.1796875 -1.8984375,-2.1796875 -0.4804687,0 -0.9023437,0.1640625 -1.265625,0.5039063 v -1.9335938 c 0.1992188,0.058594 0.5273438,0.1289063 0.84375,0.1289063 1.2304688,0 1.9335938,-0.9140625 1.9335938,-1.0429688 0,-0.058594 -0.035156,-0.1054687 -0.1054688,-0.1054687 -0.011719,0 -0.035156,0 -0.082031,0.023437 -0.1992188,0.09375 -0.6796875,0.2929687 -1.3476563,0.2929687 -0.3984375,0 -0.8554687,-0.070312 -1.3242187,-0.28125 -0.082031,-0.023437 -0.1054688,-0.023437 -0.1289063,-0.023437 -0.09375,0 -0.09375,0.082031 -0.09375,0.234375 v 2.953125 c 0,0.1757813 0,0.2578125 0.140625,0.2578125 0.070312,0 0.082031,-0.035156 0.1289063,-0.09375 0.1054687,-0.1523437 0.4804687,-0.6914062 1.2773437,-0.6914062 0.5273438,0 0.7734375,0.4570312 0.8554688,0.6328125 0.1523437,0.375 0.1757812,0.7617187 0.1757812,1.2539062 0,0.3515625 0,0.9492188 -0.234375,1.37109379 -0.2460937,0.38671875 -0.609375,0.64453125 -1.0664062,0.64453125 -0.7265625,0 -1.30078128,-0.52734375 -1.46484378,-1.11328124 0.0234375,0.011719 0.0585938,0.011719 0.1640625,0.011719 0.32812498,0 0.50390628,-0.2460937 0.50390628,-0.4804687 0,-0.2460938 -0.1757813,-0.4921875 -0.50390628,-0.4921875 -0.140625,0 -0.48046875,0.070312 -0.48046875,0.5273437 0,0.85546879 0.67968753,1.82812504 1.79296873,1.82812504 1.1601563,0 2.1796875,-0.9609375 2.1796873,-2.22656284 z m 0,0"
       style="fill:#000000;fill-opacity:1;fill-rule:nonzero;stroke:none"
       aria-label="5"
       transform="matrix(1.3333333,0,0,1.3333333,156.27333,27.068)" />
    <path
       id="path13"
       d="M 109.13472,-6.53078 H 128.9774 V 6.53079 h -19.84268 z"
       style="fill:none;stroke:#000000;stroke-width:0.3985;stroke-linecap:butt;stroke-linejoin:miter;stroke-miterlimit:10;stroke-dasharray:none;stroke-opacity:1"
       transform="matrix(1.3333333,0,0,-1.3333333,27.309333,22.788)" />
    <path
       id="path14"
       d="m 1.3133516,-3.2707266 v -0.234375 c 0,-2.5195312 1.2421875,-2.8828125 1.7460937,-2.8828125 0.234375,0 0.65625,0.058594 0.8789063,0.3984375 -0.1523438,0 -0.5507813,0 -0.5507813,0.4453125 0,0.3164063 0.234375,0.4570313 0.4570313,0.4570313 0.1640625,0 0.4570312,-0.082031 0.4570312,-0.46875 0,-0.5976563 -0.4335937,-1.078125 -1.265625,-1.078125 -1.2773437,0 -2.61328124,1.2890625 -2.61328124,3.4804687 0,2.66015629 1.14843754,3.37500004 2.07421874,3.37500004 1.1132813,0 2.0507813,-0.9375 2.0507813,-2.25000004 0,-1.265625 -0.8789063,-2.2265625 -1.9921875,-2.2265625 -0.6679688,0 -1.0429688,0.5039063 -1.2421875,0.984375 z m 1.1835937,3.21093754 c -0.6210937,0 -0.9257812,-0.59765625 -0.984375,-0.75 C 1.3367891,-1.2785391 1.3367891,-2.0754141 1.3367891,-2.2511953 c 0,-0.7734375 0.3164062,-1.7695313 1.21875,-1.7695313 0.1523437,0 0.609375,0 0.9257812,0.609375 0.1757813,0.375 0.1757813,0.8789063 0.1757813,1.3710938 0,0.4804687 0,0.9726562 -0.1640625,1.33593749 -0.3046875,0.59765625 -0.7617188,0.64453125 -0.9960938,0.64453125 z m 0,0"
       style="fill:#000000;fill-opacity:1;fill-rule:nonzero;stroke:none"
       aria-label="6"
       transform="matrix(1.3333333,0,0,1.3333333,182.72933,27.068)" />
    <path
       id="path15"
       d="m 128.9774,-6.53078 h 19.84268 V 6.53079 H 128.9774 Z"
       style="fill:none;stroke:#000000;stroke-width:0.3985;stroke-linecap:butt;stroke-linejoin:miter;stroke-miterlimit:10;stroke-dasharray:none;stroke-opacity:1"
       transform="matrix(1.3333333,0,0,-1.3333333,27.309333,22.788)" />
    <path
       id="path16"
       d="M 4.7467187,-6.0715078 C 4.82875,-6.1886953 4.82875,-6.2121328 4.82875,-6.4113516 H 2.4146875 c -1.21875,0 -1.2421875,-0.1289062 -1.2773438,-0.328125 H 0.89125 l -0.328125,2.0507813 h 0.24609375 c 0.0234375,-0.1523438 0.1171875,-0.7851563 0.24609375,-0.9023438 0.070312,-0.058594 0.84375,-0.058594 0.9726562,-0.058594 h 2.0625 C 3.985,-5.4855703 3.1998437,-4.4074453 2.9771875,-4.0793203 c -0.890625,1.3476562 -1.21875,2.7304687 -1.21875,3.74999999 0,0.09375 0,0.55078125 0.4570312,0.55078125 0.4570313,0 0.4570313,-0.45703125 0.4570313,-0.55078125 v -0.50390625 c 0,-0.55078124 0.023437,-1.10156254 0.1054687,-1.64062504 0.046875,-0.2226562 0.1757813,-1.078125 0.6210938,-1.6992187 z m 0,0"
       style="fill:#000000;fill-opacity:1;fill-rule:nonzero;stroke:none"
       aria-label="7"
       transform="matrix(1.3333333,0,0,1.3333333,209.18667,27.068)" />
    <path
       id="path17"
       d="m 148.82008,-6.53078 h 19.84268 V 6.53079 h -19.84268 z"
       style="fill:#bfbfbf;fill-opacity:1;fill-rule:nonzero;stroke:#000000;stroke-width:0.3985;stroke-linecap:butt;stroke-linejoin:miter;stroke-miterlimit:10;stroke-dasharray:2.98883, 2.98883;stroke-dashoffset:0;stroke-opacity:1"
       transform="matrix(1.3333333,0,0,-1.3333333,27.309333,22.788)" />
    <path
       id="path18"
       d="m 4.5824297,-3.1886953 c 0,-0.796875 -0.046875,-1.59375 -0.3984375,-2.3320313 -0.4570313,-0.9609375 -1.2773438,-1.1132812 -1.6875,-1.1132812 -0.5976563,0 -1.3359375,0.2578125 -1.73437501,1.1835937 -0.328125,0.6914063 -0.375,1.4648438 -0.375,2.2617188 0,0.75 0.046875,1.640625 0.4453125,2.40234374 0.43359371,0.80859375 1.16015621,1.0078125 1.65234371,1.0078125 0.5390625,0 1.2890625,-0.2109375 1.734375,-1.16015625 C 4.5355547,-1.6301016 4.5824297,-2.4035391 4.5824297,-3.1886953 Z m -2.0976563,3.18749999 c -0.3867187,0 -0.984375,-0.24609375 -1.1601562,-1.20703129 -0.1054688,-0.5976562 -0.1054688,-1.5117187 -0.1054688,-2.0976562 0,-0.6445313 0,-1.3007813 0.082031,-1.8398438 0.1875,-1.1835937 0.9257812,-1.265625 1.1835937,-1.265625 0.328125,0 0.984375,0.1757813 1.171875,1.1601563 0.09375,0.5625 0.09375,1.3125 0.09375,1.9453125 0,0.75 0,1.4179687 -0.1054687,2.0625 -0.1523438,0.93749999 -0.7148438,1.24218749 -1.160156,1.24218749 z m 0,0"
       style="fill:#000000;fill-opacity:1;fill-rule:nonzero;stroke:none"
       aria-label="0"
       transform="matrix(1.3333333,0,0,1.3333333,235.644,27.068)" />
    <path
       id="path19"
       d="M -9.92134,-30.54881 H 9.92134 v 13.27634 H -9.92134 Z"
       style="fill:none;stroke:#000000;stroke-width:0.3985;stroke-linecap:butt;stroke-linejoin:miter;stroke-miterlimit:10;stroke-dasharray:none;stroke-opacity:1"
       transform="matrix(1.3333333,0,0,-1.3333333,27.309333,22.788)" />
    <path
       id="path20"
       d="M 4.1720859,0.0013125 V -0.303375 H 3.8556797 c -0.9023438,0 -0.9257813,-0.1171875 -0.9257813,-0.48046875 V -6.3736875 c 0,-0.234375 0,-0.2578125 -0.234375,-0.2578125 -0.609375,0.6328125 -1.4882812,0.6328125 -1.80468746,0.6328125 v 0.3164062 c 0.19921876,0 0.78515626,0 1.30078126,-0.2578125 v 5.15625005 c 0,0.3515625 -0.035156,0.48046875 -0.9257813,0.48046875 H 0.94942969 V 0.0013125 C 1.3009922,-0.03384375 2.1564609,-0.03384375 2.5548984,-0.03384375 c 0.3984375,0 1.265625,0 1.6171875,0.03515625 z m 0,0"
       style="fill:#000000;fill-opacity:1;fill-rule:nonzero;stroke:none"
       aria-label="1"
       transform="matrix(1.3333333,0,0,1.3333333,23.988,59.092)" />
    <path
       id="path21"
       d="m 9.92133,-30.65839 h 19.84268 v 13.49548 H 9.92133 Z"
       style="fill:none;stroke:#000000;stroke-width:0.3985;stroke-linecap:butt;stroke-linejoin:miter;stroke-miterlimit:10;stroke-dasharray:none;stroke-opacity:1"
       transform="matrix(1.3333333,0,0,-1.3333333,27.309333,22.788)" />
    <path
       id="path22"
       d="m 4.5820156,-3.1885156 c 0,-0.796875 -0.046875,-1.59375 -0.3984375,-2.3320313 -0.4570312,-0.9609375 -1.2773437,-1.1132812 -1.6875,-1.1132812 -0.5976562,0 -1.3359375,0.2578125 -1.73437498,1.1835937 -0.328125,0.6914063 -0.375,1.4648438 -0.375,2.2617188 0,0.75 0.046875,1.640625 0.4453125,2.40234372 0.43359378,0.80859375 1.16015628,1.0078125 1.65234378,1.0078125 0.5390625,0 1.2890625,-0.2109375 1.734375,-1.16015625 C 4.5351406,-1.6299219 4.5820156,-2.4033594 4.5820156,-3.1885156 Z M 3.7499844,-3.3057031 c 0,0.75 0,1.4179687 -0.1054688,2.0625 -0.1523437,0.93749997 -0.7148437,1.24218747 -1.1601562,1.24218747 -0.3867188,0 -0.984375,-0.24609375 -1.1601563,-1.20703127 -0.1054687,-0.5976562 -0.1054687,-1.5117187 -0.1054687,-2.0976562 0,-0.6445313 0,-1.3007813 0.082031,-1.8398438 0.1875,-1.1835937 0.9257813,-1.265625 1.1835938,-1.265625 0.328125,0 0.984375,0.1757813 1.171875,1.1601563 0.09375,0.5625 0.09375,1.3125 0.09375,1.9453125 z m 0,0"
       style="fill:#000000;fill-opacity:1;fill-rule:nonzero;stroke:none"
       aria-label="0"
       transform="matrix(1.3333333,0,0,1.3333333,50.445333,58.946667)" />
    <path
       id="path23"
       d="m 29.76399,-30.54881 h 19.84268 v 13.27634 H 29.76399 Z"
       style="fill:none;stroke:#000000;stroke-width:0.3985;stroke-linecap:butt;stroke-linejoin:miter;stroke-miterlimit:10;stroke-dasharray:none;stroke-opacity:1"
       transform="matrix(1.3333333,0,0,-1.3333333,27.309333,22.788)" />
    <path
       id="path24"
       d="M 2.7544609,-1.8619688 V -2.4361875 H 0.10602344 v 0.5742187 z m 4.734375,1.8632813 V -0.303375 H 7.1724297 c -0.9023438,0 -0.9257813,-0.1171875 -0.9257813,-0.48046875 V -6.3736875 c 0,-0.234375 0,-0.2578125 -0.234375,-0.2578125 -0.609375,0.6328125 -1.4882812,0.6328125 -1.8046875,0.6328125 v 0.3164062 c 0.1992188,0 0.7851563,0 1.3007813,-0.2578125 v 5.15625005 c 0,0.3515625 -0.035156,0.48046875 -0.9257813,0.48046875 H 4.2661797 v 0.3046875 c 0.3515625,-0.03515625 1.2070312,-0.03515625 1.6054687,-0.03515625 0.3984375,0 1.265625,0 1.6171875,0.03515625 z m 0,0"
       style="fill:#000000;fill-opacity:1;fill-rule:nonzero;stroke:none"
       aria-label="-1"
       transform="matrix(1.3333333,0,0,1.3333333,74.690667,59.092)" />
    <path
       id="path25"
       d="m 9.92133,-54.76718 h 19.84268 v 13.8918 H 9.92133 Z"
       style="fill:none;stroke:#000000;stroke-width:0.3985;stroke-linecap:butt;stroke-linejoin:miter;stroke-miterlimit:10;stroke-dasharray:none;stroke-opacity:1"
       transform="matrix(1.3333333,0,0,-1.3333333,27.309333,22.788)" />
    <g
       id="g25"
       aria-label="−2"
       transform="matrix(1.3333333,0,0,1.3333333,45.28,90.276)">
      <path
         id="path26"
         d="m 6.5634375,-2.2958672 c 0.1757812,0 0.3515625,0 0.3515625,-0.1992187 0,-0.1992188 -0.1757813,-0.1992188 -0.3515625,-0.1992188 h -5.390625 c -0.1640625,0 -0.33984375,0 -0.33984375,0.1992188 0,0.1992187 0.17578125,0.1992187 0.33984375,0.1992187 z m 0,0"
         style="fill:#000000;fill-opacity:1;fill-rule:nonzero;stroke:none" />
      <path
         id="path27"
         d="M 9.0126562,-0.76071094 10.067344,-1.7919609 c 1.558593,-1.3710938 2.15625,-1.9101563 2.15625,-2.90625 0,-1.1367188 -0.902344,-1.9335938 -2.121094,-1.9335938 -1.125,0 -1.8515625,0.9140625 -1.8515625,1.8046875 0,0.5507813 0.4921875,0.5507813 0.5273437,0.5507813 0.1640625,0 0.515625,-0.1171875 0.515625,-0.5273438 0,-0.2578125 -0.1875,-0.515625 -0.5273437,-0.515625 -0.082031,0 -0.1054688,0 -0.1289063,0.011719 0.2226563,-0.6445313 0.7617188,-1.0195313 1.3359375,-1.0195313 0.9140623,0 1.3359373,0.8085938 1.3359373,1.6289063 0,0.796875 -0.492187,1.5820312 -1.042969,2.203125 L 8.3564062,-0.36227344 C 8.2509375,-0.25680469 8.2509375,-0.23336719 8.2509375,0.00100781 h 3.6914065 l 0.28125,-1.73437501 h -0.257813 c -0.04687,0.3046875 -0.117187,0.73828126 -0.210937,0.89062501 -0.07031,0.0820313 -0.726563,0.0820313 -0.949219,0.0820313 z m 0,0"
         style="fill:#000000;fill-opacity:1;fill-rule:nonzero;stroke:none" />
    </g>
    <path
       id="path28"
       d="M 29.73732,-54.56903 H 49.58 v 13.49548 H 29.73732 Z"
       style="fill:none;stroke:#000000;stroke-width:0.3985;stroke-linecap:butt;stroke-linejoin:miter;stroke-miterlimit:10;stroke-dasharray:none;stroke-opacity:1"
       transform="matrix(1.3333333,0,0,-1.3333333,27.309333,22.788)" />
    <path
       id="path29"
       d="m 4.5824219,-3.1864063 c 0,-0.796875 -0.046875,-1.59375 -0.3984375,-2.3320312 -0.4570313,-0.9609375 -1.2773438,-1.1132813 -1.6875,-1.1132813 -0.5976563,0 -1.3359375,0.2578125 -1.73437503,1.1835938 -0.328125,0.6914062 -0.375,1.4648437 -0.375,2.2617187 0,0.75 0.046875,1.640625 0.4453125,2.4023438 C 1.2660156,0.02453125 1.9925781,0.22375 2.4847656,0.22375 c 0.5390625,0 1.2890625,-0.2109375 1.734375,-1.16015625 C 4.5355469,-1.6278125 4.5824219,-2.40125 4.5824219,-3.1864063 Z M 3.7503906,-3.3035938 c 0,0.75 0,1.4179688 -0.1054687,2.0625 -0.1523438,0.93750005 -0.7148438,1.24218755 -1.1601563,1.24218755 -0.3867187,0 -0.984375,-0.24609375 -1.1601562,-1.20703125 -0.1054688,-0.5976563 -0.1054688,-1.5117188 -0.1054688,-2.0976563 0,-0.6445312 0,-1.3007812 0.082031,-1.8398437 0.1875,-1.1835938 0.9257812,-1.265625 1.1835937,-1.265625 0.328125,0 0.984375,0.1757812 1.171875,1.1601562 0.09375,0.5625 0.09375,1.3125 0.09375,1.9453125 z m 0,0"
       style="fill:#000000;fill-opacity:1;fill-rule:nonzero;stroke:none"
       aria-label="0"
       transform="matrix(1.3333333,0,0,1.3333333,76.866667,90.826667)" />
    <path
       id="path30"
       d="m 49.55333,-54.56903 h 19.84268 v 13.49548 H 49.55333 Z"
       style="fill:none;stroke:#000000;stroke-width:0.3985;stroke-linecap:butt;stroke-linejoin:miter;stroke-miterlimit:10;stroke-dasharray:none;stroke-opacity:1"
       transform="matrix(1.3333333,0,0,-1.3333333,27.309333,22.788)" />
    <path
       id="path31"
       d="m 4.5828281,-3.1864063 c 0,-0.796875 -0.046875,-1.59375 -0.3984375,-2.3320312 -0.4570312,-0.9609375 -1.2773437,-1.1132813 -1.6875,-1.1132813 -0.5976562,0 -1.3359375,0.2578125 -1.73437497,1.1835938 -0.328125,0.6914062 -0.375,1.4648437 -0.375,2.2617187 0,0.75 0.046875,1.640625 0.4453125,2.4023438 C 1.2664219,0.02453125 1.9929844,0.22375 2.4851719,0.22375 c 0.5390625,0 1.2890625,-0.2109375 1.734375,-1.16015625 C 4.5359531,-1.6278125 4.5828281,-2.40125 4.5828281,-3.1864063 Z M 3.7507969,-3.3035938 c 0,0.75 0,1.4179688 -0.1054688,2.0625 -0.1523437,0.93750005 -0.7148437,1.24218755 -1.1601562,1.24218755 -0.3867188,0 -0.984375,-0.24609375 -1.1601563,-1.20703125 -0.1054687,-0.5976563 -0.1054687,-1.5117188 -0.1054687,-2.0976563 0,-0.6445312 0,-1.3007812 0.082031,-1.8398437 0.1875,-1.1835938 0.9257813,-1.265625 1.1835938,-1.265625 0.328125,0 0.984375,0.1757812 1.171875,1.1601562 0.09375,0.5625 0.09375,1.3125 0.09375,1.9453125 z m 0,0"
       style="fill:#000000;fill-opacity:1;fill-rule:nonzero;stroke:none"
       aria-label="0"
       transform="matrix(1.3333333,0,0,1.3333333,103.288,90.826667)" />
    <path
       id="path32"
       d="m 69.36934,-54.56903 h 19.84268 v 13.49548 H 69.36934 Z"
       style="fill:none;stroke:#000000;stroke-width:0.3985;stroke-linecap:butt;stroke-linejoin:miter;stroke-miterlimit:10;stroke-dasharray:none;stroke-opacity:1"
       transform="matrix(1.3333333,0,0,-1.3333333,27.309333,22.788)" />
    <path
       id="path33"
       d="m 4.5832344,-3.1864063 c 0,-0.796875 -0.046875,-1.59375 -0.3984375,-2.3320312 -0.4570313,-0.9609375 -1.2773438,-1.1132813 -1.6875,-1.1132813 -0.5976563,0 -1.3359375,0.2578125 -1.73437502,1.1835938 -0.328125,0.6914062 -0.375,1.4648437 -0.375,2.2617187 0,0.75 0.046875,1.640625 0.4453125,2.4023438 C 1.2668281,0.02453125 1.9933906,0.22375 2.4855781,0.22375 c 0.5390625,0 1.2890625,-0.2109375 1.734375,-1.16015625 C 4.5363594,-1.6278125 4.5832344,-2.40125 4.5832344,-3.1864063 Z M 3.7512031,-3.3035938 c 0,0.75 0,1.4179688 -0.1054687,2.0625 -0.1523438,0.93750005 -0.7148438,1.24218755 -1.1601563,1.24218755 -0.3867187,0 -0.984375,-0.24609375 -1.1601562,-1.20703125 -0.1054688,-0.5976563 -0.1054688,-1.5117188 -0.1054688,-2.0976563 0,-0.6445312 0,-1.3007812 0.082031,-1.8398437 0.1875,-1.1835938 0.9257812,-1.265625 1.1835937,-1.265625 0.328125,0 0.984375,0.1757812 1.171875,1.1601562 0.09375,0.5625 0.09375,1.3125 0.09375,1.9453125 z m 0,0"
       style="fill:#000000;fill-opacity:1;fill-rule:nonzero;stroke:none"
       aria-label="0"
       transform="matrix(1.3333333,0,0,1.3333333,129.70933,90.826667)" />
    <path
       id="path34"
       d="m 89.18535,-54.56903 h 19.84268 v 13.49548 H 89.18535 Z"
       style="fill:none;stroke:#000000;stroke-width:0.3985;stroke-linecap:butt;stroke-linejoin:miter;stroke-miterlimit:10;stroke-dasharray:none;stroke-opacity:1"
       transform="matrix(1.3333333,0,0,-1.3333333,27.309333,22.788)" />
    <path
       id="path35"
       d="m 4.5807109,-3.1864063 c 0,-0.796875 -0.046875,-1.59375 -0.3984375,-2.3320312 -0.4570312,-0.9609375 -1.2773437,-1.1132813 -1.6875,-1.1132813 -0.5976562,0 -1.3359375,0.2578125 -1.73437496,1.1835938 -0.328125,0.6914062 -0.375,1.4648437 -0.375,2.2617187 0,0.75 0.046875,1.640625 0.4453125,2.4023438 C 1.2643047,0.02453125 1.9908672,0.22375 2.4830547,0.22375 c 0.5390625,0 1.2890625,-0.2109375 1.734375,-1.16015625 C 4.5338359,-1.6278125 4.5807109,-2.40125 4.5807109,-3.1864063 Z M 3.7486797,-3.3035938 c 0,0.75 0,1.4179688 -0.1054688,2.0625 -0.1523437,0.93750005 -0.7148437,1.24218755 -1.1601562,1.24218755 -0.3867188,0 -0.984375,-0.24609375 -1.1601563,-1.20703125 -0.1054687,-0.5976563 -0.1054687,-1.5117188 -0.1054687,-2.0976563 0,-0.6445312 0,-1.3007812 0.082031,-1.8398437 0.1875,-1.1835938 0.9257813,-1.265625 1.1835938,-1.265625 0.328125,0 0.984375,0.1757812 1.171875,1.1601562 0.09375,0.5625 0.09375,1.3125 0.09375,1.9453125 z m 0,0"
       style="fill:#000000;fill-opacity:1;fill-rule:nonzero;stroke:none"
       aria-label="0"
       transform="matrix(1.3333333,0,0,1.3333333,156.13067,90.826667)" />
    <path
       id="path36"
       d="m 109.00136,-54.56903 h 19.84268 v 13.49548 h -19.84268 z"
       style="fill:none;stroke:#000000;stroke-width:0.3985;stroke-linecap:butt;stroke-linejoin:miter;stroke-miterlimit:10;stroke-dasharray:none;stroke-opacity:1"
       transform="matrix(1.3333333,0,0,-1.3333333,27.309333,22.788)" />
    <path
       id="path37"
       d="m 4.5811172,-3.1864063 c 0,-0.796875 -0.046875,-1.59375 -0.3984375,-2.3320312 -0.4570313,-0.9609375 -1.2773438,-1.1132813 -1.6875,-1.1132813 -0.5976563,0 -1.3359375,0.2578125 -1.73437501,1.1835938 -0.328125,0.6914062 -0.375,1.4648437 -0.375,2.2617187 0,0.75 0.046875,1.640625 0.4453125,2.4023438 C 1.2647109,0.02453125 1.9912734,0.22375 2.4834609,0.22375 c 0.5390625,0 1.2890625,-0.2109375 1.734375,-1.16015625 C 4.5342422,-1.6278125 4.5811172,-2.40125 4.5811172,-3.1864063 Z M 3.7490859,-3.3035938 c 0,0.75 0,1.4179688 -0.1054687,2.0625 -0.1523438,0.93750005 -0.7148438,1.24218755 -1.1601563,1.24218755 -0.3867187,0 -0.984375,-0.24609375 -1.1601562,-1.20703125 -0.1054688,-0.5976563 -0.1054688,-1.5117188 -0.1054688,-2.0976563 0,-0.6445312 0,-1.3007812 0.082031,-1.8398437 0.1875,-1.1835938 0.9257812,-1.265625 1.1835937,-1.265625 0.328125,0 0.984375,0.1757812 1.171875,1.1601562 0.09375,0.5625 0.09375,1.3125 0.09375,1.9453125 z m 0,0"
       style="fill:#000000;fill-opacity:1;fill-rule:nonzero;stroke:none"
       aria-label="0"
       transform="matrix(1.3333333,0,0,1.3333333,182.552,90.826667)" />
    <path
       id="path38"
       d="m 128.81737,-54.56903 h 19.84268 v 13.49548 h -19.84268 z"
       style="fill:none;stroke:#000000;stroke-width:0.3985;stroke-linecap:butt;stroke-linejoin:miter;stroke-miterlimit:10;stroke-dasharray:none;stroke-opacity:1"
       transform="matrix(1.3333333,0,0,-1.3333333,27.309333,22.788)" />
    <path
       id="path39"
       d="m 4.5815234,-3.1864063 c 0,-0.796875 -0.046875,-1.59375 -0.3984375,-2.3320312 -0.4570312,-0.9609375 -1.2773437,-1.1132813 -1.6875,-1.1132813 -0.5976562,0 -1.3359375,0.2578125 -1.73437496,1.1835938 -0.328125,0.6914062 -0.375,1.4648437 -0.375,2.2617187 0,0.75 0.046875,1.640625 0.4453125,2.4023438 C 1.2651172,0.02453125 1.9916797,0.22375 2.4838672,0.22375 c 0.5390625,0 1.2890625,-0.2109375 1.734375,-1.16015625 C 4.5346484,-1.6278125 4.5815234,-2.40125 4.5815234,-3.1864063 Z M 3.7494922,-3.3035938 c 0,0.75 0,1.4179688 -0.1054688,2.0625 -0.1523437,0.93750005 -0.7148437,1.24218755 -1.1601562,1.24218755 -0.3867188,0 -0.984375,-0.24609375 -1.1601563,-1.20703125 -0.1054687,-0.5976563 -0.1054687,-1.5117188 -0.1054687,-2.0976563 0,-0.6445312 0,-1.3007812 0.082031,-1.8398437 0.1875,-1.1835938 0.9257813,-1.265625 1.1835938,-1.265625 0.328125,0 0.984375,0.1757812 1.171875,1.1601562 0.09375,0.5625 0.09375,1.3125 0.09375,1.9453125 z m 0,0"
       style="fill:#000000;fill-opacity:1;fill-rule:nonzero;stroke:none"
       aria-label="0"
       transform="matrix(1.3333333,0,0,1.3333333,208.97333,90.826667)" />
    <path
       id="path40"
       d="M -10.12059,6.73003 V -54.76828 H 49.77927 V 6.73003 Z"
       style="fill:none;stroke:#ff8000;stroke-width:0.79701;stroke-linecap:butt;stroke-linejoin:miter;stroke-miterlimit:10;stroke-dasharray:2.98883, 2.98883;stroke-dashoffset:0;stroke-opacity:1"
       transform="matrix(1.3333333,0,0,-1.3333333,27.309333,22.788)" />
    <path
       id="path41"
       d="m 2.7421719,-4.2526719 c 0.011719,-0.140625 0.011719,-0.375 -0.2460938,-0.375 -0.1640625,0 -0.2929687,0.1289063 -0.2695312,0.2578125 v 0.1289063 l 0.140625,1.546875 -1.265625,-0.9257813 c -0.09375,-0.058594 -0.11718753,-0.070312 -0.18750003,-0.070312 -0.140625,0 -0.26953125,0.140625 -0.26953125,0.2695313 0,0.1640625 0.10546875,0.1992187 0.19921875,0.2578125 l 1.41796873,0.6679687 -1.37109373,0.6679688 c -0.1640625,0.082031 -0.24609375,0.1289062 -0.24609375,0.2695312 0,0.1523438 0.12890625,0.28125 0.26953125,0.28125 0.0703125,0 0.09375,0 0.33984373,-0.1875 l 1.1132813,-0.8085937 -0.140625,1.67578122 c 0,0.2109375 0.1757812,0.2578125 0.2578125,0.2578125 0.1171875,0 0.2695312,-0.0703125 0.2695312,-0.2578125 L 2.6015469,-2.2722031 3.8788906,-1.3464219 c 0.082031,0.046875 0.1054688,0.070312 0.1757813,0.070312 0.140625,0 0.2695312,-0.140625 0.2695312,-0.28125 0,-0.140625 -0.09375,-0.1992187 -0.2109375,-0.2578125 -0.5976562,-0.2929687 -0.6210937,-0.2929687 -1.40625,-0.6679687 l 1.3828125,-0.6679688 c 0.1523438,-0.070312 0.234375,-0.1171875 0.234375,-0.2695312 0,-0.140625 -0.1289062,-0.2695313 -0.2695312,-0.2695313 -0.070312,0 -0.09375,0 -0.3398438,0.1875 l -1.1132812,0.8085938 z m 0,0"
       style="fill:#ff8000;fill-opacity:1;fill-rule:nonzero;stroke:none"
       aria-label="∗"
       transform="matrix(1.3333333,0,0,1.3333333,50.445333,41.818667)" />
    <path
       id="path42"
       d="m 6.8449219,-3.2576563 c 0.1523437,0 0.3398437,0 0.3398437,-0.1992187 0,-0.1992188 -0.1875,-0.1992188 -0.328125,-0.1992188 H 0.89179687 c -0.140625,0 -0.328125,0 -0.328125,0.1992188 0,0.1992187 0.1875,0.1992187 0.33984375,0.1992187 z m 0.011719,1.9335938 c 0.140625,0 0.328125,0 0.328125,-0.1992188 0,-0.1992187 -0.1875,-0.1992187 -0.3398437,-0.1992187 H 0.90351562 c -0.15234375,0 -0.33984375,0 -0.33984375,0.1992187 0,0.1992188 0.1875,0.1992188 0.328125,0.1992188 z m 0,0"
       style="fill:#ff8000;fill-opacity:1;fill-rule:nonzero;stroke:none"
       aria-label="="
       transform="matrix(1.3333333,0,0,1.3333333,48.6,73.046667)" />
  </g>
</svg>
