<?xml version="1.0" encoding="UTF-8" standalone="no"?>
<!-- Created with Inkscape (http://www.inkscape.org/) -->

<svg
   version="1.1"
   id="svg1"
   width="265.51999"
   height="88.226669"
   viewBox="0 0 265.51999 88.226669"
   sodipodi:docname="02_1D_convolution_done.pdf"
   xmlns:inkscape="http://www.inkscape.org/namespaces/inkscape"
   xmlns:sodipodi="http://sodipodi.sourceforge.net/DTD/sodipodi-0.dtd"
   xmlns="http://www.w3.org/2000/svg"
   xmlns:svg="http://www.w3.org/2000/svg">
  <defs
     id="defs1" />
  <sodipodi:namedview
     id="namedview1"
     pagecolor="#ffffff"
     bordercolor="#666666"
     borderopacity="1.0"
     inkscape:showpageshadow="2"
     inkscape:pageopacity="0.0"
     inkscape:pagecheckerboard="0"
     inkscape:deskcolor="#d1d1d1">
    <inkscape:page
       x="0"
       y="0"
       inkscape:label="1"
       id="page1"
       width="265.51999"
       height="88.226669"
       margin="0"
       bleed="0" />
  </sodipodi:namedview>
  <g
     id="g1"
     inkscape:groupmode="layer"
     inkscape:label="1">
    <path
       id="path1"
       d="M -9.92134,-6.53078 H 9.92134 V 6.53079 H -9.92134 Z"
       style="fill:#bfbfbf;fill-opacity:1;fill-rule:nonzero;stroke:#000000;stroke-width:0.3985;stroke-linecap:butt;stroke-linejoin:miter;stroke-miterlimit:10;stroke-dasharray:2.98883, 2.98883;stroke-dashoffset:0;stroke-opacity:1"
       transform="matrix(1.3333333,0,0,-1.3333333,26.777333,22.788)" />
    <path
       id="path2"
       d="m 4.5828047,-3.1886953 c 0,-0.796875 -0.046875,-1.59375 -0.3984375,-2.3320313 -0.4570313,-0.9609375 -1.2773438,-1.1132812 -1.6875,-1.1132812 -0.5976563,0 -1.3359375,0.2578125 -1.73437501,1.1835937 -0.328125,0.6914063 -0.375,1.4648438 -0.375,2.2617188 0,0.75 0.046875,1.640625 0.4453125,2.40234374 0.43359371,0.80859375 1.16015621,1.0078125 1.65234371,1.0078125 0.5390625,0 1.2890625,-0.2109375 1.734375,-1.16015625 C 4.5359297,-1.6301016 4.5828047,-2.4035391 4.5828047,-3.1886953 Z m -2.0976563,3.18749999 c -0.3867187,0 -0.984375,-0.24609375 -1.1601562,-1.20703129 -0.1054688,-0.5976562 -0.1054688,-1.5117187 -0.1054688,-2.0976562 0,-0.6445313 0,-1.3007813 0.082031,-1.8398438 0.1875,-1.1835937 0.9257812,-1.265625 1.1835937,-1.265625 0.328125,0 0.984375,0.1757813 1.171875,1.1601563 0.09375,0.5625 0.09375,1.3125 0.09375,1.9453125 0,0.75 0,1.4179687 -0.1054687,2.0625 -0.1523438,0.93749999 -0.7148438,1.24218749 -1.160156,1.24218749 z m 0,0"
       style="fill:#000000;fill-opacity:1;fill-rule:nonzero;stroke:none"
       aria-label="0"
       transform="matrix(1.3333333,0,0,1.3333333,23.456,27.068)" />
    <path
       id="path3"
       d="M 9.92133,-6.53078 H 29.76401 V 6.53079 H 9.92133 Z"
       style="fill:none;stroke:#000000;stroke-width:0.3985;stroke-linecap:butt;stroke-linejoin:miter;stroke-miterlimit:10;stroke-dasharray:none;stroke-opacity:1"
       transform="matrix(1.3333333,0,0,-1.3333333,26.777333,22.788)" />
    <path
       id="path4"
       d="m 2.9302344,-6.3761953 c 0,-0.234375 0,-0.2578125 -0.234375,-0.2578125 -0.609375,0.6328125 -1.4882813,0.6328125 -1.80468753,0.6328125 v 0.3164062 c 0.19921873,0 0.78515623,0 1.30078123,-0.2578125 v 5.15625004 c 0,0.3515625 -0.035156,0.48046875 -0.9257812,0.48046875 H 0.94976562 v 0.3046875 C 1.3013281,-0.03635156 2.1567969,-0.03635156 2.5552344,-0.03635156 c 0.3984375,0 1.265625,0 1.6171875,0.03515625 v -0.3046875 H 3.8560156 c -0.9023437,0 -0.9257812,-0.1171875 -0.9257812,-0.48046875 z m 0,0"
       style="fill:#000000;fill-opacity:1;fill-rule:nonzero;stroke:none"
       aria-label="1"
       transform="matrix(1.3333333,0,0,1.3333333,49.913333,27.068)" />
    <path
       id="path5"
       d="M 29.764,-6.53078 H 49.60668 V 6.53079 H 29.764 Z"
       style="fill:none;stroke:#000000;stroke-width:0.3985;stroke-linecap:butt;stroke-linejoin:miter;stroke-miterlimit:10;stroke-dasharray:none;stroke-opacity:1"
       transform="matrix(1.3333333,0,0,-1.3333333,26.777333,22.788)" />
    <path
       id="path6"
       d="M 1.2659453,-0.76291406 2.3206328,-1.7941641 c 1.5585938,-1.3710937 2.15625,-1.9101562 2.15625,-2.90625 0,-1.1367187 -0.9023437,-1.9335937 -2.1210937,-1.9335937 -1.125,0 -1.85156254,0.9140625 -1.85156254,1.8046875 0,0.5507812 0.4921875,0.5507812 0.52734374,0.5507812 0.1640625,0 0.515625,-0.1171875 0.515625,-0.5273437 0,-0.2578125 -0.1875,-0.515625 -0.5273437,-0.515625 -0.0820313,0 -0.10546879,0 -0.12890629,0.011719 C 1.1136016,-5.95432 1.6526641,-6.32932 2.2268828,-6.32932 c 0.9140625,0 1.3359375,0.8085937 1.3359375,1.6289062 0,0.796875 -0.4921875,1.5820313 -1.0429687,2.203125 L 0.60969531,-0.36447656 C 0.50422656,-0.25900781 0.50422656,-0.23557031 0.50422656,-0.00119531 H 4.1956328 l 0.28125,-1.73437499 H 4.2190703 c -0.046875,0.3046875 -0.1171875,0.73828124 -0.2109375,0.89062499 -0.070313,0.0820313 -0.7265625,0.0820313 -0.9492187,0.0820313 z m 0,0"
       style="fill:#000000;fill-opacity:1;fill-rule:nonzero;stroke:none"
       aria-label="2"
       transform="matrix(1.3333333,0,0,1.3333333,76.370667,27.068)" />
    <path
       id="path7"
       d="M 49.60667,-6.53078 H 69.44935 V 6.53079 H 49.60667 Z"
       style="fill:none;stroke:#000000;stroke-width:0.3985;stroke-linecap:butt;stroke-linejoin:miter;stroke-miterlimit:10;stroke-dasharray:none;stroke-opacity:1"
       transform="matrix(1.3333333,0,0,-1.3333333,26.777333,22.788)" />
    <path
       id="path8"
       d="m 2.895625,-3.5051016 c 0.8085937,-0.2695312 1.3945312,-0.9726562 1.3945312,-1.7578125 0,-0.8203125 -0.8789062,-1.3710937 -1.8398437,-1.3710937 -1.0078125,0 -1.7578125,0.5976562 -1.7578125,1.3476562 0,0.3398438 0.2109375,0.5273438 0.5039062,0.5273438 0.3046875,0 0.5039063,-0.2226563 0.5039063,-0.515625 0,-0.4921875 -0.46875,-0.4921875 -0.609375,-0.4921875 0.3046875,-0.4921875 0.9609375,-0.6210938 1.3242187,-0.6210938 0.4101563,0 0.9492188,0.2226563 0.9492188,1.1132813 0,0.1289062 -0.011719,0.703125 -0.2695313,1.1367187 -0.3046875,0.4804688 -0.6445312,0.515625 -0.890625,0.515625 -0.082031,0.011719 -0.3164062,0.035156 -0.3867187,0.035156 -0.082031,0.011719 -0.1523438,0.023437 -0.1523438,0.1171875 0,0.1171875 0.070312,0.1171875 0.234375,0.1171875 h 0.4453125 c 0.8085938,0 1.1835938,0.6679687 1.1835938,1.6523437 0,1.34765629 -0.6914063,1.64062504 -1.125,1.64062504 -0.4335938,0 -1.171875,-0.17578125 -1.5234375,-0.76171875 0.3515625,0.0585938 0.65625,-0.1640625 0.65625,-0.53906249 0,-0.3632813 -0.2695313,-0.5625 -0.5625,-0.5625 -0.234375,0 -0.55078125,0.140625 -0.55078125,0.5742187 0,0.91406254 0.92578125,1.57031254 2.00390625,1.57031254 1.21875,0 2.1210937,-0.9140625 2.1210937,-1.92187504 0,-0.8203125 -0.6210937,-1.59375 -1.6523437,-1.8046872 z m 0,0"
       style="fill:#000000;fill-opacity:1;fill-rule:nonzero;stroke:none"
       aria-label="3"
       transform="matrix(1.3333333,0,0,1.3333333,102.82667,27.068)" />
    <path
       id="path9"
       d="M 69.44937,-6.53078 H 89.29205 V 6.53079 H 69.44937 Z"
       style="fill:none;stroke:#000000;stroke-width:0.3985;stroke-linecap:butt;stroke-linejoin:miter;stroke-miterlimit:10;stroke-dasharray:none;stroke-opacity:1"
       transform="matrix(1.3333333,0,0,-1.3333333,26.777333,22.788)" />
    <path
       id="path10"
       d="m 2.9305547,-1.6418203 v 0.86718749 c 0,0.3515625 -0.023437,0.46875 -0.7617188,0.46875 H 1.9578984 v 0.3046875 c 0.4101563,-0.03515625 0.9375,-0.03515625 1.3476563,-0.03515625 0.421875,0 0.9492187,0 1.359375,0.03515625 v -0.3046875 H 4.4539922 c -0.7382813,0 -0.7617188,-0.1171875 -0.7617188,-0.46875 V -1.6418203 H 4.6883672 V -1.9582266 H 3.6922734 v -4.5234375 c 0,-0.1992187 0,-0.2578125 -0.1523437,-0.2578125 -0.09375,0 -0.1171875,0 -0.1992188,0.1171875 l -3.05859371,4.6640625 v 0.3164063 z m 0.058594,-0.3164063 H 0.56336719 L 2.9891484,-5.6730703 Z m 0,0"
       style="fill:#000000;fill-opacity:1;fill-rule:nonzero;stroke:none"
       aria-label="4"
       transform="matrix(1.3333333,0,0,1.3333333,129.284,27.068)" />
    <path
       id="path11"
       d="m 89.29205,-6.53078 h 19.84268 V 6.53079 H 89.29205 Z"
       style="fill:none;stroke:#000000;stroke-width:0.3985;stroke-linecap:butt;stroke-linejoin:miter;stroke-miterlimit:10;stroke-dasharray:none;stroke-opacity:1"
       transform="matrix(1.3333333,0,0,-1.3333333,26.777333,22.788)" />
    <path
       id="path12"
       d="m 4.4772031,-2.0051016 c 0,-1.1835937 -0.8203125,-2.1796875 -1.8984375,-2.1796875 -0.4804687,0 -0.9023437,0.1640625 -1.265625,0.5039063 v -1.9335938 c 0.1992188,0.058594 0.5273438,0.1289063 0.84375,0.1289063 1.2304688,0 1.9335938,-0.9140625 1.9335938,-1.0429688 0,-0.058594 -0.035156,-0.1054687 -0.1054688,-0.1054687 -0.011719,0 -0.035156,0 -0.082031,0.023437 -0.1992188,0.09375 -0.6796875,0.2929687 -1.3476563,0.2929687 -0.3984375,0 -0.8554687,-0.070312 -1.3242187,-0.28125 -0.082031,-0.023437 -0.1054688,-0.023437 -0.1289063,-0.023437 -0.09375,0 -0.09375,0.082031 -0.09375,0.234375 v 2.953125 c 0,0.1757813 0,0.2578125 0.140625,0.2578125 0.070312,0 0.082031,-0.035156 0.1289063,-0.09375 0.1054687,-0.1523437 0.4804687,-0.6914062 1.2773437,-0.6914062 0.5273438,0 0.7734375,0.4570312 0.8554688,0.6328125 0.1523437,0.375 0.1757812,0.7617187 0.1757812,1.2539062 0,0.3515625 0,0.9492188 -0.234375,1.37109379 -0.2460937,0.38671875 -0.609375,0.64453125 -1.0664062,0.64453125 -0.7265625,0 -1.30078127,-0.52734375 -1.46484377,-1.11328124 0.0234375,0.011719 0.0585938,0.011719 0.1640625,0.011719 0.32812497,0 0.50390627,-0.2460937 0.50390627,-0.4804687 0,-0.2460938 -0.1757813,-0.4921875 -0.50390627,-0.4921875 -0.140625,0 -0.48046875,0.070312 -0.48046875,0.5273437 0,0.85546879 0.67968752,1.82812504 1.79296872,1.82812504 1.1601563,0 2.1796875,-0.9609375 2.1796873,-2.22656284 z m 0,0"
       style="fill:#000000;fill-opacity:1;fill-rule:nonzero;stroke:none"
       aria-label="5"
       transform="matrix(1.3333333,0,0,1.3333333,155.74133,27.068)" />
    <path
       id="path13"
       d="M 109.13472,-6.53078 H 128.9774 V 6.53079 h -19.84268 z"
       style="fill:none;stroke:#000000;stroke-width:0.3985;stroke-linecap:butt;stroke-linejoin:miter;stroke-miterlimit:10;stroke-dasharray:none;stroke-opacity:1"
       transform="matrix(1.3333333,0,0,-1.3333333,26.777333,22.788)" />
    <path
       id="path14"
       d="m 1.3139141,-3.2707266 v -0.234375 c 0,-2.5195312 1.2421875,-2.8828125 1.7460937,-2.8828125 0.234375,0 0.65625,0.058594 0.8789063,0.3984375 -0.1523438,0 -0.5507813,0 -0.5507813,0.4453125 0,0.3164063 0.234375,0.4570313 0.4570313,0.4570313 0.1640625,0 0.4570312,-0.082031 0.4570312,-0.46875 0,-0.5976563 -0.4335937,-1.078125 -1.265625,-1.078125 -1.2773437,0 -2.61328124,1.2890625 -2.61328124,3.4804687 0,2.66015629 1.14843754,3.37500004 2.07421874,3.37500004 1.1132813,0 2.0507813,-0.9375 2.0507813,-2.25000004 0,-1.265625 -0.8789063,-2.2265625 -1.9921875,-2.2265625 -0.6679688,0 -1.0429688,0.5039063 -1.2421875,0.984375 z m 1.1835937,3.21093754 c -0.6210937,0 -0.9257812,-0.59765625 -0.984375,-0.75 C 1.3373516,-1.2785391 1.3373516,-2.0754141 1.3373516,-2.2511953 c 0,-0.7734375 0.3164062,-1.7695313 1.21875,-1.7695313 0.1523437,0 0.609375,0 0.9257812,0.609375 0.1757813,0.375 0.1757813,0.8789063 0.1757813,1.3710938 0,0.4804687 0,0.9726562 -0.1640625,1.33593749 -0.3046875,0.59765625 -0.7617188,0.64453125 -0.9960938,0.64453125 z m 0,0"
       style="fill:#000000;fill-opacity:1;fill-rule:nonzero;stroke:none"
       aria-label="6"
       transform="matrix(1.3333333,0,0,1.3333333,182.19733,27.068)" />
    <path
       id="path15"
       d="m 128.9774,-6.53078 h 19.84268 V 6.53079 H 128.9774 Z"
       style="fill:none;stroke:#000000;stroke-width:0.3985;stroke-linecap:butt;stroke-linejoin:miter;stroke-miterlimit:10;stroke-dasharray:none;stroke-opacity:1"
       transform="matrix(1.3333333,0,0,-1.3333333,26.777333,22.788)" />
    <path
       id="path16"
       d="m 4.7472812,-6.0715078 c 0.082031,-0.1171875 0.082031,-0.140625 0.082031,-0.3398438 H 2.41525 c -1.21875,0 -1.2421875,-0.1289062 -1.2773438,-0.328125 H 0.8918125 l -0.328125,2.0507813 h 0.24609375 c 0.0234375,-0.1523438 0.1171875,-0.7851563 0.24609375,-0.9023438 0.070312,-0.058594 0.84375,-0.058594 0.9726562,-0.058594 h 2.0625 C 3.9855625,-5.4855703 3.2004062,-4.4074453 2.97775,-4.0793203 2.087125,-2.7316641 1.759,-1.3488516 1.759,-0.32932031 c 0,0.09375 0,0.55078125 0.4570312,0.55078125 0.4570313,0 0.4570313,-0.45703125 0.4570313,-0.55078125 v -0.50390625 c 0,-0.55078124 0.023437,-1.10156254 0.1054687,-1.64062504 0.046875,-0.2226562 0.1757813,-1.078125 0.6210938,-1.6992187 z m 0,0"
       style="fill:#000000;fill-opacity:1;fill-rule:nonzero;stroke:none"
       aria-label="7"
       transform="matrix(1.3333333,0,0,1.3333333,208.65467,27.068)" />
    <path
       id="path17"
       d="m 148.82008,-6.53078 h 19.84268 V 6.53079 h -19.84268 z"
       style="fill:#bfbfbf;fill-opacity:1;fill-rule:nonzero;stroke:#000000;stroke-width:0.3985;stroke-linecap:butt;stroke-linejoin:miter;stroke-miterlimit:10;stroke-dasharray:2.98883, 2.98883;stroke-dashoffset:0;stroke-opacity:1"
       transform="matrix(1.3333333,0,0,-1.3333333,26.777333,22.788)" />
    <path
       id="path18"
       d="m 4.5829922,-3.1886953 c 0,-0.796875 -0.046875,-1.59375 -0.3984375,-2.3320313 -0.4570313,-0.9609375 -1.2773438,-1.1132812 -1.6875,-1.1132812 -0.5976563,0 -1.3359375,0.2578125 -1.73437501,1.1835937 -0.328125,0.6914063 -0.375,1.4648438 -0.375,2.2617188 0,0.75 0.046875,1.640625 0.4453125,2.40234374 0.43359371,0.80859375 1.16015621,1.0078125 1.65234371,1.0078125 0.5390625,0 1.2890625,-0.2109375 1.734375,-1.16015625 C 4.5361172,-1.6301016 4.5829922,-2.4035391 4.5829922,-3.1886953 Z m -2.0976563,3.18749999 c -0.3867187,0 -0.984375,-0.24609375 -1.1601562,-1.20703129 -0.1054688,-0.5976562 -0.1054688,-1.5117187 -0.1054688,-2.0976562 0,-0.6445313 0,-1.3007813 0.082031,-1.8398438 0.1875,-1.1835937 0.9257812,-1.265625 1.1835937,-1.265625 0.328125,0 0.984375,0.1757813 1.171875,1.1601563 0.09375,0.5625 0.09375,1.3125 0.09375,1.9453125 0,0.75 0,1.4179687 -0.1054687,2.0625 -0.1523438,0.93749999 -0.7148438,1.24218749 -1.160156,1.24218749 z m 0,0"
       style="fill:#000000;fill-opacity:1;fill-rule:nonzero;stroke:none"
       aria-label="0"
       transform="matrix(1.3333333,0,0,1.3333333,235.112,27.068)" />
    <path
       id="path19"
       d="M 109.13472,-22.5786 H 128.9774 V -9.30226 H 109.13472 Z"
       style="fill:none;stroke:#000000;stroke-width:0.3985;stroke-linecap:butt;stroke-linejoin:miter;stroke-miterlimit:10;stroke-dasharray:none;stroke-opacity:1"
       transform="matrix(1.3333333,0,0,-1.3333333,26.777333,22.788)" />
    <path
       id="path20"
       d="M 4.1732891,-3.671875e-4 V -0.30505469 H 3.8568828 c -0.9023437,0 -0.9257812,-0.1171875 -0.9257812,-0.48046875 V -6.3753672 c 0,-0.234375 0,-0.2578125 -0.234375,-0.2578125 -0.609375,0.6328125 -1.4882813,0.6328125 -1.80468754,0.6328125 v 0.3164063 c 0.19921874,0 0.78515624,0 1.30078124,-0.2578125 v 5.15624996 c 0,0.3515625 -0.035156,0.48046875 -0.9257812,0.48046875 H 0.95063281 V -3.671875e-4 C 1.3021953,-0.03552344 2.1576641,-0.03552344 2.5561016,-0.03552344 c 0.3984375,0 1.265625,0 1.6171875,0.0351562525 z m 0,0"
       style="fill:#000000;fill-opacity:1;fill-rule:nonzero;stroke:none"
       aria-label="1"
       transform="matrix(1.3333333,0,0,1.3333333,182.19733,48.465333)" />
    <path
       id="path21"
       d="m 128.97739,-22.68817 h 19.84268 v 13.49548 h -19.84268 z"
       style="fill:none;stroke:#000000;stroke-width:0.3985;stroke-linecap:butt;stroke-linejoin:miter;stroke-miterlimit:10;stroke-dasharray:none;stroke-opacity:1"
       transform="matrix(1.3333333,0,0,-1.3333333,26.777333,22.788)" />
    <path
       id="path22"
       d="m 4.5832187,-3.1862656 c 0,-0.796875 -0.046875,-1.59375 -0.3984375,-2.3320313 -0.4570312,-0.9609375 -1.2773437,-1.1132812 -1.6875,-1.1132812 -0.5976562,0 -1.3359375,0.2578125 -1.73437495,1.1835937 -0.328125,0.6914063 -0.375,1.4648438 -0.375,2.2617188 0,0.75 0.046875,1.640625 0.4453125,2.40234373 0.43359375,0.80859375 1.16015625,1.0078125 1.65234375,1.0078125 0.5390625,0 1.2890625,-0.2109375 1.734375,-1.16015625 C 4.5363437,-1.6276719 4.5832187,-2.4011094 4.5832187,-3.1862656 Z M 3.7511875,-3.3034531 c 0,0.75 0,1.4179687 -0.1054688,2.0625 -0.1523437,0.93749998 -0.7148437,1.24218748 -1.1601562,1.24218748 -0.3867188,0 -0.984375,-0.24609375 -1.1601563,-1.20703128 -0.1054687,-0.5976562 -0.1054687,-1.5117187 -0.1054687,-2.0976562 0,-0.6445313 0,-1.3007813 0.082031,-1.8398438 0.1875,-1.1835937 0.9257813,-1.265625 1.1835938,-1.265625 0.328125,0 0.984375,0.1757813 1.171875,1.1601563 0.09375,0.5625 0.09375,1.3125 0.09375,1.9453125 z m 0,0"
       style="fill:#000000;fill-opacity:1;fill-rule:nonzero;stroke:none"
       aria-label="0"
       transform="matrix(1.3333333,0,0,1.3333333,208.65467,48.318667)" />
    <path
       id="path23"
       d="m 148.82007,-22.5786 h 19.84268 v 13.27634 h -19.84268 z"
       style="fill:none;stroke:#000000;stroke-width:0.3985;stroke-linecap:butt;stroke-linejoin:miter;stroke-miterlimit:10;stroke-dasharray:none;stroke-opacity:1"
       transform="matrix(1.3333333,0,0,-1.3333333,26.777333,22.788)" />
    <path
       id="path24"
       d="M 2.7527344,-1.8636484 V -2.4378672 H 0.10429688 v 0.5742188 z M 7.4900391,-3.671875e-4 V -0.30505469 H 7.1736328 c -0.9023437,0 -0.9257812,-0.1171875 -0.9257812,-0.48046875 V -6.3753672 c 0,-0.234375 0,-0.2578125 -0.234375,-0.2578125 -0.609375,0.6328125 -1.4882813,0.6328125 -1.8046875,0.6328125 v 0.3164063 c 0.1992187,0 0.7851562,0 1.3007812,-0.2578125 v 5.15624996 c 0,0.3515625 -0.035156,0.48046875 -0.9257812,0.48046875 H 4.2673828 V -3.671875e-4 C 4.6189453,-0.03552344 5.4744141,-0.03552344 5.8728516,-0.03552344 c 0.3984375,0 1.265625,0 1.6171875,0.0351562525 z m 0,0"
       style="fill:#000000;fill-opacity:1;fill-rule:nonzero;stroke:none"
       aria-label="-1"
       transform="matrix(1.3333333,0,0,1.3333333,232.9,48.465333)" />
    <path
       id="path25"
       d="m 9.92133,-38.51903 h 19.84268 v 13.27634 H 9.92133 Z"
       style="fill:none;stroke:#000000;stroke-width:0.3985;stroke-linecap:butt;stroke-linejoin:miter;stroke-miterlimit:10;stroke-dasharray:none;stroke-opacity:1"
       transform="matrix(1.3333333,0,0,-1.3333333,26.777333,22.788)" />
    <path
       id="path26"
       d="M 2.75525,-1.8632187 V -2.4374375 H 0.1068125 v 0.5742188 z m 5.0390625,0.1289062 H 7.5365 C 7.489625,-1.429625 7.4193125,-0.99603125 7.3255625,-0.8436875 7.25525,-0.76165625 6.599,-0.76165625 6.3763437,-0.76165625 H 4.583375 L 5.6380625,-1.7929062 c 1.5585937,-1.3710938 2.15625,-1.9101563 2.15625,-2.90625 0,-1.1367188 -0.9023438,-1.9335938 -2.1210938,-1.9335938 -1.125,0 -1.8515625,0.9140625 -1.8515625,1.8046875 0,0.5507813 0.4921875,0.5507813 0.5273438,0.5507813 0.1640625,0 0.515625,-0.1171875 0.515625,-0.5273438 0,-0.2578125 -0.1875,-0.515625 -0.5273438,-0.515625 -0.082031,0 -0.1054687,0 -0.1289062,0.011719 0.2226562,-0.6445313 0.7617187,-1.0195313 1.3359375,-1.0195313 0.9140625,0 1.3359375,0.8085938 1.3359375,1.6289063 0,0.796875 -0.4921875,1.5820312 -1.0429688,2.203125 L 3.927125,-0.36321875 C 3.8216562,-0.25775 3.8216562,-0.2343125 3.8216562,6.25e-5 h 3.6914063 z m 0,0"
       style="fill:#000000;fill-opacity:1;fill-rule:nonzero;stroke:none"
       aria-label="-2"
       transform="matrix(1.3333333,0,0,1.3333333,47.701333,69.718667)" />
    <path
       id="path27"
       d="M 29.73732,-38.51903 H 49.58 v 13.27634 H 29.73732 Z"
       style="fill:none;stroke:#000000;stroke-width:0.3985;stroke-linecap:butt;stroke-linejoin:miter;stroke-miterlimit:10;stroke-dasharray:none;stroke-opacity:1"
       transform="matrix(1.3333333,0,0,-1.3333333,26.777333,22.788)" />
    <path
       id="path28"
       d="M 2.7527266,-1.8632187 V -2.4374375 H 0.10428906 v 0.5742188 z m 5.0419922,0.1289062 H 7.5369063 C 7.4900313,-1.429625 7.4197188,-0.99603125 7.3259688,-0.8436875 7.2556568,-0.7616562 6.5994063,-0.7616562 6.37675,-0.7616562 H 4.5837813 l 1.0546875,-1.03125 c 1.5585937,-1.3710938 2.15625,-1.9101563 2.15625,-2.90625 0,-1.1367188 -0.9023438,-1.9335938 -2.1210938,-1.9335938 -1.125,0 -1.8515625,0.9140625 -1.8515625,1.8046875 0,0.5507813 0.4921875,0.5507813 0.5273438,0.5507813 0.1640625,0 0.515625,-0.1171875 0.515625,-0.5273438 0,-0.2578125 -0.1875,-0.515625 -0.5273438,-0.515625 -0.082031,0 -0.1054687,0 -0.1289062,0.011719 0.2226562,-0.6445313 0.7617187,-1.0195313 1.3359375,-1.0195313 0.9140625,0 1.3359375,0.8085938 1.3359375,1.6289063 0,0.796875 -0.4921875,1.5820312 -1.0429688,2.203125 L 3.9275313,-0.36321875 C 3.8220625,-0.25775 3.8220625,-0.2343125 3.8220625,6.25e-5 h 3.6914063 z m 0,0"
       style="fill:#000000;fill-opacity:1;fill-rule:nonzero;stroke:none"
       aria-label="-2"
       transform="matrix(1.3333333,0,0,1.3333333,74.122667,69.718667)" />
    <path
       id="path29"
       d="m 49.55333,-38.51903 h 19.84268 v 13.27634 H 49.55333 Z"
       style="fill:none;stroke:#000000;stroke-width:0.3985;stroke-linecap:butt;stroke-linejoin:miter;stroke-miterlimit:10;stroke-dasharray:none;stroke-opacity:1"
       transform="matrix(1.3333333,0,0,-1.3333333,26.777333,22.788)" />
    <path
       id="path30"
       d="M 2.7531328,-1.8632187 V -2.4374375 H 0.10469531 v 0.5742188 z M 7.795125,-1.7343125 H 7.5373125 C 7.4904375,-1.429625 7.420125,-0.99603125 7.326375,-0.8436875 7.256063,-0.7616562 6.5998125,-0.7616562 6.3771562,-0.7616562 H 4.5841875 l 1.0546875,-1.03125 c 1.5585937,-1.3710938 2.15625,-1.9101563 2.15625,-2.90625 0,-1.1367188 -0.9023438,-1.9335938 -2.1210938,-1.9335938 -1.125,0 -1.8515625,0.9140625 -1.8515625,1.8046875 0,0.5507813 0.4921875,0.5507813 0.5273438,0.5507813 0.1640625,0 0.515625,-0.1171875 0.515625,-0.5273438 0,-0.2578125 -0.1875,-0.515625 -0.5273438,-0.515625 -0.082031,0 -0.1054687,0 -0.1289062,0.011719 0.2226562,-0.6445313 0.7617187,-1.0195313 1.3359375,-1.0195313 0.9140625,0 1.3359375,0.8085938 1.3359375,1.6289063 0,0.796875 -0.4921875,1.5820312 -1.0429688,2.203125 L 3.9279375,-0.36321875 C 3.8224687,-0.25775 3.8224687,-0.2343125 3.8224687,6.25e-5 H 7.513875 Z m 0,0"
       style="fill:#000000;fill-opacity:1;fill-rule:nonzero;stroke:none"
       aria-label="-2"
       transform="matrix(1.3333333,0,0,1.3333333,100.544,69.718667)" />
    <path
       id="path31"
       d="m 69.36934,-38.51903 h 19.84268 v 13.27634 H 69.36934 Z"
       style="fill:none;stroke:#000000;stroke-width:0.3985;stroke-linecap:butt;stroke-linejoin:miter;stroke-miterlimit:10;stroke-dasharray:none;stroke-opacity:1"
       transform="matrix(1.3333333,0,0,-1.3333333,26.777333,22.788)" />
    <path
       id="path32"
       d="M 2.7535391,-1.8632187 V -2.4374375 H 0.10510156 v 0.5742188 z m 5.0419921,0.1289062 H 7.5377187 c -0.046875,0.3046875 -0.1171875,0.73828125 -0.2109375,0.890625 -0.070312,0.0820313 -0.7265625,0.0820313 -0.9492187,0.0820313 H 4.5845937 l 1.0546875,-1.03125 c 1.5585938,-1.3710938 2.15625,-1.9101563 2.15625,-2.90625 0,-1.1367188 -0.9023437,-1.9335938 -2.1210937,-1.9335938 -1.125,0 -1.8515625,0.9140625 -1.8515625,1.8046875 0,0.5507813 0.4921875,0.5507813 0.5273437,0.5507813 0.1640625,0 0.515625,-0.1171875 0.515625,-0.5273438 0,-0.2578125 -0.1875,-0.515625 -0.5273437,-0.515625 -0.082031,0 -0.1054688,0 -0.1289063,0.011719 0.2226563,-0.6445313 0.7617188,-1.0195313 1.3359375,-1.0195313 0.9140625,0 1.3359375,0.8085938 1.3359375,1.6289063 0,0.796875 -0.4921875,1.5820312 -1.0429687,2.203125 L 3.9283437,-0.36321875 C 3.822875,-0.25775 3.822875,-0.2343125 3.822875,6.25e-5 h 3.6914062 z m 0,0"
       style="fill:#000000;fill-opacity:1;fill-rule:nonzero;stroke:none"
       aria-label="-2"
       transform="matrix(1.3333333,0,0,1.3333333,126.96533,69.718667)" />
    <path
       id="path33"
       d="m 89.18535,-38.51903 h 19.84268 v 13.27634 H 89.18535 Z"
       style="fill:none;stroke:#000000;stroke-width:0.3985;stroke-linecap:butt;stroke-linejoin:miter;stroke-miterlimit:10;stroke-dasharray:none;stroke-opacity:1"
       transform="matrix(1.3333333,0,0,-1.3333333,26.777333,22.788)" />
    <path
       id="path34"
       d="M 2.7539453,-1.8632187 V -2.4374375 H 0.10550781 v 0.5742188 z m 5.0390625,0.1289062 H 7.5351953 c -0.046875,0.3046875 -0.1171875,0.73828125 -0.2109375,0.890625 -0.070312,0.0820313 -0.7265625,0.0820313 -0.9492187,0.0820313 H 4.5820703 l 1.0546875,-1.03125 c 1.5585938,-1.3710938 2.15625,-1.9101563 2.15625,-2.90625 0,-1.1367188 -0.9023437,-1.9335938 -2.1210937,-1.9335938 -1.125,0 -1.8515625,0.9140625 -1.8515625,1.8046875 0,0.5507813 0.4921875,0.5507813 0.5273437,0.5507813 0.1640625,0 0.515625,-0.1171875 0.515625,-0.5273438 0,-0.2578125 -0.1875,-0.515625 -0.5273437,-0.515625 -0.082031,0 -0.1054688,0 -0.1289063,0.011719 0.2226563,-0.6445313 0.7617188,-1.0195313 1.3359375,-1.0195313 0.9140625,0 1.3359375,0.8085938 1.3359375,1.6289063 0,0.796875 -0.4921875,1.5820312 -1.0429687,2.203125 L 3.9258203,-0.36321875 C 3.8203516,-0.25775 3.8203516,-0.2343125 3.8203516,6.25e-5 h 3.6914062 z m 0,0"
       style="fill:#000000;fill-opacity:1;fill-rule:nonzero;stroke:none"
       aria-label="-2"
       transform="matrix(1.3333333,0,0,1.3333333,153.38667,69.718667)" />
    <path
       id="path35"
       d="m 109.00136,-38.51903 h 19.84268 v 13.27634 h -19.84268 z"
       style="fill:none;stroke:#000000;stroke-width:0.3985;stroke-linecap:butt;stroke-linejoin:miter;stroke-miterlimit:10;stroke-dasharray:none;stroke-opacity:1"
       transform="matrix(1.3333333,0,0,-1.3333333,26.777333,22.788)" />
    <path
       id="path36"
       d="M 2.7543516,-1.8632187 V -2.4374375 H 0.10591406 v 0.5742188 z m 5.0390625,0.1289062 H 7.5356016 c -0.046875,0.3046875 -0.1171875,0.73828125 -0.2109375,0.890625 -0.070312,0.0820313 -0.7265625,0.0820313 -0.9492188,0.0820313 H 4.5824766 l 1.0546875,-1.03125 c 1.5585937,-1.3710938 2.15625,-1.9101563 2.15625,-2.90625 0,-1.1367188 -0.9023438,-1.9335938 -2.1210938,-1.9335938 -1.125,0 -1.8515625,0.9140625 -1.8515625,1.8046875 0,0.5507813 0.4921875,0.5507813 0.5273438,0.5507813 0.1640625,0 0.515625,-0.1171875 0.515625,-0.5273438 0,-0.2578125 -0.1875,-0.515625 -0.5273438,-0.515625 -0.082031,0 -0.1054687,0 -0.1289062,0.011719 0.2226562,-0.6445313 0.7617187,-1.0195313 1.3359375,-1.0195313 0.9140625,0 1.3359375,0.8085938 1.3359375,1.6289063 0,0.796875 -0.4921875,1.5820312 -1.0429688,2.203125 L 3.9262266,-0.36321875 C 3.8207578,-0.25775 3.8207578,-0.2343125 3.8207578,6.25e-5 h 3.6914063 z m 0,0"
       style="fill:#000000;fill-opacity:1;fill-rule:nonzero;stroke:none"
       aria-label="-2"
       transform="matrix(1.3333333,0,0,1.3333333,179.808,69.718667)" />
    <path
       id="path37"
       d="m 128.81737,-38.51903 h 19.84268 v 13.27634 h -19.84268 z"
       style="fill:none;stroke:#000000;stroke-width:0.3985;stroke-linecap:butt;stroke-linejoin:miter;stroke-miterlimit:10;stroke-dasharray:none;stroke-opacity:1"
       transform="matrix(1.3333333,0,0,-1.3333333,26.777333,22.788)" />
    <path
       id="path38"
       d="M 2.7547578,-1.8632187 V -2.4374375 H 0.10632031 v 0.5742188 z m 5.0390625,0.1289062 H 7.5360078 c -0.046875,0.3046875 -0.1171875,0.73828125 -0.2109375,0.890625 -0.070312,0.0820313 -0.7265625,0.0820313 -0.9492187,0.0820313 H 4.5828828 l 1.0546875,-1.03125 c 1.5585938,-1.3710938 2.15625,-1.9101563 2.15625,-2.90625 0,-1.1367188 -0.9023437,-1.9335938 -2.1210937,-1.9335938 -1.125,0 -1.8515625,0.9140625 -1.8515625,1.8046875 0,0.5507813 0.4921875,0.5507813 0.5273437,0.5507813 0.1640625,0 0.515625,-0.1171875 0.515625,-0.5273438 0,-0.2578125 -0.1875,-0.515625 -0.5273437,-0.515625 -0.082031,0 -0.1054688,0 -0.1289063,0.011719 0.2226563,-0.6445313 0.7617188,-1.0195313 1.3359375,-1.0195313 0.9140625,0 1.3359375,0.8085938 1.3359375,1.6289063 0,0.796875 -0.4921875,1.5820312 -1.0429687,2.203125 L 3.9266328,-0.36321875 C 3.8211641,-0.25775 3.8211641,-0.2343125 3.8211641,6.25e-5 h 3.6914062 z m 0,0"
       style="fill:#000000;fill-opacity:1;fill-rule:nonzero;stroke:none"
       aria-label="-2"
       transform="matrix(1.3333333,0,0,1.3333333,206.22933,69.718667)" />
    <path
       id="path39"
       d="m 108.93547,6.73003 v -45.44831 h 59.7665 V 6.73003 Z"
       style="fill:none;stroke:#ff8000;stroke-width:0.79701;stroke-linecap:butt;stroke-linejoin:miter;stroke-miterlimit:10;stroke-dasharray:2.98883, 2.98883;stroke-dashoffset:0;stroke-opacity:1"
       transform="matrix(1.3333333,0,0,-1.3333333,26.777333,22.788)" />
  </g>
</svg>
